<svg xmlns="http://www.w3.org/2000/svg"><defs><font id="etbookboldlf" horiz-adv-x="1001"><font-face units-per-em="2048" ascent="1638" descent="-410"/><glyph horiz-adv-x="2048"/><glyph horiz-adv-x="2048"/><glyph horiz-adv-x="681"/><glyph horiz-adv-x="501"/><glyph horiz-adv-x="501"/><glyph horiz-adv-x="501"/><glyph unicode="!" horiz-adv-x="557" d="M164 1305q-2 33 0 53t21.5 37.5T242 1413h73q45 0 64.5-12t19.5-37-2-59l-69-926q-12-25-43-30t-52 30zm2-1209q0 49 32.5 81t82.5 32q47 0 81.5-32T397 96t-33.5-81.5-83-32.5-82 32.5T166 96z"/><glyph unicode="&quot;" horiz-adv-x="870" d="M129 1229q0 152 123 151 61 0 97-38.5t36-102.5q0-31-8-88-4-31-17-88l-55-299q-23-33-60.5-22.5T201 791l-49 274q-23 121-23 164zm358-10q0 162 134 161 59 0 94-38.5t35-102.5q0-65-23-178l-57-295q-16-39-57.5-32T565 768l-51 291q-2 8-14.5 67.5T487 1219z"/><glyph unicode="#" horiz-adv-x="1431" d="M63 416q2 14 11 63 0 51 65 51h162q14 0 18.5 2.5T326 549l65 307q0 6-26 6H176q-35 0-54.5 10.5T104 913q-2 12 0 25.5t6.5 29T117 991q4 39 63 43 127 4 236 0 12 0 14 10l76 355q10 49 38.5 55t69.5-6q41-4 52.5-16.5t3.5-53.5l-66-319q-2-8 4-16.5t13-8.5q47 2 174 0t172 0q16 0 18 19 53 258 68 321 6 29 9 39t17.5 22.5 40.5 14.5l47 4q39 2 50.5-20.5t5.5-71.5q0-2-68-322 2-4 27-6 27-4 66.5-3t68.5-1q49 0 47-47-2-16-16-84-6-33-68-37h-143q-10 0-16.5-4t-7.5-7-3-16.5-2-15.5l-59-278q0-10 30-11 80-2 181 0 43 0 53-4 35-10 24-53l-12-59q-6-35-23.5-44.5T1249 358q-106-4-200 0h-21.5l-11.5-7-5-9-3-18L940 4q-10-63-66-63h-59q-59 0-45 94 4 27 13.5 67.5t24.5 106T836 332q4 27-19 26-205 8-342 0-18-2-22-28L385 6q-2-14-6-24.5T368.5-35 357-45t-15-6-16.5-3-20.5-2-20-1q-74-4-74 51 0 6 3 17.5t3 15.5l66 317q2 8-1 11t-16 3H127q-23 0-34 2t-20.5 15.5T63 416zm431 125q0-4 10-6l12-3q125 6 332 0 29-2 33 19l61 289q2 12-6.5 17t-20.5 5q-184 4-325 0-25 0-27-4 0-2-4-16z"/><glyph unicode="$" horiz-adv-x="980" d="M63 223q0 39 30 70t69 31q41 0 64.5-24t43-80 23.5-64q6-14 24-33 0 2 2 6v473q-2 4-6 8-123 92-157 140-57 74-58 172 0 94 57.5 168.5T309 1202q10 4 10 23v92q8 27 62 31 31-6 43-35v-66l2-18q39 4 82 0 6 0 6 20v62q4 25 43 35h27q16 0 25-9.5t11.5-27 3.5-30.5-1-31.5-2-20.5q0-20 14-25 94-31 154.5-82t60.5-112q0-39-26.5-67T758 913q-20 0-36.5 6.5t-32 20.5-23 24.5-21.5 32-20 29.5q-2 0-4 4V700q0-23 4-26 82-51 132-90t96-114 46-159q0-115-74.5-204T625-23q-4-2-4-16 0-86 2-141 0-39-43-39h-33q-16 2-26.5 16.5T512-172l2 117q0 16-14 12-20-2-62 2-6 2-9-3t-3-17q0-86 4-111 4-35-29-47h-57q-31 10-25 45v141q0 14-14 19-125 43-176 96-66 70-66 141zm207 768q0-55 39-96 8 4 8 16l2 150-2 24q-47-37-47-94zm154-471 2-436q0-18 8-18 8-2 41-4.5t39 4.5v403q0 18-6 18-12 8-35 23t-37 25q0 6-8 0-4-4-4-15zm0 305q0-16 6-22l4-6q4-5 76-52 4 8 4 13v334q0 23-4 24-55 12-86 6V825zm194-419q2-4 3-7V131q0-23 4-22 4 0 8 2 78 53 78 155 0 82-88 146-6 2-5-6z"/><glyph unicode="%" horiz-adv-x="1425" d="M76 928q0 135 90 224t219 89 222-86 91-221-92-224-219-89q-125 0-218 88T76 928zm162 4q0-100 40.5-152.5T387 727q70 0 111 52t41 155q0 100-42 150.5T381 1135q-66 0-104.5-52.5T238 932zm8-1000 786 1352q33 39 72 21l24-11q37-12 19-61L365-111q-20-41-76-28-74 18-43 71zm459 287q0 135 90 224t219 89 222-87 91-220q-2-135-92-224t-219-89Q891-88 798 0t-93 219zm161 4q0-98 41-150.5T1016 20q70 0 110.5 52.5T1167 225q1 203-157 203-63 0-103.5-52T866 223z"/><glyph unicode="&amp;" horiz-adv-x="1562" d="M72 336q0 164 131 274 59 51 207 117 8 8 4 12-123 119-123 254 0 123 90 198t231 75q127 0 214-64.5t87-169.5q0-147-192-258-16-10-2-20 55-43 139-123 84-78 141-160 8-14 21 0 61 80 119 164 63 98 92 180 4 20 0 21-4 2-13.5 3t-13.5 1q-14 2-38.5 4t-30.5 2q-35 16-23 69 6 27 39 27h8q182-4 350 2 16 4 30.5-6t16.5-29v-26q0-37-47-41-6 0-44-3t-61.5-9.5T1366 809q-23-23-74-113-14-27-33.5-65.5T1235 586q-63-111-150-209-12-16-8-23 14-20 36-59t30-51q51-94 78.5-121t60.5-27q47 0 156 74 20 4 40.5-14.5t22.5-41-14-34.5Q1335-39 1206-39q-27 0-50 3t-44.5 12.5-36 15.5-32 24.5T1017 42t-25.5 32.5-20.5 33-21.5 39T928 184l-13 9Q677-38 451-39 293-39 182.5 69.5T72 336zm243 24q0-104 60.5-165.5T535 133q76 0 162.5 39T850 276q18 19 6 27-143 215-346 350-2 2-14-8-98-72-139.5-138.5T315 360zm179 684q0-109 116-204 6-6 17 0 92 63 92 176 0 68-33 105.5t-88 37.5q-104 0-104-115z"/><glyph unicode="'" horiz-adv-x="378" d="M72 1221q0 160 116 159 59 0 91-38.5t32-102.5q0-37-10-92-10-57-27.5-173T246 801q-2-23-16.5-41.5T186 743q-8 0-15 2.5t-11 3.5-7 4-5.5 5-3.5 7-2 9-2 11.5-1 11.5l-45 266q-23 145-22 158z"/><glyph unicode="(" horiz-adv-x="667" d="M143 492q0 252 106.5 499.5T535 1438q45 37 86-7.5t14-87.5q-61-70-125-184.5T406 936q-74-201-74-444 0-193 41-344.5T510-178q55-102 127-187 23-53-57-92-31-14-66 21Q346-243 244.5 1.5T143 492z"/><glyph unicode=")" horiz-adv-x="647" d="M16.5 1381q1.5 30 24.5 49 25 18 51.5 16t44.5-21q172-195 271.5-437.5T508 496q0-256-104.5-506T119-453q-41-33-88 2t-13 93Q159-196 250 49q74 201 74 447 0 190-41 341.5T143 1165q-61 113-110 168-18 18-16.5 48z"/><glyph unicode="*" horiz-adv-x="1093" d="M152 735q0 39 17 62.5t36.5 32T266 848q70 14 211 70 8 6 0 10-49 25-102 39-23 8-59.5 16T264 995q-57 14-84.5 37t-27.5 76q0 27 23.5 57.5T252 1196q12 0 24.5-4t20.5-8 20.5-14.5T335 1154t16-18.5 16-17.5q76-86 145-129 6 4 6 6-4 90-26 156-29 100-29 125 0 39 24.5 69.5T557 1376t69.5-30.5T651 1276q0-29-8-60.5t-20.5-69.5-16.5-59q-18-88-8-94 2-2 10-2 78 51 140 127 68 78 116 78 53 0 75-30.5t22-57.5q0-41-26-67.5t-51.5-36T806 983t-65-16q-109-31-104-47 2-12 102-46 16-4 66.5-15t77-19.5 52.5-36 26-68.5q0-33-25-59.5T872 649q-27 0-51 12.5T785.5 684t-35 40-29.5 36q-47 57-115 96-8 0-8-8 4-102 29-168 14-43 16-51 10-20 10-60 0-43-26.5-73.5T557 465t-69.5 30.5T461 569q0 35 28 111 25 66 27 166 0 8-2 10v2q-78-47-143-129-23-29-35-41t-38-25.5-56-13.5q-39 0-64.5 28T152 735z"/><glyph unicode="+" horiz-adv-x="1429" d="M135 664v57q0 27 2 36t13.5 15 39.5 6h416q23 0 23 23v397q0 39 2 45 6 27 45 27h80q29 0 39-14.5t10-49.5V797q4-4 9-9.5t9-7.5 13-2h405q35 0 45-12t10-43v-59q0-27-11-40.5t-22-15.5-36-2H825q-8 0-14-8t-6-18V164q0-39-11.5-48.5T743 106h-65q-33 2-41 14.5t-8 43.5v432q0 10-21 10H188q-33 0-43 11.5T135 664z"/><glyph unicode="," horiz-adv-x="514" d="M133 53q0 49 36 82t87 33q63 0 100-46T393 2q0-178-178-260-51-23-65-4l-15 14q-4 12 4 28.5t17 20.5q106 61 112 131 2 2 0 8.5t-4 6.5q-53-12-92 20.5T133 53z"/><glyph unicode="-" horiz-adv-x="890" d="M82 446v58q0 23 20.5 33t38.5 10h629q20 0 35.5-13.5T819 504l-4-53q-8-33-41-37-309-4-651 0-29 0-41 32z"/><glyph unicode="." horiz-adv-x="444" d="M129 80q0 49 34 77.5t87 28.5q51 0 84-28.5T367 82q0-45-33-76t-84-31-86 30-35 75z"/><glyph unicode="/" horiz-adv-x="980" d="M71.5-16.5Q55 4 74 39q115 219 338 652t338 652q23 43 68.5 47.5t86.5-8.5q29-4 36-30.5t-11-55.5L258 6q-14-27-27.5-37T208-42t-42-1-47 2q-31 4-47.5 24.5z"/><glyph unicode="0" d="M59 636.5Q59 913 185 1112t316.5 199T818 1112t126-475.5-126-475T501.5-37 185 161.5t-126 475zm217 .5q0-219 35-371 23-96 73-143t117.5-47 119 54T690 266q37 156 37 371 0 211-37 371-20 96-70.5 143T502 1198q-145 0-191-190-35-139-35-371z"/><glyph unicode="1" d="M168 971q0 25 18 41 59 41 197 168 53 49 90 90 18 33 57 41h31q37 0 47-11.5t15-48.5l2-1038v-23q0-70 55-71h76q18 0 28.5-11.5T796 88t5-31V45q-1-57-60-53Q579 2 301-6q-41-6-57 26-4 29-2 48 4 18 9 27t18.5 15.5T309 117q10 0 28.5 1t33.5 1q49 2 49 86l2 803q-2 25-6 24-2 2-6-2-78-53-170-98-31-14-58 14z"/><glyph unicode="2" d="M66 27q-4 37 18 67 98 113 252 275l56 56 58.5 59.5L502 541l51 63.5 39.5 63.5 35 72.5L646 815l9 86q0 104-48 165.5T469 1128q-86 0-159.5-61T201 901q-12-39-60-39-29 0-37 16.5T98 911q27 182 143.5 291T528 1311q168 0 264.5-107.5T889 930q0-55-23.5-113.5t-44-89.5-63.5-86q-55-72-122-142.5T473 334 340 201q-12-12 12-17h6q31 2 135.5 1t135.5-1q113 2 135 15 41 20 55 98 6 29 35 35h43q14 0 20.5-10.5T924 305t-2-24q-13-105-33-234-12-55-66-55H141q-37 0-50 6T66 27z"/><glyph unicode="3" d="M74 139q0 39 29.5 70t68.5 31q10 0 21.5-2t23.5-7.5 19.5-9.5 20.5-13 18.5-13.5T295 179t16-13q57-47 89-61.5T471 90q94 0 159.5 90T696 408q0 109-43 172t-112 63q-59 0-97-27-16-12-40.5-10T365 627q-27 39 10 71 98 74 160 136 82 84 81 159 0 61-44 104.5T463 1141q-59 0-120.5-44T238 975q-20-35-68-19-49 23-31 66 59 133 164 211t227.5 78 207.5-72 85-182q0-141-127-240-12-10 4-16 102-33 165-128t63-216q0-197-157-345.5T406-37q-125 0-228.5 48T74 139z"/><glyph unicode="4" d="M66 399v39q264 416 569 834 2 4 8 12t8 10l7.5 7.5 9.5 6.5 12 2 18 1h37q39 0 39-54V559q0-37 23-37h138.5l13.5-4 13.5-12 8.5-23q2-49 0-106-7-23-27-27-4-2-14-2H807q-27-2-27-18 0-289-2-326 0-39-49-41-12 2-96 2-61-4-62 45v314q0 6-4 11t-8 6-10 3l-4 2q-231-2-424 0-33 0-44 10.5T66 399zm210 142q-16-27 3-27h270q23 8 22 18 0 63 1 211t1 215q0 25-14 7-201-272-283-424z"/><glyph unicode="5" d="M102 119q0 41 30 70.5t71 29.5q23 0 43-6t40.5-21.5 33-25.5 36-32.5T385 104q27-23 64-22 86 0 147 85t61 212q0 125-63.5 198.5T424 651q-76 0-168-55-31-16-55-2-29 23-27 63l41 562q2 35 39 51t74 14l282-4h64q18 2 30.5 16.5T731 1311h37q39 0 31-62l-17-114q-2-4-6-14.5t-5-12.5-5-8-7-7-10.5-4.5-15.5-4.5-20-3l-359 6q-20-4-22-18l-15-221q1-18 19-12 51 16 123 16 178 0 299-124t121-304q0-195-135.5-328T403-37Q280-37 191 3t-89 116z"/><glyph unicode="6" d="M86 508q0 279 172 490.5T737 1305q49 12 66-19l10-14q10-18 0-38t-29-28q-182-80-282.5-182T360 772q-2-12 .5-17t8.5-3q63 39 180 39 158 0 262-116t104-280q0-178-114.5-305T514-37q-197 0-312.5 153.5T86 508zm221-41q0-197 56.5-298T518 68q176 0 176 307 0 147-47 223t-127 76q-70 0-190-92-23-16-23-115z"/><glyph unicode="7" d="m57 1014 11 180q2 27 32.5 56.5T162 1278q209-10 641 0 29 0 52.5-18.5T877 1210l-3-32L414 4q-18-41-70-41-12 0-78 10-29 4-38 29t1 45l443 1024q2 2 0 4t-7.5 4-11.5 2q-94-4-381-4h-75q-8 0-17-4-8-6-11-33.5t-16.5-49T106 969q-23 0-37 13t-12 32z"/><glyph unicode="8" horiz-adv-x="999" d="M102 322q0 182 211 305 8 4 11 6 12 8 2 18-193 119-193 305 0 145 110.5 248t262 103 251-90.5T856 991q0-178-164-278-12-6 4-19 227-131 228-336 0-164-123-279.5T510-37Q332-37 217 65.5T102 322zm199 2q0-111 61.5-182.5T512 70q90 0 151.5 66.5T725 303q0 84-49 137-61 61-191 131-25 12-41 0-143-96-143-247zm12 690q0-86 61.5-139.5T547 770q23-8 37 6 86 74 86 213 0 98-44 154.5T504 1200q-82 0-136.5-53T313 1014z"/><glyph unicode="9" d="M80 879q0 176 122 301t294 125q199 0 315.5-149.5T928 768q0-276-168-487T291-27q-57-18-86 27-27 41 16 66 2 0 6 2 219 94 334 233 74 92 105 207 2 12-1.5 18t-13.5 2q-72-45-188-45-162 0-272.5 116T80 879zm217 20q0-141 54.5-220T489 600q39 0 93.5 25.5T668 680q37 37 37 127 0 197-56.5 295T492 1200q-88 0-141.5-76.5T297 899z"/><glyph unicode=":" horiz-adv-x="526" d="M152 100.5q0 49.5 31.5 80T264 211t81-30.5 32-80.5q0-51-33-82.5T264-14t-79.5 32.5-32.5 82zm0 599.5q0 51 31.5 83t80.5 32 81-31.5 32-83.5q0-47-33-78.5T264 590t-79.5 31.5T152 700z"/><glyph unicode=";" horiz-adv-x="471" d="M125 74q0 51 36 85t85 34q63 0 104-50.5T391 18q0-94-57.5-174T182-274q-33-14-50 24.5t15 54.5q117 76 117 158 0 4-14 2-2 0-10.5-1T227-37q-43 0-72.5 33T125 74zm2 622q0 51 33 83t82 32 82.5-31.5T358 696q0-49-33.5-81.5T242 582t-82 32.5-33 81.5z"/><glyph unicode="&lt;" horiz-adv-x="1429" d="M133 670q-8 25 0 53 0 39 37 55 700 303 1049 436 49 18 65-5t16-74v-31q0-20-19-38.5t-38-27.5Q567 759 412 698q-4 0-5-3t3-5q424-182 850-346 41-16 40-65v-43q0-37-20.5-57.5T1210 174Q852 303 168 612q-35 16-35 58z"/><glyph unicode="=" horiz-adv-x="1429" d="M129 442v62q0 53 55 53h23q129-2 1036-2 14 0 25.5-3t18.5-11.5 10-14.5 4.5-19 1.5-20.5-1.5-24-1.5-20.5q-2-45-14-53t-43-8H205q-76 0-76 61zm8 451 4 76q10 41 64 41 33 0 459 1t573 5q27 0 42-13.5t18-29 3-39.5q0-4 1.5-18.5t1.5-22.5q0-37-23-49-10-4-51-4H199q-31-4-42.5 9T137 893z"/><glyph unicode="&gt;" horiz-adv-x="1429" d="M131 279q0 47 41 65 633 252 850 346 6 4-4 10-350 147-830 338-43 18-49 33-6 12-6 37v35q0 45 20.5 66.5t59.5 4.5q518-209 1038-432 47-20 47-57 6-33 2-55 0-25-11-38.5t-44-27.5Q905 452 223 176q-51-20-70.5 1.5T133 236q0 8-1 22t-1 21z"/><glyph unicode="?" horiz-adv-x="741" d="M76 1241q0 68 59.5 99.5T287 1372q170 0 279.5-113.5T676 969q0-203-156-314-68-45-145-73-43-14-56.5-28.5T305 518q0-45 80-139 8-12 0-29.5T365 326q-18-6-45 1t-37 21Q172 477 172 584q0 76 40 125t96.5 71.5 111.5 44 95 64.5 40 110q0 70-45 108t-131 38q-29 0-79-7.5t-75-7.5q-66 0-107.5 28T76 1241zM197 96q0 51 35.5 84t86.5 33q53 0 88-33t35-84-35-85-88-34q-51 0-86.5 34T197 96z"/><glyph unicode="@" horiz-adv-x="1966" d="M223 567q0 360 247 610t599 250q287 0 471-161.5T1724 834q0-256-153.5-453T1208 184q-162 0-161 152 0 12-1.5 13t-9.5-7Q886 184 758 184q-82 0-135.5 69T569 416q0 119 54.5 250T774 895q141 145 281 145 92 0 141-61v-2q16 37 30.5 48t55.5 13h82q43 0 43-45-8-29-55-194.5T1282 559l-37-127q-8-27-12-70-2-55 33-55 37 0 90 32t96 81q68 82 110 190.5t42 216.5q0 215-149.5 353.5T1075 1319q-291 0-496.5-224.5T373 545q0-279 187.5-457T1010-90q457 0 651 430 10 23 20.5 31t36.5 8q2 0 10.5-1t12.5-1q43-12 26-58-84-246-290.5-390T1006-215Q672-215 447.5 8T223 567zm547-127q0-41 20.5-65.5T836 350q90 0 200 146 113 147 113 346 0 43-25.5 69.5T1063 938q-55 0-117-68-74-88-125-217t-51-213z"/><glyph unicode="A" horiz-adv-x="1456" d="M16 55.5Q16 111 57 111q72 0 91.5 12t46.5 76q14 29 32 82l377 1007-12 45q-4 14 10 27.5t39 15.5h94q59 0 80-30 94-248 186.5-490t131-344 59.5-152q20-53 57-155 23-66 43.5-83.5T1372 104h14q39 0 39-57 0-23-9-40-8-15-27-15h-5q-128 6-280 6-121 0-258-4-27-2-36 15.5T801 55q0 55 63 56 20 0 47 1t37 1q43 2 54.5 18t-3.5 55q-25 63-68.5 181T862 549q-6 12-33 12H522q-12 0-30-22-41-115-125-342-10-20-11-56 0-33 87-33 16 0 34 1 25 4 43 0 12-2 22.5-20.5T553 47q-2-20-14.5-36.5T516-6Q349-3 240.5-3T82-6H55Q16 0 16 55.5zM563 729q-1-2-1-4 0-4 6-6 10-2 24-2 49 1 93.5 1t84.5-1q8 0 16 7 6 6 5 10l-97 286q-2 8-7 10-2 1-4.5 1t-4.5-1q-4-2-6-4-20-61-62.5-175T563 729z"/><glyph unicode="B" horiz-adv-x="1343" d="M36 48q5 52 27 61 43 6 56 2 111 0 136.5 28.5T281 285v757q0 131-29 160-20 20-119 21H86q-24 0-24 50 0 58 22 60 172 18 594 19 127 0 185.5-11.5T999 1294q88-39 140.5-112.5T1192 1020q0-80-46-147.5T1024 766q-16-8 2-16 113-53 178.5-140.5T1270 416q0-143-95.5-260T940 12Q834-9 714-9q-24 0-48 1-158 3-307 3T70-8Q35-4 35 37q0 5 1 11zm492 323q0-104 11-156 8-49 51-72.5T731 119q121 0 198 82t77 202q0 78-38 144.5T864 653q-35 20-79 31-45 10-69 12-12 1-33 1t-51-1q-60-2-77-2-27-8-27-39V371zm0 454q0-18 29-18 15 0 61-1h66q20 1 61 4t61.5 10 49.5 22.5 43 36 24.5 53.5 10.5 76q0 118-80 186-60 50-148 58-35 3-67 3-49 0-92-8-18-8-19-26V825z"/><glyph unicode="C" horiz-adv-x="1560" d="M98 649q0 315 215 514t553 199q25 0 46.5-1t44-4 37-4 39-7.5 34.5-8.5 36.5-11 36-11 42-13.5 43.5-15.5q41-14 57 0 12 10 45 7t37-21q21-87 21-157 0-14-1-28 0-2-1-62t1-60q-8-33-46-41.5t-56 18.5q-104 301-403 301-233 0-368.5-147.5T375 692q0-264 149.5-434T907 88q178 0 314 123 41 37 61.5 62.5T1337 362q10 18 39 24 28 7 50-4 17-9 17-26 0-5-1-10-54-176-152-336-39 8-57 8-57 0-150-28-90-29-239-29-326 0-536 194.5T98 649z"/><glyph unicode="D" horiz-adv-x="1583" d="M20 76q10 28 35 37 12 2 44 3t48.5 4 35 16.5T209 174q8 23 8 113v755q0 129-16 152-20 29-131 29H51q-28 0-28 45 0 54 22 61l18 4q401 16 596 17 199 0 331-34t245-112q254-180 254-497 0-229-143.5-418T975 37Q821-6 571-6L88-8Q42-8 26 20 16 37 16 53q0 12 4 23zm443 147q0-68 22.5-90T596 111q293 0 460 136t167 429q0 143-52.5 261.5T1026 1126q-63 49-130 73t-183 36q-64 6-133 6-42 0-86-2-10-2-20.5-11t-10.5-18V223z"/><glyph unicode="E" horiz-adv-x="1267" d="M37 58q8 54 41 57 14 2 88 2 78 2 102.5 30.5T293 287v753q0 106-23.5 142.5T158 1219h-26l-8 1-7 2-7.5 2-7.5 3-7 5-6 7-5 10q-5 9-5 20 0 18 13 42 10 20 53 20 328 2 551.5 2t343.5-2q53 0 60-39 8-66 11-118t4-96 3-60q-2-18-29.5-25.5t-50.5.5q-29 4-28 39-18 115-48 139.5T817 1198q-109 4-179 4-46 0-75-2-8 0-17-8t-9-18V776q0-20 26-20h211q109 0 130.5 16T940 887q4 14 25.5 21t45-3 29.5-41q2-45 2-111.5t-1-142-1-102.5q0-31-25.5-42t-50-4-28.5 25q-14 92-36.5 110.5T768 616l-199 2q-33 0-32-30V274q0-63 2-84 2-29 12-38 16-16 125-17h145q109 0 142.5 7.5T1018 176q45 49 69 152 6 29 37 37 8 1 15 1 45 0 55-22 5-10 5-34.5t-5-63.5q-2-23-11-90.5T1167 43q-6-47-100-47-225 2-428 2Q336-2 84-6L74-4Q36 3 36 42q0 8 1 16z"/><glyph unicode="F" horiz-adv-x="1112" d="M76 1283q2 48 37 48h6q215 2 430 2l430-2q20 0 36.5-18.5t16.5-38.5l-6-227q-23-15-50-15-14 0-30 4-23 4-22 35-6 80-39 101.5T725 1194H514q-37 0-41-23l-2-358q0-12 5-18.5t9-8.5 15.5-4 13.5-2q26-2 80.5-2t136.5 2q106 0 129 12.5t29 73.5q4 33 50 38 5 1 10 1 36 0 40-33V514q-4-23-48-31-7-1-14-1-31 0-36 32-8 90-34 110-24 18-115 17h-19q-53-2-107-2t-108 2q-12-2-23.5-11T473 612V217q0-70 23.5-90.5T600 106h23q32-4 32-56 0-23-10-39.5T618-6Q494-3 368-3T115-6h-3Q77-6 77 42q0 55 29 60 80 4 102.5 24.5T231 217v893q0 68-24.5 88.5T106 1223q-31 7-31 53 1 3 1 7z"/><glyph unicode="G" horiz-adv-x="1562" d="M102 643q0 152 64.5 290T342 1176q109 100 226.5 145t279.5 45q133 0 338-61 35-10 57-11 14 0 27 13 8 12 35.5 12t33.5-14q10-16 13-151 2-49 2-91 0-71-4-119-2-39-47-39h-5q-49 2-55 33-66 315-364 315-240 0-375-159.5T369 653q0-258 134-416.5T856 78q115 0 252 61 12 4 12 45v201q0 70-25.5 90.5T985 498l-78 2q-10 0-20 10t-15.5 25.5-5.5 32 10.5 28.5 30.5 14q68-2 172.5-2t225 1 159.5 1h3q39 0 39-42 0-7-1-15-10-41-12-43-16-12-41-8-63-8-77.5-26.5T1358 387q-2-53-2-109t2-116q0-57-29-74-109-53-260-90T791-39q-301 0-495 193.5T102 643z"/><glyph unicode="H" horiz-adv-x="1613" d="M42 79q9 32 42 34h39q63 4 83.5 22.5T227 217v893q0 66-20.5 88.5T125 1225h-12q-23 2-29 28.5t5 52 28 25.5q128-6 248.5-6t234.5 6q10 2 35-12 12-12 12-39 0-12-2-27-6-23-45-26-78 0-105.5-26.5T467 1110V768q0-31 25-31h299q150-1 229-1t86 1q39 10 39 35v338q0 51-25.5 77.5t-55.5 32-79 7.5h-16q-27 4-34 32.5t1 47.5q16 30 53 30h2q22 1 52 1 77 0 210.5-4t201.5-4q27 0 44 1 27 0 43.5-23.5t10-51-34.5-33.5q-6-2-19-2-57-6-85-28t-30-83q-2-135-2-307t1-352.5 1-233.5q0-57 29-79.5t105-22.5q70 0 71-54 2-45-35-63-8-4-16-4H965q-41 0-47 33-8 25 3 55.5t42 30.5h49q76 0 104.5 21.5T1145 217v371q-2 14-37 14H487q-2 0-6-3t-9-10-5-16V217q0-68 22.5-87T590 111h18q27 2 41.5-25t4-57.5T610-6H96Q55-6 45 20q-7 15-7 32 0 13 4 27z"/><glyph unicode="I" horiz-adv-x="743" d="M92 45q0 55 31 61 8 2 27 3 63 8 81.5 27.5T252 217l2 70v753l-2 70q-2 72-17.5 89.5T150 1225q-16 0-29 6-21 13-21 41 0 8 2 17 8 42 41 44h13q173-2 285.5-2t164.5 2q49 0 53-41 4-24-6-47-12-20-51-20-80-2-97.5-28T487 1040V217q0-72 27-92 12-8 104-14 30 0 42-27 7-15 6-31 0-15-4-29-10-32-35-32-123 4-245.5 4T137-8q-20 0-32.5 15.5T92 45z"/><glyph unicode="J" horiz-adv-x="663" d="M-195-446q0 45 32 79.5t77 34.5q14 0 29.5-6t23.5-12 24.5-19.5T12-387q43-33 47-35 25-12 59-1t52 38q29 43 38 120t9 288v962q0 82-2 123-2 72-25.5 92.5T86 1221q-6-2-18.5 1t-14.5 3q-33 2-33 57 0 20 12 36 12 13 32 13h6q25 0 43-2 25 0 183 2 78 1 149 1t135-1q45-2 45-45 0-51-27-57-13-6-31-6-12-2-35-2-80-6-79-113V154q0-141-35-299T317-403Q196-591 20-592q-90 0-152.5 39T-195-446z"/><glyph unicode="K" horiz-adv-x="1515" d="M32 61q5 37 40 50 16 4 47 0 66 0 98.5 23.5T250 217v893q0 70-25.5 92.5T117 1225H76q-31 2-39 35.5t4 48.5q8 26 44 26h3q205-5 353-5 111 0 190 3 49 0 49-53 0-55-57-55-84 0-109-22.5t-25-92.5V707q0-8 7-9 27 10 63 43 92 78 208 232.5T883 1198q0 14-11.5 17.5T799 1225l-37 4q-25 20-25 49 0 14 6 31 10 29 48 22 146-4 271-4t230 4q31 0 44.5-26.5t0-53-44.5-22.5q-98-2-155.5-25.5T1034 1118q-12-16-59-90-117-176-238-317l-4-4q23-14 94-80 57-55 114.5-121T1070 351t106-128q61-74 106-93t137-19q35 0 47-23 9-12 9-31-1-10-3-22-8-35-42-41-36 3-148 3-149 0-434-5-33 8-43 24-12 25-3 55.5t40 30.5q20 2 35.5 4.5t37 9.5 21.5 19-12 33q-8 10-46 59t-50.5 63.5-46 56.5-53 62.5T678 462t-60.5 55.5T557 563q-29 20-59 27-8 0-9-45V217q0-61 27-84.5T623 109q45 0 57-25 9-20 9-38t-9-34q-8-20-47-20-125 5-259 5T98-8H86Q55-8 43 8 31 20 31 45q0 7 1 16z"/><glyph unicode="L" horiz-adv-x="1218" d="M34 80q7 33 34 35h26q127 0 142 65 4 45 4 115v815q0 70-25 90.5T106 1223H82q-27 2-33 38.5t4 51.5q16 27 51 20 84-2 193-2 163 0 379 4 41 0 49-32 5-18 5-33 0-47-50-51-41-4-66-5-92-4-114.5-17t-22.5-67V221q0-49 27.5-67.5T590 135h170q115 0 155.5 18.5T1024 260l74 96q22 8 38 8t27-8q13-6 17-18 4-10 3-17 0-8-3-14-86-205-125-268-35-47-82-47-260 4-555 5H310Q116-3 88-6h-7Q48-6 37 27q-6 12-6 28 0 11 3 25z"/><glyph unicode="M" horiz-adv-x="1929" d="M45 25q-5 13-5 26 0 15 7 29 14 27 45 24 12-1 23-1 53 1 75 17 28 20 35 77 4 41 6 92 6 92 21.5 271t24 322.5T285 1155q0 45-28 54.5t-63.5 10.5-46.5 23q-10 25-4 51 7 39 43 39h7q71-4 157-4 57 0 121 2 53 0 68-33l419-938q6-6 11.5-.5T983 381l403 915q20 35 70 35 68-2 137.5-2t139.5 2q27 0 40-25.5t4.5-53-34.5-29.5q-6-2-37-4t-45-7q-31-10-31-53 0-25 4-82l56-784q8-131 31.5-159t101.5-28q12 0 21-2t15.5-4 10.5-7 6-9 3-12.5 1-12.5V29q-6-35-51-35-74 5-229 5-117 0-279-3-51 0-55 31-4 14 0 45 2 14 19.5 24t35.5 10q41 0 67.5 8.5t41 14.5 20.5 31.5 7 36-2 52.5-3 56q-4 109-41 674-2 23-16-12-2-7-4-11L977 10q-8-23-50-23-1 1-2 1-44 0-53 22L442 961l-14 24-43-690q-4-78-4-98 0-47 22.5-66.5T502 104q41 0 51-32 3-15 3-28 0-38-32-46-4-2-11-3t-11-1Q386-1 270-1L96-4q-4 0-12 1T72-1 61.5 3 51 11t-6 14z"/><glyph unicode="N" horiz-adv-x="1708" d="M66 79q12 30 51 30 131 0 131 94v991q-45 27-148 31-12 0-20 17.5t-8 37.5q0 49 53 53 37 3 96 3 31 0 65-1 106-2 128-2 39 0 65-30l797-895h-2q27-31 26-2v636q0 133-18 152-12 12-45 18-16 2-53 4.5t-56 4.5q-25 0-36 28.5t-.5 56 38.5 27.5q62-3 162-3 133 0 332 5 29 0 35-59 2-51-49-51-109-4-127.5-22.5T1464 1075V29q0-43-58-49-13-1-23-2-38 0-50 18-178 201-468 527.5T436 1008q-4 2-10 8-8-6-10-15V297q0-98 10-129 8-23 25.5-35t30-14 44-2H563q51-4 60-27 15-22 5-60-9-36-44-36h-4Q440-3 333-3 190-3 106-8q-27-2-40 28-7 15-7 30 1 14 7 29z"/><glyph unicode="O" horiz-adv-x="1693" d="M92 639q0 313 214 520t544 207q324 0 532.5-190.5T1591 694q0-311-213-522T846-39q-324 0-539 194.5T92 639zm268 53q0-264 146.5-438T881 80q236 0 339 152.5T1323 633q0 274-146 445t-384 171q-195 0-314-152.5T360 692z"/><glyph unicode="P" horiz-adv-x="1181" d="M41 1276q0 53 35 55 162 18 463 19 168 0 272-27 137-35 220-134t83-231q0-197-141-310T590 535q-45 0-88 6-4 2-6-2t-2-19V217q0-59 20-83 19-22 66-21h8q10 0 35.5 2t40.5 2q51-2 65-25 10-18 8-47-2-23-14-40-11-15-29-15h-4Q542-4 387-4 263-4 135-8 96-8 80 14q-10 18-8 37 2 49 13 56.5t67 7.5q70 0 84 9t14 52v914q0 94-13.5 117.5T178 1231q-8 0-31.5-3t-37-3-30 3-26.5 15-12 33zm453-596q0-29 22-35 31-6 62-6 139 0 208.5 85T856 963q0 183-125 249-67 34-157 34-28 0-58-3-23-2-22-31V680z"/><glyph unicode="Q" horiz-adv-x="1683" d="M78 639q0 309 218 518t548 209q324 0 526.5-191.5T1573 688q0-231-133-416.5T1085 2q-8 0 0-4 100-47 248-170 92-78 154.5-106.5T1642-309q26-8 26-28 0-15-13-36-25-45-56-51-59-12-106-12-223 0-494 225-35 29-78.5 68T860-92q-25 18-96 47-307 27-496.5 217T78 639zm268 47q0-266 149.5-443T872 66q135 0 236.5 88T1255 367t45 262q0 279-138 448.5T788 1247q-201 0-321.5-153.5T346 686z"/><glyph unicode="R" horiz-adv-x="1425" d="M30 74q10 28 42 32 6 2 22 3h19q80 0 103.5 22.5T240 217v825q0 82-2 109-2 37-17 51-16 23-149 25-36 0-36 49 0 44 30 57 168 16 505 17 102 0 194.5-18.5T944 1271t136-123 50-194q0-109-55-203T928 604q-8-4 4-26 33-49 69.5-104.5t81.5-123 70-104.5q49-72 123-127 39-33 104-45 28-22 28-48 0-18-13-38-18-13-45-17-14-2-43-2-205 0-318 129-68 76-174 240-18 29-47 84t-41 76q-14 37-29 34-78-6-156-6h-38q-8 2-13.5-9t-5.5-15q0-182 2-285 4-66 28-85t99-19q25 6 52.5 1T705 80q3-17 3-31 0-55-51-55-37 0-165 2-85 1-158 1h-70Q162-4 96-8L63-6Q44-6 32 20q-6 15-7 30 1 12 5 24zm455 585q0-6 4.5-12t8.5-8l4-2q44-2 78-2 68 0 94 8 90 31 141 114t51 185q0 150-68.5 226.5T551 1245q-66 0-66-24V659z"/><glyph unicode="S" horiz-adv-x="1050" d="M104 339q0 15 18 23 20 10 45.5 8.5T203 358q31-92 61.5-139t81.5-82q76-53 154-53 104 0 164.5 57.5T725 287q0 33-9 62.5t-30.5 57-39 48-52.5 47-52.5 39-58.5 39-51 32.5q-72 47-117 83t-98 89.5-79.5 116T111 1034q0 145 106.5 238.5T489 1366q63 0 175-35 49-16 65-16 8 0 10 6l13 8q20 8 51 4 14 2 21-7t10-26q31-236 32-258-2-33-24.5-40t-44 2.5T772 1022q-92 229-264 229-84 0-128-43t-44-114q0-117 239-277 10-8 17-12 88-59 130-90t109.5-93.5 97-130T958 346q0-168-123.5-276.5T518-39q-68 0-213 43-43 12-53 12-4 0-16-16-20-14-52-9t-37 34q-43 261-43 314z"/><glyph unicode="T" horiz-adv-x="1394" d="M92 1354q23 25 53 25 3-1 5-1 34-2 43-24 8-20 92-21 205-2 413-2t418 2q66 0 76 2 14 4 20 19 9 21 44 21 13 0 30-3 25-4 29-37l31-331v-5q0-19-14-28-16-10-34-10-51 0-59 47-25 119-48.5 151.5T1122 1192H852q-27 0-27-51V217q0-55 23.5-77.5T954 117h58q35 0 47-34t2-58q-12-31-53-31-100 4-233 4-166 0-382-6-35 0-45 28-5 16-5 32t5 32q10 16 17.5 19t25.5 8h80q35 0 53.5 4t36 29.5T578 217v930q0 45-35 45H285q-47 0-73-38t-52-175q-19-12-42-12-11 0-24 3-35 9-35 33 0 89 33 351z"/><glyph unicode="U" horiz-adv-x="1669" d="M41 1258q-4 12-4 22 0 19 12 33 14 18 45 18h514q39 0 50.5-26.5t-1-54T627 1223h-19q-84 0-107.5-20.5T475 1110q0-16-1-45t-1-43V635q0-115 18.5-201T553 277.5 676 170t194-37q281 0 367 223 31 80 31 267v360q0 160-28 199t-136 43q-31 8-37 24-7 14-7 29.5t7 32.5q10 20 37 20 110 2 233 2t258-2q39 0 39-51 0-45-37-53-109-4-138-43t-29-193V625q0-129-6.5-196T1376 273t-123-160q-92-82-187-117T823-39q-408 0-551 309-31 70-39 128.5T225 606v518q0 29-4 47.5t-8 28.5-19.5 15.5-23.5 6.5-39 1H84q-33 3-43 35z"/><glyph unicode="V" horiz-adv-x="1558" d="M41 1247q-5 13-5 25 0 15 7 28 8 31 53 31 137-4 270.5-4t262.5 4q51 0 61-14 14-19 14-39 0-13-6-27-6-16-39-32-109-8-129-13-35-7-35-44 0-17 7-40 12-29 18-45l301-737q4-8 11.5-13t11.5 3l280 729q27 66 29 98v7q0 45-47 57-20 4-92 4-31 0-45 24-9 17-9 32 0 17 11 34 12 17 38 17 5 0 11-1 58-4 173-4t288 4h4q42 0 41-44 0-54-37-58-78 0-115-36t-86-159L883 2q-6-14-22.5-31.5T827-49q-13-2-29-2-24 0-55 4-31 6-45 45L264 1065q-29 72-57.5 105.5t-52 40T82 1219q-31 6-41 28z"/><glyph unicode="W" horiz-adv-x="2224" d="M26 1284q6 47 50 47 315 0 499 2 41 0 50-26 6-31-4-60-8-20-41-20-51 0-64.5-8.5T502 1192q0-29 37-119l309-760h-2q16-23 26 6l162 392q12 31 4 57l-143 332q-37 88-64.5 106.5T696 1229q-27 4-27 59 0 45 29 45h2q184-4 393-4t441 4q18 2 43-10 18-12 17-48t-19-46q-8-4-29-4-92-2-121.5-22.5T1360 1098l-100-242q-8-18 0-39l219-518q10-29 20 0l307 793q28 72 28 101 0 9-3 15-12 20-100 23-27 4-33 30.5t8 50 37 21.5q51-4 137-4 108 0 270 6 18 0 30.5-15t14.5-36q0-55-45-55-82 0-115.5-26.5T1960 1065L1550 10q-16-39-39-43-36-5-64-5-57 0-75 22-2 4-6 14t-6 12l-213 500q-14 33-29-4L913 12q-16-41-51-49-20-5-43-5-30 0-65 9-29 10-43 49L305 1034q-53 135-82 158-10 10-30.5 15t-34 6-40 2.5T88 1217q-27 0-41 8-22 10-22 44 0 7 1 15zm1072-62q-2-1-2-7 0-7 2-19 2-8 15-42t27.5-68.5 16.5-41.5q6-14 11.5-14t11.5 14q20 45 57 154 1 5 1 9 0 18-28 20h-84q-24-2-28-5z"/><glyph unicode="X" horiz-adv-x="1607" d="M45 51q0 16 11.5 33.5T86 104q82 6 126 26t85 73q27 33 362 452 6 12 7.5 15.5t-5 11.5-6.5 10l-280 355q-88 117-129 139-39 25-150 26-12 0-29.5 11.5T45 1249q-4 20-4 34.5t4 23.5q10 27 45 27 6 0 12-1 132-6 263-6 153 0 303 8 41 0 53-28 6-6 4-33t-14-39q-25-8-41-8l-86-4q-25-2-11-33 10-27 45-70l197-258q2-2 8 1t11 7l4 4q178 233 219 293 20 31 14 43.5t-43 12.5q-68 0-80 10-16 14-17 44t15 42q12 12 37 12 432 0 473 2 31-4 41-30.5t-2-51-39-24.5q-113-6-183.5-61.5T1108 989L924 748q-10-12 0-25 35-39 82-97.5t92-116.5 84-110.5 65.5-87.5 26.5-37q10-12 30.5-40.5t26.5-36 22.5-25.5 26-23.5T1407 132t36.5-15 44-9.5T1546 98q37-4 37-53 0-16-10-33.5T1540-4q-82 2-278.5 2T995-6q-4-1-9-1-24 0-36 21-12 23-4 54.5t29 31.5h26q70 0 70 19-2 27-55 98L786 524q-14 20-20 20.5T748 528q-4-6-7-8L481 199q-41-51-41-70 0-10 11-16 20-12 88-13h18q27 0 39-26.5t2-53T561-6Q344-2 216-2 131-2 86-4 68-6 56.5 13.5T45 51z"/><glyph unicode="Y" horiz-adv-x="1490" d="M23 1253q-2 8-2 17.5t2 19.5q9 42 37 42 4 0 8-1 194-3 329-3t211 3q23 0 37-26.5t4-54-47-27.5q-59 0-74-2-31-6-18-41 10-25 47-82l254-383q6-10 7-12.5t6-5.5 10.5 2.5T846 715l217 358q55 92 55 121 0 18-15.5 24.5t-72.5 6.5h-24q-14 6-23.5 32.5t.5 50.5q9 23 40 23h5q86-3 195-3t241 3q41 0 41-51 0-53-39-53-31-2-56.5-8.5t-48-21.5-35.5-24.5-33.5-37-26.5-36.5-27.5-46-26.5-43L915 516V217q0-57 30-77.5t91-24.5q53 0 64-6 20-10 20-62 0-55-45-55-236 4-388 4-101 0-165-2-39 0-53 26-10 29-2 60 8 20 22.5 29.5T515 119t34.5-1 34.5-1q45 2 63.5 26.5T670 219q5 81 5 158 0 58-3 115l-367 563q-70 109-109.5 137.5T72 1225q-41 0-49 28z"/><glyph unicode="Z" horiz-adv-x="1443" d="M63 53q4 25 15 39l835 1084q2 2 3.5 7t1.5 9v2H504q-145 0-180-28.5T272 999l-2-10q-2-10-27.5-14t-51 4-25.5 29q0 201 10 286 8 27 64 37h958q51 0 62-20 12-18 12-36.5t-12-37.5L412 147q-4-4 2-6t18-3 19.5-1H936q154 0 201 53.5t63 210.5q2 12 3 16.5t7.5 9.5 20.5 5h49q35 0 35-26-6-174-29-369-4-18-33.5-29.5T1204-4q-61 0-287.5-1T565-6q-98 0-201.5 1t-169 1H125q-25 0-45 14-17 11-18 34 0 4 1 9z"/><glyph unicode="[" horiz-adv-x="690" d="M203-408v1758q0 35 13 47t48 16q10 4 129 1t129-3q45 0 45-27v-41q0-29-35-32-113-10-120-15-14-10-15-43V-313q0-31 12.5-37t71.5-10l54-5q33-2 32-43v-32q0-8-3-13.5t-10-7.5-12-2-15.5-1-14.5-1q-127-8-250-4-59 4-59 61z"/><glyph unicode="\" horiz-adv-x="980" d="M74 1321q-14 29 4 44t51 15h64q25 0 34-1t19-10 20-30L901 47q33-70-33-76l-84-10q-27-2-40 8.5T719 4z"/><glyph unicode="]" horiz-adv-x="702" d="M55-397q0 20 29 28 10 2 35.5 4.5T150-362q29 2 41 4t23 13 11 34q6 1174 0 1568-2 20-5 29.5t-10 13-28 5.5l-92 6q-35 4-35 30v37q0 35 33 35h23q20 0 75.5 1t100.5 1 71-2q35-2 48.5-19.5T420 1339V-408q0-57-64-61-174-6-260 0-41 4-41 39v33z"/><glyph unicode="^" horiz-adv-x="1005" d="M49 766q238 408 416 674 6 16 22 16h39q16 0 27-16 266-428 414-682 16-37 3-52.5T930 688q-41-8-66.5-3T815 727q-123 215-291 477-18 27-37 0-90-139-294-485-23-35-72-35-55 6-60 8-43 16-12 74z"/><glyph unicode="_" horiz-adv-x="1071" d="M-8-385q0 2 2 8t6 7 11 3 20 2q256-2 1016-2 37 0 36-32v-47q0-27-18-29H39q-12 0-20.5 1T5-471t-8 3-4 6-1 7v70z"/><glyph unicode="`" horiz-adv-x="712" d="M138.5 1325.5Q158 1346 180 1346l148 2q39 0 55-25 51-129 96-305 2-35-32-41t-52 12q-92 117-256 289-20 27-.5 47.5z"/><glyph unicode="a" horiz-adv-x="862" d="M47 172q0 160 227 219 63 16 183 70 10 10 10 18l-2 125q-2 156-111 156-27 0-59.5-23.5T262 692q0-31 8-51-16-18-67-43t-70-31-33-6q-41 0-41 55 0 78 134 183 111 84 200 84 68 0 135.5-34T633 762q27-37 33-67.5t6-125.5V213q0-35 3-51.5t7-20.5 12-4q33 0 70 31 14 10 33 10 29-4 35-32 2-10 2-19 0-16-7-29Q688-25 598-25q-94 1-119 99v-2Q407 17 364.5-4T262-25q-92 0-153.5 55.5T47 172zm197 25q0-37 24.5-61.5T332 111q25 0 73 30.5t60 55.5v135q0 6-4 12-3 4-6 4h-2q-29-14-115-51-94-35-94-100z"/><glyph unicode="b" horiz-adv-x="1011" d="M12 1354q0 39 27 47l244 82q15 4 26 4 39 0 39-53V795q0-21 2-25 2 2 22.5 16.5t27 18.5 26.5 17.5 30.5 18.5 29 15 30.5 15.5 28.5 11.5 31 8 28.5 2q145 0 245.5-124T950 475q0-215-135-360.5T471-31Q365-31 188 8q-31 10-34 55 3 248 3 532.5t-3 604.5q0 20-1 44t-1 28q0 14-27 18-14 2-86 17-27 8-27 47zm336-901q0-182 14-236 12-55 55.5-87T522 98q100 0 164 85t64 229q0 145-64 232t-158 87q-57 0-172-82-6-4-6-47-2-39-2-149z"/><glyph unicode="c" horiz-adv-x="888" d="M51 397q0 203 147.5 345.5T553 885q102 0 180-38t78-108q0-39-26.5-66.5T719 645q-61 0-139 76-49 47-99 47-88 0-156.5-95T256 442q0-143 70.5-229T506 127q135 0 215 115 13 36 44 36 8 0 17-2 25-12 33-38 2-9 2-17 0-18-12-31Q666-25 436-25 268-25 159.5 96T51 397z"/><glyph unicode="d" horiz-adv-x="1067" d="M39 401q0 207 136 349.5T512 893q68 0 158-27 4-2 6 0t3 7.5 1 10.5-1 11-1 8q2 63 2 205.5t-2 177.5q0 14-4 17-12 6-109 14-31 4-35 45v8q0 40 37 47 162 53 250 84 16 7 28 7 11 0 19-8 14-15 15-40V254q0-68 4-80t28-12q14 0 60 18 25 8 39 3t22-33q4-11 4-23 0-8-2-18-4-23-18-29Q901 25 750-20q-11-3-20-3-24-1-36 21-16 27-16 58v7q0 8-4 13.5T664 78Q500-31 395-31 245-31 142 96T39 401zm207 62q0-147 65.5-239.5T469 131q82 0 199 78 8 8 8 29v395q-96 135-209 135-98 0-159.5-82T246 463z"/><glyph unicode="e" horiz-adv-x="874" d="M43 414q0 199 123 332t309 133q219 0 305-185 33-66 56-94 7-14 7-28 0-12-5-24-10-26-45-28-75-3-206-3t-317 3q-29 0-28-57 0-143 77.5-235.5T514 135q129 0 231 119 20 23 52 16 20-4 32.5-28.5T829 197Q626-30 434-31 266-31 154.5 99T43 414zm223 217q4-6 27-6h276q11 0 19 4 6 3 6 8 0 139-164 139-106 0-164-145z"/><glyph unicode="f" horiz-adv-x="663" d="M41 731q-6 20-6 35 0 29 20 43 129 37 135 53 2 6 3 21 0 8 1 29.5t1 39.5q6 123 36.5 203T342 1323q154 166 330 166 59 0 130.5-25.5T907 1391q8-14 8-35 0-28-43-94-20-33-50-33-27 0-62 28-88 74-178 74-53 0-96.5-31.5T422 1214q-27-75-27-176v-14l2-129q0-27 13-27h139q41 0 47-20l4-8 14-101q-4-23-13-30t-34-7l-166 3q-4 0-4-25V276q0-123 17-145 10-14 45-19 24-4 46-4h21q31 3 54 1 41-2 45-62 0-18-11.5-35.5T586-6Q434-1 308-1T84-6h-4Q65-6 56 10 45 27 45 47q0 14 6 31 13 26 52 26h3q57 0 70.5 28T190 283v407q0 12-12 19H84q-37 0-43 22z"/><glyph unicode="g" horiz-adv-x="995" d="M47-272q0 84 41 132t123 99q6 4 8 9t-2 7Q84 30 84 135q0 8 2 16.5t6 15.5 8 12 12.5 12.5T126 203t15.5 9 14.5 8 14 8 12 8q39 20 58 32l-4 13Q99 369 98 528q0 150 104.5 250.5T457 879q137 0 221-84h6q43 0 178 22 33 4 47.5-3t16.5-38q6-106 6-108-10-43-41-43-10 0-52 5t-55 5q-8 2-8-14 10-33 10-76 0-143-102-233.5T428 221q-43 0-76 8-6-8-14-15t-18.5-15.5T303 186q-26-22-26-35 0-12 20-18 51-14 203-14 55 0 83.5-1t83-6.5 86-14.5T825 69.5t62.5-44 38-66.5 16.5-92q0-162-164-270.5T391-512q-119 0-231.5 65.5T47-272zm193 53q-2-61 74.5-105.5T502-369q94 0 184 60t90 123q0 57-41 84.5T575-66q-45 4-114.5 4.5T356-59q-8-10-27.5-27.5T303-113q-63-63-63-106zm51 788q0-113 46-175t111.5-62T555 383t41 149q0 106-48 172t-116 66q-59 0-100-55.5T291 569z"/><glyph unicode="h" horiz-adv-x="1077" d="M28 1358q0 37 27 47 115 47 260 88 13 4 24 4 42 0 42-59V836q0-2 1-7.5t2-12.5 4-11 5-2q139 88 269 88 186 0 233-156 29-84 29-227 0-59-6.5-179T911 147q0-27 15.5-31.5t87.5-4.5q31 0 39-13.5t12-46.5v-7q1-16-7-30-10-18-26-18-75-1-161-1h-89Q645-4 606-4q-45 0-55 53 0 57 41 57h10q63 0 78.5 12.5T702 178q14 121 15 271 0 127-10.5 176T670 702q-41 45-107 46-20 0-37.5-3.5t-37-12.5-28.5-13-34-19.5-31-19.5q-14-8-14-68V199q2-68 15.5-81.5T465 104q47 0 51-36V33q0-40-35-40-5 0-10 1-26 1-75.5 1t-124-1-126-1T66-6h-2Q45-6 31 25q-8 16-8 32 0 17 10 33 4 8 33 14 4 0 13 1t13 1q55 4 68.5 30T174 283v911l-2 74q0 27-31 32-12 2-38.5 5.5T61 1311q-33 2-33 47z"/><glyph unicode="i" horiz-adv-x="559" d="M37 45v10q0 45 35 47 98 8 110 31 8 12 11 45v447q0 66-7 77l-30 11q-39 8-80 22-25 10-25 43t19 45q147 55 243 86 18 6 32 6 46 0 46-69V268q0-74 2-100 2-43 11.5-51t60.5-8q4 0 8 1 43 0 49-42V31q0-37-42-37h-9q-47 3-145 3T78-6Q47-6 37 45zm108 1192q0 51 35 85t86 34q53 0 87-34t34-87q0-49-36-81t-87-32q-53 0-86 33t-33 82z"/><glyph unicode="j" horiz-adv-x="512" d="M-223-362q0 47 25.5 86.5T-131-236t98-67q45-55 99-55 51 0 77.5 47T170-141v768q0 63-7 74.5T111 723q-12 4-34 8t-26 6q-27 10-24.5 46T47 827q94 41 250 93 37 14 53.5-9.5T367 860V59q0-137-7-198.5T326-264q-27-68-86-133Q146-499-8-500q-90 0-152.5 37T-223-362zm340 1579q0 49 35.5 82.5T240 1333q53 0 86.5-33.5T360 1217q0-51-34.5-85t-85.5-34q-53 0-88 33.5t-35 85.5z"/><glyph unicode="k" horiz-adv-x="1060" d="M18 1362q2 20 27 31 76 27 238 86 17 6 30 6 42 0 41-62V618q4-31 8-30l211 153q25 16 31 23 10 10-10 14h-41q-47 6-47 49v7q4 47 49 47 53-1 112-1 118 0 259 3 23 0 33-17.5t10-36.5q0-16-10.5-35.5T936 774q-119-2-236-88-80-61-200-143-4-10 0-15 301-307 362-366 35-37 57.5-49.5T985 100h25q22-10 28-36 2-9 2-18 0-16-7-30-11-22-29-22-89 5-197.5 5T571-6q-23 0-30 16-8 14-9 51 0 23 11.5 31t40.5 8q27 0 35 5.5t1.5 15.5-28.5 33L369 391q-10 10-13.5 7t.5-17h-2q0-115 2-182 0-59 4-72 10-25 48-25h53q31 0 31-55 0-53-33-53-148 3-247.5 3T59-6Q36-6 29 10 19 30 19 50q0 16 6 32 12 23 49 22 59 0 70.5 25T156 283v878q0 49-2 74 0 31-9.5 39t-44.5 16q-2 0-22.5 5t-26.5 5q-34 8-34 46 0 8 1 16z"/><glyph unicode="l" horiz-adv-x="550" d="M35 27q-3 10-3 21 0 12 3 24 6 24 24 30 6 2 15 2h26q55 0 70 16 16 18 16 93v1038q0 23-14 25l-98 18q-29 6-31 42t27 46q150 57 264 93 6 1 10 1 19 0 30-12 13-16 13-53V215q0-80 10.5-95.5T465 104q51 0 57-28V47q0-51-39-51-148 2-249 2T78-4Q68-4 52.5 4T35 27z"/><glyph unicode="m" horiz-adv-x="1669" d="M25 51q2 25 10 37 6 6 24 10 20 4 33 4 55 2 69.5 29T176 279v374.5l-1 23.5-1 13v4q-8 12-65 21l-48 6q-31 4-31 36 0 15 7 36 4 14 18 20 78 37 269 86 9 2 16 2 41 0 41-57v-80q0-14 12-6 180 121 309 121 156 0 209-142 0-2 9 2 66 47 101.5 69.5t99 46.5 120.5 24q150 0 209-129 31-74 31-281 0-53-4-155.5t-4-153.5q0-37 16-45.5t94-8.5q39 0 51-8 16-10 16-45 0-9-1-20 0-39-39-39-56 2-168 2t-279-2q-27 0-37 16-6 8-8 33t6 39q2 4 6.5 8t6.5 5 7 2 7 1h20q57 0 74 14.5t21 67.5q6 80 6 273 0 180-25.5 233t-93.5 53q-63 0-223-104V195q0-63 15.5-80t72.5-17q43 0 47-49 0-55-39-55-171 3-300 3-65 0-120-1-25 0-36 25.5t.5 52T612 100h15q68 0 84 26t16 153v317q0 70-30.5 106.5T614 739q-78 0-233-104V195q0-66 15.5-81.5T477 98q2 0 33-4 14-2 14-65-6-35-32-35-98 4-203 4T70-6Q39-6 31 12q-6 11-6 29v10z"/><glyph unicode="n" horiz-adv-x="1062" d="M33 45q0 25 2 33 14 20 35 20h10q59 0 76.5 29T174 281v268q0 131-6 149-6 8-64 19l-41 8q-31 8-26.5 47T61 819q84 27 177 64 47 16 63 20 16 3 28 3 17 0 27-7 16-12 17-49v-86q0-14 2-16.5t12 4.5q188 127 293 127 244 0 244-373 0-59-8.5-177T907 152q0-33 12.5-41.5T981 102q33 10 55-14 8-10 8-35V43q-2-33-22-43-8-4-31-4-49 0-187 1h-83q-73 0-109-1-31-2-40 7t-11 36q0 63 35 63h12q59 4 78 21.5t25 69.5q12 113 12 342 0 196-124 196h-1q-80 0-225-104V195q0-66 15-79.5t85-13.5q31 0 37-36 0-41-6-54-6-14-41-18-30 1-78.5 1T268-6q-46-1-83-1-74 0-113 3-29 2-35 16-4 8-4 33z"/><glyph unicode="o" horiz-adv-x="1028" d="M41 426q0 195 136 325t337 130q203 0 341-131.5T993 424q0-190-137-322.5T520-31q-203 0-341 132T41 426zm221 59q0-172 84-286.5T545 84q92 0 156.5 88T766 393q0 162-83 268.5T485 768q-94 0-158.5-80T262 485z"/><glyph unicode="p" horiz-adv-x="1036" d="M20-475q10 16 41 16 70 0 88.5 31T168-258v872q0 27-5 34t-30 14q-12 4-35.5 12T63 684q-27 6-30.5 38T45 768q2 4 8 10l228 137q18 14 44 14 6 0 13-1 33-4 33-47V774q0-26 12-18 163 114 264 114h2q137 0 237.5-127T987 453q0-197-140-345.5T520-41q-55 0-133 23-6 2-11-3.5T371-39v-219q0-100 8-138t26.5-47.5T475-453h29q45 0 55-30 4-12 4-34t-6-34q-12-20-47-20-47 2-449 2-29 0-41 18-12 17-12 36t12 40zm351 659q102-96 204-96 86 0 145.5 84T780 385q0 145-66.5 234.5T549 709q-70 0-172-80-6-6-6-21V184z"/><glyph unicode="q" horiz-adv-x="1038" d="M59 391q0 203 132.5 342T518 872q94 0 221-65 6-4 13-8 6-4 14 6 2 4 4 6 39 47 47 55 7 8 31 8h10q33-2 47-24-16-57-16-152v-952q0-135 16.5-168t67.5-33h20q29 0 36-37 2-11 2-21 0-23-11-42-6-12-43-12-113 4-224 4t-221-4q-59 0-59 51 0 20 1 26.5t7 17.5 23 17q14 2 84 2 68 0 84 29t16 170V35q-4 29-6 29.5t-8-3.5Q539-43 418-43 262-43 160.5 82T59 391zm197 55q0-150 72.5-246T506 104q78 0 178 84 6 12 6 52 0 283-4 338-2 31-14 63-18 55-66.5 89T496 764q-109 0-174.5-83T256 446z"/><glyph unicode="r" horiz-adv-x="743" d="M45 47q0 20 2 29.5T59.5 93t32.5 7q57 0 74.5 28T184 279v352q0 29-6 33-12 6-47 18t-49 18q-25 12-29 21-2 4-2 10v29q0 31 29 41 33 16 62.5 27.5T223 856t92 33q14 5 25 5 14 0 24-8 18-14 17-38 2-29 2-117 2 2 16.5 39t26.5 58.5 27 29.5q29 14 58.5 15t50-5 53-17 53.5-15l18-7q34-11 34-35 0-7-3-14-19-55-66-141-45 4-94 29-41 20-61 20-49 0-109-108V293q0-18 1-45t1-53q4-68 16.5-80.5T483 102h43q35 0 40-43T551 0q-8-6-27-6-47 0-135 2T228.5-2 90-6h-6Q60-6 53 8q-8 16-8 39z"/><glyph unicode="s" horiz-adv-x="669" d="M68 633q0 115 84 186.5T358 891q82 0 187-43 7-74 7-136 0-42-3-79-2-10-17.5-20.5T500 602q-43 0-45 27-29 147-127 147-39 0-63.5-23.5T240 694q0-29 26.5-60.5t52-50 73.5-48 54-33.5q168-117 168-254 0-111-84.5-189.5T330-20q-72 0-125 22l-12 4q-2-2-11-20-30-12-45-12-3 0-6 1-37 8-39 39-12 156-16 224-2 20 18.5 30.5T143 274q23-8 29-34Q209 82 324 82q43 0 72.5 30.5T426 186q0 70-109 148-10 8-54 36.5t-60.5 41-49 42-47 52T80 562t-12 71z"/><glyph unicode="t" horiz-adv-x="659" d="M41 797q10 18 27 24 98 49 170 246 6 31 51 31 43 0 43-34l-3-108q0-45 3-75 0-2 4-3t8-2.5 6-1.5h199q20 0 36.5-14t8.5-43q-8-37-21-69-14-27-51-27l-170 4q-20 0-20-33V373q0-150 22.5-195t77.5-45q51 0 100 92 14 25 40 22t40-18q11-14 11-32 0-12-5-27Q533-23 369-23q-104 0-169 76t-65 193v448q0 25-10 27-23 2-72 8-16 27-16 48 0 11 4 20z"/><glyph unicode="u" horiz-adv-x="1093" d="M44 780q-4 9-4 19.5t4 20.5q7 22 34 28 25 6 110.5 30.5T315 911q29 6 43.5-12t14.5-39V379q0-152 30.5-197T522 137q82 0 203 92 0 2 2 7.5t3 9.5 1 8v381q0 102-49 113-20 4-58 10t-57 8q-23 12-22.5 48t28.5 42q227 49 295 57h8q55 0 56-51V174q0-18 11-24.5t19.5-4.5 28.5 7q6 2 20.5 6t20.5 6q27 4 39-20 8-15 8-31 0-9-3-19-7-28-29-33-117-50-230-73-18-4-32-4-51 0-52 51 0 2-1 12t-2 28.5-1 28.5q0 18-18 5-59-41-92-62.5t-91.5-44T416-20q-125 0-186.5 77.5T168 270v416q0 27-5 36t-24 15q-14 4-40.5 11.5T59 760q-8 2-15 20z"/><glyph unicode="v" horiz-adv-x="1048" d="M14 792q-2 8-2 14 0 20 13 36 6 16 20 16 6 1 36 1 45 0 142-2 69-1 124-1 73 0 120 2 14 0 23.5-16.5t9.5-35-10.5-34.5-26.5-16h-19q-53 0-65-4t-12-17q0-18 79.5-207.5T557 270q4-10 8-12t6 3 7 15q6 14 75.5 179.5T752 682q6 25-.5 40t-34 22.5-44 9.5-30.5 2q-27 0-33 18-12 29-2 62 6 22 29 22h2q81-2 170-2t186 2q37 0 37-51-4-45-31-49-55-6-81.5-38T840 565L594 14q-18-33-35-34-7-1-21-1h-16q-28 1-37 5-16 6-32 39L193 606q-10 23-22.5 51.5T154 694t-8.5 15.5T136 723t-8 10-10 7-10.5 5.5T95 749t-12 2-15.5 3-16.5 2q-31 6-37 36z"/><glyph unicode="w" horiz-adv-x="1574" d="M18 788q-2 10-2 18 0 20 9 32 12 18 38 14 332 0 375 2 31 0 41-33 8-16 1-40.5T451 754q-78-2-78-24.5T551 274q10-25 22 0l154 357q-35 70-55 90-31 29-74 29-12 2-26.5 2T547 768t-10 33q-2 18 6 35.5t24 17.5q194-5 297-5 77 0 103 3l12 2h7q38 0 43-42 1-8 1-15 0-34-20-45-92-2-92-29 0-20 28-88l154-356q8-25 18 2 35 80 74 176 82 193 88 227 6 29-5 44t-26.5 18.5-46.5 5.5h-47q-20 6-21 54t29 48q72-2 158.5-2t187.5 2q4 1 8 1 23 1 31-21 6-14 6-28 0-12-4-24-8-28-26-30-68-4-88-31-10-14-39-84-117-272-264-635-6-16-37-20-27-4-52 2-33 2-45 28L805 475q-12 25-21 6-43-88-115.5-262T580 8q-10-27-33-31-12-4-28.5-4T483-23q-23 6-37 37L201 600q-45 104-67.5 126T43 752q-19 2-25 36z"/><glyph unicode="x" horiz-adv-x="1097" d="M18 43q0 51 37 51 68 2 105 23.5T274 229l154 172q10 12-2 27L283 616q-72 92-105 115T66 756q-23 6-22 53 1 45 33 45h3q53-3 149.5-3t237.5 3h8q29 0 37-23.5t-1-48-24-24.5h-18q-43 0-45-10 0-6 4-13 20-33 69.5-97.5T565 555q4-6 25 14 117 117 117 162 0 8-3.5 12.5T684 752t-47 4q-4 0-9 1t-7.5 1-5.5 2-6 6-7 12q-4 10-4 47 5 30 31 30 5 0 10-1 148-2 242.5-2t134.5 2q4 1 9 1 24 0 36-21 12-20 4-49t-41-29h-13q-70 0-107-20-40-22-101-91l-78-82-76-84q-6-8-2-12 41-49 74-92t50-65.5 28-35.5l71-92q39-49 73-65.5t97-20.5q31-4 31-57 0-16-1-22.5T1059.5 3 1030-4q-89 2-172 2-125 0-237-4-41 0-41 49t36 49h17q49 0 49 10 0 6-9 19.5t-22.5 28T635 168L524 315q-12 18-18 13-2-2-50-54.5T374 180t-34-53q0-16 15.5-23.5T424 92h16q35-4 35-51 0-25-9-37-8-10-23-10h-5q-73 5-187 5-86 0-194-3-16 0-24 7T22.5 16.5 18 43z"/><glyph unicode="y" horiz-adv-x="1005" d="M20 786q-5 12-5 24t5 24q11 24 43 24h363q35 0 45-23.5t1-49-28-29.5q-43 0-61-6-10-2-14-9.5t-3-18.5 4-18.5 9-20.5 6-15q29-61 55.5-127t57-150T547 262q8-20 22 17l101 272q47 121 47 156 0 29-17.5 39T616 756q-18 12-22 52t29 48h20q61 0 155.5 1t145.5 1q35 0 46-30 5-14 5-26 0-15-8-28-6-12-26-18-53-4-87-47t-92-197L539-152q-43-115-84-213-33-72-76-127-39-49-117-49-45 0-81 36t-36 81q0 70 117 105 27 6 50.5 20t39 25.5 29.5 37 21.5 37 16.5 47 11 45T440.5-57t8.5 47L203 582q-51 125-72.5 147.5T45 758q-16 4-25 28z"/><glyph unicode="z" horiz-adv-x="839" d="M22 28q-2 10-3 18 0 19 12 32l10 10 461 617q12 16 0 16-43 0-126-3t-128-3q-33 0-49.5-26.5T154 547q-6-10-21-17h-4q-16 0-26.5 1t-25 4.5T57 547t-4 20q0 6 2 11 31 195 56 294 4 23 14 25 2 2 6 2 15 8 37 8 7 0 14-1 31-3 31-23.5t10-25.5 53-5q250 4 370 5 40 0 65-1 4 0 20.5 1t22.5 0 17-5 20-14q5-17 5-32 0-22-12-36-137-176-454-623-6-10-3-12t17-2q52-1 120.5-1t153.5 1q39 2 50.5 17.5T719 256q4 6 6 12t4 7 12 4q13 2 25 2 27 0 43-13 9-9 9-19 0-6-3-11L735 25Q725 7 692-4H43Q30-4 22 28z"/><glyph unicode="{" horiz-adv-x="1026" d="M205 455q-6 16 0 34 2 27 28 35 94 18 145.5 69.5T430 707q0 39-22 145-23 90-23 172 0 164 112.5 285T786 1456q29 0 37-26 4-14 4-58-2-10-8-14t-16-5-12-1q-199-43-199-211 0-55 18-146 23-117 23-180 0-145-117-258-53-53-115-84-6 0 2-4 229-123 230-340 0-66-21-178-18-84-18-144 0-160 201-217 27-4 34-26 8-26-2-53-10-20-21-22.5t-22 1.5q-176 29-286.5 148.5T387-80q0 68 23 164 23 117 22 149 0 68-51 117t-152 70q-20 8-24 35z"/><glyph unicode="|" horiz-adv-x="1093" d="M473 31v1659q0 27 2 40t14.5 22 34.5 9q37-8 58-4 16 0 26-2t14.5-8 5.5-10 0-18.5-1-18.5V864q0-752-2-844v-8q0-23-1-32t-10.5-17-29.5-8q-27 4-60 0-51 0-51 76z"/><glyph unicode="}" horiz-adv-x="1026" d="M207-463q0 2 1 10.5t1 12.5q8 31 31 34 201 43 200 209 0 55-21.5 163T397 129q0 141 117 258 55 55 117 86 2 0-2 4-231 123-232 338 0 51 20.5 158.5T438 1137q0 123-116 180-12 6-40 18.5t-40 18.5q-25 12-31 22t-4 33q0 18 11 33.5t30 13.5q176-29 287.5-148.5T647 1026q0-53-23.5-156.5T600 713q0-63 47-111.5T784 530q43-12 43-53 0-51-41-59-88-18-136-67.5T602 240q0-53 23.5-158T649-78q0-158-105.5-276.5T270-506q-31-6-50 3t-13 40z"/><glyph unicode="~" horiz-adv-x="1161" d="M39 537q8 135 95 224t214 89q117 0 285-86 160-82 231-82 59 0 93 28.5t42.5 62.5 22.5 60.5 41 24.5l22-2q18-2 33-13.5t12-29.5q-10-137-94-228t-209-91q-119 0-299 88l-51 25.5-64.5 30.5-56 19.5L297 668q-57 0-99-38t-51-106q-4-29-31.5-36t-52 8.5T39 537z"/><glyph unicode="¡" horiz-adv-x="557" d="M158 758q0 51 34.5 86t88 35 86-34 32.5-87-32.5-85-86-32-88 32-34.5 85zm6-1164 69 924q10 25 46 25t47-25l73-926q6-53-11.5-77.5T313-510h-59q-61 0-77.5 25.5T164-406z"/><glyph unicode="¢" horiz-adv-x="915" d="M88 389q0 211 147.5 358.5T592 895q6 0 16-1t15-1q14 0 18 14l86 226q10 20 17.5 25t25.5 3q10 0 31.5-9t25.5-13q12-12 2-41l-88-221q-2-4 2-9 113-45 113-127 0-41-27.5-67.5T758 647q-45 0-88 37-2 2-4-6-2-2-2-4L449 137q-10-31 98-31 68 0 116 31t103 99q10 12 19.5 16t17.5 2 17-7 20-11q37-23 2-70Q699-45 473-45q-43 0-88 10-2 0-12-20-86-227-109-279-16-35-23.5-41t-23.5-2q-4 0-16.5 5t-22.5 7q-35 6-16 56L281-10q6 14-2 18-88 57-139.5 159.5T88 389zm201 45q0-131 65-221 8-18 13-2l213 534q2 16-7 21-18 8-49 8-90 0-162.5-98T289 434z"/><glyph unicode="£" horiz-adv-x="1630" d="M20-395q0 63 78 136t176 116Q333-34 379 82q8 23 10 29l2 2H141q-8 0-24 4-29 12-13 67 8 45 60 45h270q23 57 72 194.5T583.5 637t78 184.5T762 1016q246 416 555 416 109 0 195.5-51.5T1599 1247q0-41-29.5-68.5T1497 1151q-51 0-102 51-12 8-29 29-61 61-129 61-76 0-145-88-78-106-162-315-176-438-275-651l-6-11 2 2h2q49 0 144.5 1t144.5 1q51 0 39-55-8-37-22.5-52T907 109l-313 4Q549 24 483-70q59 16 138 17 160 0 337-133 102-74 132-90 68-39 129-39 66 0 109.5 37.5T1372-193q0 27-28.5 78.5T1315-33q0 45 29.5 75t74.5 30q59 0 93-51.5t34-120.5q0-150-131-265.5T1122-481q-125 0-225 65-31 20-109.5 86t-144 105T518-186q-57 0-143-39-57-111-128-182.5T111-479q-35 0-63 23.5T20-395z"/><glyph unicode="¥" horiz-adv-x="1071" d="M-14 1405q-2 20 11 28.5t30 8.5q231-8 432 2 43 2 43-37 0-8 2-25.5t0-27.5v2q-2-18-29-27-98 0-98-29 0-4 16-47l53-127q2-6 33-6h226q14 0 18 10 63 154 63 170 0 25-55 29-4 0-15 1t-16.5 3-13.5 5-11 9.5-3 16.5v33q0 39 35 39 39 0 109.5-2t123.5-1 109 5q18 2 30.5-8.5t12.5-22.5v-37q0-41-39-41-49 0-77-23.5T911 1194q-27-51-30-74h157q16 0 24.5-10t8.5-15v-65q0-20-1-27.5t-8-15.5-24-8H831q-10 0-14-8l-55-123q-4-4-1-8t7-4l276 4q27-8 27-47v-50q0-49-43-49l-297 2q-41 0-47-18l-29-62V272q0-117 18.5-141.5T758 106h22q51 0 51-45V33q0-20-8-29.5T805-8t-29 0Q526 6 289-8q-18-2-32.5 9T244 35q0 4 1 18.5t3 20.5 6 15 13 13 24 4h16q78 0 95.5 24T420 272v324l-43 92q-4 8-23 8H45q-37 0-37 54v47q0 27 7.5 35t33.5 8q197-4 221-4h43l-53 127q-6 16-12 16H39q-18 0-24.5 9T8 1026v47q0 27 7.5 37t29.5 10h143q4 4 4.5 11.5t-7 23.5-10.5 25.5-7 15.5q-37 74-64 100-16 18-36.5 25.5t-36 7.5-27.5 8.5-16 26.5q-6 12-2 41zm526-432 66-168q4-18 10 0l65 166q0 8-8 8H518q-6 0-6-6z"/><glyph unicode="¦" horiz-adv-x="1093" d="M473-45v803h154V-45H473zm0 1001v805h154V956H473z"/><glyph unicode="§" horiz-adv-x="1005" d="M98 872q0 227 146.5 393.5T596 1432q43 0 106.5-14.5t126-56.5 62.5-99q0-43-33-76t-76-33q-45 0-102 53-4 4-9 8.5t-10.5 10.5-7.5 8q-61 70-118 70-66 0-112-41t-46-99q0-16 7-39.5t22.5-52.5 29-52.5 36-57 34.5-51 34.5-49.5 26.5-36q166-236 229.5-348T891 250q23-88 22-201 0-215-149-374.5T412-485q-104 0-194.5 46T127-319q0 39 28.5 73.5T227-211q12 0 22.5-2t20-8 15.5-9 16-14.5 13-14.5 14.5-16.5T342-291q63-70 137-69 61 0 109.5 42t48.5 89q0 76-113 233-199 276-305 467Q98 682 98 872zm168 183q-76-211 56-465 55-111 184-301.5T684 10q47-86 61-123 23 59 23 142 0 223-150 450-33 49-113.5 170T383 838q-25 37-72 117.5t-45 99.5z"/><glyph unicode="¨" horiz-adv-x="712" d="M49 1108q0 51 38 87t95 36q55 0 93-36t38-87q0-53-36.5-88t-94-35-95.5 35-38 88zm352 0q0 51 38 87t93 36q57 0 94.5-36t37.5-87-37.5-87-94.5-36q-55 0-93 36t-38 87z"/><glyph unicode="©" horiz-adv-x="1630" d="M72 713q0 305 220 522t527 217 527.5-216T1567 713q0-305-220.5-522.5T819-27 292 190.5 72 713zm131 0q0-254 181-434.5T819 98t435.5 180.5T1436 713q0 256-180.5 435T819 1327t-436-179-180-435zm133 2q0 203 146.5 337T844 1186q76 0 184-37 16-6 27-6 6 0 22 43h53q35 0 41-39 0-6 7.5-101.5T1188 907q2 0 0-10v-8q-4-31-27-31h-39q-25 0-35 23-2 4-4 13t-4 13q-68 174-248 174-125 0-199.5-89T557 743q0-176 75-267t210-91q92 0 146 29.5T1112 522q6 8 13.5 12.5t17.5 1 13-4.5 15-7l15-8q37-20 8-57-149-195-385-195-201 0-337 129T336 715z"/><glyph unicode="ª" horiz-adv-x="557" d="M37 954q0 102 156 138 66 16 114 38v78q0 80-63 80-16 0-37-16-14-14-10-31 0-2 2-5t3-8 3-11l-117-52q-25-12-33 13-10 29-10 36 0 53 92 117 70 49 135 49 98 0 144.5-47t46.5-147V975q0-31 4-31 10 0 53 27 18 12 30.5-7.5T565 924q4-12-10-27-98-74-149-74-53 0-76 39-9 10-15 6-61-45-129-45-63 0-106 36t-43 95zm149 11q0-39 45-39 18 0 47 20.5t29 32.5v63h-4q-4-2-12-4t-17-6q-59-23-73.5-36T186 965z"/><glyph unicode="«" horiz-adv-x="759" d="M68 446q-23 31 8 68l280 346 9 10q6 8 16 9h53q43 0 29-29L268 475l187-364q23-45-19-45h-45q-20 0-39 24zm284 7q-16 23 13 63l213 303 8 15q6 10 26 10h47q35 0 21-37L555 475l123-332q14-45-23-45h-51q-10 0-24 23z"/><glyph unicode="¬" horiz-adv-x="1429" d="M135 848v170h1165V373h-176v475H135z"/><glyph unicode="­" horiz-adv-x="890" d="M82 446v58q0 23 20.5 33t38.5 10h629q20 0 35.5-13.5T819 504l-4-53q-8-33-41-37-309-4-651 0-29 0-41 32z"/><glyph unicode="®" horiz-adv-x="1630" d="M53 713q0 313 221.5 534T811 1468q313 0 535.5-221T1569 713q0-311-222.5-532.5T811-41q-315 0-536.5 221T53 713zm129 0q0-260 184.5-443.5T811 86q262 0 446.5 183.5T1442 713t-184.5 443T811 1339q-260 0-444.5-183T182 713zm217-416v31q0 35 35 34 43 2 55.5 18.5T502 463v508q0 70-8.5 84t-42.5 16q-39 0-39 37v27q0 33 49 32 84-6 356 0 139 0 229.5-67.5T1137 920q0-160-179-228-16-6-17-9t9-17l170-232q31-43 48.5-56t43.5-16q31-4 31-24v-29q0-45-55-45-74 4-133 0-39 0-56 23L727 657h-10q-12 0-12-4V389q0-14 11-18t35.5-5 34.5-4q4 0 10.5-1t9.5-2 7-3 5-7 1-11v-47q0-27-41-27-184 12-338 0-41 0-41 33zm306 496q0-31 14-31 98 2 148.5 42T918 907q0 66-46 110t-118 44q-31 0-49-6V793z"/><glyph unicode="¯" horiz-adv-x="714" d="M14 1071v72q0 35 58 35h575q27 0 39-8.5t12-34.5v-70q0-41-57-41H63q-23 0-34 8t-13 16.5-2 22.5z"/><glyph unicode="°" horiz-adv-x="849" d="M88 1053q0 139 98.5 236t239.5 97 240.5-97 99.5-236q0-137-99.5-234.5T426 721t-239.5 97T88 1053zm150 0q0-76 55-130.5T426 868t134 54.5 56 130.5q0 78-56 132t-134 54-133-54.5-55-131.5z"/><glyph unicode="±" horiz-adv-x="1429" d="M135 846v74q0 33 17.5 42t58.5 9h391q27 0 27 33v370q0 6-1 13.5t-1 11.5q0 68 49 67h74q29 0 42-14t13-51V997q4-27 35-26h397q63 0 63-56v-61q0-27-11-40t-23-15-35-2H850q-16 0-30.5-8.5T805 772V367q0-39-9.5-50.5T750 305h-64q-37 2-47 15.5T629 367v401q0 29-25 29H199q-27 0-36 1t-18.5 12-9.5 36zm2-813v53q0 20 3 32.5t17.5 23T199 150h1040q61-2 61-62V37q0-43-12-53.5T1237-27q-651 4-1024-2-33 0-45 2t-21.5 15.5T137 33z"/><glyph unicode="²" horiz-adv-x="614" d="M8 653v35q51 63 168 162 61 49 88 71.5t67 76 40 98.5q0 37-30 62.5t-73 25.5q-98 0-139-115-8-16-57-16t-52 28q10 111 88 176.5t191 65.5q109 0 184.5-59.5T559 1110q0-47-14.5-85t-55-75-57-49-76.5-53q-53-33-114-86h151q55 0 62 4 8 8 11 28.5t10 33 30 12.5h43q35 0 35-35-16-125-21-146-8-43-57-43H49q-23 0-32 7.5T8 653z"/><glyph unicode="³" horiz-adv-x="614" d="M18 713q0 35 26 56.5t58 21.5q37 0 91.5-39t82.5-39q45 0 81 39t36 96q0 41-22.5 67.5T319 942q-31 0-57-22-53-29-84 18-8 16-3 36.5t20 31.5q70 43 105.5 79.5T336 1143q0 18-17.5 32.5T272 1190q-72 0-120-88-35-41-74-13.5T47 1145q84 178 264 178 78 0 136.5-40t58.5-109q0-66-57-117 127-49 126-183 0-113-104-192.5T236 602q-78 0-148 28.5T18 713z"/><glyph unicode="´" horiz-adv-x="714" d="m231 1014 97 303q16 37 55 37h168q20 2 36.5-7.5T600 1315q0-13-20-33L317 979q-14-20-55-10t-31 45z"/><glyph unicode="¶" horiz-adv-x="1011" d="M-25 928q0 199 130.5 310.5T463 1352q442 0 477 2 33 2 46-8.5t13-40.5v-48q0-23-11-33t-18.5-11-25.5-1h-53q-12 0-19.5-11t-7.5-23V-457q0-31-10-39t-45-8h-35q-55 0-55 45l2 1637q0 31-21 30h-79q-16 0-17-26l2-1647q0-41-53-41h-45q-31 0-41 11.5T457-457v936q0 29-17 29-307 6-415 213-49 90-50 207z"/><glyph unicode="·" horiz-adv-x="526" d="M141 702.5q0 45.5 37 80t86 34.5q51 0 86-33.5t35-81.5q0-45-36-79.5T264 588t-86 34.5-37 80z"/><glyph unicode="¸" horiz-adv-x="714" d="M203-252 369 20h100L406-94q57-12 94-59.5T537-262q0-82-58.5-139.5T336-459q-18 0-37.5 2T253-446.5 223-425t6 38q0 2 3.5 7t5.5 7q8 12 20 15.5t31.5-.5 25.5-4q31 0 52.5 20t21.5 47q0 49-33 49-18 0-110-45-23-12-42.5-3t-.5 42z"/><glyph unicode="¹" horiz-adv-x="614" d="M93 1100.5q-17 29.5 3 52.5 137 84 197 154 6 10 62.5 4t56.5-23V725q0-4 8-4 4 0 23.5-2t27.5 0q4 0 11-1t10.5-2 8.5-3 8-4 5-7.5 2-11.5q2-6 2-26 0-18-10.5-35T483 612q-158 6-311 0-16 0-26.5 17.5T135 664q0 47 33 51l57 6q18 2 19 14v381q-43-23-101-43-33-2-50 27.5z"/><glyph unicode="º" horiz-adv-x="737" d="M49 1102q0 121 92 199.5t227.5 78.5 227.5-78.5 92-199.5q0-119-92-199t-223-80q-137 0-230.5 79T49 1102zm166 37q0-96 52-160t122-64q57 0 96 44.5t39 113.5q0 92-53 154.5T350 1290q-57 0-96-42t-39-109z"/><glyph unicode="»" horiz-adv-x="759" d="m80 141 127 330L84 803q-8 14-3 29.5t23 15.5h52q12 0 26-23l226-329q16-23-11-64L184 127q-2-4-6-10t-5-7-5-4.5-8-3.5h-58q-37 0-22 39zm219-45 195 377-187 363q-23 45 19 45h45q20 0 39-25l284-356q10-20 6-38t-16-30L406 86q-16-18-33-18h-47q-41 0-27 28z"/><glyph unicode="¼" horiz-adv-x="1464" d="M93 1093.5q-17 28.5 3 55.5 145 88 207 160 6 10 64.5 3t58.5-24V719q0-16 10-17h32l32-2q37-10 37-57 0-20-10.5-36.5T502 590q-166 6-326 0-39 0-39 55 6 49 35 51l64 4q10 0 12 2.5t2 14.5v393q-16-8-51-22.5t-54-22.5q-35 0-52 28.5zM184-41q-6 29 6 43l953 1327 4 10q12 12 31 13h90q18 0 25-20.5t-7-43.5L332-45q-16-25-45-25h-66q-31 0-37 29zm602 252v37l365 461q43 12 74 6 14-2 26.5-14.5T1262 670V313l16-8h63q49 0 50-47 0-55-7-68-10-23-32-22h-78q-12-4-12-25l2-133q0-18-2-26.5T1250.5-31t-27.5-6h-47q-48 0-56 2-25 2-35 35v141q-2 27-10 27H836q-49 0-50 43zm197 94h88q12 0 14 12l2 111q0 18-10 4z"/><glyph unicode="½" horiz-adv-x="1464" d="M93 1098.5q-17 29.5 3 54.5 133 80 197 156 6 8 62.5 2t56.5-23V717q0-4 8-4 4 0 23.5-2t27.5 0q4 0 11-1t10.5-2 8.5-3.5 8-4.5 5-7 2-11q2-6 2-27 0-18-10.5-35.5T483 602q-158 6-311 0-16 0-26.5 17.5T135 655q0 16 9.5 33t23.5 19l57 6q18 2 19 14v387q-31-18-101-43-33-2-50 27.5zM182-40q-8 17 2 32l959 1339q10 12 16 16.5t15.5 5.5 17.5 3q2 0 13.5-2t21.5-3 23.5-4.5 22.5-8.5 15-12 6-16.5-8-21.5L332-45q-27-37-47-33-4 2-11 2l-57 13q-27 6-35 23zm668 63v36q55 68 168 164 2 2 24.5 20.5T1072 268t27.5 23.5 30 28 25.5 28 23.5 30.5 16.5 30.5 13 33 4 31.5q0 37-29.5 62.5T1108 561q-96 0-137-115-8-16-58.5-16T862 459q10 113 88 179.5t191 66.5q106 0 183-60.5t77-157.5q0-47-15.5-86t-53.5-75.5-58.5-51T1198 221q-47-31-117-86h154q55 0 61 2 4 4 12.5 40t39.5 36h43q35 0 34-35-18-131-20-147-10-43-57-43H891q-23 0-32 6t-9 29z"/><glyph unicode="¾" horiz-adv-x="1464" d="M25 690q0 35 26.5 57.5T113 770q39 0 92-40t84-40q47 0 84 40t37 97q0 43-24 71t-54 28q-29 0-58-21-39-27-61-2-39 33-22.5 65.5t51 54T312 1075t36 58q0 18-17.5 32.5T283 1180q-74 0-121-93-20-20-70.5-2.5T57 1137q37 86 109 134t158 48q80 0 141-42t61-114q0-66-59-119 127-51 127-190 0-115-104.5-197T250 575q-82 0-153.5 29T25 690zM181-26.5q1 6.5 2 8.5t3 8l2 6 7 12 948 1323q29 41 67 25l43-19q49-23 27-57L332-45q-10-14-19.5-22.5t-24-9.5-18.5-1-26.5 6-26.5 9q-10 4-17 8t-11.5 9-6.5 9-1 10.5zM776 211v37l365 461q43 12 73 6 14-2 26.5-14.5T1251 670V313l17-8h63q49 0 49-47 0-55-6-68-10-23-33-22h-77q-12-4-13-25l2-133q0-18-2-26.5T1240-31t-28-6h-47q-47 0-55 2-25 2-35 35v141q-2 27-10 27H825q-49 0-49 43zm197 94h88q12 0 14 12l2 111q0 18-10 4z"/><glyph unicode="¿" horiz-adv-x="759" d="M72-106q0 207 149 311 51 39 146 74 43 16 56 30.5t13 34.5q0 43-71 127-35 39 10 61 18 10 47 4t41-24q106-131 106-233 0-82-40-129.5T397 68Q270 19 227-24.5t-43-113T229-247t131-40q29 0 79 7.5t75 7.5q152 0 152-107 0-68-59.5-99.5T455-510q-170 0-276.5 112.5T72-106zm219 864q0 53 38 89t93 36 93-35 38-90.5-38-91-93-35.5-93 35.5-38 91.5z"/><glyph unicode="À" horiz-adv-x="1452" d="M16 55.5Q16 111 57 111q72 0 91.5 12t46.5 76q14 29 32 82l377 1007-12 45q-4 14 10 27.5t39 15.5h94q59 0 80-30 94-248 186.5-490t131-344 59.5-152q20-53 57-155 23-66 43.5-83.5T1372 104h14q39 0 39-57 0-23-9-40t-32-15Q1153 2 846-6q-27-2-36 15.5T801 55q0 55 63 56 20 0 47 1t37 1q43 2 54.5 18t-3.5 55q-25 63-68.5 181T862 549q-6 12-33 12H522q-12 0-30-22-41-115-125-342-10-20-11-56 0-39 121-32 25 4 43 0 12-2 22.5-20.5T553 47q-2-20-14.5-36.5T516-6Q182 0 82-6H55Q16 0 16 55.5zM496 1810q-20 29 0 51.5t45 22.5l153 2q45 0 58-28 47-123 104-332 0-39-37-45t-53 14q-123 158-270 315zm67-1081q-4-8 5.5-10t23.5-2q98 2 178 0 8 0 15.5 7t5.5 13q-45 121-97 283-2 8-7 10t-9 0-6-4q-20-61-62.5-175T563 729z"/><glyph unicode="Á" horiz-adv-x="1452" d="M16 55.5Q16 111 57 111q72 0 91.5 12t46.5 76q14 29 32 82l377 1007-12 45q-4 14 10 27.5t39 15.5h94q59 0 80-30 94-248 186.5-490t131-344 59.5-152q20-53 57-155 23-66 43.5-83.5T1372 104h14q39 0 39-57 0-23-9-40t-32-15Q1153 2 846-6q-27-2-36 15.5T801 55q0 55 63 56 20 0 47 1t37 1q43 2 54.5 18t-3.5 55q-25 63-68.5 181T862 549q-6 12-33 12H522q-12 0-30-22-41-115-125-342-10-20-11-56 0-39 121-32 25 4 43 0 12-2 22.5-20.5T553 47q-2-20-14.5-36.5T516-6Q182 0 82-6H55Q16 0 16 55.5zM563 729q-4-8 5.5-10t23.5-2q98 2 178 0 8 0 15.5 7t5.5 13q-45 121-97 283-2 8-7 10t-9 0-6-4q-20-61-62.5-175T563 729zm35 813 100 328q12 41 58 41 33 0 90 2t78 0q33-2 48-12.5t11-30.5q-4-19-8-23l-289-344q-10-12-34.5-13t-43 13.5T598 1542z"/><glyph unicode="Â" horiz-adv-x="1452" d="M16 55.5Q16 111 57 111q72 0 91.5 12t46.5 76q14 29 32 82l377 1007-12 45q-4 14 10 27.5t39 15.5h94q59 0 80-30 94-248 186.5-490t131-344 59.5-152q20-53 57-155 23-66 43.5-83.5T1372 104h14q39 0 39-57 0-23-9-40t-32-15Q1153 2 846-6q-27-2-36 15.5T801 55q0 55 63 56 20 0 47 1t37 1q43 2 54.5 18t-3.5 55q-25 63-68.5 181T862 549q-6 12-33 12H522q-12 0-30-22-41-115-125-342-10-20-11-56 0-39 121-32 25 4 43 0 12-2 22.5-20.5T553 47q-2-20-14.5-36.5T516-6Q182 0 82-6H55Q16 0 16 55.5zM408 1491l180 311q8 18 39 31 14 2 75.5 3t81.5-1q37-2 52-31l178-303q22-47-17-57t-59 8l-231 197-218-197q-18-12-40.5-11t-37 16.5-3.5 33.5zm155-762q-4-8 5.5-10t23.5-2q98 2 178 0 8 0 15.5 7t5.5 13q-45 121-97 283-2 8-7 10t-9 0-6-4q-20-61-62.5-175T563 729z"/><glyph unicode="Ã" horiz-adv-x="1452" d="M16 55.5Q16 111 57 111q72 0 91.5 12t46.5 76q14 29 32 82l377 1007-12 45q-4 14 10 27.5t39 15.5h94q59 0 80-30 94-248 186.5-490t131-344 59.5-152q20-53 57-155 23-66 43.5-83.5T1372 104h14q39 0 39-57 0-23-9-40t-32-15Q1153 2 846-6q-27-2-36 15.5T801 55q0 55 63 56 20 0 47 1t37 1q43 2 54.5 18t-3.5 55q-25 63-68.5 181T862 549q-6 12-33 12H522q-12 0-30-22-41-115-125-342-10-20-11-56 0-39 121-32 25 4 43 0 12-2 22.5-20.5T553 47q-2-20-14.5-36.5T516-6Q182 0 82-6H55Q16 0 16 55.5zM367 1540q6 137 60 214t157 77q86 0 209-84 74-49 106-49 25 0 35 21.5t11 48 15.5 49 43.5 24.5q43 0 45-29 4-14 4-30 0-113-60.5-191T834 1513q-88 0-205 82-82 55-107 56-18 0-29.5-14.5T469 1575q0-8-3-20.5t-3-18.5q-12-25-50-30t-46 34zm196-811q-4-8 5.5-10t23.5-2q98 2 178 0 8 0 15.5 7t5.5 13q-45 121-97 283-2 8-7 10t-9 0-6-4q-20-61-62.5-175T563 729z"/><glyph unicode="Ä" horiz-adv-x="1452" d="M16 55.5Q16 111 57 111q72 0 91.5 12t46.5 76q14 29 32 82l377 1007-12 45q-4 14 10 27.5t39 15.5h94q59 0 80-30 94-248 186.5-490t131-344 59.5-152q20-53 57-155 23-66 43.5-83.5T1372 104h14q39 0 39-57 0-23-9-40t-32-15Q1153 2 846-6q-27-2-36 15.5T801 55q0 55 63 56 20 0 47 1t37 1q43 2 54.5 18t-3.5 55q-25 63-68.5 181T862 549q-6 12-33 12H522q-12 0-30-22-41-115-125-342-10-20-11-56 0-39 121-32 25 4 43 0 12-2 22.5-20.5T553 47q-2-20-14.5-36.5T516-6Q182 0 82-6H55Q16 0 16 55.5zM406 1622q0 57 40.5 99t100 42 102.5-42 43-99q0-59-43-100t-102.5-41-100 41-40.5 100zm157-893q-4-8 5.5-10t23.5-2q98 2 178 0 8 0 15.5 7t5.5 13q-45 121-97 283-2 8-7 10t-9 0-6-4q-20-61-62.5-175T563 729zm199 893q0 59 42 100t101 41q61 0 102.5-41t41.5-100-41.5-100-102.5-41q-59 0-101 41t-42 100z"/><glyph unicode="Å" horiz-adv-x="1452" d="M16 55.5Q16 111 57 111q72 0 91.5 12t46.5 76q14 29 32 82l377 1007-12 45q-4 14 10 25.5t39 15.5h94q59 0 80-28 94-248 186.5-490t131-344 59.5-152q20-53 57-155 23-66 43.5-83.5T1372 104h14q39 0 39-57 0-23-9-40t-32-15Q1153 2 846-6q-27-2-36 15.5T801 55q0 55 63 56 20 0 47 1t37 1q43 2 54.5 18t-3.5 55q-25 63-68.5 181T862 549q-6 12-33 12H522q-12 0-30-22-41-115-125-342-10-20-11-56 0-39 121-32 25 4 43 0 12-2 22.5-20.5T553 47q-2-20-14.5-36.5T516-6Q182 0 82-6H55Q16 0 16 55.5zM489 1702q0 90 64.5 154.5T711 1921q90 0 153.5-64.5T928 1702t-63.5-154.5T711 1483q-92 0-157 64.5T489 1702zm74-973q-4-8 5.5-10t23.5-2q98 2 178 0 8 0 15.5 7t5.5 13q-45 121-97 283-2 8-7 10t-9 0-6-4q-20-61-62.5-175T563 729zm60 973q0-35 25.5-60.5T711 1616q35 0 59.5 24.5T795 1702t-24.5 62.5T711 1790q-37 0-62.5-25.5T623 1702z"/><glyph unicode="Æ" horiz-adv-x="1873" d="M-125 51q-4 27 10.5 36T-74 98q61 6 100.5 40T129 276l541 885q25 39 24.5 55.5T681 1238t-71 5q-23 0-37 9.5t-12 29.5l2 29q6 37 49 37 143-4 543.5-1t474.5 1q23 0 46.5-12.5t25.5-30.5q0-6 18-267 0-8-2-12 0-27-30-27h-31q-18 0-29.5 12.5T1613 1033t-7 32q-20 90-41 116.5t-54 26.5h-368q-37 0-37-14V793q0-8 8-19.5t23-11.5l227 4q90 0 110.5 14.5T1513 879q8 39 46 39h26q39 0 39-52 0-311 2-356 4-49-35-49-18-6-39-2-33 0-36 41-12 88-35 106.5T1368 623l-244-5q-18 0-18-38V256q0-88 21.5-106.5T1235 131q45-4 209 0 96 2 125.5 11.5T1624 184q49 63 68 146 4 14 6 20t10 10.5 25 4.5h26q45 0 41-60-1-47-26-258-4-55-80-55H647q-51 0-51 43v31q0 25 39 34 16 4 84.5 5T825 130t39 87l2 72v200q0 14-26 15H469q-14 0-23-15L283 225q-43-72-43-94 0-35 108-35 23 0 33-11t11-19.5 3-32.5q2-45-45-45H-76q-27-2-36 15t-13 48zm676 613q-4-8 1-13.5t11-5.5h271q10 0 21 11.5t11 21.5v479q0 18-12 4-131-203-303-497z"/><glyph unicode="Ç" horiz-adv-x="1560" d="M98 649q0 315 213 514t551 199q72 0 135.5-11.5t94-21.5 129.5-45q39-12 57 2 12 10 45 7t37-21q25-104 20-185V965q-8-35-46-43.5t-56 18.5q-104 303-404 303-233 0-368-149.5T371 688q0-264 149.5-434T903 84q178 0 314 123 41 37 61 62.5t55 90.5q10 18 39 23.5t50.5-5.5 15.5-36q-25-80-81.5-210T1286 4q-39 10-57 10-59 0-150-28-82-25-180-29-18 0-25-14l-32-58q-2-4 22-16 47-18 77-62.5T971-295q0-86-67.5-163T754-535q-47 0-76 11-51 20-35 51 8 16 12 22 8 12 20.5 13.5t31-5T733-449q29 0 61.5 41t32.5 72q0 25-13 43.5T784-274q-35 0-106-37-25-8-33 12-10 20 8 49L768-63q10 23-6 22-295 25-479.5 216.5T98 649z"/><glyph unicode="È" horiz-adv-x="1267" d="M37 57.5Q45 111 78 115q14 2 88 2 78 2 102.5 30.5T293 287v753q0 106-23.5 142.5T158 1219h-26l-8 1-7 2-7.5 2-7.5 3-7 5-6 7-5 10q-14 23 8 62 10 20 53 20 655 4 895 0 53 0 60-39 8-66 11-118t4-96 3-60q-2-18-29.5-25.5t-50.5.5q-29 4-28 39-18 115-48 139.5T817 1198q-182 6-254 2-8 0-17-8t-9-18V776q0-20 26-20h211q109 0 130.5 16T940 887q4 14 25.5 21t45-3 29.5-41q2-45 2-111.5t-1-142-1-102.5q0-31-25.5-42t-50-4-28.5 25q-14 92-36.5 110.5T768 616l-199 2q-33 0-32-30V274q0-63 2-84 2-29 12-38 16-16 125-17h145q109 0 142.5 7.5T1018 176q45 49 69 152 6 29 37 37 59 4 70-21 10-20 0-98-2-23-11-90.5T1167 43q-6-47-100-47Q504 0 84-6L74-4Q29 4 37 57.5zm371.5 1761Q430 1843 455 1843l155 2q39 0 58-28 68-188 100-332 0-41-38-45t-50 14q-104 137-270 315-23 25-1.5 49.5z"/><glyph unicode="É" horiz-adv-x="1267" d="M37 57.5Q45 111 78 115q14 2 88 2 78 2 102.5 30.5T293 287v753q0 106-23.5 142.5T158 1219h-26l-8 1-7 2-7.5 2-7.5 3-7 5-6 7-5 10q-14 23 8 62 10 20 53 20 655 4 895 0 53 0 60-39 8-66 11-118t4-96 3-60q-2-18-29.5-25.5t-50.5.5q-29 4-28 39-18 115-48 139.5T817 1198q-182 6-254 2-8 0-17-8t-9-18V776q0-20 26-20h211q109 0 130.5 16T940 887q4 14 25.5 21t45-3 29.5-41q2-45 2-111.5t-1-142-1-102.5q0-31-25.5-42t-50-4-28.5 25q-14 92-36.5 110.5T768 616l-199 2q-33 0-32-30V274q0-63 2-84 2-29 12-38 16-16 125-17h145q109 0 142.5 7.5T1018 176q45 49 69 152 6 29 37 37 59 4 70-21 10-20 0-98-2-23-11-90.5T1167 43q-6-47-100-47Q504 0 84-6L74-4Q29 4 37 57.5zM500 1489l98 328q12 41 55 41l174 2q20 0 36-11.5t14-36.5q-2-2-4.5-8t-4.5-10l-290-344q-16-23-52.5-11.5T500 1489z"/><glyph unicode="Ê" horiz-adv-x="1267" d="M37 57.5Q45 111 78 115q14 2 88 2 78 2 102.5 30.5T293 287v753q0 106-23.5 142.5T158 1219h-26l-8 1-7 2-7.5 2-7.5 3-7 5-6 7-5 10q-14 23 8 62 10 20 53 20 655 4 895 0 53 0 60-39 8-66 11-118t4-96 3-60q-2-18-29.5-25.5t-50.5.5q-29 4-28 39-18 115-48 139.5T817 1198q-182 6-254 2-8 0-17-8t-9-18V776q0-20 26-20h211q109 0 130.5 16T940 887q4 14 25.5 21t45-3 29.5-41q2-45 2-111.5t-1-142-1-102.5q0-31-25.5-42t-50-4-28.5 25q-14 92-36.5 110.5T768 616l-199 2q-33 0-32-30V274q0-63 2-84 2-29 12-38 16-16 125-17h145q109 0 142.5 7.5T1018 176q45 49 69 152 6 29 37 37 59 4 70-21 10-20 0-98-2-23-11-90.5T1167 43q-6-47-100-47Q504 0 84-6L74-4Q29 4 37 57.5zM342 1518l176 311q8 18 39 31 14 2 75.5 3t82.5-1q35-2 51-31l176-303q10-12 8-32t-22-26q-39-10-60 9l-231 196-217-196q-18-12-40-11.5t-36 16-2 34.5z"/><glyph unicode="Ë" horiz-adv-x="1267" d="M37 57.5Q45 111 78 115q14 2 88 2 78 2 102.5 30.5T293 287v753q0 106-23.5 142.5T158 1219h-26l-8 1-7 2-7.5 2-7.5 3-7 5-6 7-5 10q-14 23 8 62 10 20 53 20 655 4 895 0 53 0 60-39 8-66 11-118t4-96 3-60q-2-18-29.5-25.5t-50.5.5q-29 4-28 39-18 115-48 139.5T817 1198q-182 6-254 2-8 0-17-8t-9-18V776q0-20 26-20h211q109 0 130.5 16T940 887q4 14 25.5 21t45-3 29.5-41q2-45 2-111.5t-1-142-1-102.5q0-31-25.5-42t-50-4-28.5 25q-14 92-36.5 110.5T768 616l-199 2q-33 0-32-30V274q0-63 2-84 2-29 12-38 16-16 125-17h145q109 0 142.5 7.5T1018 176q45 49 69 152 6 29 37 37 59 4 70-21 10-20 0-98-2-23-11-90.5T1167 43q-6-47-100-47Q504 0 84-6L74-4Q29 4 37 57.5zM332 1593q0 55 39 95.5t96 40.5 97-40 40-96q0-57-41-96t-96-39-95 39-40 96zm338 .5q0 55.5 40 95.5t95 40q57 0 97-40t40-95.5-40-95.5-97-40q-55 0-95 40t-40 95.5z"/><glyph unicode="Ì" horiz-adv-x="743" d="M96 45q0 18 10.5 37.5T133 104q84 8 100.5 24.5T252 219l2 70v760l-2 69q-2 72-18.5 92.5T145 1239q-18 2-29.5 13.5T102 1279t2.5 30.5T120 1334t25 9q379-4 461 0 49 4 53-40 2-20-6-42t-22-24q-4 0-13.5-1t-15.5-1q-80-2-97.5-28.5T487 1049V219q0-78 29-94 18-12 64.5-14t58.5-7q27-16 23.5-64T629-6Q383 2 141-6q-20 0-32.5 14.5T96 45zm40.5 1775.5Q156 1843 180 1843l152 2q39 0 57-28 61-172 98-332 2-37-33-44t-53 13q-139 178-264 315-20 29-.5 51.5z"/><glyph unicode="Í" horiz-adv-x="743" d="M96 45q0 18 10.5 37.5T133 104q84 8 100.5 24.5T252 219l2 70v760l-2 69q-2 74-18.5 93.5T145 1239q-18 2-29.5 13.5T102 1279t2.5 30.5 15.5 26 25 10.5q68-2 131.5-4.5t93-3.5 88 0 148.5 5q49 4 53-38 2-23-6-44.5t-22-23.5q-4 0-13.5-1t-15.5-1q-80-2-97.5-28.5T487 1049V219q0-78 29-94 18-12 64.5-14t58.5-7q27-16 23.5-64T629-6Q383 2 141-6q-20 0-32.5 14.5T96 45zm135 1456 97 330q20 39 57 39 31 0 71 1t56 2 43-1q90-8 31-80l-267-330q-16-23-57-11.5t-31 50.5z"/><glyph unicode="Î" horiz-adv-x="741" d="m78 1501 174 311q12 18 39 31 14 2 74.5 3t80.5-1q35-2 50-30l174-304q22-47-15-57-39-10-59 8l-227 197-213-197q-16-12-39-11t-36 16.5-3 33.5zM94 45q0 16 12.5 36.5T133 104q84 8 100.5 24.5T252 219l2 70v760l-2 69q-2 72-18.5 91.5T145 1237q-31 4-41 30.5t2.5 51T143 1343q80 0 158-3t135.5-3 171.5 6q37 2 48.5-23.5t1-53T633 1235q-6 0-16.5-1t-12.5-1q-80 0-99.5-26.5T485 1049V219q0-74 31-94 18-12 64.5-14t58.5-7q33-20 28-66T631-6Q385 2 141-6q-20 0-33.5 14.5T94 45z"/><glyph unicode="Ï" horiz-adv-x="743" d="M55 1593q0 57 41 99.5t98.5 42.5 98.5-41 41-100.5-40-100.5-99-41q-57 0-98.5 41T55 1593zM96 45q0 18 10.5 37.5T133 104q84 8 100.5 24.5T252 219l2 70v758l-2 69q-2 74-18.5 93.5T147 1237q-31 2-41 28.5t2.5 51T145 1341q381-4 463 0 49 4 54-41 4-20-5.5-41.5T633 1235q-6 0-14.5-1t-14.5-1q-80-2-98.5-28.5T487 1047V219q0-76 29-94 18-12 65.5-14t59.5-7q27-16 24-64T631-6Q385 2 141-6q-20 0-32.5 14.5T96 45zm310 1548.5q0 59.5 40.5 100.5t98.5 41q59 0 100-41t41-100.5-41-100.5-100-41q-57 0-98 41t-41 100.5z"/><glyph unicode="Ð" horiz-adv-x="1628" d="M12 655v70q2 2 0 13.5T23.5 763 63 776h154q6 0 13.5 12.5T238 813v242q0 133-22.5 157.5T82 1237q-51 0-51 57 0 49 49 60l166 6q152 6 459 6 203 0 341-34t248-113q125-90 196-221.5t71-284.5q0-231-152-422.5T1028 33Q924 2 859.5-4T588-10q-438 0-512-2-16-2-31.5 8T29 27q0 45 6 55 8 12 16 18t13.5 7.5 18.5 0 19-1.5q84 0 107.5 19.5T236 215q2 59 2 369 0 20-21 20l-172-2q-33 4-33 53zm465-438q0-86 19.5-103.5T621 96q145 0 212.5 9.5T969 147q143 66 229 210.5t86 322.5q0 145-54.5 268T1083 1143q-63 47-133.5 70.5T760 1249q-119 10-191 11-6 0-28.5 2t-34.5 0q-29-4-29-29V809q0-25 10.5-29t51.5-6q27 0 84 1t107 2 52 1q55 0 56-57v-76q-6-27-15.5-33t-38.5-6l-288-2q-18 0-19-29V217z"/><glyph unicode="Ñ" horiz-adv-x="1708" d="M65.5 79Q78 109 117 109q131 0 131 94v991q-45 27-148 31-12 0-20 17.5t-8 37.5q0 49 53 53 55 4 160.5 2t128.5-2q39 0 65-30l797-895h-2q27-31 26-2v636q0 133-18 152-12 12-45 18-16 2-53 4.5t-56 4.5q-25 0-36 28.5t-.5 56 38.5 27.5q145-6 494 2 29 0 35-59 2-51-49-51-109-4-127.5-22.5T1464 1075V29q0-43-58-49.5T1333-4q-178 201-468 527.5T436 1008q-4 2-10 8-8-6-10-15V297q0-98 10-129 8-23 25.5-35t30-14 44-2H563q51-4 60-27 14-23 4.5-60.5T580-6Q254 0 106-8q-27-2-40 27.5T65.5 79zM485 1507q6 137 60.5 214t156.5 77q86 0 209-84 74-49 107-49 25 0 36 21.5t12 48 14.5 49 41.5 24.5q43 0 47-28 4-14 5-31 0-113-62-190.5T952 1481q-88 0-204 82-78 53-107 53-18 0-30.5-13.5T588 1542q0-2-6-39-12-25-50-30t-47 34z"/><glyph unicode="Ò" horiz-adv-x="1693" d="M92 641q0 315 214 522t544 207q324 0 532.5-191.5T1591 696q0-311-213-523T846-39q-324 0-539 195.5T92 641zm268 53q0-266 146.5-439T881 82q236 0 339 152.5T1323 637q0 274-146 445t-384 171q-195 0-314-153.5T360 694zm299 1096q-20 29 .5 51.5T705 1864l147 2q45 0 57-29 51-135 103-332 0-27-16.5-37t-36-4.5T930 1479q-102 133-271 311z"/><glyph unicode="Ó" horiz-adv-x="1693" d="M92 643q0 313 214 520t544 207q324 0 532.5-191.5T1591 696q0-311-213-523T846-39q-324 0-539 195.5T92 643zm268 51q0-266 146.5-439T881 82q236 0 339 152.5T1323 637q0 274-146 445t-384 171q-195 0-314-153.5T360 694zm388 789 98 327q12 41 55 41 33 0 90.5 2t77.5 0q35-2 49.5-12t9.5-31q0-12-6-22l-297-340q-16-23-53-13.5t-24 48.5z"/><glyph unicode="Ô" horiz-adv-x="1693" d="M92 641q0 315 214 522t544 207q324 0 532.5-191.5T1591 696q0-311-213-523T846-39q-324 0-539 195.5T92 641zm268 53q0-266 146.5-439T881 82q236 0 339 152.5T1323 637q0 274-146 445t-384 171q-195 0-314-153.5T360 694zm215 787 179 311q10 18 41 31 14 2 75.5 3t81.5-1q35-2 52-31l176-303q26-47-15-57-39-12-59 8l-232 196-219-196q-18-12-39.5-11t-36 16-4.5 34z"/><glyph unicode="Õ" horiz-adv-x="1693" d="M92 641q0 315 214 522t544 207q324 0 532.5-191.5T1591 696q0-311-213-523T846-39q-324 0-539 195.5T92 641zm268 53q0-266 146.5-439T881 82q236 0 339 152.5T1323 635q0 274-146 445t-384 171q-195 0-314-152.5T360 694zm146 795q6 129 60.5 202.5T721 1765q86 0 207-79 74-47 104-48 25 0 36 20.5t12 46.5 14.5 47.5 42.5 21.5q12 2 27.5-4.5t17.5-22.5q4-14 4-29 0-109-60.5-183.5T969 1460q-86 0-203 76-82 55-104 55-18 0-29.5-12t-24.5-57q0-6-1-12.5t-3-13.5-2-11q-12-23-49-28t-47 32z"/><glyph unicode="Ö" horiz-adv-x="1693" d="M92 641q0 315 214 522t544 207q324 0 532.5-191.5T1591 696q0-311-213-523T846-39q-324 0-539 195.5T92 641zm268 53q0-266 146.5-439T881 82q236 0 339 152.5T1323 635q0 274-146 445t-384 171q-195 0-314-152.5T360 694zm166 910q0 57 42 99t101.5 42 101.5-41 42-100.5-42-100.5-101.5-41-101.5 41-42 101zm359-.5q0 59.5 42 100.5t101 41 101-41 42-100.5-42-100.5-101-41-101 41-42 100.5z"/><glyph unicode="×" horiz-adv-x="1431" d="M200 269q-3 24 19 48 117 111 363 357 16 14 2 28l-353 351q-14 12-22 24.5t-8 23.5v19l9 19.5 13 16.5 18.5 18.5L260 1192q55 27 82 0 166-156 365-365 12-12 19-11t26 18q162 147 331 340 14 16 46 25t49-3q4-2 25.5-20.5t27.5-25.5 15-23.5 4-31-21-30.5q-25-25-175.5-174.5T856 700q-12-10-2-20l365-356q14-12 21-23.5t6-23 0-17.5-11-18.5-14-14.5-21-16l-18-14q-49-39-88-2L750 539q-29 27-60-7-109-117-336-331-10-10-20-15.5t-18.5-8.5-18.5 0-15.5 5-16.5 10.5-15 11.5-16.5 14-14.5 13q-16 14-19 38z"/><glyph unicode="Ø" horiz-adv-x="1769" d="M92 649q0 313 230.5 524T889 1384q248 0 442-116 8-4 27 16l112 139q33 27 66 4l16-12q37-29-6-76l-100-114q-20-20-12-29 233-203 233-498 0-313-227-528T883-45Q654-45 453 63q-16 8-41-16L268-121q-29-25-42-23.5T186-125q-39 35-8 70l146 161q20 27 10 35Q92 344 92 649zm270 53q0-238 115-395 10-10 14.5-7t20.5 22q397 475 670 770 31 31 20 38-150 136-373 136-203 0-335-156T362 702zm211-497q0-6 2-8Q725 72 920 72q236 0 362 182 113 162 117 383t-105 385q-9 19-34-10-160-182-678-779-6-6-7.5-14t-1.5-14z"/><glyph unicode="Ù" horiz-adv-x="1669" d="M41 1287q-10 50 35 54 41 2 230.5 2t316.5-2q27 0 35-26.5t-3.5-53T621 1235h-19q-82 0-106.5-22.5T469 1118q0-16-1-45t-1-43V641q0-240 90-373t313-133q285 0 369 225 31 80 31 269v362q0 162-28 201t-136 41l-14 6q-25 6-28 54t32 48q225 4 499 0 39 0 39-51 0-45-37-53-109-4-138-43t-29-195V631q0-131-6.5-198.5t-47.5-157T1253 115q-94-82-188-118T823-39q-403 0-547 313-31 70-39 128.5T229 610v520q0 72-22.5 88.5T76 1235q-25 2-35 52zm579 493q19 22 46 22l155 2q41 0 58-28 55-143 102-332 0-29-19.5-39t-40-6-28.5 14q-113 145-272 316-20 29-1 51z"/><glyph unicode="Ú" horiz-adv-x="1669" d="M41 1287q-10 50 35 54 41 2 230.5 2t316.5-2q27 0 35-26.5t-3.5-53T621 1235h-19q-82 0-106.5-22.5T469 1118q0-14-1-42.5t-1-45.5V641q0-240 90-373t313-133q285 0 369 225 31 80 31 269v362q0 162-28 201t-136 43l-14 4q-25 6-28 54t32 48q225 4 499 0 39 0 39-51 0-45-37-53-109-4-138-43t-29-195V631q0-131-6.5-198.5t-47.5-157T1253 115q-94-82-188-118T823-39q-403 0-547 313-31 70-39 128.5T229 610v520q0 72-22.5 88.5T76 1235q-25 2-35 52zm674 155 98 327q12 41 57 41l179 2q27 0 42-14t7-39l-2-2-295-354q-16-23-57.5-11.5T715 1442z"/><glyph unicode="Û" horiz-adv-x="1669" d="M40 1312.5q5 26.5 36 28.5 41 2 230.5 2t316.5-2q27 0 35-26.5t-3.5-53T621 1235h-19q-82 0-106.5-22.5T469 1118q0-16-1-45t-1-43V641q0-240 90-373t313-133q285 0 369 225 31 80 31 269v362q0 162-28 201t-136 41l-14 4q-25 8-28 56t32 48q225 4 499 0 39 0 39-51 0-45-37-53-109-4-138-44t-29-194V631q0-131-6.5-198.5t-47.5-157T1253 115q-94-82-188-118T823-39q-403 0-547 313-31 70-39 128.5T229 610v520q0 70-22.5 86.5T76 1235q-14 0-27.5 25.5t-8.5 52zM545 1511l178 304q8 18 39 30 14 2 71.5 3t79.5-1q33-2 50-30l186-295q10-12 8-33t-22-25q-39-8-62 9l-231 196-217-196q-18-12-41-11.5t-37.5 16-1.5 33.5z"/><glyph unicode="Ü" horiz-adv-x="1669" d="M41 1285q-10 50 35 54 41 4 230.5 4t316.5-4q27 0 35-26.5t-3.5-53T621 1233h-19q-80 0-102.5-21.5T475 1116q0-14-1-43t-1-45V639q0-240 87-372t310-132q283 0 369 223 31 82 31 269v362q0 162-28 201t-136 41l-14 6q-25 6-28 54t32 48q225 4 499 0 39 0 39-51 0-45-37-53-109-4-138-43t-29-195V629q0-129-6.5-196.5t-47.5-157T1253 115q-94-82-188-118T823-39q-408 0-551 311-31 70-39 129.5T225 610v518q0 74-20.5 89.5T76 1233q-25 2-35 52zm444 302.5q0 59.5 42 100.5t101.5 41 101.5-42 42-100q0-59-42-100t-101.5-41-101.5 41-42 100.5zm459 0q0 57.5 43 99.5t102.5 42 100.5-41 41-100.5-41-100.5-100.5-41-102.5 42-43 99.5z"/><glyph unicode="Ý" horiz-adv-x="1490" d="M23 1257q-4 18 0 39 10 43 45 41 389-6 540 0 23 0 37-27.5t4-54-47-26.5q-96 0-96-19 0-14 4-26 10-25 47-82l264-397q2-4 7.5-3.5t9.5 5 8 10.5l217 360q55 94 55 121 0 18-15.5 25.5t-72.5 7.5h-24q-10 4-18.5 21.5t-10.5 37 11 33.5 40 14q131-8 436 0 41 0 41-51 0-53-39-55-27-2-50-8t-40.5-12.5-37-24-30-26.5-26.5-33.5-22.5-34-24.5-40-23-38.5L915 520V217q0-57 30-77.5t91-22.5h16.5l15.5 1 16.5-1 15.5-6q20-12 20-64 0-55-45-55-393 6-553 2-39 0-53 26-10 29-2 60 8 20 22.5 29.5T515 119t34.5-1 34.5-1q45 2 63.5 26.5T670 219q8 143 2 275l-367 565q-70 111-109.5 139.5T72 1229q-41 0-49 28zm624 242 98 330q20 39 58 39l178 2q29 0 42-14t5-41l-293-355q-18-23-58-11.5t-30 50.5z"/><glyph unicode="Þ" horiz-adv-x="1206" d="M37 1290v19q0 41 41 41 358-6 508-2 51 4 51-39v-23q0-37-23-41-6-2-18-2-98 0-113-20-10-16-10-97 0-4 6-10t13-6q227 0 350-31 135-35 219-135t84-239q0-197-144.5-309.5T612 283q-82 0-125 6-8 2-11-2.5t-3-14.5v-51q0-74 25.5-98.5T606 98h62q43-2 43-39 2-20 0-32.5T696.5 3 657-8q-295 8-544-2-39 0-45 18-4 8-2 23v16l2 21q6 29 57 28 61 0 81.5 16.5T227 184v924q0 94-10 119-8 10-31 12-16 6-63 5t-64 3q-23 4-22 43zm436-868q0-10 2-16.5t4-8.5l2-2q37-6 74-6 147 0 237.5 90T883 717q0 191-123 254-102 53-260 35-27 0-27-15V422z"/><glyph unicode="ß" horiz-adv-x="1116" d="M29 41q0 18 1 27.5T41 88t31 10q70 6 78 17 10 14 10 90v583q0 236 20.5 333.5T268 1305q115 152 320 151 162 0 274.5-97T975 1116q0-109-57.5-176.5T750 803q-14-12 8-21 131-51 207.5-153.5T1042 389q0-193-111.5-308.5T657-35q-53 0-91 25.5T528 63q0 37 23.5 64t58.5 27q29 0 78-29 45-18 47-19 14 0 31.5 26t32 87.5T813 362q0 315-190 357-39 8-101 8-31 0-47 14-6 8-6 50 0 20 7 25t34 9q125 16 190.5 88t65.5 187q0 113-55.5 178T565 1343q-92 0-141-77-53-82-53-254V193q0-63 11-77t71-14q23-4 29.5-6t13-12 6.5-31q0-37-2-43-18-23-39-18Q248 0 76-8 47-10 38 4t-9 37z"/><glyph unicode="à" horiz-adv-x="862" d="M47 172q0 160 227 219 59 14 181 70 12 8 12 18l-2 125q-2 156-113 156-27 0-59.5-23.5T260 692q0-29 10-51-16-18-67-43t-70-31q-74-25-74 49 0 78 134 183 111 84 200 84 68 0 134.5-34T633 762q25-37 31-67.5t6-125.5V213q0-35 3-51.5t7-20.5 12-4q31 0 72 31 14 10 33 10 18-2 27.5-17.5t8-31.5-7.5-31Q690-25 598-24.5T477 74v-2Q407 17 364.5-4T262-25q-94 0-154.5 54.5T47 172zm158.5 1149.5Q227 1346 254 1346l152 2q43 0 55-29 66-168 102-330 0-29-19.5-39t-39-5-29.5 13q-106 143-268 314-23 25-1.5 49.5zM242 197q0-37 25.5-61.5T332 111q25 0 73 30.5t60 55.5v135q0 6-4 12t-8 4q-39-18-117-51-94-37-94-100z"/><glyph unicode="á" horiz-adv-x="862" d="M47 172q0 160 227 219 59 14 181 70 12 8 12 18l-2 125q-2 156-113 156-27 0-59.5-23.5T260 692q0-29 10-51-16-18-67-43t-70-31q-74-25-74 49 0 78 134 183 111 84 200 84 68 0 134.5-34T633 762q25-37 31-67.5t6-125.5V213q0-35 3-51.5t7-20.5 12-4q31 0 72 31 14 10 33 10 18-2 27.5-17.5t8-31.5-7.5-31Q690-25 598-24.5T477 74v-2Q407 17 364.5-4T262-25q-94 0-154.5 54.5T47 172zm195 25q0-37 25.5-61.5T332 111q25 0 73 30.5t60 55.5v135q0 6-4 12t-8 4q-39-18-117-51-94-37-94-100zm59 790 96 326q12 41 58 41h176q20 0 35.5-10.5T680 1309l-2-2q-4-12-6-15L387 950q-16-23-57-12.5T301 987z"/><glyph unicode="â" horiz-adv-x="862" d="M47 172q0 160 227 219 59 14 181 70 12 8 12 18l-2 125q-2 156-113 156-27 0-59.5-23.5T260 692q0-29 10-51-16-18-67-43t-70-31q-74-25-74 49 0 78 134 183 111 84 200 84 68 0 134.5-34T633 762q25-37 31-67.5t6-125.5V213q0-35 3-51.5t7-20.5 12-4q31 0 72 31 14 10 33 10 18-2 27.5-17.5t8-31.5-7.5-31Q690-25 598-24.5T477 74v-2Q407 17 364.5-4T262-25q-94 0-154.5 54.5T47 172zm57 829 181 297q12 16 39 29 12 2 62 3t73-1q33-2 49-29l178-290q19-44-16-54-37-10-58 9l-221 186-207-186q-16-12-38.5-11.5t-37 15-4.5 32.5zm138-804q0-37 25.5-61.5T332 111q25 0 73 30.5t60 55.5v135q0 6-4 12t-8 4q-39-18-117-51-94-37-94-100z"/><glyph unicode="ã" horiz-adv-x="862" d="M47 172q0 160 227 219 59 14 181 70 12 8 12 18l-2 125q-2 156-113 156-27 0-59.5-23.5T260 692q0-29 10-51-16-18-67-43t-70-31q-74-25-74 49 0 78 134 183 111 84 200 84 68 0 134.5-34T633 762q25-37 31-67.5t6-125.5V213q0-35 3-51.5t7-20.5 12-4q31 0 72 31 14 10 33 10 18-2 27.5-17.5t8-31.5-7.5-31Q690-25 598-24.5T477 74v-2Q407 17 364.5-4T262-25q-94 0-154.5 54.5T47 172zm39 797q14 274 215 274 86 0 207-78 72-47 104-47 25 0 36 20.5t12.5 45 13.5 46 41 23.5q43 0 47-28 4-12 4-27 0-109-60.5-183.5T549 940q-86 0-205 78-80 53-104 53-18 0-29.5-13.5T188 1001q0-6-4-18t-4-18q-12-23-49-27t-45 31zm156-772q0-37 25.5-61.5T332 111q25 0 73 30.5t60 55.5v135q0 6-4 12t-8 4q-39-18-117-51-94-37-94-100z"/><glyph unicode="ä" horiz-adv-x="862" d="M47 172q0 160 227 219 59 14 181 70 12 8 12 18l-2 125q-2 156-113 156-27 0-59.5-23.5T260 692q0-29 10-51-16-18-67-43t-70-31q-74-25-74 49 0 78 134 183 111 84 200 84 68 0 134.5-34T633 762q25-37 31-67.5t6-125.5V213q0-35 3-51.5t7-20.5 12-4q31 0 72 31 14 10 33 10 18-2 27.5-17.5t8-31.5-7.5-31Q690-25 598-24.5T477 74v-2Q407 17 364.5-4T262-25q-94 0-154.5 54.5T47 172zm82 920q0 53 40 93t95 40 95-40 40-93q0-57-40-96.5T264 956t-95 39-40 97zm113-895q0-37 25.5-61.5T332 111q25 0 73 30.5t60 55.5v135q0 6-4 12t-8 4q-39-18-117-51-94-37-94-100zm223 895q0 53 40 93t95 40 95-39 40-94.5-39-95.5-96-40q-55 0-95 39t-40 97z"/><glyph unicode="å" horiz-adv-x="862" d="M47 172q0 160 227 219 59 14 181 70 12 8 12 18l-2 125q-2 156-113 156-27 0-59.5-23.5T260 692q0-29 10-51-16-18-67-43t-70-31q-74-25-74 49 0 78 134 183 111 84 200 84 68 0 134.5-34T633 762q25-37 31-67.5t6-125.5V213q0-35 3-51.5t7-20.5 12-4q31 0 72 31 14 10 33 10 18-2 27.5-17.5t8-31.5-7.5-31Q690-25 598-24.5T477 74v-2Q407 17 364.5-4T262-25q-94 0-154.5 54.5T47 172zm141 1003.5q0 90.5 64.5 154T410 1393q90 0 153.5-63.5t63.5-154-63.5-155T410 956q-92 0-157 64.5t-65 155zM242 197q0-37 25.5-61.5T332 111q25 0 73 30.5t60 55.5v135q0 6-4 12t-8 4q-39-18-117-51-94-37-94-100zm80 979q0-37 25.5-63t62.5-26q35 0 59.5 26t24.5 63q0 35-24.5 60.5T410 1262q-37 0-62.5-26t-25.5-60z"/><glyph unicode="æ" horiz-adv-x="1339" d="M63 164q0 96 61.5 146T342 399q94 23 170 70v119q0 168-121 168-45 0-74.5-22.5T287 686q0-6 1-21.5t1-21.5-6.5-16.5T262 610l-110-49q-35-18-52.5-7T82 621q0 78 141 184 104 78 203 78 135 0 227-99 6-4 11 0 113 102 274 103 127 0 196.5-60.5T1257 643q10-18 37-45v-37q0-29-14-37t-47-8H750q-35 0-35-22 0-131 22-199 23-70 88.5-116T965 133q59 0 103 23.5t108 87.5q33 37 59 10l25-21q31-25-3-61Q1071-35 889-35q-176 0-285 144-10 10-18 4Q520 47 438 6T285-35q-92 0-157 56.5T63 164zm203 26q0-86 90-86 70 0 156 80v115q0 25-2 36t-12 5q-63-27-103-39-80-27-104.5-49.5T266 190zm467 449q-4-18 17-18h276q18 0 14 14-18 70-58 106.5T893 778q-117 0-160-139z"/><glyph unicode="ç" horiz-adv-x="888" d="M51 391q0 207 147.5 350.5T555 885q100 0 179-39t79-109q0-39-26.5-66.5T721 643q-59 0-139 74-51 51-99 51-88 0-157.5-98.5T256 434q0-145 71.5-234T508 111q131 0 215 122 25 41 61 33 25-14 33-39 6-20-10-47Q690 0 516-33l-31-57q-2-2-6-4 61-14 103.5-63.5T625-272q0-84-64.5-145.5T410-479q-49 0-93 14-16 6-21 25.5t3 38.5l4 4q2 4 4 6 12 27 66 16 6-2 16-2 33 0 59.5 21.5T475-305q0 45-43 52t-96-36q-16-16-44-.5T281-246L401-45q6 8-2 8Q245-25 148 96T51 391z"/><glyph unicode="è" horiz-adv-x="874" d="M43 418q0 199 123 333t309 134q215 0 305-185 31-66 56-96 12-25 2-51.5T791 524q-147-6-523 0-27 0-26-57 0-145 77.5-237.5T514 137q129 0 231 119 20 25 50 16 23-4 34-27.5t-2-45.5Q626-30 434-31q-168 0-279.5 131T43 418zm209 854q-20 29 0 51.5t45 22.5l152 2q45 0 57-29 53-147 100-330 0-39-36-44t-52 13q-113 147-266 314zm14-635q6-8 25-8h276l25 2q-43 151-162 151-111 0-164-145z"/><glyph unicode="é" horiz-adv-x="874" d="M43 418q0 201 123 334t309 133q215 0 305-185 37-72 56-96 12-25 2-51.5T791 524q-147-6-523 0-27 0-26-57 0-145 77.5-237.5T514 137q129 0 231 119 20 25 50 16 23-4 34-27.5t-2-45.5Q626-30 434-31q-168 0-279.5 131T43 418zm223 219q6-8 25-8h276l25 2q-43 151-162 151-111 0-164-145zm78 350 98 326q12 41 56 41h176q23 0 38-9.5t11-31.5q0-15-8-21L430 950q-16-23-56-12.5T344 987z"/><glyph unicode="ê" horiz-adv-x="874" d="M43 418q0 199 123 333t309 134q215 0 305-185 33-70 56-96 12-25 2-51.5T791 524q-147-6-523 0-27 0-26-57 0-145 77.5-237.5T514 137q129 0 231 119 20 25 50 16 23-4 34-27.5t-2-45.5Q626-30 434-31q-168 0-279.5 131T43 418zm141 583 181 297q12 16 38 29 12 2 62.5 3t73.5-1q33-2 49-29l178-290q19-44-16-54-37-10-58 9l-221 186-207-186q-16-12-38.5-11.5t-37 15-4.5 32.5zm82-366q6-8 25-6h276l25 2q-43 151-162 151-111 0-164-147z"/><glyph unicode="ë" horiz-adv-x="874" d="M43 418q0 199 123 333t309 134q215 0 305-187 35-72 56-94 23-78-45-80-147-6-523 0-27 0-26-57 0-145 77.5-237.5T514 137q129 0 231 119 20 25 50 16 23-4 34-27.5t-2-45.5Q626-30 434-31 266-31 154.5 99T43 418zm129 674q0 53 40 93t97 40q55 0 95-40t40-93q0-57-40-96.5T309 956q-57 0-97 39t-40 97zm94-457q6-8 25-6h276l25 2q-43 151-162 151-111 0-164-147zm242 457q0 53 40 93t95 40q57 0 96-39t39-94.5-39-95.5-96-40q-55 0-95 39t-40 97z"/><glyph unicode="ì" horiz-adv-x="559" d="M39 45q-4 55 35 57 96 8 110 31 8 14 9 45v447q0 70-5 77-2 2-8 4.5t-13 4.5-9 2q-43 8-82 22-25 10-24 43t20 45q111 43 241 86 78 25 78-69V268q0-74 2-102 2-43 13.5-50t60.5-7q51 4 57-41V31q0-41-51-37-96 6-395 0-14 0-25.5 16.5T39 45zm23.5 1278.5Q82 1346 106 1346l148 2q39 0 55-27 57-154 97-317 0-39-37-42t-47 13q-74 98-259 301-20 25-.5 47.5z"/><glyph unicode="í" horiz-adv-x="559" d="M39 45q-4 55 35 57 96 8 110 31 8 14 9 45v447q0 70-5 77-2 2-8 4.5t-13 4.5-9 2q-43 8-82 22-25 10-24 43t20 45q111 43 241 86 78 25 78-69V268q0-74 2-102 2-43 13.5-50t60.5-7q51 4 57-41V31q0-41-51-37-96 6-395 0-14 0-25.5 16.5T39 45zm121 977 94 313q12 39 55 39h172q18 0 33.5-8t13.5-31q0-12-8-20L244 985q-14-23-54-12.5t-30 49.5z"/><glyph unicode="î" horiz-adv-x="559" d="m2 1083 180 297q12 16 39 29 12 2 62.5 3t72.5-1q33-2 50-29l178-290q18-44-17-54-37-10-57 9l-221 186-207-186q-16-12-39-11.5t-37 15-4 32.5zM39 45q-4 55 35 57 96 8 110 31 8 14 9 45v447q0 70-5 77-2 2-8 4.5t-13 4.5-9 2q-43 8-82 22-25 10-24 43t20 45q129 49 241 84 78 25 78-67V268q0-74 2-102 2-43 13.5-50t60.5-7q51 4 57-41 0-2-1-17.5T522 31h2q0-41-51-37-96 6-395 0-14 0-25.5 16.5T39 45z"/><glyph unicode="ï" horiz-adv-x="559" d="M-35 1161q0 53 41 92t98 39q59 0 100.5-37.5t41.5-93-42-93.5-99.5-38T6 1068t-41 93zM39 43q-2 20 6 38.5T74 102q96 8 110 31 8 14 9 45v445q0 72-5 79-2 2-8 4.5t-13 4.5-9 2q-43 8-82 22-25 10-24 43t20 45q174 61 241 84 78 25 78-67V268q0-74 2-102 2-43 13.5-50t60.5-7q51 4 57-41V31q0-41-51-37-96 6-395 0-14 0-25.5 16.5T39 43zm276 1118.5q0 55.5 42 93t99.5 37.5 98.5-39 41-92-41-92-98.5-39-99.5 38-42 93.5z"/><glyph unicode="ð" horiz-adv-x="1116" d="M84 436q0 199 136 335t335 136q70 0 129-20l8-2q0 14-47 90-43 61-108 121-23 23-56 6L225 969q-39-12-59 26-23 49 22 74l220 115q8 4 0 8-58 34-132 59-18 6-33.5 24.5t-.5 41.5l14 26q27 43 76 31 158-47 250-98l180 88q51 14 72-23 29-49-78-102-4-2-6-2-47-20-52-23-14-10 0-18 61-45 122-118.5T922 932q119-209 118-440 0-274-153-408Q752-35 565-35 354-35 219 98T84 436zm215 68q0-182 86-304T590 78q100 0 166.5 81T823 371q0 184-86 303T528 793q-94 0-161.5-82T299 504z"/><glyph unicode="ñ" horiz-adv-x="1062" d="M33 45q0 25 2 33 14 20 35 20h10q59 0 76.5 29T174 281v268q0 131-6 149-6 8-64 19l-41 8q-31 8-26.5 47T61 819q84 27 177 64 47 16 63 20 39 8 55.5-4t16.5-49v-86q0-14 2-16.5t12 4.5q188 127 293 127 244 0 244-373 0-59-8.5-177T907 152q0-33 12.5-41.5T981 102q33 10 55-14 10-12 8-45t-22-43q-8-4-31-4-49 0-187 1T612-4q-31-2-40 7t-11 36q0 63 35 63h12q59 4 78 21.5t25 69.5q12 113 12 342 0 197-125 196-80 0-225-104V195q0-66 15-79.5t85-13.5q31 0 37-36 0-41-6-54-6-14-41-18-59 2-195.5 0T72-4Q43-2 37 12q-4 8-4 33zm149 983q6 135 60.5 212t156.5 77q86 0 209-82 74-51 107-51 25 0 35 21.5t11 48 15.5 49T819 1327q43 0 45-29 4-14 4-30 0-113-60.5-190T649 1001q-88 0-205 82-78 53-106 54-18 0-29.5-13.5T285 1061q0-6-3-18.5t-3-20.5q-12-23-50.5-28t-46.5 34z"/><glyph unicode="ò" horiz-adv-x="1024" d="M41 430q0 199 135 332t336 133q203 0 341-134t136-333q-2-193-138-326T518-31q-203 0-340 132T41 430zm217 66q0-176 85-294T543 84q94 0 159.5 83T768 381q0 166-86 283.5T483 782q-94 0-159.5-80.5T258 496zm69.5 845.5Q350 1366 373 1366l155 2q39 0 58-27 53-141 98-329 4-41-34-46t-52 13q-129 166-270 313-23 25-.5 49.5z"/><glyph unicode="ó" horiz-adv-x="1024" d="M41 432q0 199 135 331t336 132q203 0 341-133t136-332q-2-195-137-328T518-31q-203 0-340 132T41 432zm217 64q0-176 85-294T543 84q94 0 159.5 83T768 381q0 166-86 283.5T483 782q-94 0-159.5-80.5T258 496zm170 532 98 328q20 39 56 39h178q23 0 38-10.5t11-30.5q0-2-2-6v-7L516 989q-20-20-59-10t-29 49z"/><glyph unicode="ô" horiz-adv-x="1024" d="M41 428q0 199 134 329t337 130 341-132 136-329q-2-193-137-325T518-31q-203 0-340 132T41 428zm182 592 180 297q12 16 39 29 12 2 62.5 3t73.5-1q33-2 49-29l178-291q20-45-17-53-37-10-57 8l-221 186-207-186q-16-12-38.5-11t-37 15-4.5 33zm35-531q0-172 85-288.5T543 84q94 0 159.5 82T768 379q0 164-86 279.5T483 774q-94 0-159.5-80T258 489z"/><glyph unicode="õ" horiz-adv-x="1024" d="M41 428q0 197 135 328t336 131q203 0 341-133t136-328q-2-193-137-325T518-31q-203 0-340 132T41 428zm147 563q14 274 215 275 86 0 207-78 72-47 105-47 25 0 36 20.5t12 45 13 46 41 23.5q43 0 47-27 4-14 4-28 0-109-60.5-183.5T651 963q-86 0-205 77-80 53-104 54-18 0-29.5-13.5T291 1024q0-6-4-18.5t-4-18.5q-12-23-49-27t-46 31zm70-502q0-172 85-288.5T543 84q94 0 159.5 81T768 377q0 166-86 281.5T483 774q-94 0-159.5-80T258 489z"/><glyph unicode="ö" horiz-adv-x="1024" d="M41 430q0 199 135 331t336 132q203 0 341-134t136-331q-2-195-137-327T518-31q-203 0-340 132T41 430zm174 662q0 53 40 93t95.5 40 95-40 39.5-93q0-57-39.5-96.5t-95-39.5-95.5 39-40 97zm43-598q0-174 85-292T543 84q94 0 159.5 83T768 381q0 164-86 280.5T483 778q-94 0-159.5-80T258 494zm293 598q0 53 40 93t95 40q57 0 97-39t40-94.5-40-95.5-97-40q-55 0-95 39t-40 97z"/><glyph unicode="÷" horiz-adv-x="1431" d="M141 651v70q0 57 70 57h1049.5l14.5-3 9-5 3-11 2-18.5v-30l3-40.5q2-37-12-49.5t-49-12.5H213q-72 0-72 43zm467-368q0 45 32 74.5t77 29.5 75.5-29.5T823 283q0-43-30.5-74T717 178q-43 0-76 31t-33 74zm0 833q2 41 35 68.5t74 27.5q43 0 74.5-29.5T823 1110t-31.5-73.5T717 1006q-45 0-77 32.5t-32 77.5z"/><glyph unicode="ø" horiz-adv-x="1116" d="M82 420q0 201 138 334t343 133q137 0 256-70 16-8 23 0l4 4 84 94q25 31 53 3 8-8 27-29 16-20-9-49-6-6-10-11-27-29-65-75-10-13 4-27 115-131 114-303 0-197-137-329T569-37q-147 0-272 78-2 0-4-2L184-94q-33-29-61 0l-21 16q-27 20 4 60 61 72 97 108 12 14 0 27Q82 244 82 420zm225 63q0-113 37-200 10-16 23-4l344 389q8 12-2 22-78 84-174.5 84t-162-81T307 483zm111-305q-6-10 4-20 74-80 170-80t163.5 83T823 375q0 100-41 190-6 20-16 8z"/><glyph unicode="ù" horiz-adv-x="1093" d="M44 780.5q-7 18.5 0 40T78 848q25 6 110.5 30.5T315 911q29 6 43.5-12t14.5-39V379q0-152 30.5-197T522 137q82 0 203 92 0 2 2 7.5t3 9.5 1 8v381q0 102-49 113-20 4-58 10t-57 8q-23 12-22.5 48t28.5 42q227 49 295 57 63 4 64-51V174q0-18 11-24.5t19.5-4.5 28.5 7q6 2 20.5 6t20.5 6q27 4 39-19.5t5-51-29-32.5Q930 11 817-12q-82-18-84 47 0 2-1 12t-2 28.5-1 28.5q0 18-18 5-59-41-92-62.5t-91.5-44T416-20q-125 0-186.5 77.5T168 270v416q0 27-5 36t-24 15q-14 4-40.5 11.5T59 760q-8 2-15 20.5zm286.5 602Q352 1407 377 1407l153 2q41 0 58-27 59-156 100-329 2-41-36-46t-50 13q-98 129-270 313-23 25-1.5 49.5z"/><glyph unicode="ú" horiz-adv-x="1093" d="M44 780.5q-7 18.5 0 40T78 848q25 6 110.5 30.5T315 911q29 6 43.5-12t14.5-39V379q0-152 30.5-197T522 137q82 0 203 92 0 2 2 7.5t3 9.5 1 8v381q0 102-49 113-20 4-58 10t-57 8q-23 12-22.5 48t28.5 42q227 49 295 57 63 4 64-51V174q0-18 11-24.5t19.5-4.5 28.5 7q6 2 20.5 6t20.5 6q27 4 39-19.5t5-51-29-32.5Q930 11 817-12q-82-18-84 47 0 2-1 12t-2 28.5-1 28.5q0 18-18 5-59-41-92-62.5t-91.5-44T416-20q-125 0-186.5 77.5T168 270v416q0 27-5 36t-24 15q-14 4-40.5 11.5T59 760q-8 2-15 20.5zM424 1049l98 327q20 39 58 39h178q23 0 38-10t11-31v-6l-2-4v-2l-293-350q-18-23-59-12.5t-29 49.5z"/><glyph unicode="û" horiz-adv-x="1093" d="M44 780.5q-7 18.5 0 40T78 848q25 6 110.5 30.5T315 911q29 6 43.5-12t14.5-39V379q0-152 30.5-197T522 137q82 0 203 92 0 2 2 7.5t3 9.5 1 8v381q0 102-49 113-20 4-58 10t-57 8q-23 12-22.5 48t28.5 42q227 49 295 57 63 4 64-51V174q0-18 11-24.5t19.5-4.5 28.5 7q6 2 20.5 6t20.5 6q27 4 39-19.5t5-51-29-32.5Q930 11 817-12q-82-18-84 47 0 2-1 12t-2 28.5-1 28.5q0 18-18 5-59-41-92-62.5t-91.5-44T416-20q-125 0-186.5 77.5T168 270v416q0 27-5 36t-24 15q-14 4-40.5 11.5T59 760q-8 2-15 20.5zM236 1061l180 297q12 16 39 28 12 2 62 3.5t73-.5q33-2 49-29l178-291q21-45-16-53-37-10-58 8l-221 186-207-186q-16-12-38.5-11t-37 15-3.5 33z"/><glyph unicode="ü" horiz-adv-x="1093" d="M44 780.5q-7 18.5 0 40T78 848q25 6 110.5 30.5T315 911q29 6 43.5-12t14.5-39V379q0-152 30.5-197T522 137q82 0 203 92 0 2 2 7.5t3 9.5 1 8v381q0 102-49 113-20 4-58 10t-57 8q-23 12-22.5 48t28.5 42q227 49 295 57 63 4 64-51V174q0-18 11-24.5t19.5-4.5 28.5 7q6 2 20.5 6t20.5 6q27 4 39-19.5t5-51-29-32.5Q930 11 817-12q-82-18-84 47 0 2-1 12t-2 28.5-1 28.5q0 18-18 5-59-41-92-62.5t-91.5-44T416-20q-125 0-186.5 77.5T168 270v416q0 27-5 36t-24 15q-14 4-40.5 11.5T59 760q-8 2-15 20.5zM256 1153q0 53 40 93t95 40q57 0 97-40t40-93q0-57-40-96t-97-39q-55 0-95 39t-40 96zm336 0q0 53 40 93t97 40 96-39 39-94-39-95-96-40-97 39-40 96z"/><glyph unicode="ý" horiz-adv-x="1003" d="M19.5 786.5q-9.5 24.5 1 48T63 858h363q35 0 45-23.5t1-49-28-29.5q-43 0-61-6-35-10 2-82 27-61 53.5-127t58-150T547 262q8-20 22 17l101 272q47 121 47 156 0 29-17.5 39T616 756q-20 10-23 51t30 49h20q61 0 154.5 1t146.5 1q35 0 45-30.5t-2-53.5q-6-14-29-18-51-4-84.5-47T782 512L539-152q-49-133-86-213-31-70-74-127-43-49-117-49-45 0-82 36t-37 81q0 70 119 105 25 6 45.5 15t35.5 25.5 27.5 26.5 22.5 36 16.5 36 13.5 43 8 40 8 45 7 42L203 582q-51 125-72.5 147.5T45 758q-16 4-25.5 28.5zM385 1047l98 329q20 39 58 39h178q23 0 38-11t11-32q-2-2-2-8l-2-2-291-354q-18-23-59-11.5t-29 50.5z"/><glyph unicode="þ" horiz-adv-x="1071" d="M4-463q2 33 10.5 45T57-403q33 0 55.5 9t34 19 16.5 34 5 37-1 46-1 45v1360q0 25-6 32t-31 13q-10 2-27.5 7t-26.5 8-19.5 10.5T41 1235t-4 41q-2 20 16 33l13 6 219 135q35 23 60.5 10.5T371 1399V829q0-39 6-38 4 0 10 4 176 119 272 118 139 0 240.5-129T1001 487q0-201-141-350T526-12q-72 0-141 22-6 2-10-3t-4-15v-205q0-131 19.5-164t88.5-29q53 4 68.5-6t17.5-61q2-25-11-34t-42-9q-319 6-459 0-29-2-40 12.5T4-463zm367 676q106-96 213-96 88 0 150.5 81T797 410q0 145-71 240t-169 95q-86 0-186-86V213z"/><glyph unicode="ÿ" horiz-adv-x="1011" d="M19.5 786.5q-9.5 24.5 1 48T63 858h363q35 0 45-23.5t1-49-28-29.5q-43 0-61-6-35-10 2-82 27-61 53.5-127t58-150T547 262q8-20 22 17l101 272q47 121 47 156 0 29-17.5 39T616 756q-20 10-23 51t30 49h20q61 0 154.5 1t146.5 1q35 0 45-30.5t-2-53.5q-6-14-29-18-51-4-84.5-47T782 512L539-152q-49-133-86-213-31-70-74-127-43-49-117-49-45 0-82 36t-37 81q0 70 119 105 25 6 45.5 15t35.5 25.5 27.5 26.5 22.5 36 16.5 36 13.5 43 8 40 8 45 7 42L203 582q-51 125-72.5 147.5T45 758q-16 4-25.5 28.5zM207 1143q0 57 42 99t101.5 42 100.5-42 41-99q0-59-41-100.5T350.5 1001 249 1042t-42 101zm356-.5q0 57.5 42 99.5t100 42q59 0 101-41t42-100.5-42-100.5-101-41q-57 0-99.5 42t-42.5 99.5z"/><glyph unicode="Œ" horiz-adv-x="2121" d="M100 657q0 203 111 375t293 258q145 70 352 70 76 0 227-8 100-6 113-6 6 0 39 1t72 1h581q31 0 45.5-11.5t16.5-42.5q4-23 8-127t2-147q0-18-35-19h-37q-18 2-28 37l-11 39q-23 94-43 112.5t-96 18.5h-324q-43 0-43-22V784q0-23 37-22h236q92 0 115 18 16 18 28 103 0 6 3 15t13.5 17.5 24.5 8.5h29q20 0 26.5-9.5T1866 883q-2-51-1-190.5t1-180.5q0-51-29-51h-37q-41 0-41 47-8 78-28.5 96.5T1634 623h-272q-18 0-19-50V164q0-10 11.5-21.5T1378 131h289q115 0 148.5 8t60.5 41q55 66 66 146 4 35 43 34h22q37 0 37-53-2-72-29-260-4-27-19.5-39T1967-6t-38-2q-121 0-356.5 1T1214-6q-70 0-205-9.5T807-25q-291 0-499 199T100 657zm267 41q0-260 139-432T846 94q102 0 174 53 47 37 60.5 90.5T1094 469v563q0 111-62.5 163T829 1247q-217 0-339.5-143T367 698z"/><glyph unicode="œ" horiz-adv-x="1587" d="M86 420q0 190 140.5 326.5T565 883q190 0 301-129 0-4 6 6 123 123 297 123 231 0 314-203 20-51 57-84v-39q0-41-47-41h-481q-37 0-37-22 4-162 77.5-267.5T1223 121q80 0 219 131 31 31 55 0 25-25 27-31 8-20-15-43-76-86-174-149-102-63-205-64-149 0-243 129Q766-35 569-35 364-35 225 95T86 420zm221 57q0-162 87-278.5T588 82q86 0 138 73.5T778 373q0 182-73 290.5T528 772q-90 0-155.5-83T307 477zm684 162q-4-18 19-18h250q20 0 20 4-8 74-48 116.5t-93 42.5q-113 0-148-145z"/><glyph unicode="Ÿ" horiz-adv-x="1490" d="M23 1253q-4 16 0 37 10 47 45 41 389-6 540 0 23 0 37-26.5t4-54-47-27.5q-59 0-74-2-31-6-18-41 10-25 47-82l254-383q6-10 7-12.5t6-5.5 10.5 2.5T846 715l217 358q55 92 55 121 0 18-15.5 24.5t-72.5 6.5h-24q-14 6-23.5 32.5t.5 51 45 22.5q172-6 436 0 41 0 41-51 0-53-39-53-31-2-56.5-8.5t-48-21.5-35.5-24.5-33.5-37-26.5-36.5-27.5-46-26.5-43L915 516V217q0-57 30-77.5t91-24.5q53 0 64-6 20-10 20-62 0-55-45-55-393 6-553 2-39 0-53 26-10 29-2 60 8 20 22.5 29.5T515 119t34.5-1 34.5-1q45 2 63.5 26.5T670 219q8 141 2 273l-367 563q-70 109-109.5 137.5T72 1225q-41 0-49 28zm460 334q0 57 42 99.5t101.5 42.5 101.5-41 42-100.5-42-100.5-101.5-41-101.5 41-42 100zm359 .5q0 59.5 42 100.5t101 41 100-41 41-100.5-41-100.5-100-41-101 41-42 100.5z"/><glyph unicode="ˆ" horiz-adv-x="714" d="m59 1012 177 284q10 16 38 29 14 2 74 3t82-1q33-2 49-29l174-278q19-41-16-51-35-8-57 8l-228 178-213-178q-29-25-67-2-27 14-13 37z"/><glyph unicode="˜" horiz-adv-x="714" d="M18 983q14 262 215 262 80 0 207-76 72-45 105-45 25 0 36 19.5t12 43 13 44 41 22.5q43 0 47-26 4-12 4-27 0-102-60.5-173T481 956q-86 0-205 72-84 53-104 53-18 0-29.5-12t-21.5-55q0-6-3-17.5t-5-17.5q-4-27-46-30t-49 34z"/><glyph horiz-adv-x="960"/><glyph horiz-adv-x="1921"/><glyph horiz-adv-x="960"/><glyph horiz-adv-x="1921"/><glyph horiz-adv-x="640"/><glyph horiz-adv-x="480"/><glyph horiz-adv-x="320"/><glyph horiz-adv-x="320"/><glyph horiz-adv-x="240"/><glyph horiz-adv-x="384"/><glyph horiz-adv-x="106"/><glyph unicode="‐" horiz-adv-x="890" d="M82 446v58q0 23 20.5 33t38.5 10h629q20 0 35.5-13.5T819 504l-4-53q-8-33-41-37-309-4-651 0-29 0-41 32z"/><glyph unicode="‑" horiz-adv-x="890" d="M82 446v58q0 23 20.5 33t38.5 10h629q20 0 35.5-13.5T819 504l-4-53q-8-33-41-37-309-4-651 0-29 0-41 32z"/><glyph unicode="‒" horiz-adv-x="890" d="M82 446v58q0 23 20.5 33t38.5 10h629q20 0 35.5-13.5T819 504l-4-53q-8-33-41-37-309-4-651 0-29 0-41 32z"/><glyph unicode="–" horiz-adv-x="1249" d="M74 471v22.5l2 22.5q4 35 37 39 504-4 1026 0 41 0 41-37v-55q-6-29-47-29-512 4-1022 0-16 0-26.5 11.5T74 471z"/><glyph unicode="—" horiz-adv-x="1751" d="M166 446q2 16 2 58 4 35 57 35 639-4 1297 0 39-8 45-21 8-16 2-86-14-20-49-20-391-4-1301 0-53 0-53 34z"/><glyph unicode="‘" horiz-adv-x="557" d="M135 1116q0 98 66.5 180T375 1417q20 8 38.5-5t17.5-37.5-25-43.5q-131-74-132-164 0-8 21-2 6 2 20 2 49 0 80-33.5t31-82.5q0-53-38-89t-91-36q-72 0-117 56t-45 134z"/><glyph unicode="’" horiz-adv-x="557" d="M135 1296q0 53 38 89t93 36q72 0 115-53t43-133q0-90-56.5-169T217 942q-57-27-78 16-14 37 17 58 133 80 133 162v10q-29-8-43-8-49 0-80 33.5t-31 82.5z"/><glyph unicode="‚" horiz-adv-x="526" d="M127 49q0 49 37 83t88 34q68 0 108.5-52.5T401-12q0-92-59-170T184-299q-37-14-49 33-4 33 12 41l9 6q111 66 114 158 1 6-22 0h-17q-45 0-74.5 31.5T127 49z"/><glyph unicode="“" horiz-adv-x="1028" d="M154 1110q0 94 64.5 176T389 1409q29 12 51.5-3t21.5-37.5-20-37.5q-139-78-139-164 0-4 12-4 25 4 33 4 49 0 83-33.5t34-82.5q0-53-41-89t-96-36q-76 0-125 53t-49 131zm446 0q0 94 64.5 176T836 1409q45 16 65-6 10-14 10-37t-22-35q-139-74-139-164 0-6 12-6 4 0 15 3t18 3q51 0 83.5-33.5T911 1051q0-53-40-89t-97-36q-76 0-125 54t-49 130z"/><glyph unicode="”" horiz-adv-x="1026" d="M168 1296q0 51 37 86t88 35q68 0 108.5-53t40.5-127q0-92-59-171T225 948q-37-12-49 33-4 35 12 41l9 6q111 68 114 158 1 6-22 0h-17q-45 0-74.5 32.5T168 1296zm440-6q0 51 37 86t88 35q68 0 109-54t41-128q0-92-59.5-170T666 942q-37-14-50 33-4 33 13 41l8 6q111 66 115 158 0 6-23 0h-16q-45 0-75 31.5t-30 78.5z"/><glyph unicode="„" horiz-adv-x="968" d="M147 49q0 49 37 83t88 34q68 0 109-52.5T422-12q0-92-59.5-170T205-299q-37-14-49 33-4 33 12 41l8 6q111 66 115 158 0 6-23 0h-16q-45 0-75 31.5T147 49zm422 0q0 49 37 83t88 34q68 0 110-52.5T846-12q0-92-60.5-170T627-299q-33-14-49 33-4 31 12 41l10 6q111 66 113 158 0 6-23 0h-14q-45 0-76 31.5T569 49z"/><glyph unicode="•" horiz-adv-x="759" d="M143 671.5q0 96.5 69 164T381 903t168.5-67.5 68.5-164-68.5-164T381 440t-169 67.5-69 164z"/><glyph unicode="…" horiz-adv-x="2215" d="M256 86q0 53 39 87t98.5 34 95-37T524 80q0-49-36-82t-95-33q-61 0-99 34t-38 87zm731-8q0 55 37 91t96.5 36 97-37 37.5-90q0-51-37-82t-96-31q-61 0-98 31t-37 82zm725 8q0 53 35 87t94.5 34 96-37 36.5-90q0-51-35-83t-96-32q-59 0-95 35t-36 86z"/><glyph horiz-adv-x="384"/><glyph unicode="‹" horiz-adv-x="1802" d="M44 16.5q-11 26.5 0 54T86 100h20q70 0 86.5 16.5T209 205v481q0 4-5 9t-7 5h-88q-49 0-62 29-10 39 4 66 4 12 35 18 88 18 125 39 8 102 12 139t23.5 97.5T302 1191t101 101q72 66 174.5 109t221.5 42 200-67q29-33 56-14 78 55 168 88t192.5 26.5T1589 1409q41-31 41-80 0-31-48-70.5t-81-39.5q-27 0-55.5 27.5t-71.5 55-106 27.5q-76 0-142.5-55t-85.5-133q-12-53-12-236 0-27 14-31 92-8 351 3 86 2 172 32 27 8 46-17.5t19-51.5V197q0-63 13.5-78t64.5-15q43 8 55.5-18.5t2-58T1741-8q-193 6-428 0-16 0-26.5 17.5T1276 45q0 16 2 28.5t15.5 22.5 37.5 8q57 0 72.5 11.5T1421 178v412q0 68-18.5 98.5T1329 721q-2 0-132 2t-146 0q-16-4-21-21l-2-419q0-125 12-148 14-31 90-31h39q25 0 37.5-10t14.5-20.5 2-28.5-10.5-35.5T1190-8q-242 4-483-2-39 0-39 51 0 45 34 59h19q70 0 81 22.5T813 279v399q-4 31-16 33-70 4-192 4t-167-6q-10 0-12-25 0-51-1-151.5T424 348t2-155q2-57 17.5-72t78.5-15q45 0 68-4 37-14 29.5-64T582-10Q326 0 80-10q-25 0-36 26.5zM426 887q0-6 6-15.5t12-9.5q164-10 353 4 20 0 20 80 6 154 57 246 0 6-8 16-8 12-20 21-74 66-182 65-76 0-141.5-54T438 1108q-12-57-12-221z"/><glyph unicode="›" horiz-adv-x="1761" d="M43 22.5Q35 57 51 82q6 12 27 16 12 4 33.5 4H139q43 2 57.5 18.5T211 205v471q0 4-10.5 14T186 700h-73q-49 0-64 29-4 45 6 66 4 6 33 18 84 16 123 41 14 172 35 238 33 88 160 200 74 66 173 110t213.5 43 194.5-69q25-20 27-18 119 100 264 100 20 0 63-5t66-5q43 0 80 43 29 14 63.5 6t34.5-37V195q0-8-1-26.5t0-26 4-18.5 13.5-15.5 26.5-4.5q10-2 29.5-2h25.5q27-4 37-28 8-29 0-56-8-24-28-26h-19q-182 8-407 0-31 0-39 26-8 29 0 48 8 25 24 32 10 4 35 3t39 1q37 2 44 28t7 153l2 407q0 29-30 29-264 6-318 0-16-2-22-31V195q0-66 15-82.5t79-16.5q10 2 31-2 31-6 28.5-55T1126-8Q999-4 694-8q-20 0-30.5 24.5t-2 51T696 96q66 8 76 17 18 12 19 69 2 23 2 101v387q0 39-35 39-199-4-297 0-10 0-20.5-11.5T428 670V281q0-131 6-146 8-18 22.5-27.5t32-8.5 35.5 1q37 0 68-6 31-12 31-59t-37-45Q324 0 76-10q-25-2-33 32.5zM428 879q0-4 10.5-10.5T455 862q72-4 309 0 27 0 29 8 2 4 2 11 10 162 67 284 10 23-2 39-2 2-5 6t-8 8.5-11 10.5q-43 43-79 55t-93 12q-76 0-140.5-54T440 1110q-12-57-12-231zm580 12q0-12 5-15.5t25-3.5h301q37 0 37 19v366q-102 66-182 66-61 0-111-66-74-104-75-366z"/><glyph horiz-adv-x="480"/><glyph unicode="€" d="M-6 485v25q0 47 33 47h94v68q0 49 2 73H27q-23 0-28 11.5T-6 750v24q0 47 33 47h110q41 219 159 354.5T565 1311q82 0 185-56 33-18 45 0 8 10 34.5 7.5T858 1243q12-135 12-276 0-35-35.5-42T788 944q-47 254-227 254-190 0-219-377h346q33 0 33-47v-24q0-51-33-52H338v-34q0-72 2-107h348q33 0 33-47v-25q0-51-33-51H352q23-168 81.5-262T584 78q164 0 231 231 4 18 27.5 23.5t43-6T901 293q-18-119-80-305-23 8-30 8-39 0-109-16.5T551-37Q397-37 284.5 87T135 434H27q-33 0-33 51z"/><glyph unicode="™" horiz-adv-x="2099" d="m25 1239 18 145q4 31 18.5 41.5T106 1436q319-8 680 0 37 2 54.5-9.5T862 1376l17-145v-19q2-20-3.5-29t-13.5-10.5-31-1.5h-49q-12 86-46 114t-124 28h-22l-10.5-1-8.5-6.5-2-11.5V768q0-70 11-82 12-12 57-16 23-4 27-6 16-6 14-49.5T643 569h-25q-45 2-108.5 2t-132-1-86.5-1q-35-2-49.5 8.5T227 618q0 16 1 22.5t7.5 15T256 668h12q43 6 52.5 20t9.5 78v530q0 16-45 17-86 0-119-28t-47-114H66q-33 0-40.5 11.5T25 1239zm860-639v21q0 41 49 47 47 2 57 15t10 83v463q0 74-9 89t-56 15q-33 0-45 19-6 18-6 37 0 47 49 47 162-6 264-2 35 2 55-39l228-467q4-8 8-12.5t6-4.5h2l227 482q18 43 50 43h247q61 0 62-50 0-47-31-51-8-2-22-2-41-2-50.5-16t-9.5-86V768q0-66 9.5-81t54.5-17q6-2 16-2 33 0 33-54 0-45-53-45-27 0-105 1t-142.5 1-103.5-2q-72-4-71 39v31q0 31 39 31h18q45 4 56.5 18t11.5 78v336q0 10-9 0 0-2-2-4l-235-494q-16-35-45-35h-29q-20 0-27 13l-6 14-235 489q-8 20-10 19.5t-2-12.5V768q0-70 10-85t53-15h31q39 0 39-31 0-61-27-72h-22q-43 14-269 4-63-10-63 31z"/><glyph unicode="◼" horiz-adv-x="849" d="M0 0v850h850V0H0z"/><glyph unicode="ﬁ" horiz-adv-x="1144" d="M74 20Q54 67 98 90l49 8q41 4 48.5 24.5T203 246v413q0 12-1 18.5t-4 9.5-6.5 4-11.5 1l-71 6q-20 10-27.5 37T96 782q10 8 38 16.5t48.5 17.5 20.5 24q0 195 63 344 43 104 146.5 192t261.5 88q106 0 188-51t82-127q0-51-35-77.5t-69-26.5q-47 0-74 41-37 63-83 91.5t-81 28.5q-201 0-201-452 0-35 5-45 6-12 28-12 160-6 342 4 57 2 109 10 51 20 73-19-8-156-8-254V246q0-102 8.5-123t49.5-25l41-6q35-6 32-47t-32-53q-66 4-195 4-158 0-178-2-33 0-43 31-16 57 41 69 4 0 13 2t13 2q41 4 45 21 6 18 7 127v344q0 74-10.5 89T680 696q-131 4-256 0-14-2-18.5-7t-4.5-30V246q0-102 7.5-124T455 98l61-6q37-6 29-49T512-8Q383-2 297-2q-88 0-172-6-39-4-51 28z"/><glyph unicode="ﬂ" horiz-adv-x="1103" d="M40 47q-1 27 7 35 16 16 41 16 57 4 72 21 16 23 16 166v413q0 16-16 21H72q-23 0-27 14-14 29-2 58 8 25 29 28l84 35q20 12 20 14 14 281 162 441 141 158 313 157 23 0 65-5t62-5q45 0 78 43 29 12 59.5 7t34.5-23V205q0-66 12.5-84.5T1028 102q8 2 35-6 23-4 25-54t-33-48H639q-37 0-43 18-16 39 2 72 8 14 41 14 82 0 94 22.5T745 283v403q0 14-9 25.5T719 723q-109 2-301-2-8 0-13.5-1t-10.5-9.5-9-24.5V197q0-66 15.5-82.5T479 98q14 4 27-2 27-4 28-50T508-6h-14q-14 0-93 2T240-2 90-6Q61-8 49 8q-8 12-9 39zm345 848q0-20 25-21 55-2 114.5-2t120 1 82.5 1q14 0 18 37v349q-102 66-176 65-68 0-112-65-70-98-72-365z"/><glyph unicode="ﬃ" horiz-adv-x="1802" d="M44 16.5q-11 26.5 0 54T86 100h20q70 0 86.5 16.5T209 205v481q0 4-5 9t-7 5h-88q-49 0-62 29-10 39 4 66 4 2 35 18 88 18 125 39 8 102 12 139t23.5 97.5T302 1191t101 101q72 66 174.5 109t221.5 42 200-67q29-33 56-14 78 55 168 88t192.5 26.5T1589 1409q41-31 41-80 0-31-48-70.5t-81-39.5q-27 0-55.5 27.5t-71.5 55-106 27.5q-76 0-142.5-55t-85.5-133q-12-53-12-236 0-27 14-31 92-8 351 3 86 2 172 32 27 8 46-17.5t19-51.5V197q0-63 13.5-78t64.5-15q43 8 55.5-18.5t2-58T1741-8q-193 6-428 0-16 0-26.5 17.5T1276 45q0 16 2 28.5t15.5 22.5 37.5 8q57 0 72.5 11.5T1421 178v412q0 68-18.5 98.5T1329 721q-2 0-132 2t-146 0q-16-4-21-21l-2-419q0-125 12-148 14-31 90-31h39q25 0 37.5-10t14.5-20.5 2-28.5-10.5-35.5T1190-8q-242 4-483-2-39 0-39 51 0 45 34 59h19q70 0 81 22.5T813 279v399q-4 31-16 33-70 4-192 4t-167-6q-10 0-12-25 0-51-1-151.5T424 348t2-155q2-57 17.5-72t78.5-15q45 0 68-4 37-14 29.5-64T582-10Q326 0 80-10q-25 0-36 26.5zM426 887q0-25 8-25 174-12 371 4 6 0 9 7.5t4 18.5 1 20.5-1 20.5-1 13q6 154 57 246 0 6-8 16-8 12-20 21-74 66-182 65-76 0-141.5-54T438 1108q-12-57-12-221z"/><glyph unicode="ﬄ" horiz-adv-x="1761" d="M40 63.5Q49 90 78 98q12 4 33.5 4H139q43 2 57.5 19.5T211 205v485q0 10-6 10h-92q-49 0-64 29-4 45 6 66 4 6 33 18 84 16 123 41 14 172 35 238 33 88 160 200 74 66 173 110t213.5 43 194.5-69l12-10q12-10 15-8 119 100 264 100 20 0 63-5t66-5q43 0 80 43 29 14 63.5 6t34.5-37V195q0-70 6-80 6-8 24.5-10.5t36-1.5 31.5-1q27-4 37-28 8-29 0-56-8-24-28-26h-19q-182 8-407 0-35 0-43 26-8 29 0 48 8 23 22.5 29.5t43 5.5 36.5 1q37 2 44 29t7 152l2 407q0 29-16 29-276 6-332 0-16-2-22-31V195q0-66 15-82.5t79-16.5q10 2 31-2 31-6 28.5-55T1126-8Q999-4 694-8q-20 0-30.5 24.5t-2 51T696 96q66 8 76 17 18 12 19 69 2 23 2 101v387q0 35-9 37-4 2-10 2-219-6-328 0-16 0-18-19V281q0-131 6-146 0-2 4-6l4-6 4-6q4-8 13-13 20-4 65-4 18 4 68-6 31-12 31-59t-37-45Q324 0 76-10q-23 0-34 23.5t-2 50zM428 879q0-16 12-17 76-4 324 0 27 0 29 8 2 4 2 11 10 162 67 284 10 23-2 39-2 2-5 6t-8 8.5-11 10.5q-43 43-79 55t-93 12q-76 0-140.5-54T440 1110q-12-57-12-231zm580 12q0-12 5-15.5t25-3.5h316q23 0 22 19v366q-102 66-182 66-61 0-111-66-74-104-75-366z"/></font>
</defs>
</svg>
