<svg xmlns="http://www.w3.org/2000/svg"><defs><font id="etbooksemiboldosf" horiz-adv-x="1093"><font-face units-per-em="2048" ascent="1638" descent="-410"/><glyph horiz-adv-x="2048"/><glyph horiz-adv-x="2048"/><glyph horiz-adv-x="681"/><glyph horiz-adv-x="501"/><glyph horiz-adv-x="501"/><glyph horiz-adv-x="501"/><glyph unicode="!" horiz-adv-x="557" d="M164 88q0 51 33.5 84t83 33 84-33T399 88 364.5 3t-84-34-83 34T164 88zm10 1227q-4 49 8.5 73.5T242 1413h73q55 0 66.5-18.5t5.5-79.5l-70-938q-8-20-33.5-23.5T244 377z"/><glyph unicode="&quot;" horiz-adv-x="870" d="M135 1235q0 145 117 145 57 0 91-36.5t34-98.5q0-33-8-90-4-37-17-90l-57-307q-16-20-43-19-39 4-45 45l-49 283q-23 121-23 168zm361-12q0 158 125 157 55 0 88.5-36.5T743 1245q1-69-22-182l-57-303q-12-33-48-27t-41 27l-53 301q-27 139-26 162z"/><glyph unicode="#" horiz-adv-x="1431" d="M74 410q0 8 10 65 0 43 55 43h162q18 0 24.5 4t10.5 23l63 311q4 18-12 18H176q-33 0-48 9.5T115 918q-2 8 12 75 0 33 53 35 164 4 236 0 10 0 14 1t6 5 4 15l74 358q8 33 20.5 41t40.5 4q8 0 37-4 39-4 47.5-12.5t-.5-44.5l-67-344q-6-18 12-19 43 4 182.5 1t182.5-1q14 2 18 7t8 20q53 262 68 325 0 2 2 13.5t3 13.5 3 10 5 11.5 7 8.5 9.5 7 12.5 4 15 2l49 4q45 4 48-45 0-33-54-276-10-45-18-86-4-18 12-19 29-2 80-2h80q23-2 31-9t6-30q-6-33-17-84-4-25-57-29h-143q-27 2-33-26-2-8-6-25l-58-282q-4-23 19-23 123-4 201 0h26l12.5-1 11.5-3 9-5 6-8 3-12.5-1-17.5-12-59q-4-23-15.5-33t-19.5-11-33-3q-102-4-198 0h-25.5l-14.5-4.5-6.5-7.5-2.5-14-3-17L932-4q-4-20-9-29.5T906.5-51 874-59h-59q-41 0-37 61 2 20 62 293 2 16 6 31 2 14 3 20t-1 11-6 6.5-15 1.5q-188 8-335 0h-13.5l-12.5-1.5-8-2.5-5-3-3.5-6-4.5-9-3-15L375-2q-2-14-8.5-24.5T357-43t-15-9-15-4-20.5-1H285q-63-4-64 41 0 8 3 16t3 14l66 324q6 27-27 27H127q-20 0-29.5 2T81 378t-7 32zm409 131q-2-16 11-21 129 6 354 0 37-2 43 27l61 293q4 14 3 21t-5 10-14 3q-195 4-348 0h-8q-12 0-16.5-1t-8.5-7-6-20z"/><glyph unicode="$" horiz-adv-x="980" d="M74 217q0 37 26.5 64.5T162 309q37 0 59.5-23.5t41-77.5 20.5-61q16-29 34-45 6-4 9.5 5.5T330 129v477q-4 6-11 12-61 45-81.5 63.5T177 741t-54 85-14 100q0 92 55 164.5T313 1200q16 6 17 33v92q4 18 51 23 23-4 33-27v-84q2-2 4-6t4-4q41 4 84 0 18 0 18 10v82q2 16 33 27h27q10 0 19-9.5t9-23.5l-2-78q0-29 21-35 94-31 151.5-80t57.5-106q0-37-23.5-61.5T758 928q-23 0-43.5 12T685 962.5t-28.5 40T633 1036q-23 31-23 0V700q0-27 6-32 84-51 133.5-91T844 465t45-156q0-115-72-202T621-20q-10-2-11-25 0-88 2-145 0-29-32-29h-31q-31 6-27 37l2 135q0 4-6 10-37-6-84 0-18 0-18-8v-61.5l4-75.5q2-27-21-37h-53q-23 8-16 35v157l-6 11Q191 27 137 84q-63 68-63 133zm186 780.5q0-65.5 53-116.5 6-6 11.5-2t5.5 16v192q-4 16-11 19-59-43-59-108.5zM414 520l2-442q0-27 18-29 41-8 78-4 12 2 12 29v395q0 27-12 27-43 31-84 53-12-8-14-29zm0 307q0-18 14-34 14-12 26.5-20.5t27-18T508 737q6-2 11 6.5t5 18.5v338-2q0 33-12 35-45 14-80 8-12 0-15-2t-3-17V827zm196-727q0-12 1.5-14t13.5 2q96 59 96 174 0 86-94 156-8 6-12.5-1t-4.5-20V100z"/><glyph unicode="%" horiz-adv-x="1425" d="M86 932q0 135 87 222t212 87 215-86 88-217q-2-133-89-220t-212-87q-123 0-212 87T86 932zm141 3.5Q227 831 270 775t117-56q76 0 119 56t43 163q0 104-45 159.5T381 1153q-70 0-112-56.5t-42-161zM254-82l786 1370q23 29 62 19l22-11q29-12 13-49L354-115q-14-37-61-24-63 16-39 57zm461 297q0 133 88 220t211 87q125 0 215-85t88-216q-2-133-89-220t-212-87Q895-86 805 0t-90 215zm141 4q0-104 43-160.5T1016 2q76 0 119 56.5t43 162.5q0 104-45 159.5T1010 436q-70 0-112-57t-42-160z"/><glyph unicode="&amp;" horiz-adv-x="1562" d="M82 332q0 160 127 270 51 43 205 119 23 14 6 27-119 125-119 251 0 121 87 194t224 73q125 0 208-62.5t83-165.5q0-145-203-262-14-6-2-18 45-33 154-133 82-80 145-172 12-16 19-4 57 72 131 182 98 154 98 207 0 10-39 14-14 2-38.5 5t-28.5 3q-27 14-17 58 6 20 29 20h8q131-6 350 2 31 4 37-27v-26q0-27-39-31-10-2-35.5-4t-42-4-37-9.5T1360 819q-25-23-78-117l-55-110q-63-117-164-230-4-4 6-18 16-29 64-111 55-98 83.5-126.5T1282 78q51 0 160 76 23 6 42-28t-3-46Q1334-39 1206-39q-35 0-62.5 4t-52 20.5-38 23.5-35 39T991 87t-28.5 49-26.5 48q-4 8-13.5 11.5T909 193Q671-38 451-39 297-39 189.5 68.5T82 332zm223 24q0-111 62.5-175T535 117q82 0 178 45t159 119q6 0 0 12-63 102-170 211-92 96-186 158-8 6-27-9-184-135-184-297zm178 695q0-115 119-215 14-14 31-2 96 70 96 190 0 72-36 113t-95 41q-53 0-84-33t-31-94z"/><glyph unicode="'" horiz-adv-x="378" d="M78 1225q0 156 110 155 53 0 85-36.5t32-98.5q0-39-10-94-10-59-29.5-178T236 795q-2-20-13.5-37T188 743q-20 2-28 7.5T149.5 762t-4.5 29l-45 274q-23 147-22 160z"/><glyph unicode="(" horiz-adv-x="667" d="M158 492q0 256 103.5 503.5T541 1442q37 29 72.5-8t13.5-74q-133-152-232-416-74-203-73-452 0-197 40.5-350.5T500-190q61-109 127-189 20-45-52-78-25-14-53 19Q354-248 256-2t-98 494z"/><glyph unicode=")" horiz-adv-x="647" d="M27-375Q162-219 260 41q74 203 74 455 0 193-41 347t-139 335q-70 121-113 170-14 16-13 41.5t19 42.5q47 37 82-5 170-193 267.5-436T494 496q0-258-101.5-509T113-457q-37-29-76 3t-10 79z"/><glyph unicode="*" d="M158 731q0-29 24.5-55.5T242 649q31 0 55.5 13.5T332 687t35 42q66 84 145 133 4 2 7-5t3-11q-4-100-26-172-29-80-29-113 0-41 24.5-70.5T557 461t65.5 29.5T647 561t-8 60q-4 18-18 53-25 66-27 174 0 12 14 12 76-47 142-131 20-29 33.5-42t37-25.5T872 649q37 0 60.5 25.5T956 731q0 41-25.5 67.5t-52 36T803 854t-66 14q-49 14-102 47-4 2-2 8.5t6 8.5q51 25 100 41 14 4 63.5 15t76 21.5 52 37T956 1112q0 27-20.5 55.5T864 1196q-49 0-112-78-70-82-142-129-4-2-11-1t-7 7q2 78 26 164 27 88 27 125t-23.5 66.5T557 1380t-64.5-29.5T469 1284q0-29 29-125 23-92 26-164 0-16-14-8-68 41-148 131-2 4-10 13.5t-12 13.5-12.5 12-13.5 12.5-13 10.5-15 9-16.5 5-17.5 2q-51 0-72.5-28.5T158 1112q0-51 26.5-73.5T266 1001q14-4 51-12t60-16q74-25 102-39 14-11 4-19l-2-2q-133-53-213-73-57-12-83.5-33T158 731z"/><glyph unicode="+" horiz-adv-x="1429" d="M145 662v71q0 16 1 22.5t11.5 10.5 32.5 4h431q12 0 15 3t3 13v450l1 13 5 11.5 11.5 6.5 19.5 3h80q25 0 32-10.5t7-45.5V778q2-8 28-8h418q31 0 38-9t7-36v-63q0-31-13-39.5t-46-8.5H813q-18 0-18-30V154q0-33-8.5-40.5T743 106q-4 0-29.5-1t-33.5 1q-20 0-29.5 6.5T640 126t-1 28v446q0 10-2 12t-14 2H188q-29 0-36 8.5t-7 39.5z"/><glyph unicode="," horiz-adv-x="514" d="M143 57q0 47 34 79t79 32q61 0 97-46T389 4q0-86-49-165T211-279q-33-14-49 3-2 2-5 7t-7 7q-14 41 10 49 121 74 121 160 0 10-2.5 12T266-43q-2-2-4-2-49-10-84 20.5T143 57z"/><glyph unicode="-" horiz-adv-x="890" d="M90 438v72q0 18 16.5 28.5T139 549q371-10 633 0 14 0 26.5-12.5T811 510l-4-70q-8-29-31-32-311-4-655 0-20 0-31 30z"/><glyph unicode="." horiz-adv-x="444" d="M133 80q0 53 35 86t90 33q53 0 86-32t33-85q0-51-33-85t-86-34-89 33-36 84z"/><glyph unicode="/" horiz-adv-x="980" d="M84 27q668 1305 676 1321 20 41 61 44t82-10q20-4 26.5-24.5T920 1311L248 2q-16-35-28.5-40T164-43q-29 0-43 2-68 10-37 68z"/><glyph unicode="0" horiz-adv-x="1001" d="M78 440q0 213 123 352.5T512 932q190 0 313-137.5T948 446q0-209-122.5-342T510-29q-186 0-309 134.5T78 440zm168 13q0-172 70.5-265.5T510 94q127 0 199.5 92.5T782 451q0 176-71.5 269T508 813q-119 0-190.5-95T246 453z"/><glyph unicode="1" horiz-adv-x="794" d="M121 645q20 14 84 55 133 90 211 201 10 8 57 7t47-21V182q0-63 12-73 6-6 29-7 18-6 84-6 23 0 35-2 20-4 20-53T676-8Q289-4 190-8q-27-2-30.5 42T178 90q18 10 43 6 45 0 53 2 76 2 76 78v463q0 31-10 31-2 0-6-4-27-18-52.5-33T216 601t-56-26q-20-12-37 23t-2 47z"/><glyph unicode="2" horiz-adv-x="985" d="M68 30.5Q68 55 78 68q197 137 358 278 166 150 166 262 0 82-49 132.5T424 791q-109 0-223-107-14-10-45 4t-17 47q92 104 176 150.5T502 932q119 0 202.5-70.5T788 686q0-76-38.5-150.5T637 389 509 274 373 174q-23-16 35-14 227 0 280 2 37 2 49.5 8t26.5 33q29 47 59 127 18 18 50 10t26-33L831 29Q821-8 766-8H86Q68 6 68 30.5z"/><glyph unicode="3" horiz-adv-x="833" d="M111-244q0 53 45 76t86-2q6-4 17-13.5t17-13.5q76-59 123-59 51 0 86 61.5T520-27q0 166-76 236-61 53-159 24-29-8-37 29t8 47q242 150 242 332 0 70-33 105.5T377 782q-39 0-72-15t-51-35.5-37.5-39-31-23.5-31.5 7q-23 23-15 47 106 215 295 215 102 0 172-75t70-181q0-35-7-64.5t-13.5-48-28-45-29.5-36-41-40-43-38.5q-12-15 4-19 41-14 64-33 125-106 125-254 0-190-119-331.5T305-369q-88 0-141 32t-53 93z"/><glyph unicode="4" horiz-adv-x="1001" d="M55.5 23.5Q51 51 61 66l557 849q4 8 19 15 25 10 47 6 16-6 16-16V160q2-16 19-25l180 2q6-2 11-2t8.5-1 6.5-3 5-7 4-15.5 2-79.5q0-45-45-37L717-6q-2 0-9.5-6t-7.5-8q6-131 0-295 0-2 1-11.5t0-14.5-3-11-9-9.5-17-3.5H557q-18-2-31.5 8.5T512-336q0 23 1 143.5T514-23q0 4-9 10.5T485-6H76Q60-4 55.5 23.5zM227 147q-2-4 7.5-8t15.5-4q23-4 130-2t116 2q6 0 13 10.5t7 22.5q-2 111 6 399 0 36-14 13z"/><glyph unicode="5" horiz-adv-x="894" d="M88-268q0 37 23.5 62.5T170-180q25 0 55-13 109-39 142-38 78 0 138 74.5T565 23q0 76-35.5 147.5T428 304.5 304 410t-136 92q-33 20-4 57 152 213 282 354 16 18 37 17l226-27q29-4 40-13t3-34q-4-18-30-57t-38-51q-16-16-43-17l-186 25q-18 0-25-11l-78-98q-18-20-16-26 4-2 16-11 94-61 187-149Q734 277 733 86q0-211-215-352-145-96-315-96-49 0-82 24.5T88-268z"/><glyph unicode="6" horiz-adv-x="1030" d="M92 453q0 156 66.5 291T337 977t237.5 166.5T842 1257q39 12 63.5-7t-4.5-60q-166-76-275.5-156T426 831q-12-16 16-18 16 0 25 2 18 2 55 2 178 0 292-114.5T928 408q0-186-117-311.5T522-29q-184 0-307 137.5T92 453zm201-45q0-170 60.5-263.5T516 51q80 0 135 55 80 80 80 269 0 176-62 270t-173 94q-61 0-140-37-63-160-63-294z"/><glyph unicode="7" horiz-adv-x="1001" d="m86 557 41 305q16 43 72 43 324 12 643 0 47 0 55-14v-47Q592 39 412-332q-14-37-39-35l-78 11q-16 2-28.5 15t-2.5 34L719 715q2 6-6 14t-15 6q-70 0-218-1t-199-3q-27 0-39.5-3T215 704.5 188 639l-24-102q-6-6-25.5-10.5t-37 3T86 557z"/><glyph unicode="8" horiz-adv-x="950" d="M131 291q0 102 55.5 171.5T342 598q29 16 10 31-176 141-176 327 0 133 91 217t235 84q135 0 224-79.5T815 971q0-88-42-155.5T637 684q-14-10 2-27 119-100 169-178t50-174q0-143-107.5-238.5T489-29q-150 0-254 90.5T131 291zm166 4q0-100 58.5-168T504 59q78 0 129 51.5T684 240q0 84-48 149.5T461 547q-23 18-39 10-125-88-125-262zm27 729q0-135 221-295 8-6 30 6 37 25 50 49 45 68 45 166 0 106-49 167t-129 61q-76 0-122-43t-46-111z"/><glyph unicode="9" horiz-adv-x="1001" d="M72 508q0 184 116.5 305T479 934q186 0 307-142.5T907 438q0-170-61.5-309t-172-233.5T433-260 143-360q-27-6-44 12t-15 41.5 22 32.5Q473-139 602 68q18 29 10 38h-4q-88-20-137-20-168 0-283.5 124T72 508zm196 20q0-176 63.5-270T504 164q70 0 139 35 25 12 33 45 33 113 33 258 0 170-61 261t-161 91q-84 0-136-54.5t-67.5-121T268 528z"/><glyph unicode=":" horiz-adv-x="526" d="M156 92q0 49 30.5 80t77.5 31 78-31 31-80-31-80.5T264-20q-45 0-76.5 32.5T156 92zm0 616.5q0 49.5 30.5 81T264 821t78-31.5 31-81-31-80-78-30.5-77.5 30.5-30.5 80z"/><glyph unicode=";" horiz-adv-x="471" d="M129 78q0 49 34 82t83 33q63 0 104-50.5T391 16q0-96-60.5-183T174-295q-27-8-40 28t11 48q129 82 129 176 0 16-2 16-8 0-23.5-3T225-33q-41 0-68.5 33T129 78zm2 626.5q0 49.5 32 81t79 31.5 79.5-31.5 32.5-81-32.5-81T242 592t-79 31.5-32 81z"/><glyph unicode="&lt;" horiz-adv-x="1429" d="M143 670q-6 20 0 53 0 35 31 47 659 291 1049 447 41 14 54-6.5t13-67.5v-31q0-35-51-57-666-281-829-346-12-4-15.5-12.5T406 680q543-231 849-352 35-14 35-58v-43q0-80-78-53Q854 307 172 621q-29 12-29 49z"/><glyph unicode="=" horiz-adv-x="1429" d="M139 434v64q0 25 11.5 36t27 10 29.5-1q256-4 1036-4 20 0 35.5-10.5T1292 492l-2-58q-2-31-13-42t-50-11H205q-23 0-35 3t-21.5 15.5T139 434zm6 543q8 33 54 33 33 0 462 1t576 5q33 2 43-17.5t10-56.5q0-4 1-19.5t1-23.5q0-18-3-27.5t-15-13.5-16-4H199q-29-2-38 10.5T147 901z"/><glyph unicode="&gt;" horiz-adv-x="1429" d="M141 270q0 43 35 58 461 184 850 352 10 4 9 14.5t-13 14.5q-285 123-829 346-4 2-12.5 5t-10.5 4l-8 4-7 5-4.5 6-4.5 9.5-2 12.5-1 15v35q0 45 16.5 62.5t49.5 3.5q543-225 1038-443 41-16 41-51 6-33 2-51 0-23-9-34.5t-40-25.5Q999 501 219 174q-76-33-76 53 0 8-1 22.5t-1 20.5z"/><glyph unicode="?" horiz-adv-x="741" d="M86 1249q0 63 55.5 93t145.5 30q166 0 272.5-111.5T666 973q0-203-152-309-63-43-143-74-45-16-60.5-32.5T295 516q0-47 82-147 6-8-1-21.5T360 330q-16-4-38.5 2T289 350Q183 483 182 584q0 78 39 123t129 79q127 49 171 95.5t44 122-48 117.5-138 42q-29 0-79-7t-75-7q-139 0-139 100zM193 88q0 53 36.5 87t89.5 34q55 0 91-34t36-87-36.5-88-90-35-90 35T193 88z"/><glyph unicode="@" horiz-adv-x="1966" d="M233 565q0 360 245 611t591 251q283 0 464-161.5T1714 838q0-256-151.5-453T1208 188q-152 0-151 144 0 39-4 37-4 0-11-7-152-174-284-174-76 0-127 65.5T580 412q0 119 53 250t149 229q139 145 273 145 86 0 133-59 12-14 14-8 18 43 29.5 52t50.5 13h82q33 0 33-35-6-18-123-438-10-39-22.5-78t-16.5-53-7-31.5-5-38.5q-4-66 43-65 41 0 95 32.5t97 84.5q156 188 156 419 0 221-152.5 364.5T1075 1339q-297 0-505-231T362 543q0-287 190.5-470.5T1010-111q225 0 394 113t265 330q8 14 11 19t12.5 9.5 25.5 4.5q2 0 10.5-1.5t10.5-1.5q33-6 20-43-84-246-288.5-390T1006-215Q678-215 455.5 7T233 565zm527-127q0-45 23.5-73.5T836 336q96 0 208 151 115 152 115 357 0 49-28.5 78.5T1063 952q-63 0-123-71-76-90-128-222.5T760 438z"/><glyph unicode="A" horiz-adv-x="1456" d="M29 68q6 25 28 24 74 0 96.5 14.5T205 188l33 82 376 1026-12 50q-4 10 8.5 19t32.5 11h66q78 0 96-26 104-272 189-497.5T1123 511t61-159q37-106 55-157 25-70 47.5-89.5T1372 86h14q18 0 26-24 4-12 3-24 0-10-3-22-7-24-28-24-127 6-279 6-122 0-259-4-35 0-35 51 0 47 53 47 20 0 47 1t37 1q50 2 64 24 7 10 6 25 0 17-8 39-63 166-138 369-8 18-43 18H524q-23 2-41-26-35-100-127-348-10-31-10-62t43-39q29-5 58-5 15 0 30 1 18 2 41 0 25-4 25-51-2-16-10.5-30.5T518-6Q349-3 239.5-3T80-6H57Q26 0 26 40q0 12 3 28zm520 654q0-6 14-15 62 2 119.5 2t110.5-2q4 0 8 9 3 6 3 12 0 3-1 5-53 139-111 334-4 9-8 9-7 0-16-27z"/><glyph unicode="B" horiz-adv-x="1343" d="M43 40q4 44 23 50 41 4 53 2 115 0 143.5 32T291 279v770q0 74-5 111.5t-27.5 56T213 1238t-80 3H86q-20 0-19 45t19 47q156 18 592 19 127 0 183.5-11.5T995 1294q86-39 136.5-111.5T1182 1024q0-76-45-142.5T1018 776q-33-17 4-35 111-53 174.5-138t63.5-191q0-143-93.5-258T938 12Q832-9 714-9q-24 0-48 1-158 3-307 3T70-8Q43-4 43 30v10zm475 325q0-106 10-158 10-55 55.5-81T731 100q125 0 205 86t80 213q0 82-39 153T868 662q-37 23-81 33-45 10-69 12-12 1-34 1-20 0-52-1-62-2-79-2-14-2-24.5-18.5T518 655V365zm0 462q0-8 9.5-15t18.5-10 11-3q16 0 57-1h62q22 1 55 3t60.5 9 54.5 17q98 43 98 185 0 126-82 196-60 50-152 60-40 4-78 5-47 0-87-7-27-8-27-37V827z"/><glyph unicode="C" horiz-adv-x="1560" d="M109 649q0 315 211.5 514T866 1362q150 0 334-70 38-14 61-14 18 0 27 8 10 8 37 5t31-13q19-85 19-155 0-15-1-29V971q-6-27-37.5-34t-44.5 13q-106 311-413 312-240 0-377-153T365 692q0-270 152.5-446T907 70q180 0 322 127 39 35 58.5 62.5T1346 354q6 14 30 20 24 4 42-4 15-7 15-20 0-3-1-6-56-178-148-332-33 8-51 8-61 0-154-30-88-29-235-29-324 0-529.5 194.5T109 649z"/><glyph unicode="D" horiz-adv-x="1583" d="M30 1282q4 41 19 47 2 2 7 2t7 2q406 16 596 17 197 0 328-34t242-112q250-180 250-495 0-231-141.5-420T973 37Q819-6 571-6L88-8Q41-8 33 18q-6 19-6 34 0 32 30 42 14 2 46 4t49.5 5 37 18.5T219 164q8 25 8 117v768q0 133-20.5 162.5T70 1241H51q-22 0-22 32 1 4 1 9zM453 217q0-72 26.5-98.5T596 92q297 0 467 140.5T1233 676q0 147-52.5 271T1034 1143q-68 51-135.5 74.5T715 1253q-65 6-136 6-43 0-87-2-14-2-26.5-14t-12.5-26V217z"/><glyph unicode="E" horiz-adv-x="1267" d="M48 47q5 45 32 49 14 2 86 2 82 2 109.5 35T303 281v766q0 113-25.5 151.5T158 1237q-51 0-66 25-10 20 8 53 8 16 45 16 328 2 551.5 2t343.5-2q45 0 50-31 8-66 11-119t4-97 3-60q-2-14-25.5-18.5t-40.5 2.5q-23 4-22 30-20 121-52 148.5T817 1217q-109 4-179 4-46 0-75-2-10 0-23.5-11.5T526 1182V778q0-31 37-30h211q115 0 137.5 17T948 887q4 10 21.5 15t37-3 23.5-33q2-47 2-113.5t-1-143.5-1-103.5-20.5-35.5-41-2-22.5 19q-16 100-39.5 119T768 627H569q-23 0-33-13.5T526 586V268q0-115 17.5-133T676 117h145q111 0 145.5 8t59.5 37q45 51 72 157 6 27 28 31 8 1 15 1 36 0 45-17 4-6 4-21.5t-3-45-7-58.5-11.5-80-11.5-94q-4-39-90-39-226 2-428 2Q336-2 86-6L76-4Q47 1 47 36q0 5 1 11z"/><glyph unicode="F" horiz-adv-x="1112" d="M84 37q0 43 22 47 84 4 110 28.5t26 98.5v905q0 76-28 98.5T106 1241q-14 2-19 25.5t3 45.5q7 20 24 19h3q216 2 431.5 2t430.5-2q16 0 30.5-15.5t12.5-31.5l-6-225q-18-11-41-11-12 0-25 3-16 6-16 28-6 86-43 109.5T725 1212H494q-23 0-31-32l-2-383q0-6 12-15.5t19-9.5q30-2 89.5-2t149.5 2q109 0 135.5 14.5T899 868q2 27 40 30t40-21V512q-4-18-39-20.5T901 514q-9 94-37 116-26 21-123 21h-18q-56-2-111-2t-110 2q-16-2-27.5-15T463 610V211q0-76 26.5-99.5T600 88h23q23-4 22-51 0-17-8-31-7-12-16-12h-3Q451-4 325.5-4T115-6Q84-6 84 37z"/><glyph unicode="G" horiz-adv-x="1562" d="M113 643q0 152 63.5 291T350 1176q106 100 222 145t276 45q131 0 336-61 35-10 59-11 18 0 33 15 6 10 28.5 10t26.5-10q8-14 10-147 1-45 1-83 0-77-3-129-2-31-42-30.5t-44 24.5q-66 328-374 328-246 0-383.5-165T358 653q0-266 136.5-430T856 59q117 0 256 62 18 8 18 57v205q0 74-28.5 96.5T985 506l-78 2q-14 0-24.5 21.5t-4 45T907 600q101-3 240-3t317 3q20 0 28-16 4-10 4-20 0-5-1-11-2-14-12.5-27.5T1464 512q-68-4-91-29.5t-25-99.5q-2-55-2-112t2-117q0-53-25-64-104-55-254.5-92T791-39q-297 0-487.5 193.5T113 643z"/><glyph unicode="H" horiz-adv-x="1613" d="M53 14q-5 18-5 32 0 17 7 30 4 10 13.5 14T84 95t21.5 0 19.5-1q68 4 90.5 26.5T238 211v905q0 72-24 97.5t-89 29.5q-23 2-29 17-6 20-1 46.5t20 24.5q129-6 250-6t235 6q12 0 29-10 14-16 6-55-4-16-35-21-84 0-113.5-29.5T457 1116V768q0-39 35-39l299-2q100-1 169-1 137 0 146 3 12 0 30.5 12.5T1155 772q1 4 1 80v93q-1 167-1 171 0 70-36 96.5t-107 30.5l-43 2q-18 2-24.5 25.5t1.5 42.5q12 24 44 24h3q21 1 51 1 76 0 209.5-4t201.5-4q27 0 44 1h3q32 0 39-41 7-43-25-49-6-2-19-2-59-6-90-29.5t-33-93.5V211q0-63 32-89t112-26q43 0 55-22 4-9 4-21 0-13-5-29-9-30-34-30H965q-31 0-37 26-8 23 1 48.5T963 94h49q80 0 111.5 23.5T1155 211v375q-2 10-18.5 18t-28.5 8H487q-2 0-9-4t-14-13-7-22V211q0-74 25.5-96.5T590 92h18q20 2 31.5-20.5t4.5-48T610-6H96Q61-6 53 14z"/><glyph unicode="I" horiz-adv-x="743" d="M106 35q0 35 5 41 8 10 45 14 66 8 85 30.5t21 90.5l2 70v766l-2 69q-2 76-19.5 97.5T152 1243q-16 0-25 4-14 10-15 34t7 36q10 16 37 16 173-2 285.5-2t164.5 2q41 0 43-33 4-25-6-40-6-17-41-17-84-2-104.5-31.5T477 1047V211q0-43 6-67.5t30-35T552 96t66-4q20 0 31-20 6-14 6-31 0-11-2-21-6-28-26-28-122 4-243.5 4T141-8q-14 0-24.5 12T106 35z"/><glyph unicode="J" horiz-adv-x="663" d="M-184-455q0 43 28.5 75t69.5 32q16 0 30.5-7t37-26.5T6-403l19-15q20-16 30-22 16-7 33-7t34 6q36 13 56 44 31 45 40 123.5T227 18v973q0 82-2 125-2 76-29.5 99.5T84 1239q-4 0-13.5 3t-11.5 3q-18 0-26 23.5t1 43.5q8 19 30 19h4q27 0 45-2 25 0 183 2 78 1 149 1t135-1q34 0 34-42 0-38-18-42l-64-8q-90-6-90-123V152q0-141-33.5-300T309-408Q190-592 20-592q-88 0-146 38t-58 99z"/><glyph unicode="K" horiz-adv-x="1515" d="M41 50q4 32 33 42 16 4 43 0 143 0 143 119v905q0 76-28.5 101.5T117 1243H76q-20 2-28.5 29.5T49 1315q6 20 39 20 205-5 353-5 111 0 190 3 39 0 39-43 0-47-47-47-88 0-116-24.5T479 1116V707q0-8 6.5-13.5T498 690q33 10 69 45 92 80 209 237.5T893 1206q0 12-4 17.5t-24.5 10.5-65.5 9q-6 0-12.5 1t-20.5 3q-19 14-19 37 0 14 7 31 6 23 34 16 146-4 272-4t234 4q27 2 35-24.5t-4-44.5q-10-16-33-13-100-2-159.5-27.5T1026 1130q-12-16-32.5-47.5T967 1040q-86-133-228-309-12-16-22-26 35-18 102-87 59-55 114.5-119.5T1064 339t103-130q61-76 108.5-96.5T1419 92q29 0 37-18 9-13 9-31 1-7-1-15-4-28-34-34-37 3-149 3-149 0-431-5-27 4-35 18-12 27-2 56 6 18 41 18 53 2 74.5 19.5t18.5 34-15 30.5q-16 20-64.5 82.5t-73 92.5-66.5 77-82 83-83 66q-27 20-63 29-8 0-13.5-9t-6.5-19.5-1-24.5V211q0-68 30-94.5T623 90q37 0 49-20 4-10 4-32t-4-32q-8-14-39-14-125 5-259 5T98-8Q59-8 51 4 40 15 40 37q0 6 1 13z"/><glyph unicode="L" horiz-adv-x="1218" d="M45 59q4 27 21 33 4 2 15 3t15 1q135 0 150 72 4 45 4 121v827q0 76-28.5 100.5T106 1241H82q-18 2-24.5 32t5.5 44q10 23 41 16 84-2 193-2 163 0 379 4 33 0 39-26 8-23 0-46.5t-35-25.5q-41-4-66-4-94-4-120.5-20.5T467 1137V215q0-55 30.5-76.5T590 117h170q115 0 158 19.5T1030 248l74 94q35 16 55 0 16-9 16-22 0-7-4-15-96-223-127-270-23-43-71-43-348 6-583 6Q202-2 88-6q-33-4-41 26-4 7-4 20 0 8 2 19z"/><glyph unicode="M" horiz-adv-x="1929" d="M55 18q-5 12-5 24t6 24q10 22 36 20 12-1 22-1 56 1 82 19 30 22 40 84 2 41 6 93 6 94 21.5 277T287 886.5t8 276.5q0 41-18.5 54.5T193 1237q-27 2-37 18-8 25-2 48 5 31 29 31 3 0 7-1 74-4 160-4 58 0 121 2 47 0 59-26l420-955q4-10 12.5-13t18.5 11l414 952q18 31 61 31 68-2 137.5-2t139.5 2q25 2 34-26.5t-2-47.5q-6-16-22-16-10 0-30.5-2t-30-3-25-5-21.5-11.5-11-20.5-5-32q0-23 4-84l55-798q8-133 34-165t110-32q41 0 47-31 2 0 2-18l-2-19q-6-27-41-26-74 5-229 5-117 0-279-3-39 0-45 22-4 12 0 43 2 8 15.5 17.5T1321 88q102 0 127 38 17 26 17 88 0 27-3 60v10.5l-1 14.5-2 27.5-2 48-4 82-7 121-11.5 173L1419 983q0 25-14 27-4 2-6-6L967 4q-6-16-42-16T881 4L440 997q-6 12-10 15.5t-8-2-4-19.5l-43-700q-4-82-4-101 0-53 25.5-75.5T502 86q33 0 41-27 8-31-4-51-4-4-37-14-117 5-232 5-86 0-172-3-4 0-13 2T72 1t-9.5 5T55 18z"/><glyph unicode="N" horiz-adv-x="1708" d="M74 63q10 27 43 27 141 0 141 107v1011q-49 31-158 35-18 0-18 47 0 39 43 43 37 3 96 3 31 0 65-1 106-2 128-2 33 0 57-28l819-934q6-12 17 16 4 8 4 16v646q0 86-3 116.5t-20 42.5q-16 16-49 23-16 2-54 4t-57 4q-18 0-26 24.5t-1 47 27 22.5q63-3 163-3 134 0 335 5 23 0 23-51v-9q0-18-7-24-9-8-32-8-113-4-134.5-25.5T1454 1083V18q0-37-50-41-9-1-16-1-36 0-47 16-152 172-444.5 508T442 1020q-12 12-21 18t-15-4V291q0-100 10-133 18-53 86-60 2 0 33.5 1t52-4T614 78q12-23 3-53.5T580-6Q440-3 333-3 190-3 106-8 86-8 76 16q-7 11-7 24 0 11 5 23z"/><glyph unicode="O" horiz-adv-x="1693" d="M102 639q0 313 211 520t537 207q317 0 524-190.5T1581 694q0-311-210-522T846-39q-317 0-530.5 194.5T102 639zm248 53q0-272 149.5-451.5T881 61q240 0 346 159t106 413q0 281-148 458t-392 177q-201 0-322-159T350 692z"/><glyph unicode="P" horiz-adv-x="1181" d="M51 1286q0 41 27 45 160 18 461 19 166 0 270-27 133-35 214-133t81-227q0-195-137.5-307.5T590 543q-43 0-86 6-10 2-14.5-3t-6.5-28V211q1-63 23-90 22-26 58-26h3q39 1 90 3 35 4 53.5-10T727 37q-2-21-12-35-9-13-21-12h-4Q543-4 388-4 264-4 135-8 100-8 90 6l-2 4q-8 16-6 31 2 55 70 55 72 0 90 11.5t18 60.5v930q0 96-14.5 123.5T178 1249l-100-2q-8 0-16.5 12.5T51 1286zm432-606q0-37 31-45 31-6 64-6 145 0 216.5 89T866 967q0 194-131 262-66 36-160 36-28 0-59-3-33-4-33-41V680z"/><glyph unicode="Q" horiz-adv-x="1683" d="M88 641q0 311 214 518t542 207q319 0 519-190.5T1563 692q0-231-132.5-416.5T1081 8q-10-4-11-12t11-12q98-47 244-172 92-80 156.5-109t158.5-33q16-4 16-18 0-15-18-41-20-29-41-35-59-12-104-12-219 0-485 225-31 27-62 53.5t-49 42T866-90q-33 25-98 49-305 27-492.5 216.5T88 641zm248 49q0-274 151.5-456.5T872 51q139 0 243 91t150 219 46 270q0 287-141.5 462T788 1268q-205 0-328.5-159T336 690z"/><glyph unicode="R" horiz-adv-x="1425" d="M38 22q-2 10-2 20 0 15 5 26 8 22 67 22h5q84 0 110.5 25.5T250 211v838q0 145-21.5 169.5T72 1245q-29 0-28 38t26 50q164 16 501 17 102 0 193.5-18.5T939 1271t132-122 49-188.5-54-202.5-144-146q-18-10 2-41 57-90 108-168l113-170q35-51 55.5-72.5T1270 102q45-35 106-47 22-18 22-39 0-15-12-32-22-15-79-15-203 0-310 127-74 84-174 244-14 23-28.5 49.5t-30.5 59-27 51.5q-23 43-39 41-78-6-156-6h-38q-10 2-19.5-13.5T475 500q0-184 2-289 4-72 31-94.5T616 94q11 1 20 1 50 0 58-27 8-20 4-50-6-25-41-24-39 0-165.5 2t-228 2T96-8L63-6Q43-4 38 22zm437 637q0-12 10.5-22t14.5-10q48-3 84-3 64 0 94 9 94 33 146.5 119T877 946q0 156-72 238t-254 82q-76 0-76-37V659z"/><glyph unicode="S" horiz-adv-x="1050" d="M115 335q0 10 14 16 16 7 36.5 6t27.5-9q31-92 62.5-141t84.5-86q78-55 160-55 109 0 172 60t63 155q0 35-9 65.5t-30.5 60-38 50T604 506t-53 40-60.5 39.5T438 621q-70 47-116 82.5t-97 89-77.5 116T121 1040q0 143 103.5 234.5T489 1366q70 0 170-35 55-18 70-18 6 0 27 18 20 6 47 2 10 2 14-5t6-19q31-242 33-262-2-23-19.5-29t-35 0-19.5 14q-96 238-274 238-88 0-135-46t-47-124q0-43 20.5-85t67.5-84 71.5-60.5T567 813q14-10 21-14 70-47 99.5-68.5t90-74 89-91.5 53-99T944 342q0-166-119-273.5T518-39q-66 0-211 43-47 14-55 14-10 0-23-20-27-12-53-4-14 2-18 22-43 239-43 319z"/><glyph unicode="T" horiz-adv-x="1394" d="M102 1360q18 18 43 18h5q28-2 34-18 12-29 103-29 215 4 422 4t405-4q70 0 84 4t23 25q4 8 25.5 12t37.5 0q18-4 21-29l30-335q2-16-9.5-24.5T1298 975q-25 0-35 8t-14 31q-25 123-51.5 158.5T1122 1208H852q-37 0-37-61V211q0-59 26.5-86T954 98h58q27 0 37-28.5t2-53.5q-8-23-43-22-100 4-233 4-166 0-382-6-31 0-35 22-12 27 0 56 10 18 33 22h78q27 0 43 3t35.5 13.5 30 36T588 211v942q0 55-45 55H285q-53 0-80-40t-53-179q-24-14-54-8-29 6-28 26 0 99 32 353z"/><glyph unicode="U" horiz-adv-x="1669" d="M55 1260q-9 15-9 28 0 15 11 29 12 14 37 14h514q29 0 37-16 10-20 4-47t-22-25h-19q-86 0-112.5-24.5T465 1116q0-14-1-43t-1-45V635q0-117 18.5-206T544 267.5 670 156t200-39q289 0 377 231 31 84 31 275v364q0 166-29.5 209t-142.5 47q-25 6-29 19-14 29 0 53 8 16 27 16 110 2 233 2t258-2q12 0 20.5-12t8.5-29q0-41-29-43-113-4-144.5-48T1419 995V625q0-98-3-150.5t-18.5-124-52-127T1247 113q-92-82-185-117T823-39q-401 0-540 309-31 68-39 126.5T236 604v526q0 72-21.5 91.5T98 1243q-33 0-43 17z"/><glyph unicode="V" horiz-adv-x="1558" d="M49 1260q-3 12-3 22 0 14 5 25 6 24 42 24h3q137-4 270.5-4t262.5 4q45 0 53-10 18-25 6-57-4-14-33-27-88-4-127-12-25-6-37-19.5t-8-38 8.5-39T510 1081l301-749q6-12 20.5-18.5T854 322l281 741q14 37 18 52t9 48-9 50.5-45 25.5q-33 6-94 6-27 0-37 19-16 31 2 55 10 13 30 13 5 0 11-1 56-4 172-4t291 4q25 1 33-19 4-9 4-19 0-11-6-23-10-22-25-21-82-2-121-40t-90-165L872-4q-18-41-47-45-17-3-34-3-23 0-46 5-25 4-38 39L274 1075q-43 106-80.5 133T84 1237q-27 6-35 23z"/><glyph unicode="W" horiz-adv-x="2224" d="M39 1311q10 20 37 20 315 0 502 2 31 0 36-18 8-29-4-55-4-14-30-15-41 0-61.5-7t-23.5-14-3-24q0-33 36-123l318-794q2-4 8-3t14.5 9 14.5 22l161 398q4 10 6.5 32.5T1049 774l-144 336q-39 92-68.5 112.5T696 1247q-18 6-20 46t24 40q134 4 342 4t490-4q25 0 39-8 25-16 10-57-6-16-11-19.5t-24-3.5q-94-2-127-25.5t-67-111.5l-103-246q-8-20 0-47l228-539q2-6 8-6t13 5.5 9 15.5l308 803q31 82 31 115 0 11-4 16-14 22-111 26-20 2-24.5 23.5t6.5 41 28 17.5q63-3 147-3 113 0 264 5 29 0 33-43 0-43-35-43-86 0-121.5-29.5T1950 1075L1540 6q-10-33-35-39-26-4-49-4-29 0-53 6-16 4-20.5 8.5T1370 4l-221 526q-8 20-31-8-6-6-8-14L905 6q-18-39-45-43-20-4-42-4l-60 8q-25 8-37 45L315 1044q-23 55-32 80t-26 51.5-24.5 34-35 15.5-45 8-64.5 2q-25 0-35 6-20 12-20 37 0 15 6 33zm1048-109q16-41 27-61 4-8 16.5-39t28.5-68q4-6 9.5-6t7.5 4l4 4q49 117 67 166 2 8 2 15 0 28-39 28h-84q-27 0-37-8-6-4-6-15 0-8 4-20z"/><glyph unicode="X" horiz-adv-x="1607" d="M55 41q0 45 31 45 82 6 129 26.5t90 75.5q55 72 113.5 148T550 503t116 146q8 8 8 17.5t-4 19.5-4 12l-283 361q-96 123-133 146.5T96 1231q-8 0-23.5 9T55 1262q-2 7-2 15 1 13 7 31 10 26 40 25 133-6 265-6 153 0 303 8 35 0 45-22 4-6 2-29.5t-10-30.5q-20-8-35-8-16 0-37-1t-32-2-19-1q-18-2-22.5-14.5t4.5-31.5 20.5-36.5T610 1122l197-262q12-20 24-4 186 242 236 313 17 25 17 42 0 30-56 30-63 0-74 8-12 12-12 37t10.5 35 30.5 10q432 0 473 2 23-2 31-24.5t-1-43-30-20.5q-115-6-189.5-64.5T1100 999L915 756q-6-10-7-17.5t0-10.5 8.5-11 11.5-15l338-440q10-12 35.5-47t31.5-41 26.5-27.5 32-26.5 36-16.5 51-15.5 65.5-8q29-4 29-45 0-39-31-39-84 2-281.5 2T993-6q-4-1-7-1-18 0-28 17-8 18-1.5 45T981 82h20q39 0 57.5 6t20.5 11 0 16q0 25-55 100L776 553q-18 4-43-29L473 197q-43-53-43-76 0-41 109-41h18q20 0 30.5-21.5t2.5-43T561-6Q344-2 216-2 130-2 84-4 72-4 63.5 10.5T55 41z"/><glyph unicode="Y" horiz-adv-x="1490" d="M33 1266q-2 7-2 15t2 17q4 33 32 33h3q194-3 329-3t211 3q16 0 27.5-22.5t4.5-44-38-21.5q-106 0-106-29 0-35 53-116l262-402q6-8 21.5-4t23.5 17l215 364q57 98 57 129 0 14-4 22.5t-26.5 14.5-67.5 6h-22q-23 8-21 48 2 38 36 38h3q86-3 196-3t244 3q29 0 29-41 0-45-29-45-25-2-46-6t-40.5-13-34-17.5-31-25L1289 1158l-23.5-32.5-20.5-33-21.5-37-21.5-35.5-297-502V211q0-66 33-88.5t96-26.5q53 0 62-4 14-8 14-55 0-45-35-45-236 4-388 4-101 0-165-2-33 0-43 22-12 23-2 52 8 23 21 26 10 6 24.5 7t35-1 26.5-2q51 2 71.5 30t24.5 83q5 84 5 164 0 61-3 119l-367 573q-74 113-115.5 143.5T72 1243q-33 0-39 23z"/><glyph unicode="Z" horiz-adv-x="1443" d="M74 43q0 18 12 35l834 1100q4 6 5 14t-1 14-6 6H504q-147 0-185.5-30.5T262 1008q-2-10-19.5-15.5t-38-.5-28.5 24q0 201 10 287 8 23 56 28h956q36 1 54-19 8-9 8-23 0-16-11-38L406 147q-23-23 26-26 14-2 33-2h471q158 0 208 60.5t66 221.5q14 18 54.5 19.5T1305 401q-6-174-29-372-2-16-27.5-24.5T1204-4q-61 0-287.5-1T565-6q-98 0-201.5 1t-169 1H125Q104-4 88 7 73 17 74 38v5z"/><glyph unicode="[" horiz-adv-x="690" d="M213-418q-12 887 0 1768 0 33 11.5 47t39.5 16h258q35 0 35-24v-31q0-27-25-29-100 0-126-16-16-10-19-51-4-823 0-1584 2-37 15.5-45t76.5-14l47-4q31 0 31-33v-22q0-29-47-29-80-6-242 0-55 4-55 51z"/><glyph unicode="\" horiz-adv-x="980" d="M84 1333q-12 25 11.5 36t56.5 11h49q18 0 24-1t13.5-9 17.5-27L891 33q32-56-25-62l-82-10q-25-2-35 6T729 0z"/><glyph unicode="]" horiz-adv-x="702" d="M66-418q0 29 26.5 36t58 1 58.5 7.5 27 54.5q4 762 0 1585-2 35-12.5 44t-41.5 13q-16 2-47 4t-45 4q-25 0-24 27v31q0 25 32 24h13q20 0 74.5 1t99.5 1 73-2q31-2 41.5-16.5T410 1350q14-1008 0-1768-1-47-56-51-162-6-241 0-47 0-47 29v22z"/><glyph unicode="^" horiz-adv-x="1005" d="M59 752q225 403 420 704h58q225-367 419-713 31-51-28-55l-39-4q-27-2-39 6t-27 33q-147 262-291 489-6 12-23 17.5t-20-.5q-100-154-305-514-20-31-63-31-51 6-55 8-37 12-7 60z"/><glyph unicode="_" horiz-adv-x="1071" d="M-20-389q0 25 51 24 102 0 317 2.5t382 1.5 317-6q51 0 51-28v-51q0-25-29-29H68q-88 0-88 39v47z"/><glyph unicode="`" horiz-adv-x="712" d="M145 1290q-14 16 .5 36t34.5 20l148 2q33 0 47-21 49-131 94-317 2-27-24-33t-42 10q-156 195-258 303z"/><glyph unicode="a" horiz-adv-x="847" d="M51 166q0 158 219 215 61 16 185 72 16 16 16 26l-2 129q-2 168-123 168-31 0-66.5-25.5T244 698q0-33 8-51-12-14-62.5-38.5T123 580q-29-10-44.5-2T63 621q0 74 130 178 106 84 194 84 66 0 130.5-33T618 764q25-35 30-65.5t5-127.5V209q0-41 5.5-61.5T670 124t16-3q39 0 78 35 14 8 24 8 20-4 26-28 3-9 3-17 0-13-6-23Q674-25 592-25q-86 0-111 95-2 12-16 2-70-55-112-76t-97-21q-90 0-147.5 53.5T51 166zm174 27q0-41 29-70t72-29q29 0 80 34t63 62v138q0 14-5 24-4 8-9 8h-2q-53-27-125-57-102-41-103-110z"/><glyph unicode="b" horiz-adv-x="1005" d="M16 1362q0 31 23 37l244 84q11 4 20 4 31 0 31-49V797q2-45 18-35 4 4 21.5 15t23.5 16.5 23.5 16.5 26 16 24.5 15.5 27.5 14.5 26 11 26.5 10.5 25.5 5.5 25.5 2q139 0 236.5-123T936 471q0-213-132-357.5T467-31Q363-31 188 8q-25 8-28 47 3 250 3 537.5t-3 613.5q0 59-2 74 0 20-35 27-14 4-43 9t-41 7q-23 8-23 39zm318-913q0-184 14-241.5t60.5-92.5T520 80q104 0 170 89t66 239q0 152-66 242.5T524 741q-61 0-176-84-12-10-12-57 0-16-1-68.5t-1-82.5z"/><glyph unicode="c" horiz-adv-x="884" d="M61 395q0 205 143.5 347.5T553 885q100 0 174-38t74-102q0-35-23.5-59T719 662q-57 0-131 71-53 53-107 53-92 0-162.5-101T248 442q0-150 72.5-241.5T506 109q139 0 225 124 16 37 47 29 23-8 27-33 2-6 2-11 0-14-10-28Q664-25 436-25 274-25 167.5 95T61 395z"/><glyph unicode="d" horiz-adv-x="1050" d="M45 395q0 207 133 348.5T508 885q68 0 154-27 4 0 8-1t6 4 4 7 3 9.5 1 9.5 1 9 1 9v389q-6 23-10 25-10 6-31.5 9t-47.5 4-34 3q-23 2-26 37-4 37 28 43 145 47 252 88 10 4 18 4 12 0 19-9 12-15 12-42V248q0-72 7.5-87.5T909 145q23 0 60 19 18 6 30.5 2t20.5-27q4-16 4-28 0-23-16-31Q889 23 743-20q-35-10-48 16.5T684 53q0 14-2 23.5T676 88t-8 0Q498-31 393-31 248-31 146.5 94T45 395zm186 64q0-154 68-250t168-96q84 0 203 82 10 0 14 36v404q-98 143-219 143-104 0-169-87t-65-232z"/><glyph unicode="e" horiz-adv-x="884" d="M53 414q0 199 120 332t300 133q211 0 297-183 31-66 55-96 6-18 6-32 0-35-40-36-75-3-206-3t-317 3q-39 0-39-67 0-152 81-249t204-97q133 0 238 125 16 20 41 12 16-4 25-23.5t1-33.5Q622-30 434-31 270-31 161.5 98T53 414zm203 222q0-6 5-10 7-5 15.5-6.5T291 618h276q11 0 23 4 10 3 10 9v2q-43 162-170 162-174 0-174-159z"/><glyph unicode="f" horiz-adv-x="657" d="M41 771q2 24 10 30 76 16 127 45 16 8 17 37 2 12 3 35.5t1 35.5q6 125 35.5 204T344 1323q147 166 322 166 57 0 125.5-25.5T891 1393q8-10 8-29 0-16-41-90-14-25-32.5-28t-32 4-33.5 24q-94 76-185 76-57 0-103-34t-66-91q-27-79-27-183v-14l2-131q0-37 22-37h140q12 0 19-2t9-4 5.5-8 3.5-8l16-99q-6-27-35-26l-166 2q-14 0-14-37V268q0-129 16-151 23-27 107-27h67q29-2 37-53 0-16-10-29.5T578-6Q426-1 301-1T76-6Q49-6 49 37q0 20 4 26 10 20 47 21 63 0 79 34t16 158v400q0 39-15 43H76q-27 0-33 14-3 9-3 23 0 7 1 15z"/><glyph unicode="g" horiz-adv-x="989" d="M53-279q0 59 29 106.5t57.5 69T229-43q18 16-4 20Q90 32 90 133q0 20 17.5 41t31 28 45.5 25q39 20 58 33 20 15 6 25-143 86-144 247 0 147 101.5 247T453 879q137 0 217-84h12q8 0 178 20 27 4 38-2t13-35q7-60 7-94v-8q-4-35-31-35-25 0-111 12-18 0-18-10 0-2 2-6 12-39 12-88 0-139-99.5-228.5T424 231q-33 0-78 11-10-14-53-47-14-14-20.5-21.5t-12.5-18 2-18.5 29-14q51-14 205-17 225-4 319-47Q928 8 928-137q0-160-160-267.5T387-512q-115 0-224.5 65.5T53-279zm172 54q-2-70 79-116t194-46q96 0 191 63.5T784-193q0 63-44 94.5T573-59q-8 0-225 6-6-8-16-17.5T310.5-91 293-109q-68-74-68-116zm51 800q0-117 49.5-184T446 324q68 0 112 56t44 157q0 113-50 183.5T430 791q-66 0-110-60.5T276 575z"/><glyph unicode="h" horiz-adv-x="1110" d="M49 74q6 8 49 14 61 4 76.5 35T190 276v924l-2 76q0 37-41 41-14 2-40.5 5t-38.5 5q-20 4-22.5 36t20.5 42q106 45 258 88 7 2 13 2 15-1 25-11 15-14 15-48V824.5l3-17.5 8-13 13 1q137 88 265 88 178 0 225-150 27-84 27-227.5T909 272q-4-86-4-133 0-31 18.5-40t96.5-9q12 0 20.5-2t12.5-12 5-13.5 3-21.5V31q0-35-25-35-74-1-160-1h-88Q651-4 610-4q-43 0-43 45-2 14 6.5 29.5T596 86h12q66 0 85.5 16.5T717 170q14 121 14 274 0 131-10 182.5T682 711q-43 47-115 47-16 0-29.5-1t-27.5-6.5-22.5-8.5-23.5-12-21.5-12-25-15.5T395 688q-18-10-18-78V190q0-72 16.5-89T471 84q37 0 41-27 0-23 2-30 0-34-28-34-4 0-9 1-26 1-75.5 1t-124-1-126-1T70-6h-3Q55-6 47.5 7.5T40 39q0 22 9 35z"/><glyph unicode="i" horiz-adv-x="544" d="M41 35v11q0 38 25 38 23 2 38 4t29 3 23.5 8 16.5 8.5 10 13.5 6.5 15 4.5 22.5 1 27V623q0 74-7 86-4 8-36 14-4 0-80 22-18 6-18.5 34T68 817q131 49 241 86 13 4 23 4 40 0 41-63V262q0-76 2-104 2-49 14-58.5t70-9.5h8q34 0 39-33V20q0-27-30-27-5 0-11 1-47 3-146 3T70-6Q62-6 52.5 7T41 35zm102 1210q0 49 34 83t81 34q51 0 85-34t34-85q0-49-35-79.5t-86-30.5q-49 0-81 31.5t-32 80.5z"/><glyph unicode="j" horiz-adv-x="505" d="M-219-371q0 45 22.5 82t59.5 37 88-65q53-61 108-62 57 0 85 52.5T172-147v806.5l1 24.5-1 16.5-6 13.5-12.5 8-18.5 8-29 7q-41 8-59 15-18 4-17 33.5T45 823q100 43 248 92 31 10 44-9t13-42V55q0-135-7-196t-34-127q-20-57-84-131-88-100-239-101-88 0-146.5 35t-58.5 94zm334 1596q0 49 33.5 81.5t85 32.5 84-32.5T350 1225t-34-83-83-34q-51 0-84.5 34t-33.5 83z"/><glyph unicode="k" horiz-adv-x="1060" d="M30 1358q2 33 21 37 57 14 128 43.5t106 40.5q14 3 25 3 14 0 20-6 12-10 14-42l2-828q0-12 6-24.5t17-3.5l211 153q43 32 43 46 0 5-5 7-10 4-30 4-10 0-23.5 1.5T549 791q-29 6-33 20-2 10 0 23 2 39 39 38h371q16 2 24-11t8-32q0-14-8-29.5T936 784q-127-2-242-90-55-43-200-147-12-16-2-29 246-254 362-373 39-39 62.5-52T985 80h23q16-6 20-28 1-8 1-14 0-14-5-26-8-18-20-18-89 5-197.5 5T571-6q-10 0-19 14.5T543 39q0 25 9 33t32 8q56 0 56 17 0 15-40 57L367 403q-20 14-21 0V148.5l1-17.5 3-16 7-12.5L368.5 91l16.5-6 23-3h59q10 0 18.5-14.5t8.5-31T485.5 7 467-6Q315-3 212.5-3T57-6h-2Q40-6 34 26q-7 34 3 46 8 12 37 12 66 0 79 27.5T166 276v891q0 68-2 107-2 25-62 33-25 12-49 12-23 5-23 33v6z"/><glyph unicode="l" horiz-adv-x="557" d="M51 20q-3 13-3 24 0 14 5 24 6 14 12.5 15T94 84q72 0 90.5 22.5T203 207v1061q0 23-23 24l-98 19q-20 4-21.5 36.5T82 1389q143 41 260 86h3q13-1 25-17 12-18 13-37V209q0-88 12.5-106.5T471 84q45 0 49-21V37q0-41-31-41-148 2-249 2T84-4q-6 0-18.5 7T51 20z"/><glyph unicode="m" horiz-adv-x="1689" d="M53 63q8 20 56 21 59 2 76.5 34T203 274v287q0 135-4 144-10 18-74 26l-47 6q-25 6-20 38t18 38q98 43 266 86 8 2 14 2 14 0 21-9 10-13 10-40v-94q0-2 1-6t3-7.5 4-3.5q197 137 324 138 70 0 123-37t76-103q8-14 22-2 72 49 102.5 69.5t94 46.5 120.5 26q143 0 199-127 31-72 31-283 0-53-4-158.5t-4-156.5q0-43 19.5-54.5T1599 88q27 6 46-6 15-8 15-34 0-6-1-13 0-16-10.5-28.5T1626-6q-56 2-168 2t-278-2h-11q-12 0-20 8t-10 21.5 0 25.5 10 21.5 18 9.5h21q59 0 78.5 17.5T1290 174q8 82 8 279 0 184-27.5 243.5T1169 756q-70 0-233-111V188q0-70 18.5-89t79.5-19q37 0 39-41 0-14-9-29.5T1040-6Q889-2 769-2q-80 0-146-2-33 2-32 37t21 45q6 4 31 4 74 0 92.5 30.5T754 274v326q0 76-34 116t-91 40q-14 0-31.5-3t-31-7.5-34-14.5-30.5-14-31.5-18.5-28-17.5-30-19.5T387 645V188q0-72 18.5-90T496 80q8 2 28-4 12-2 13-56-6-26-29-26-100 4-207 4T80-6Q64-6 56 6q-8 11-8 25 0 17 5 32z"/><glyph unicode="n" horiz-adv-x="1071" d="M51 12q-3 9-3 19 0 12 4 25 7 24 26 24h10q66 0 85.5 33.5T193 276v275q0 137-9 158-4 12-69 24l-41 8q-20 4-18.5 37T74 817q43 14 176 66 41 16 61 20 9 2 17 2 18 0 28-9 16-13 15-38v-88q0-4 3-12t7-13.5 6-3.5q193 135 301 136 233 0 234-371 0-59-8.5-179T905 145q0-39 14.5-50T991 84q27 12 43-10 8-12 8-41t-16-35q-8-2-27-2-41 0-187 1h-86q-75 0-105-1h-4q-40 0-42 43 0 16 8.5 30.5T604 84h12q63 6 85 25.5t28 76.5q12 115 12 351 0 211-135 211-88 0-235-113V188q0-72 18.5-88T481 84q25 0 29-45 0-43-39-45-34 1-107 1H197Q123-5 88-4h-6Q57-4 51 12z"/><glyph unicode="o" horiz-adv-x="1060" d="M66 426q0 197 133 326t329.5 129T861 749.5 997 424q-2-190-135.5-322.5T535-31q-199 0-334 131T66 426zm198 59q0-178 87-298.5T557 66q100 0 167 94t67 233q0 168-86 280.5T500 786q-100 0-168-85t-68-216z"/><glyph unicode="p" horiz-adv-x="1030" d="M16-510q7 31 27 31h18q76 0 96.5 35.5T178-264v885q0 33-6 41t-37 16q-12 4-35.5 12T66 700q-20 4-22.5 28t5.5 30q4 10 17 18l219 139q20 14 40 14l10-1q25-4 25-37V782q2-37 13-37 174 123 276 123 133 0 230.5-125T977 457q0-195-137.5-343.5T520-35q-59 0-149 29-8 2-11-17v-241q0-143 19.5-176t95.5-33h29q37 0 47-23 4-12 3-31.5t-7-27.5q-6-16-35-16-36 3-161 3h-69q-184-1-231-1-25 0-31 12-7 10-7 25 0 10 3 22zm344 688Q469 76 575 76q92 0 154 89t62 224q0 150-70 243t-172 93q-76 0-180-82-8-16-9-29V178z"/><glyph unicode="q" horiz-adv-x="1032" d="M63 395q0 201 129.5 339T510 872q117 0 233-59 12-6 17 0 27 35 57 55 6 6 25 6h10q27-2 35-16-14-57-15-151v-967q0-139 17.5-177t77.5-38h20q25 0 27-39v-6q0-34-23-47h-20q-113 4-225 4t-222-4q-49 0-49 41t25 53q12 2 80 2 76 0 94 32.5T692-260V35q-2 10-3 24.5T687 78t-7 0Q543-35 410-35 260-35 161.5 88T63 395zm177 56q0-154 75.5-255.5T498 94q82 0 186 88 10 10 10 58-4 313-6 344-2 35-14 67-18 59-69.5 96T489 784q-113 0-181-89t-68-244z"/><glyph unicode="r" horiz-adv-x="716" d="M41 39v19l3 12.5L55 80l23 2q66 0 85 32.5T182 274v363q-2 4-3 14.5t-3 17.5-8 9q-4 2-41 16.5T72 717q-23 10-25 33v16q0 27 23 33 33 16 116 43 88 31 121 47 12 6 21 6t15-5q13-11 15-34 0-96 2-139 55 125 84 141 27 14 55.5 14t49-6 52.5-17 50-15q4-2 10.5-3t8.5-2q26-9 26-27 0-5-2-11-16-53-61-136-39 2-84 27-41 20-68 20-55 0-116-116V289q0-47 2-101 2-72 17-88t85-16h45q23 0 29-36T532-2q-6-4-20-4L295-4q-88 2-140 2-79 0-79-4h-5Q54-6 48 4q-8 12-7 35z"/><glyph unicode="s" horiz-adv-x="643" d="M63 639q0 111 81 181.5T346 891q78 0 176-41 5-73 5-132 0-44-3-81 0-6-12-13.5t-25-7.5q-32 1-36 21-14 78-51.5 118T313 795q-43 0-69.5-27T217 700q0-31 26.5-64.5t51-53 75-52T426 494q164-113 164-250 0-109-82-186.5T315-20q-68 0-120 22-12 4-17 6-10-10-16-24-32-9-41-9h-2Q90-21 90 4 78 125 72 233q-2 16 15 23.5t40 3.5q14-6 20-27Q186 63 309 63q49 0 81 34t32 83q0 59-56.5 113.5t-123 92.5-123 104.5T63 639z"/><glyph unicode="t" horiz-adv-x="653" d="M43 799q6 10 23 18 109 59 174 248 4 23 40 24h3q34 0 32-28-3-66-3-109.5t3-64.5q0-10 25-17h203q35 0 35-27 0-8-3-18-4-31-18-69-12-23-41-21l-182 2q-12 4-19-14V371q0-154 23.5-204t87.5-50q57 0 109 98 8 18 29.5 16t33.5-14q6-6 6-25.5t-2-23.5Q516-23 360-23q-98 0-159.5 74T139 240v483q0 8-20 12-14 2-33.5 4T53 741q-13 22-13 40 0 10 3 18z"/><glyph unicode="u" d="M40 809q-1 6-1 11 0 21 22 28 18 4 116.5 29.5T317 911q20 4 32.5-12t12.5-37V379q0-158 33-209t127-51q82 0 211 100 8 20 8 31v397l-1 29.5-5 31-10 24.5-16.5 21.5L684 764q-29 4-45 8-2 0-68 10-18 10-16 39t23 35q217 49 290 57h8q45 0 46-43V168q0-35 23.5-39t47.5 6l43 12q18 2 26-17 5-12 6-25 0-9-2-17-5-22-24-27-111-49-227-73-16-4-28-4-42 0-44 43 0 2-1 13t-2 27.5-3 26.5q-2 31-20 17-57-41-94-64.5t-94.5-45T416-20q-121 0-179.5 75.5T178 266v424q0 31-7 43t-30 21q-12 4-38.5 11T61 776q-14 2-21 33z"/><glyph unicode="v" horiz-adv-x="1056" d="M26 817q6 39 29 41 7 1 37 1 45 0 142-2 69-1 123-1 73 0 120 2 8 0 15.5-13.5T500 815t-8.5-28.5T473 774h-18q-41 0-61.5-5T370 759t-3-16q0-35 202-497 6-8 15.5 5t13.5 25q109 270 174 408 7 15 7 28 0 52-115 60h-11.5l-9.5 1-6 4-6 9q-8 16-3 44t21 28q81-2 170-2t187 2q27 0 26-41-4-37-22-41-57-6-86-40t-84-163L594 10q-12-27-35-30-7-1-18-1h-13q-22 1-28 3-16 6-27 36L213 614q-8 18-16.5 39T183 685t-9 20q-6 14-15 25t-15.5 17.5-23 11.5-20.5 6-26.5 5-26.5 4q-22 3-22 31 0 5 1 12z"/><glyph unicode="w" horiz-adv-x="1570" d="M22 800q-3 11-4 20 0 14 7 24 8 12 36 8 332 0 375 2 27 0 33-27 6-16 0-35.5T449 772q-90-4-91-35 0-25 191-487 8-16 11-16.5t5 4.5l170 399q-45 84-59 98-31 31-80 33-6 0-17.5 1t-17.5 1q-10 0-18 13.5t-8 27.5q-2 16 5 29.5t17 13.5q172-4 285-4 75 0 123 2l12 2h3q32 0 37-36 5-38-13-48-98-2-99-41 0-25 29-94l162-385q8-25 22 10 8 10 80 193 80 188 90 235 6 27 0 44.5t-23.5 24.5-32.5 9-43 2-38 2q-14 6-16 45t22 39q75-2 162.5-2t187.5 2q4 1 7 1 17 1 24-17 4-11 4-23 0-11-3-21-7-22-19-24-78-10-95-35-16-23-41-90-51-121-258-635-10-23-18-24-4-2-18-4-8-2-48 2-27 2-36 22L801 496q-10 25-19 6-45-96-120.5-281.5T575 10q-12-29-34-33-8-2-30-2t-30 2q-18 4-28 31L207 608q-45 111-69.5 134.5T41 770q-11 2-19 30z"/><glyph unicode="x" horiz-adv-x="1069" d="M14 35q0 41 27 41 70 2 107.5 25.5T268 217l152 178q16 16 0 39L274 627q-72 96-106.5 119.5T51 774q-18 4-17 43 1 37 26 37h3q53-3 150.5-3t239.5 3q25 0 30-8 10-16 5-43t-15-27h-18q-33 0-45.5-6t.5-29q20-37 69-100t68-82q14-20 35 8 120 120 120 171 0 11-4 17.5T676.5 768t-53.5 6h-8.5l-7.5 1-6 2-6 4-5 10q-6 20-2 43 3 21 25 21 6 0 12-1 148-2 241.5-2t134.5 2q4 1 8 1 19 0 29-17 10-20 3-42t-31-22h-13q-73 0-112-22-43-24-107-95l-76-84-75-86q-10-14-2-26 96-125 149-197l74-92q39-51 74.5-70.5T1022 78q25-14 25-47 0-14-8.5-25.5T1016-4q-89 2-173 2-126 0-239-4-29 0-29 39 0 41 25 41h18q59 0 60 20 0 8-9.5 22.5t-22.5 30-17 21.5L518 319q-23 27-35 13-4-4-27.5-31t-44-50.5-44-51-38-49T315 121q0-14 5.5-21.5t27-14.5T410 74h14q27-4 27-43-1-15-9-27-7-10-15-10h-3Q323-2 205-2 127-2 41-4 18-4 14 35z"/><glyph unicode="y" horiz-adv-x="999" d="M20 800q-4 10-4 18 0 11 6 22 9 18 35 18h363q29 0 36-19.5t-1.5-40T436 776q-43 0-63.5-7T350 756t-2-21q0-16 23-65 29-63 55.5-133t59-155T539 246q6-8 9-11.5t7 1.5l119 317q47 127 47 162 0 23-5 34t-28.5 19-75.5 8q-16 6-16 41t22 39h19q61 0 154.5 1t146.5 1q29 0 35-20 2-9 2-17 0-12-5-25-8-20-18-20-57-4-93-51t-93-205L522-152q-35-98-84-217-31-74-73-125-37-47-109-47-41 0-75 34t-34 75q0 66 111 94 68 18 112 69.5T434-102l19 90-248 602q-53 129-74.5 154.5T39 776q-12 4-19 24z"/><glyph unicode="z" horiz-adv-x="839" d="M31 14q-2 9-2 17t2 16 9 16.5T49 76l463 641q15 20-18 20-43 0-122-3t-124-3q-35 0-54.5-28.5T143 553q-6-14-26.5-18.5t-38 6T63 569q0 6 3 9 39 236 59 319 4 9 35 9h6q37-1 37-13 0-29 12-36t61-5q233 4 435 4 12-2 23 0t24.5-1 23.5-13q8-41-6-58-201-264-461-647-6-8-1-15t16-7q215 0 274 2 45 0 65.5 22.5T727 246l8 10q12 27 49 18 27-5 27-21 0-4-2-9L727 18q-8-18-31-22H43q-8 0-12 18z"/><glyph unicode="{" horiz-adv-x="1026" d="M215 457q-6 14 0 30 4 23 23 27 94 20 148 74.5T440 711q0 45-24 149-20 94-21 170 0 160 110.5 280T788 1456q18 0 25-18 4-18 4-37v2q0-19-29-31-207-49-206-225 0-57 18-148 23-117 23-180 0-141-113-254-59-57-113-82-25-10 2-22 223-123 224-336 0-68-21-176-18-86-18-148 0-170 209-229 14-4 20-12 6-2 6-9 8-25 0-47-10-18-33-14-174 27-281.5 145.5T397-86q0 61 21 164 25 109 24 151 0 72-53 125.5T233 430q-18 6-18 27z"/><glyph unicode="|" d="M483 20v1680q0 61 52 61 33-8 49-4 16 0 24-6t9-10 0-22.5-1-22.5V864q0-760-2-854 0-55-49-55-18 4-41 0-41 0-41 65z"/><glyph unicode="}" horiz-adv-x="1026" d="M217-473q0 2 1 10t1 12q4 23 23 25 100 23 154.5 82T451-203q0 55-21.5 164T408 125q0 139 114 254 55 57 115 84 8 4 6 11t-10 11Q408 608 408 819q0 51 20.5 159.5T449 1143q0 78-38 127t-83 65.5-80 36-31 45.5q0 14 7 27.5t22 11.5q174-27 282.5-145.5T637 1032q0-55-23.5-158.5T590 717q0-147 190-197 37-8 37-43 0-43-33-49-92-20-142-73.5T592 236q0-55 23.5-161T639-84q0-156-103.5-272.5T268-506q-20-4-36.5 6.5T217-473z"/><glyph unicode="~" horiz-adv-x="1161" d="M49 528q6 139 91 230.5T348 850q111 0 279-90 166-88 237-88 133 0 162 151 2 14 12.5 25.5t22.5 9.5l22-2q16-2 27.5-11t9.5-22q-10-143-91-236t-202-93q-111 0-295 92-2 0-50 25.5T415.5 645t-55 19.5T297 676q-61 0-105.5-42T137 518q-4-35-47-29.5T49 528z"/><glyph unicode="¡" horiz-adv-x="557" d="M162 766q0 53 33.5 88t85 35 85-35 33.5-88-33.5-89-85-36-85 36-33.5 89zm12-1182 70 936q8 18 35.5 18.5T315 520l74-938q4-49-10.5-70.5T313-510h-59q-55 0-69.5 21.5T174-416z"/><glyph unicode="¢" horiz-adv-x="915" d="M98 389q0 209 144.5 355.5T592 891q20 0 29-2 23 0 30 20l86 230q10 20 54 16 47 0 28-43l-86-225q-8-16 6-21 106-43 107-121 0-35-24.5-59T758 662q-45 0-82 34-10 10-21-14L440 137q-6-16 4.5-26.5t36-13.5 36.5-4 30-1q70 0 121 33t106 102q4 6 8 9.5t9.5 4.5 8.5 2 8-2 7-4 9-6.5 10-5.5q27-16 0-57Q691-41 473-41q-41 0-86 10-12 4-18-14-8-18-29-74.5T309-205q-31-82-55-135-12-29-29.5-32t-44.5 7q-23 6-14 33l6 10L291-18q6 20-6 28-84 57-135.5 159.5T98 389zm181 47q0-145 75-246 2-4 11.5 1.5T377 203l219 565q-29 23-72 23-96 0-170.5-103.5T279 436z"/><glyph unicode="£" horiz-adv-x="1630" d="M31-406q0 61 76.5 134T283-158Q342-54 389 74q2 4 4 12 14 35-2 35H158q-2 0-7.5-1t-9.5-1q-10 0-18 4-20 8-8 57 6 37 49 37h278q23 59 72 197.5T592 631t78 188.5T770 1018q244 414 547 414 106 0 189-49.5t83-125.5q0-39-26.5-63.5T1497 1169q-47 0-96 50-14 12-27 26-72 68-137 68-80 0-154-96-80-111-163-320-176-442-275-657 0-20 8-23 49 0 144.5 1t144.5 1q14 0 21.5-3t8.5-13 1-14.5-4-18.5-4-16q-8-39-58-37l-319 4Q541 23 471-74q-6-8-3-12t13-2q63 20 140 20 152 0 331-135 100-72 133-90 72-41 134-41 70 0 116.5 40t46.5 95q0 31-28.5 80T1325-39q0 41 26.5 68.5T1419 57q53 0 85-48t32-115q0-147-127-261t-287-114q-121 0-221 65-31 20-110.5 87t-146 106T518-184q-63 0-147-41l-4-2q-55-111-125-181.5T111-479q-31 0-55.5 21.5T31-406z"/><glyph unicode="¥" horiz-adv-x="1071" d="M-4 1413q-6 29 29 29 233-8 436 2 35 2 35-27 0-2 1-15t1-22.5V1364q-2-10-25-14-106 0-106-41 0-12 18-52l51-129q4-14 43-14h226q20 0 28 19 0 2 16.5 39.5t32 79.5 15.5 59q0 33-66 37-2 0-12 1t-15.5 1-11.5 3-9 8-3 13v33q0 29 27 29 39 0 109.5-2t123.5-1 109 5q33 2 32-21v-39q1-28-28-28-51 0-82-27t-70-119q-35-82-29-86 2-4 15-4h151q20 0 30.5-12t10.5-27v-39q0-45-41-45H831q-18 0-24-12l-62-137q-2-6 5.5-10.5T768 827l276 4q35-10 35-38v-50q0-39-51-38l-297 2q-45 0-49-9l-37-80V264q0-121 20.5-148.5T758 88h22q41 0 41-37V23q0-16-6-23.5T800-8h-24Q526 6 289-8q-14 0-25.5 8T254 25q0 6 1 17t2 17.5 4 13.5 10.5 10 19.5 3h16q84 0 103.5 25.5T430 264v332l-43 96q-6 14-33 15H45q-47 0-47 43v47q0 35 51 34l248-4q29 0 29 9 0 2-2 6l-54 129q-10 20-22 20H39q-41 0-41 41v45q0 37 35 37h155q35 0-6 82t-69 117q-35 35-88 37-23 0-27 26-6 12-2 37zm506-440 73-178q2-6 3.5-8.5t5.5-.5 8 15l74 178q0 2-4.5 5t-9.5 5-7 2H518q-4 0-11-7t-5-11z"/><glyph unicode="¦" d="M483-45v790h133V-45H483zm0 1014v792h133V969H483z"/><glyph unicode="§" horiz-adv-x="1005" d="M109 877q0 225 144 390t343 165q78 0 181.5-43T881 1270q0-39-30-69t-69-30q-47 0-94 52-14 12-26 26-70 74-127 74-70 0-119-45t-49-107q0-18 7-41.5t22.5-53T425 1022t36.5-58.5 36-52 35-50.5 26.5-38q166-240 229.5-352.5T881 246q23-88 22-203 0-213-146-370.5T412-485q-102 0-188.5 45T137-328q0 37 26.5 69t63.5 32q12 0 23.5-4.5t20-8.5 19.5-14 15-15 15.5-18.5T334-305q70-76 145-76 66 0 117 45t51 98q0 82-115 242-213 307-305 471-119 215-118 402zm149 188q-80-215 55-479 55-111 183.5-302.5T674 0q47-80 63-123 8-25 17-2 25 59 24 150 0 227-149 460-33 51-114 173T391 848q-76 119-115 217-10 27-18 0z"/><glyph unicode="¨" horiz-adv-x="712" d="M53 1108q0 51 38 87t91.5 36 91-36 37.5-87-37.5-87-91-36-91.5 36-38 87zm350 0q0 51 38 87t91 36q55 0 93.5-36t38.5-87-38.5-87-93.5-36q-53 0-91 36t-38 87z"/><glyph unicode="©" horiz-adv-x="1630" d="M82 713q0 305 217 522t520 217 520-216 217-523q0-305-217-522.5T819-27 299 190.5 82 713zm111 0q0-262 183-447.5T819 80t443.5 185.5T1446 713t-183.5 447.5T819 1346t-443-185.5T193 713zm153 2q0 201 142.5 334T844 1182q72 0 180-37 18-6 31-6 10 0 15 7t15 36h45q29 0 31-31 0-4 7.5-100.5T1178 909v-16q0-23-25-23h-31q-18 0-24 17-2 2-4 12t-7 14q-68 182-256 183-129 0-206.5-93.5T547 743q0-184 77.5-279T842 369q92 0 148.5 31.5T1118 512q4 4 8 7t9.5 3h9.5l10-3 8-4 9.5-6 9.5-5q25-10 4-43-148-193-377-193-195 0-329 129T346 715z"/><glyph unicode="ª" horiz-adv-x="557" d="M47 948q0 98 148 133 68 14 122 45v86q0 90-73 91-20 0-45-19-6-6-8.5-11t-2.5-11.5v-9.5l3.5-11 5.5-14-113-51q-16-6-18 8-10 23-11 35 0 47 88 112 70 49 129 49 94 0 137.5-46t43.5-146V971q0-43 14-43 12 0 57 28 8 4 13.5 1t5.5-7l12-30q4-12-6-21-96-76-143-76-49 0-72 43-6 16-17 8-68-51-131-51-59 0-99 35t-40 90zm129 15q0-23 15.5-38.5T231 909q23 0 54.5 24.5T317 975v59q0 8-3 13.5t-7 3.5-15-8.5-20-8.5q-68-25-82-38t-14-33z"/><glyph unicode="«" horiz-adv-x="759" d="M76 453q-16 23 8 57l281 354q10 14 24 15h45q14 0 18.5-3.5t.5-11.5L256 475 444 98q16-33-8-32h-45q-14 0-31 22zm284 4q-12 18 13 53l213 313 13 19.5 13 1.5h47q23 0 11-27L543 475l125-344q10-31-13-31h-49q-6 0-12 9-4 4-6 8z"/><glyph unicode="¬" horiz-adv-x="1429" d="M145 864v154h1145V373h-155v491H145z"/><glyph unicode="­" horiz-adv-x="890" d="M90 438v72q0 18 16.5 28.5T139 549q371-10 633 0 14 0 26.5-12.5T811 510l-4-70q-8-29-31-32-311-4-655 0-20 0-31 30z"/><glyph unicode="®" horiz-adv-x="1630" d="M63 713q0 313 219.5 534T811 1468t528.5-221T1559 713q0-311-219.5-532.5T811-41 282.5 180 63 713zm109-.5Q172 444 358.5 256T811 68q264 0 452.5 189T1452 712.5t-188.5 456T811 1358q-266 0-452.5-188.5T172 712.5zM410 301v21q0 27 32 26 47 0 58.5 17.5T512 461v512q0 78-10 94t-51 18q-29 0-29 29v27q0 23 37 22 84-6 358 0 135 0 222-66.5t87-174.5q0-158-186-228-14-4-6-16l178-254q31-45 50.5-59.5T1210 348q23-2 23-14v-31q0-35-45-35-74 2-135 0-31 0-45 19L733 668h-31q-8 0-8-35V385q0-35 90-37 25 0 25-31v-22q0-27-47-27-170 10-311 0-10 0-25.5 8.5T410 301zm284 494q0-43 8-43 111 0 168.5 42T928 909q0 72-49 119t-125 47q-35 0-60-8V795z"/><glyph unicode="¯" horiz-adv-x="714" d="M18 1067v82q0 29 54 29h575q51 0 51-39v-78q0-37-57-37H63q-45 0-45 43z"/><glyph unicode="°" horiz-adv-x="849" d="M98 1053q0 139 95.5 236t232.5 97 233.5-97 96.5-236q0-137-96.5-234.5T426 721t-232.5 97T98 1053zm129 0q0-82 58.5-141.5T426 852t141.5 59.5T627 1053q0 84-58.5 143T426 1255q-82 0-140.5-59T227 1053z"/><glyph unicode="±" horiz-adv-x="1429" d="M145 834v55q0 51 66 51h401q27 0 27 33v385q0 6-1 14t-1 12q0 57 39 58h69q27 0 38.5-11.5T795 1386V967q4-27 28-27h414q31 0 42-10t11-35v-64q0-33-13-40t-46-7H834q-39 1-39-28V338q0-35-9.5-43t-42.5-8q-37-10-63 0-33 0-39 14l-2 6q-2 4-1 16.5t1 14.5v414q0 10-8 21t-17 11H199q-31 0-42.5 9.5T145 834zm2-826v45q0 29 9.5 42.5T197 106q53-4 415.5-4t626.5 4q29 0 40-11t11-40V2q0-35-20.5-44t-59.5-9q-229-2-997-2-39 0-52.5 11T147 8z"/><glyph unicode="²" horiz-adv-x="614" d="M18 643v35q55 66 166 160 2 2 38 32.5t47.5 41 39 40 38.5 49 22.5 47T381 1100q0 43-32 71.5t-81 28.5q-106 0-147-125-6-12-48-10t-42 18q10 111 84.5 175.5T299 1323q104 0 177-58.5t73-150.5q0-47-14.5-85T481 955.5t-57-50-74-53.5q-57-37-125-96-6-11 17-11h151q57 0 68 7 6 6 18 55 2 18 27 18h43q25 0 24-24-18-143-20-150-6-35-47-35H49q-18 0-24.5 4.5T18 643z"/><glyph unicode="³" horiz-adv-x="614" d="M29 707q0 31 21.5 49t51.5 18q35 0 89.5-39t84.5-39q49 0 88 43t39 107q0 45-25.5 75.5T319 952q-31 0-63-24-43-27-68 14-8 12-3 30.5t16 24.5q145 92 145 150 0 25-20.5 42t-53.5 17q-76 0-129-94-27-37-60.5-13.5T57 1147q39 84 105.5 130t148.5 46q76 0 130.5-39t54.5-104q0-70-68-125 63-20 100-68.5T565 870q0-111-100-189.5T236 602q-76 0-141.5 27.5T29 707z"/><glyph unicode="´" horiz-adv-x="714" d="m242 1004 94 317q16 33 47 33h168q16 2 28.5-5.5T590 1325q0-6-2-8v-2L311 977q-12-18-45-11t-24 38z"/><glyph unicode="¶" horiz-adv-x="983" d="M-18 934q0 195 127 305.5T459 1352q442 0 479 2 20 2 33.5-9.5T985 1315v-47q0-35-45-35h-74q-16 0-16-27V-467q0-29-8-36t-37-7h-35q-45 0-45 41l2 1675q0 23-25 23h-96q-16 0-16-19l2-1685q0-35-43-35h-45q-25 0-33 10.5t-8 32.5v969q0 12-4 15t-23 3q-160 2-256 53.5T29 729q-47 88-47 205z"/><glyph unicode="·" horiz-adv-x="526" d="M152 702.5q0 45.5 33.5 80T264 817t79-33.5 34-81.5q0-45-34-79.5T264 588t-78.5 34.5-33.5 80z"/><glyph unicode="¸" horiz-adv-x="714" d="M213-258 375 20h76L389-96h2q59-10 97-57.5T526-264q0-82-55-138.5T336-459q-45 0-84 15-31 12-12 45 2 8 8 14 6 16 28 12 27-6 39-6 35 0 59.5 24.5T399-297q0 59-43 59-23 0-114-47-18-8-28.5-2t-.5 29z"/><glyph unicode="¹" horiz-adv-x="614" d="M101 1110q-13 25 3 41 141 90 197 160 6 8 53 4t47-17V723q0-16 17-18 2 0 25.5-2.5t27.5-.5q29-4 32-8t5-39q0-16-8-29.5T483 612q-158 6-311 0-10 0-18.5 13.5T145 655q0 39 25 43l55 7q20 2 24.5 5t4.5 19v410q-35-23-113-52-27-2-40 23z"/><glyph unicode="º" horiz-adv-x="737" d="M59 1102q0 119 90.5 198.5T369 1380t219-79.5 90-198.5q0-117-89-198t-216-81q-131 0-222.5 80T59 1102zm146 37q0-102 55-171t129-69q61 0 103.5 48t42.5 126q0 98-55.5 166T350 1307q-61 0-103-47.5T205 1139z"/><glyph unicode="»" horiz-adv-x="759" d="m90 129 127 342L92 815q-10 31 12 31h52q6 0 14-12 2-2 4-5l225-340q12-16-10-53L176 123q-12-16-13-17.5t-13-1.5h-48q-18 0-12 25zm217-47 199 391-191 377q-14 31 11 31h45q14 0 30-21l285-366q18-27-10-56L397 82q-12-14-24-14h-47q-25 0-19 14z"/><glyph unicode="¼" horiz-adv-x="1464" d="M102 1104.5q-14 23.5 2 44.5 147 88 205 162 6 8 56.5 5t50.5-18V719q0-25 20-27h49.5l19.5-4 16-15 5-30q0-43-24-43-166 6-326 0-29 0-29 43 4 43 27 43l62 4q16 2 20 6t4 21v418q-23-12-65.5-31t-51.5-23q-27 0-41 23.5zm92.5-1153Q188-27 199-14l952 1347 4 10q8 8 23 9h90q10 0 16-14.5t-6-32.5L324-49q-14-20-37-21h-66q-20 0-26.5 21.5zM807 195v45l360 460q37 12 66 7 31-8 29-37V309q0-20 8-20h82q39 0 39-35 0-55-5-66-10-16-24-16h-90q-10-2-10-35l2-143v-16.5l-3.5-10.5-9.5-7-18-1h-100q-20 2-27 27l2 147q-4 39-14 39H838q-18 0-25.5 5t-5.5 18zm166 94h108q25 0 25 10v168z"/><glyph unicode="½" horiz-adv-x="1464" d="M101 1110q-13 25 3 41 141 90 197 160 6 8 53 4t47-17V723q0-16 17-18 2 0 25.5-2.5t27.5-.5q29-4 32-8t5-39q0-16-8-29.5T483 612q-158 6-311 0-10 0-18.5 13.5T145 655q0 39 25 43l55 7q20 2 24.5 5t4.5 19v410q-35-23-113-52-27-2-40 23zM193-25l958 1360q8 10 14 14.5t14.5 5.5 12.5 1l70-15q37-8 16-36L324-49q-14-18-18.5-24.5t-17-4.5-14.5 2l-55 13q-43 10-26 38zm667 39v35q55 63 164 160 2 2 32.5 28.5t40 35 36 33 37 39.5 25.5 39 21.5 44.5 6.5 42.5q0 43-33 71.5t-82 28.5q-106 0-147-125-6-12-47.5-10T872 455q10 111 85 175t184 64q104 0 177-58t73-151q0-57-30-106t-62.5-77-88.5-66q-12-8-18-13-57-37-125-96-6-8 14-10h154q59 0 68 6 8 8 18 55 2 18 27 19h43q25 0 24-25-18-137-20-149-6-35-47-35H891q-18 0-24.5 4T860 14z"/><glyph unicode="¾" horiz-adv-x="1464" d="M35 692q0 29 23.5 49.5T113 762q35 0 88-41t88-41q51 0 91 45t40 106q0 47-26.5 78T332 940q-33 0-63.5-22.5T219 913q-47 47-8 74 147 94 147 152 0 25-20.5 42t-54.5 17q-80 0-129-98-14-16-57.5-3T66 1139q37 84 105.5 131t152.5 47q78 0 135-40t57-106q1-67-67-124 135-49 135-191 0-111-101.5-190.5T250 586q-80 0-147.5 27.5T35 692zM197-18v-2l954 1355q23 35 55 21l43-19q39-18 23-41L324-49q-27-37-56-29l-47 15q-42 12-24 45zm589 223v35l361 460q37 12 65 7 31-8 29-37V309q0-20 8-20h82q39 0 39-35 0-55-4-66-11-16-25-16h-90q-10-2-10-35l2-137v-16l-3-10.5-9-7.5-19-1h-100q-20 2-27 27l2 141q-4 39-14 39H825q-43 0-39 33zm166 84h109q25 0 24 10v168z"/><glyph unicode="¿" horiz-adv-x="759" d="M82-111q0 205 145 308 49 39 144 73 45 16 60 32.5t15 43.5q0 29-13 53.5T373 481q-12 14-10 24.5t8 15.5 10 7q14 8 38.5 3t35.5-19q104-131 104-233 0-78-38-123T393 76Q264 25 219-20.5t-45-121T222-261t138-44q29 0 79 7t75 7q141 0 141-96 0-63-55-93t-145-30q-166 0-269.5 111.5T82-111zm213 877q0 51 37 87t90 36 90-35 37-88-37-89-90-36-90 36-37 89z"/><glyph unicode="À" horiz-adv-x="1456" d="M29 68q6 25 28 24 74 0 96.5 14.5T205 188l33 82 376 1026-12 50q-4 10 8.5 19t32.5 11h66q78 0 96-26 104-272 189-497.5T1123 511t61-159q37-106 55-157 25-70 47.5-89.5T1372 86h14q18 0 25.5-23.5t.5-47T1384-8Q1155 2 846-6q-35 0-35 51 0 47 53 47 20 0 47 1t37 1q49 2 63.5 23.5T1010 182q-63 166-138 369-8 18-43 18H524q-23 2-41-26-35-100-127-348-10-31-10-62t43-39 88-4q18 2 41 0 25-4 25-51-2-16-10.5-30.5T518-6Q180 0 80-6H57Q16 2 29 68zm476 1714.5q15 19.5 38 19.5l153 2q37 0 49-22 41-109 103-334 0-31-30-34t-42 11q-109 141-270 320-16 18-1 37.5zM549 723q-2-6 14-16 125 4 230 0 4 0 8 9t2 17q-53 139-111 334-10 25-24-18-23-70-119-326z"/><glyph unicode="Á" horiz-adv-x="1456" d="M29 68q6 25 28 24 74 0 96.5 14.5T205 188l33 82 376 1026-12 50q-4 10 8.5 19t32.5 11h66q78 0 96-26 104-272 189-497.5T1123 511t61-159q37-106 55-157 25-70 47.5-89.5T1372 86h14q18 0 25.5-23.5t.5-47T1384-8Q1155 2 846-6q-35 0-35 51 0 49 53 49h84q49 2 63.5 23.5T1010 182q-63 166-138 369-8 18-43 18H524q-23 2-41-26-35-100-127-348-10-31-10-62t43-39 88-4q18 2 41 0 25-4 25-51-2-16-10.5-30.5T518-6Q180 0 80-6H57Q16 2 29 68zm520 655q-2-6 14-16 125 4 230 0 4 0 8 9t2 17q-53 139-111 334-10 25-24-18-23-70-119-326zm59 780 101 332q10 35 47 35 20 0 43.5 1t36.5 1q45 2 64.5 2t41-3 27.5-10.5 4-21.5l-6-16-287-348q-12-16-47-8t-25 36z"/><glyph unicode="Â" horiz-adv-x="1456" d="M29 68q6 25 28 24 74 0 96.5 14.5T205 188l33 82 376 1026-12 50q-4 10 8.5 19t32.5 11h66q78 0 96-26 104-272 189-497.5T1123 511t61-159q37-106 55-157 25-70 47.5-89.5T1372 86h14q18 0 25.5-23.5t.5-47T1384-8Q1155 2 846-6q-35 0-35 51 0 47 53 47 20 0 47 1t37 1q49 2 63.5 23.5T1010 182q-63 166-138 369-8 18-43 18H524q-23 2-41-26-35-100-127-348-10-31-10-62t43-39 88-4q18 2 41 0 25-4 25-51-2-16-10.5-30.5T518-6Q180 0 80-6H57Q16 2 29 68zm389 1382 178 315q8 14 33 27 14 2 74.5 3t80.5-1q29-2 43-27l177-307q20-35-9-41-35-8-49 6l-239 203-226-203q-23-20-53-4-20 12-10 29zm131-727q-2-6 14-16 125 4 230 0 4 0 8 9t2 17q-53 139-111 334-10 25-24-18-23-70-119-326z"/><glyph unicode="Ã" horiz-adv-x="1456" d="M29 68q6 25 28 24 74 0 96.5 14.5T205 188l33 82 376 1026-12 50q-4 10 8.5 19t32.5 11h66q78 0 96-26 104-272 189-497.5T1123 511t61-159q37-106 55-157 25-70 47.5-89.5T1372 86h14q18 0 25.5-23.5t.5-47T1384-8Q1155 2 846-6q-35 0-35 51 0 47 53 47 20 0 47 1t37 1q49 2 63.5 23.5T1010 182q-63 166-138 369-8 18-43 18H524q-23 2-41-26-35-100-127-348-10-31-10-62t43-39 88-4q18 2 41 0 25-4 25-51-2-16-10.5-30.5T518-6Q180 0 80-6H57Q16 2 29 68zm346 1448q6 135 58 208.5t149 73.5q82 0 202-82 76-53 113-53 27 0 42 23.5t26 99.5q4 23 36 22 10 2 22.5-4t12.5-16q4-15 4-29 0-113-58-186.5T831 1499q-84 0-200 80-82 57-111 57-25 0-38-17t-25-69l-6-37q-10-20-40-22t-36 25zm174-793q-2-6 14-16 125 4 230 0 4 0 8 9t2 17q-53 139-111 334-10 25-24-18-23-70-119-326z"/><glyph unicode="Ä" horiz-adv-x="1456" d="M29 68q6 25 28 24 74 0 96.5 14.5T205 188l33 82 376 1026-12 50q-4 10 8.5 19t32.5 11h66q78 0 96-26 104-272 189-497.5T1123 511t61-159q37-106 55-157 25-70 47.5-89.5T1372 86h14q18 0 25.5-23.5t.5-47T1384-8Q1155 2 846-6q-35 0-35 51 0 47 53 47 20 0 47 1t37 1q49 2 63.5 23.5T1010 182q-63 166-138 369-8 18-43 18H524q-23 2-41-26-35-100-127-348-10-31-10-62t43-39 88-4q18 2 41 0 25-4 25-51-2-16-10.5-30.5T518-6Q180 0 80-6H57Q16 2 29 68zm387 1541.5q0 55.5 39 94.5t92 39q55 0 95-39t40-94.5-40-93-95-37.5q-53 0-92 37.5t-39 93zM549 723q-2-6 14-16 125 4 230 0 4 0 8 9t2 17q-53 139-111 334-10 25-24-18-23-70-119-326zm223 887q0 55 39 94t94 39q57 0 95-39t38-94q0-53-38-92t-95-39q-55 0-94 38.5t-39 92.5z"/><glyph unicode="Å" horiz-adv-x="1456" d="M29 68q6 25 28 24 74 0 96.5 14.5T205 188l33 82 376 1026-12 50q-4 10 8.5 19t32.5 11h66q78 0 96-26 104-272 189-497.5T1123 511t61-159q37-106 55-157 25-70 47.5-89.5T1372 86h14q18 0 25.5-23.5t.5-47T1384-8Q1155 2 846-6q-35 0-35 51 0 47 53 47 20 0 47 1t37 1q49 2 63.5 23.5T1010 182q-63 166-138 369-8 18-43 18H524q-23 2-41-26-35-100-127-348-10-31-10-62t43-39 88-4q18 2 41 0 25-4 25-51-2-16-10.5-30.5T518-6Q180 0 80-6H57Q16 2 29 68zm471 1622q0 88 61.5 149.5T711 1901q84 0 145.5-61.5T918 1690t-61.5-149.5T711 1479q-88 0-149.5 61.5T500 1690zm49-967q-2-6 14-16 125 4 230 0 4 0 8 9t2 17q-53 139-111 334-10 25-24-18-23-70-119-326zm63 967q0-41 29-70t70-29q37 0 65.5 29t28.5 70-28.5 69.5T711 1788q-41 0-70-28.5t-29-69.5z"/><glyph unicode="Æ" horiz-adv-x="1873" d="M-115 43q-2 20 8.5 27.5T-72 80q63 8 104.5 43T137 264q272 446 541 899 27 41 27 62 0 14-3.5 21t-25 12.5-66.5 5.5q-20 0-30.5 6t-8.5 20l2 29q6 29 37 29 145-4 545.5-1t474.5 1q20 0 40-10.5t22-24.5q0-12 18-269 0-8-2-12 0-16-20-16h-31q-8 0-14.5 3t-9.5 6-6 10-5 11.5-4 14.5-2 12q-20 92-43 123t-62 31h-376q-39 0-39-25V795q0-41 32-41l236 4q94 0 117 16 25 16 43 105 4 33 32 32h29q29 0 29-43 0-315 2-360 2-25-3-33t-22-8q-18-4-39-2-23 0-26 35-12 94-37 114.5T1368 633l-246-4q-27 0-26-41V250q0-96 23.5-116.5T1235 113q45-4 209 0 98 4 130 13t58 44q45 57 70 152 2 10 3 13t4 8 8 6 16 1h26q31 0 31-49-2-53-27-262-4-47-69-47H647q-41 0-41 33v20q0 45 60 41 63-2 101 4t72.5 35 34.5 86l3 72v202q0 10-13.5 18.5T840 512H469q-20 0-31-18L274 225q-45-74-45-102 0-45 119-45 10 0 16.5-3t10.5-5 6-9.5 2-10.5 1-14 1-13q2-35-35-35-31 0-127 2T48-8t-124-4q-6 0-12 1t-9 5-6 7-5.5 10-2.5 10.5-2 11.5zm643 602q6-8 25-10h281q14 0 28.5 15.5T877 678v508q0 37-19 6-125-186-330-547z"/><glyph unicode="Ç" horiz-adv-x="1560" d="M113 651q0 315 209.5 513T866 1362q150 0 334-70 66-25 88-6 10 8 37 5t31-13q23-104 18-184V971q-6-27-37.5-34t-44.5 13q-109 313-413 314-240 0-377-154T365 692q0-270 152.5-446T907 70q180 0 322 127 39 35 58.5 62.5T1346 354q6 14 29.5 19.5t42-3T1432 344q-55-178-148-332-33 8-51 8-61 0-154-30-72-23-178-27-20-4-33-20l-30-60q-9-16 26-28 45-18 73-60.5t28-97.5q0-84-57.5-149.5T772-518q-45 0-84 14-33 14-18 35 2 2 7 12.5t7 12.5q6 16 29 12 29-6 39-6 33 0 59.5 33.5T838-336q0 29-14.5 46.5T788-272q-31 0-106-39-10-4-17.5 2t-7.5 17 9 28L786-63q14 23-20 28-291 25-472 215.5T113 651z"/><glyph unicode="È" horiz-adv-x="1267" d="M48 44q5 42 32 46 14 2 86 2 94 4 116.5 34T305 283v768q0 127-23.5 159.5T158 1243h-26l-10 1-11.5 3-9.5 7.5-9 13.5q-10 18 8 53 8 16 45 16 655 4 895 0 45 0 50-30 8-66 11-120t4-98.5 3-60.5q-2-14-23.5-18t-37.5 2q-23 4-23 32-20 119-54 147t-153 32q-16 0-117.5 2t-150.5 0q-8-2-18.5-14.5T520 1190V782q0-10 4-17t8.5-11 6.5-4h235q115 0 137.5 18T948 891q2 2 8.5 6t17.5 9 21.5 6 20.5-9 14-33q2-47 2-113.5t-1-144-1-104.5-20.5-36-41-2-22.5 19q-16 100-38.5 120T770 629H539q-18-4-19-19V270q0-115 17.5-134T662 117h159q111 0 148 8t61 37q45 55 72 160 4 23 28 30 45 4 56-16 0-66-6-124t-14.5-113.5T1157 35q-4-39-90-39Q352-4 86-6L76-4Q43 2 48 44zm370 1701q-16 18 0 37.5t39 19.5l153 2q35 0 49-22 61-174 99-334 0-31-29-35t-41 12q-106 143-270 320z"/><glyph unicode="É" horiz-adv-x="1267" d="M48 44q5 42 32 46 14 2 86 2 94 4 116.5 34T305 283v768q0 127-23.5 159.5T158 1243q-51 0-66 25-10 18 8 53 8 16 45 16 655 4 895 0 45 0 50-30 8-66 11-120t4-98.5 3-60.5q-2-14-23.5-18t-37.5 2q-23 4-23 32-20 119-54 147t-153 32q-16 0-117.5 2t-150.5 0q-8-2-18.5-14.5T520 1190V782q0-10 4-17t8.5-11 6.5-4h235q115 0 137.5 18T948 891q2 2 8.5 6t17.5 9 21.5 6 20.5-9 14-33q2-47 2-113.5t-1-144-1-104.5-20.5-36-41-2-22.5 19q-16 100-38.5 120T770 629H539q-18-4-19-19V270q0-115 17.5-134T662 117h159q111 0 148 8t61 37q45 55 72 160 4 23 28 30 45 4 56-16 0-66-6-124t-14.5-113.5T1157 35q-4-39-90-39Q352-4 86-6L76-4Q43 2 48 44zm462 1402 98 332q10 35 47 34l179 3q18 0 29-8.5t9-26.5l-2-2v-4q-2 0-2-5 0-2-2-4l-286-348q-14-16-47-9t-23 38z"/><glyph unicode="Ê" horiz-adv-x="1267" d="M48 44q5 42 32 46 14 2 86 2 94 4 116.5 34T305 283v768q0 127-23.5 159.5T158 1243h-26l-10 1-11.5 3-9.5 7.5-9 13.5q-10 18 8 53 8 16 45 16 655 4 895 0 45 0 50-30 8-66 11-120t4-98.5 3-60.5q-2-14-23.5-18t-37.5 2q-23 4-23 32-20 119-54 147t-153 30q-190 6-268 2-8 0-18.5-12.5T520 1190V782q0-10 4-17t8.5-11 6.5-4h235q115 0 137.5 18T948 891q2 2 8.5 6t17.5 9 21.5 6 20.5-9 14-33q2-47 2-113.5t-1-144-1-104.5-20.5-36-41-2-22.5 19q-16 100-38.5 120T770 629H539q-18-4-19-19V270q0-115 17.5-134T662 117h159q111 0 148 8t61 37q45 55 72 160 4 23 28 30 45 4 56-16 0-66-6-124t-14.5-113.5T1157 35q-4-39-90-39Q352-4 86-6L76-4Q43 2 48 44zm302 1412 176 316q10 18 33 26 14 2 74.5 3t81.5-1q29-2 41-26l178-308q19-35-8-41-37-8-52 7l-237 202-223-202q-23-20-54-5-20 12-10 29z"/><glyph unicode="Ë" horiz-adv-x="1267" d="M48 44q5 42 32 46 14 2 86 2 94 4 116.5 34T305 283v768q0 127-23.5 159.5T158 1243h-26l-10 1-11.5 3-9.5 7.5-9 13.5q-10 18 8 51 8 16 45 16 655 4 895 0 45 0 50-30 8-66 11-119t4-97.5 3-60.5q-2-14-23.5-18t-37.5 2q-23 2-23 30-20 121-54 149t-153 30q-190 6-268 2-8 0-18.5-12.5T520 1190V780q0-12 7.5-21t11.5-9h235q115 0 137.5 17T948 891q2 2 8.5 6t17.5 9 21.5 5 20.5-10 14-33q2-45 2-111.5t-1-144-1-104.5-20.5-36-41-3-22.5 18q-16 102-38.5 122T770 629H539q-18-4-19-21V270q0-115 17.5-134T662 117h159q111 0 148 8t61 37q45 55 72 160 4 23 28 30 45 4 56-16 0-66-6-124t-14.5-113.5T1157 35q-4-39-90-39Q352-4 86-6L76-4Q43 2 48 44zm294 1510.5q0 53.5 37 90t88 36.5q53 0 90-37.5t37-89.5q0-53-37-88.5t-90-35.5q-51 0-88 35.5t-37 89zm338 0q0 51.5 37 89t88 37.5q55 0 91-36.5t36-90.5q0-51-36-87.5t-91-36.5q-51 0-88 36.5t-37 88z"/><glyph unicode="Ì" horiz-adv-x="743" d="M106 35q0 16 9.5 32.5T133 84q88 8 106.5 27.5T262 211l2 72v768l-2 69q-2 76-21.5 99.5T147 1251q-37 6-35.5 42t23.5 44q2 2 10 2h11q45 0 124.5-3t148.5-3 177 6q41 0 43-32 5-52-20-58-4 0-13.5-1t-13.5-1q-84 0-104.5-30.5T477 1051V211q0-29 2-49.5t13.5-33.5 16.5-20.5T538.5 96t34-5 45.5-3q10 0 17-2 23-14 21.5-54T629-6Q383 2 141-6q-14 0-24.5 11T106 35zm38.5 1747.5Q158 1802 180 1802l152 2q33 0 47-22 55-145 98-332 2-27-25.5-34t-43.5 9q-109 147-263 320-14 18-.5 37.5z"/><glyph unicode="Í" horiz-adv-x="743" d="M106 35q0 16 9.5 32.5T133 84q88 8 106.5 27.5T262 211l2 72v768l-2 71q-2 76-21.5 98.5T147 1251q-37 6-35.5 42t23.5 44q2 2 10 2h11q45 0 124.5-3t148.5-3 177 6q41 0 43-32 5-52-20-58-4 0-13.5-1t-13.5-1q-84 0-104.5-30.5T477 1051V211q0-29 2-49.5t13.5-33.5 16.5-20.5T538.5 96t34-5 45.5-3q10 0 17-2 23-14 21.5-54T629-6Q383 2 141-6q-14 0-24.5 11T106 35zm132 1427 96 334q16 33 47 33t71 1 56 2 43-1q69-7 22-64l-266-333q-12-16-46-9t-23 37z"/><glyph unicode="Î" horiz-adv-x="741" d="m88 1440 172 315q10 18 33 27 14 2 73.5 3t77.5-1q29-2 43-27l175-307q18-35-11-41-33-10-49 6l-233 203-219-203q-25-23-54-2-18 10-8 27zM104 35q0 16 10.5 32.5T133 84q88 8 107.5 28.5T262 211l2 72v768l-2 69q-2 78-21.5 100.5T145 1251q-35 6-34.5 42t22.5 44q4 2 10 2h11q45 0 125.5-3t150.5-3 178 6q41 0 43-32 5-50-18-58-6 0-16.5-1t-12.5-1q-86-2-107.5-31.5T475 1051V211q0-43 6-68.5t28.5-37 42-13.5 66.5-4q10 0 17-2 18-12 21-34.5t-5-40T631-6Q385 2 141-6q-37 0-37 41z"/><glyph unicode="Ï" horiz-adv-x="743" d="M57 1554.5q0 55.5 38 94.5t91.5 39 91-39 37.5-94.5-37.5-93.5-91-38-91.5 38-38 93.5zM106 35q0 16 9.5 32.5T135 84q88 8 106.5 28.5T262 211l2 72v768l-2 69q-2 76-21.5 99.5T147 1251q-35 4-34.5 41t22.5 45h21q8 0 196.5-4t255.5 4q41 4 43-30 5-56-18-58-6 0-14.5-1t-14.5-1q-86-2-106.5-31.5T477 1051V211q0-43 6-68.5t29-37T554 92t67-4q10 0 16-2 23-14 21.5-54T631-6Q385 2 141-6q-14 0-24.5 11T106 35zm302 1519q0 55 37.5 94.5T537 1688q55 0 93-39t38-94.5-38-93.5-93-38q-53 0-91 39t-38 92z"/><glyph unicode="Ð" horiz-adv-x="1628" d="M0 655v72q0 4 1 11t13.5 18.5T49 768h154q12 0 21 15.5t9 31.5v246q0 143-23.5 168.5T68 1255q-41 0-41 48 0 45 39 51l167 6q152 6 457 6 201 0 337-34t247-113q123-90 192.5-221.5T1536 715q0-231-149.5-423.5T1012 33Q908 2 844-4t-271-6q-438 0-512-2-14-2-25 6T25 16q0 43 4 52 6 12 13 17t12 5 16.5-1T88 88q88 0 114.5 22.5T231 209q2 59 2 373 0 31-30 30l-172-2q-31 6-31 45zm453-444q0-94 21.5-114.5T606 76q143 0 212 10t140 43q147 68 234.5 217.5T1280 680q0 152-54.5 277.5T1075 1157q-63 49-136 73.5T748 1268q-147 12-193 12-4 0-22.5 1t-28.5 0-24.5-4-20.5-12.5-6-23.5V811q0-14 10-28.5t20-14.5l285 2q55 0 55-47v-76q-6-33-53-33l-289-2q-29 0-28-39V211z"/><glyph unicode="Ñ" horiz-adv-x="1708" d="M74 63q10 27 43 27 141 0 141 107v1011q-49 31-158 35-18 0-18 47 0 39 43 43 55 4 160.5 2t128.5-2q33 0 57-28l819-934q6-12 17 16 4 8 4 16v646q0 86-3 116.5t-20 42.5q-16 16-49 23-16 2-54 4t-57 4q-18 0-26 24.5t-1 47 27 22.5q147-6 498 2 23 0 23-51 2-25-7-33t-32-8q-113-4-134.5-25.5T1454 1083V18q0-37-50-41t-63 15q-152 172-444.5 508T442 1020q-12 12-21 18t-15-4V291q0-100 10-133 18-53 86-60 2 0 33.5 1t52-4T614 78q12-23 3-53.5T580-6Q254 0 106-8 86-8 76 16q-12 20-2 47zm422 1412q6 133 58 207.5t148 74.5q82 0 203-82 76-53 113-53 27 0 42 23.5t27 99.5q0 23 35 22 33 6 37-22 4-13 4-27 0-113-59.5-187.5T952 1456q-82 0-198 82-82 55-113 55-23 0-37-17t-26-67q0-2-7-39-10-18-39.5-20t-35.5 25z"/><glyph unicode="Ò" horiz-adv-x="1693" d="M102 639q0 313 211 520t537 207q317 0 524-190.5T1581 694q0-311-210-522T846-39q-317 0-530.5 194.5T102 639zm248 53q0-272 149.5-451.5T881 61q240 0 346 159t106 413q0 281-148 458t-392 177q-201 0-322-159T350 692zm309 1053q-16 16 .5 36.5T698 1802l154 2q37 0 49-22 57-160 100-334 0-31-28.5-34t-42.5 11q-106 143-271 320z"/><glyph unicode="Ó" horiz-adv-x="1693" d="M102 639q0 313 211 520t537 207q317 0 524-190.5T1581 694q0-311-210-522T846-39q-317 0-530.5 194.5T102 639zm248 53q0-272 149.5-451.5T881 61q240 0 346 159t106 413q0 281-148 458t-392 177q-201 0-322-159T350 692zm406 752 100 332q10 35 45 34 178 2 184 2 31-4 33-22 2-4 0-10 0-13-4-17l-289-348q-12-16-44.5-9t-24.5 38z"/><glyph unicode="Ô" horiz-adv-x="1693" d="M102 639q0 313 211 520t537 207q317 0 524-190.5T1581 694q0-311-210-522T846-39q-317 0-530.5 194.5T102 639zm248 53q0-272 149.5-451.5T881 61q240 0 346 159t106 413q0 281-148 458t-392 177q-201 0-322-159T350 692zm234 748 180 315q10 18 33 27 12 2 73.5 3t81.5-1q29-2 43-27l174-307q20-35-6-43-39-6-51 8l-238 203-225-203q-25-23-55-4-20 12-10 29z"/><glyph unicode="Õ" horiz-adv-x="1693" d="M102 639q0 313 211 520t537 207q317 0 524-190.5T1581 694q0-311-210-522T846-39q-317 0-530.5 194.5T102 639zm248 53q0-272 149.5-451.5T881 61q240 0 346 159t106 413q0 281-148 458t-392 177q-201 0-322-159T350 692zm166 764q6 127 58.5 197.5T721 1724q82 0 201-77 78-51 110-52 27 0 42.5 22.5t27.5 94.5q4 20 35 21 35 6 34-19 4-12 5-26 0-106-58.5-179T969 1436q-84 0-197 75-88 57-110 58-25 0-38.5-15.5T598 1489q0-4-6-35-10-20-40-22t-36 24z"/><glyph unicode="Ö" horiz-adv-x="1693" d="M102 639q0 313 211 520t537 207q317 0 524-190.5T1581 694q0-311-210-522T846-39q-317 0-530.5 194.5T102 639zm248 53q0-272 149.5-451.5T881 61q240 0 346 159t106 413q0 281-148 458t-392 177q-201 0-322-159T350 692zm187 862.5q0 55.5 39.5 94.5t93.5 39q55 0 94-39t39-94.5-39-93.5-94.5-38-94 38-38.5 93.5zm358-.5q0 55 39 94.5t94 39.5 94-39 39-95q0-53-39-92t-94-39-94 39-39 92z"/><glyph unicode="×" horiz-adv-x="1431" d="M212 1111q1 11 0 17.5t8 17.5 12.5 14 18.5 17.5 17 16.5q2 4 11.5 9t26 5 30.5-12q168-164 362-373 16-16 26.5-15t33.5 21q131 117 334 347 14 16 41.5 23t37.5-1l52-47q39-33 0-72-27-27-176.5-178T850 709q-20-18-2-37l364-363q12-12 18.5-21t6.5-19.5-1-16.5-10-15.5-14.5-13.5-18.5-14-17-14q-43-35-74-5L758 543q-37 37-74-6-98-109-336-338-18-16-33.5-21.5t-35 7T255 202t-28 27q-39 39 0 74 43 41 183.5 182.5T590 666q20 23 2 45l-354 356q-12 12-19.5 22.5T212 1111z"/><glyph unicode="Ø" horiz-adv-x="1742" d="M98 649q0 311 227.5 522T885 1382q246 0 438-116 14-10 37 20l115 139q25 25 51 5l16-13q29-23-8-63l-100-115q-25-33-11-45 229-199 230-494 0-315-224-530T879-45Q652-45 453 63q-25 14-52-18L258-123q-23-23-34-22.5T190-127q-35 29-8 57L326 92q33 33 10 51Q98 346 98 649zm250 56q0-240 115-408 12-16 22.5-13t30.5 27q420 508 668 779 39 39 20 53-152 141-379 141-209 0-343-160.5T348 705zm212-499q-1-18 5-24Q717 55 915 55q240 0 373 189 113 164 116 392t-106 398q-18 29-49-10-334-383-678-788-10-12-11-30z"/><glyph unicode="Ù" horiz-adv-x="1669" d="M47 1304.5q0 12.5 7 21.5t24 11q80 6 547 0 20 0 26-22.5t-3-44-25-21.5h-19q-86 0-112.5-24.5T461 1120q0-14-1-42.5t-1-45.5V637q0-244 93-382t320-138q291 0 379 233 31 84 31 277v364q0 166-29.5 209t-142.5 47l-14 4q-23 4-24 44t26 42q225 4 499 0 12 0 20.5-13t8.5-28q0-39-29-45-113-4-144.5-48T1421 999V629q0-100-3-152.5t-18.5-124-52-128T1249 113q-92-82-185-117T825-39q-397 0-536 309-31 70-39 128.5T242 608v527q0 76-27 94t-137 20q-6 0-13.5 8.5T52 1279t-5 25.5zM629 1745q-14 18 1 37.5t38 19.5l155 2q35 0 49-22 61-162 101-334 0-31-30-35t-42 12q-98 133-272 320z"/><glyph unicode="Ú" horiz-adv-x="1669" d="M47 1304.5q0 12.5 7 21.5t24 11q43 2 232.5 2t314.5-2q20 0 26-22.5t-3-44-25-21.5h-19q-86 0-112.5-24.5T461 1120q0-14-1-42.5t-1-45.5V637q0-244 93-382t320-138q291 0 379 233 31 84 31 277v364q0 166-29.5 209t-142.5 47l-14 4q-23 4-24 45t26 41q225 4 499 0 12 0 20.5-13t8.5-28q0-39-29-45-113-4-144.5-48T1421 999V629q0-100-3-152.5t-18.5-124-52-128T1249 113q-92-82-185-117T825-39q-397 0-536 309-31 70-39 128.5T242 608v527q0 76-27 94t-137 20q-6 0-13.5 8.5T52 1279t-5 25.5zM727 1444l98 332q10 35 47 34l179 2q18 0 30.5-8t10.5-24q0-2-1-4t-1-4v-3l-293-354q-14-18-47-10t-23 39z"/><glyph unicode="Û" horiz-adv-x="1669" d="M47 1304.5q0 12.5 7 21.5t24 11q80 6 547 0 20 0 26-22.5t-3-44-25-21.5h-19q-84 0-111.5-25.5T461 1120q0-14-1-42.5t-1-45.5V637q0-244 93-382t320-138q291 0 379 233 31 84 31 275v366q0 166-29.5 209t-142.5 47l-14 4q-23 4-24 44t26 42h499q12 0 20.5-13t8.5-30q0-37-29-43-113-4-144.5-48T1421 999V627q0-98-3-150.5t-18.5-124-52-128T1249 113q-92-82-185-117T825-39q-397 0-536 309-31 70-39 128.5T242 608v525q0 78-27 96t-137 20q-6 0-13.5 8.5T52 1279t-5 25.5zM555 1440l178 315q10 18 33 27 14 2 74.5 3t83.5-1q27-2 41-27l178-307q17-35-10-43-35-6-50 8l-239 203-226-203q-20-20-53-4-20 12-10 29z"/><glyph unicode="Ü" horiz-adv-x="1669" d="M47 1302.5q0 12.5 7 21.5t24 11q43 4 232.5 4t314.5-4q20 0 26-22.5t-3-44-25-19.5h-19q-84 0-108.5-24.5T467 1120q0-16-1-44.5t-1-43.5V637q0-117 18.5-206T546 268.5 672 156t200-39q291 0 379 233 31 84 31 275v366q0 166-29.5 209t-142.5 47l-14 4q-23 4-24 44t26 40q225 4 499 0 12 0 20.5-12t8.5-29q0-37-29-43-113-4-144.5-48T1421 999V627q0-131-6-199t-46-156-120-159q-92-82-185-117T825-39q-401 0-540 309-31 70-39 128.5T238 606v527q0 78-25 96t-135 20q-6 0-13.5 8.5T52 1278t-5 24.5zm451 252q0 55.5 38.5 94.5t94 39 94.5-39 39-94.5-39-93.5-94.5-38-94 38-38.5 93.5zm458-.5q0 55 40 94.5t95.5 39.5 93.5-39 38-95q0-53-38-92t-93.5-39-95.5 39-40 92z"/><glyph unicode="Ý" horiz-adv-x="1490" d="M33 1266q-4 14 0 32 4 35 35 33 389-6 540 0 16 0 27.5-22.5t4.5-44-38-21.5q-106 0-106-29 0-35 53-116l262-402q6-8 21.5-4t23.5 17l215 364q57 98 57 129 0 14-4 22.5t-26.5 14.5-67.5 6h-22q-23 8-21 48t39 38q172-6 440 0 29 0 29-41 0-45-29-45-25-2-46-6t-40.5-13-34-17.5-31-25L1289 1158l-23.5-32.5-20.5-33-21.5-37-21.5-35.5-297-502V211q0-66 33-88.5t96-26.5q53 0 62-4 14-8 14-55 0-45-35-45-393 6-553 2-33 0-43 22-12 23-2 52 8 23 21 26 10 6 24.5 7t35-1 26.5-2q51 2 71.5 30t24.5 83q8 147 2 283l-367 573q-74 113-115.5 143.5T72 1243q-33 0-39 23zm602 178 98 334q18 33 47 32l178 2q51 1 39-40v-3l-292-354q-12-16-46-9t-24 38z"/><glyph unicode="Þ" horiz-adv-x="1206" d="M39 1300v19q0 31 39 31 358-6 508-2 41 2 41-29v-23q0-29-17-32-2-2-14-2-106 0-121-25-12-20-12-111 0-8 9-18t20-8q225 0 348-31 133-33 214-130t81-232q0-197-141.5-311.5T612 281q-92 0-143 10-6 0-6-31v-51q0-78 27.5-103.5T606 80h43q51-4 51-31V23.5L690 1l-33-9q-297 8-544-2-14 0-22.5 2T75 2t-5 25q4 29 14 39t41 10q86 0 100 26 12 20 13 64v942q0 111-13 133-8 12-37 16-16 6-66 5.5t-59 3.5q-25 6-24 34zm424-888q0-33 16-37 37-6 76-6 152 0 245 94t93 250q0 198-127 266-106 55-268 37-35-12-35-27V412z"/><glyph unicode="ß" horiz-adv-x="1116" d="M39 33q0 25 5 35t30 12q72 4 84 19.5t12 99.5v589q0 238 19.5 335.5T274 1307q117 150 314 149 158 0 267.5-96T965 1122q0-98-63.5-182T727 801q-10-4-7-10.5t17-10.5q135-49 215-152.5t80-244.5q0-190-108.5-304T657-35q-49 0-83.5 23.5T539 55q0 33 20.5 57.5T610 137q25 0 74-31 43-18 51-18 33 0 60.5 74T823 358q0 160-52 255.5T625 727q-39 10-103 10-25 0-37 13-6 8-6 30 0 33 31 37 129 18 197.5 92t68.5 195-58.5 190.5T565 1364t-149-84q-55-86-56-264V186q0-74 12.5-88T451 84q25-4 34-14.5t9-36.5q0-18-5-27-8-20-28-14Q250 0 74-8q-20-2-27.5 9T39 33z"/><glyph unicode="à" horiz-adv-x="847" d="M51 166q0 158 219 215 61 16 185 72 16 16 16 26l-2 129q-2 168-123 168-31 0-66.5-25.5T244 698q0-33 8-51-12-14-62.5-38.5T123 580q-29-10-44.5-2T63 621q0 74 130 178 106 84 194 84 66 0 130.5-33T618 764q25-35 30-65.5t5-127.5V209q0-41 5.5-61.5T670 124t16-3q39 0 78 35 14 8 24 8 20-4 26.5-27.5T811 96Q674-25 592-25q-86 0-111 95-2 12-16 2-70-55-112-76t-97-21q-90 0-147.5 53.5T51 166zm158 1122q-14 18 1 38t38 20l151 2q35 0 47-23 68-188 101-332 0-31-29-34.5T477 971q-121 160-268 317zm16-1095q0-41 29-70t72-29q29 0 80 34t63 62v138q0 14-5 24t-11 8q-53-27-125-57-102-41-103-110z"/><glyph unicode="á" horiz-adv-x="847" d="M51 166q0 158 219 215 61 16 185 72 16 16 16 26l-2 129q-2 168-123 168-31 0-66.5-25.5T244 698q0-33 8-51-12-14-62.5-38.5T123 580q-29-10-44.5-2T63 621q0 74 130 178 106 84 194 84 66 0 130.5-33T618 764q25-35 30-65.5t5-127.5V209q0-41 5.5-61.5T670 124t16-3q39 0 78 35 14 8 24 8 20-4 26.5-27.5T811 96Q674-25 592-25q-86 0-111 95-2 12-16 2-70-55-112-76t-97-21q-90 0-147.5 53.5T51 166zm174 27q0-41 29-70t72-29q29 0 80 34t63 62v138q0 14-5 24t-11 8q-53-27-125-57-102-41-103-110zm80 796 96 330q10 35 48 35h176q18 0 29.5-7.5t9.5-25.5l-2-2v-4q0-4-5-8L373 961q-12-18-45-10.5T305 989z"/><glyph unicode="â" horiz-adv-x="847" d="M51 166q0 158 219 215 61 16 185 72 16 16 16 26l-2 129q-2 168-123 168-31 0-66.5-25.5T244 698q0-33 8-51-12-14-62.5-38.5T123 580q-29-10-44.5-2T63 621q0 74 130 178 106 84 194 84 66 0 130.5-33T618 764q25-35 30-65.5t5-127.5V209q0-41 5.5-61.5T670 124t16-3q39 0 78 35 14 8 24 8 20-4 26.5-27.5T811 96Q674-25 592-25q-86 0-111 95-2 12-16 2-70-55-112-76t-97-21q-90 0-147.5 53.5T51 166zm58 835 178 302q12 18 32 24 12 2 61.5 3t70.5-1q29-2 43-24l176-293q15-35-8-41-31-8-50 6l-227 194-213-194q-23-18-53-2-20 10-10 26zm116-808q0-41 29-70t72-29q29 0 80 34t63 62v138q0 14-5 24t-11 8q-53-27-125-57-102-41-103-110z"/><glyph unicode="ã" horiz-adv-x="847" d="M51 166q0 158 219 215 61 16 185 72 16 16 16 26l-2 129q-2 168-123 168-31 0-66.5-25.5T244 698q0-33 8-51-12-14-62.5-38.5T123 580q-29-10-44.5-2T63 621q0 74 130 178 106 84 194 84 66 0 130.5-33T618 764q25-35 30-65.5t5-127.5V209q0-41 5.5-61.5T670 124t16-3q39 0 78 35 14 8 24 8 20-4 26.5-27.5T811 96Q674-25 592-25q-86 0-111 95-2 12-16 2-70-55-112-76t-97-21q-90 0-147.5 53.5T51 166zm39 809q6 129 58.5 198.5T295 1243q82 0 201-78 78-49 110-49 27 0 42.5 22.5T674 1233q4 20 37 20 31 6 34-20 4-12 5-27 0-106-58.5-178T543 956q-86 0-199 76-86 57-111 58-23 0-37-16.5t-24-63.5l-6-37q-10-18-40-20.5T90 975zm135-782q0-41 29-70t72-29q29 0 80 34t63 62v138q0 14-5 24t-11 8q-53-27-125-57-102-41-103-110z"/><glyph unicode="ä" horiz-adv-x="847" d="M51 166q0 158 219 215 61 16 185 72 16 16 16 26l-2 129q-2 168-123 168-31 0-66.5-25.5T244 698q0-33 8-51-12-14-62.5-38.5T123 580q-29-10-44.5-2T63 621q0 74 130 178 106 84 194 84 66 0 130.5-33T618 764q25-35 30-65.5t5-127.5V209q0-41 5.5-61.5T670 124t16-3q39 0 78 35 14 8 24 8 20-4 26.5-27.5T811 96Q674-25 592-25q-86 0-111 95-2 12-16 2-70-55-112-76t-97-21q-90 0-147.5 53.5T51 166zm82 934q0 51 37 88t88 37 88-37 37-88q0-55-37-91t-88-36-88 35.5-37 91.5zm92-907q0-41 29-70t72-29q29 0 80 34t63 62v138q0 14-5 24t-11 8q-53-27-125-57-102-41-103-110zm244 907q0 51 37 88t88 37q53 0 89-37t36-88q0-53-36-90t-89-37q-51 0-88 37t-37 90z"/><glyph unicode="å" horiz-adv-x="847" d="M51 166q0 158 219 215 61 16 185 72 16 16 16 26l-2 129q-2 168-123 168-31 0-66.5-25.5T244 698q0-33 8-51-12-14-62.5-38.5T123 580q-29-10-44.5-2T63 621q0 74 130 178 106 84 194 84 66 0 130.5-33T618 764q25-35 30-65.5t5-127.5V209q0-41 5.5-61.5T670 124t16-3q39 0 78 35 14 8 24 8 20-4 26.5-27.5T811 96Q674-25 592-25q-86 0-111 95-2 12-16 2-70-55-112-76t-97-21q-90 0-147.5 53.5T51 166zm142 1016q0 88 61 149.5t149 61.5q84 0 145.5-61.5T610 1182t-61.5-149.5T403 971q-88 0-149 61.5T193 1182zm32-989q0-41 29-70t72-29q29 0 80 34t63 62v138q0 14-5 24t-11 8q-53-27-125-57-102-41-103-110zm80 989q0-41 28.5-70t69.5-29q37 0 66 29t29 70-29 69.5-66 28.5q-41 0-69.5-28.5T305 1182z"/><glyph unicode="æ" horiz-adv-x="1339" d="M74 158q0 94 58 143t214 88q98 27 176 76v127q0 180-131 180-47 0-81-24.5T276 692q0-2 3.5-22.5t-2-29.5-19.5-15l-111-52q-29-14-42-2.5T92 625q0 74 137 180 100 78 197 78 133 0 219-97 6-6 11.5-7t7.5 0 8 7.5 8 8.5q111 92 258 92 123 0 189.5-58.5T1249 645q10-23 35-47v-35q0-35-51-35H750q-45 0-45-32 0-135 22-207 25-74 92.5-123T965 117q61 0 107 25.5t110 90.5q10 10 28.5 12.5t28.5-7.5l14-17q20-18-4-49Q1071-35 889-35q-168 0-277 141-18 23-34 7Q515 47 433.5 6T285-35q-90 0-150.5 55.5T74 158zm182 28q0-47 27.5-72.5T356 88q74 0 166 86v164q0 8-3 14t-11 4q-49-27-117-49-80-27-107.5-52.5T256 186zm461 435q0-2 4-3.5t10-2.5 10-1h293q2 0 8.5 2t10.5 7l2 2q-16 82-61.5 127T893 797q-135 0-176-176z"/><glyph unicode="ç" horiz-adv-x="884" d="M61 393q0 205 144.5 348.5T555 885q100 0 174-38t74-102q0-37-23.5-61.5T721 659q-57 0-131 74-53 53-107 53-92 0-164.5-103T246 438q0-150 74.5-245T508 98q133 0 225 129 4 12 17.5 23.5T780 258q23-10 27-33 8-18-8-41Q682 4 508-27l-33-61q-8-18 2-21 57-14 97-61t40-109q0-82-61-141t-143-59q-47 0-88 14-10 4-15.5 18.5t.5 28.5q4 4 8 15 6 12 19.5 13t31-3 23.5-4q37 0 66.5 25.5T485-313q0 37-24.5 53t-60 8-70.5-37q-12-12-33-1t-8 34L410-53q6 10 3 16t-12 6Q251-17 156 102T61 393z"/><glyph unicode="è" horiz-adv-x="884" d="M53 414q0 199 120 332t302 133q211 0 295-183 31-66 55-96 10-25 2.5-45.5T791 532q-150-6-521 0-39 0-39-67 0-152 80-249t203-97q135 0 238 125 18 18 41 12 16-4 25-23.5t1-33.5Q626-30 434-31 270-31 161.5 98T53 414zm203 225q-2-8 5-13t15.5-6.5T291 618h276q37 0 35 15-43 162-172 162-117 0-174-156zm3 687q15 20 38 20l152 2q35 0 47-23 47-127 100-332 0-31-29-34.5T526 971q-117 152-266 317-16 18-1 38z"/><glyph unicode="é" horiz-adv-x="884" d="M53 414q0 199 120 332t302 133q211 0 295-183 31-66 55-96 10-25 2.5-45.5T791 532q-150-6-521 0-39 0-39-67 0-152 80-249t203-97q135 0 238 125 18 18 41 12 16-4 25-23.5t1-33.5Q626-30 434-31 270-31 161.5 98T53 414zm203 225q-2-8 5-13t15.5-6.5T291 618h276q37 0 35 15-43 162-172 162-117 0-174-156zm98 350 99 330q10 35 45 35h176q18 0 29.5-7.5t9.5-23.5q0-10-6-16L424 961q-14-18-47-10.5T354 989z"/><glyph unicode="ê" horiz-adv-x="884" d="M53 414q0 199 120 332t302 133q211 0 295-183 31-66 55-96 10-25 2.5-45.5T791 532q-150-6-521 0-39 0-39-67 0-152 80-249t203-97q135 0 238 125 18 18 41 12 16-4 25-23.5t1-33.5Q626-30 434-31 270-31 161.5 98T53 414zm142 587 178 302q12 18 33 24 12 2 61 3t70-1q29-2 43-24l176-293q15-35-8-41-31-8-50 6l-227 194-213-194q-23-18-53-2-20 10-10 26zm61-362q-2-8 5-13t15.5-6.5T291 618h276q37 0 35 15-43 162-172 162-117 0-174-156z"/><glyph unicode="ë" horiz-adv-x="884" d="M53 414q0 199 120 332t302 133q211 0 295-183 31-66 55-96 10-25 2.5-45.5T791 532q-150-6-521 0-39 0-39-67 0-152 80-249t203-97q135 0 238 125 18 18 41 12 16-4 25-23.5t1-33.5Q626-30 434-31 270-31 161.5 98T53 414zm129 686q0 51 38 88t89 37 88-37 37-88q0-55-37-91t-88-36q-53 0-90 35.5t-37 91.5zm74-461q-2-8 5-13t15.5-6.5T291 618h276q37 0 35 15-43 162-172 162-117 0-174-156zm262 461q0 51 37 88t88 37q53 0 89-37t36-88q0-53-36-90t-89-37q-51 0-88 37t-37 90z"/><glyph unicode="ì" horiz-adv-x="544" d="M41 35q-4 49 25 49 23 2 38 4t29 3 23.5 8 16.5 8.5 10 13.5 6.5 15 4.5 22.5 1 27V623q0 74-7 86-4 8-36 14-4 0-80 22-18 6-18.5 34T68 817q131 49 241 86 63 20 64-59V262q0-76 2-104 2-49 14-58.5t70-9.5q41 4 47-33V20q0-31-41-26-94 6-395 0-8 0-17.5 13T41 35zm20 1255q-14 18 .5 37t36.5 19l148 2q33 0 47-21 59-176 94-319 0-29-27.5-33T322 987q-129 164-261 303z"/><glyph unicode="í" horiz-adv-x="544" d="M41 35q-4 49 25 49 23 2 38 4t29 3 23.5 8 16.5 8.5 10 13.5 6.5 15 4.5 22.5 1 27V623q0 74-7 86-4 8-36 14-4 0-80 22-18 6-18.5 34T68 817q131 49 241 86 63 20 64-59V262q0-76 2-104 2-49 14-58.5t70-9.5q41 4 47-33V20q0-31-41-26-94 6-395 0-8 0-17.5 13T41 35zm121 969 94 317q10 33 45 33h172q16 0 27.5-6.5t9.5-22.5q0-4-6-16L229 977q-12-18-43.5-11t-23.5 38z"/><glyph unicode="î" horiz-adv-x="544" d="m4 1001 178 302q12 18 33 24 12 2 61.5 3t69.5-1q29-2 43-24l176-293q15-35-8-41-31-8-49 6l-227 194L68 977q-23-18-54-2-20 10-10 26zM41 35q-4 49 25 49 23 2 38 4t29 3 23.5 8 16.5 8.5 10 13.5 6.5 15 4.5 22.5 1 27V623q0 74-7 86-4 8-36 14-4 0-80 22-18 6-18.5 34T68 817q131 49 241 86 63 20 64-59V262q0-76 2-104 2-49 14-58.5t70-9.5q41 4 47-33V20q0-31-41-26-94 6-395 0-8 0-17.5 13T41 35z"/><glyph unicode="ï" horiz-adv-x="544" d="M-33 1108q0 51 38 87t91 36q55 0 93-36t38-87-38.5-87-92-36T5 1021t-38 87zM41 35q-4 49 25 49 23 2 38 4t29 3 23.5 8 16.5 8.5 10 13.5 6.5 15 4.5 22.5 1 27V623q0 74-7 86-4 8-36 14-4 0-80 22-18 6-18.5 34T68 817q131 49 241 86 63 20 64-59V262q0-76 2-104 2-49 14-58.5t70-9.5q41 4 47-33V20q0-31-41-26-94 6-395 0-8 0-17.5 13T41 35zm276 1073q0 51 39 87t93 36q55 0 92-36t37-87-37-87-92-36q-53 0-92.5 36t-39.5 87z"/><glyph unicode="ð" horiz-adv-x="1116" d="M94 434q0 199 133 333t328 134q59 0 125-20 43-16-2 63-14 25-25 39-35 57-108 127-31 27-68 8L221 981q-33-4-45 25-20 39 19 61l217 115q10 4 10 13t-8 13q-55 33-135 62h2q-14 2-27.5 16t-3.5 35l16 27q18 39 62 26 147-41 254-100l184 92q43 10 59-20 4-12 6.5-20.5t-8-19T805 1289t-24.5-16-29-14.5T722 1244t-28-13q-29-16-2-37 125-94 221-262 117-215 117-445 0-270-149-405Q746-35 565-35 360-35 227 97T94 434zm195 66q0-186 89-313.5T590 59q106 0 175 85t69 221q0 190-88.5 314T528 803q-100 0-169.5-86T289 500z"/><glyph unicode="ñ" horiz-adv-x="1071" d="M51 12q-6 20 1 44t26 24h12q63 0 81.5 33.5T190 279v276q0 141-6 158-6 12-67 26l-41 9q-20 4-18.5 35.5T76 823q18 6 48 17.5t69.5 27T252 889q41 16 59 20 61 14 62-45v-90q0-12 5-22.5t11-6.5q197 137 299 138 233 0 234-373 0-59-7.5-181T907 145q0-39 14.5-50T993 84q25 15 43-10 8-12 7-41t-15-35q-8-2-27-2-41 0-188 1T621-4q-23-2-32 8t-11 35q0 45 26 45h14q63 6 84 25.5t25 76.5q12 117 12 355 0 113-32.5 162T606 752q-86 0-233-113V190q0-72 18.5-89T483 84q8 0 17.5-14.5T512 39q0-43-39-45-51 2-190.5 1T90-4h-8Q59-4 51 12zm156 1012q6 135 58 209t149 74q82 0 202-82 76-53 113-54 27 0 42 24t26 99q4 23 37 23 10 2 22-4t12-17q4-14 4-28 0-113-58-186.5T664 1008q-84 0-201 79-82 57-111 58-25 0-38-17.5t-25-68.5l-6-37q-10-20-40-22.5t-36 24.5z"/><glyph unicode="ò" horiz-adv-x="1060" d="M66 428q0 199 132 330t328 131q199 0 334-133t133-330q0-193-133-325T532-31q-199 0-332.5 132T66 428zm196 64q0-180 87-303T557 66q100 0 168 87t68 224q0 172-88 294T498 793q-100 0-168-85t-68-216zm94 796q-16 16 .5 37t38.5 21l154 2q33 0 47-23 66-172 98-332 2-23-12-30t-30.5-3.5T627 971q-133 172-271 317z"/><glyph unicode="ó" horiz-adv-x="1060" d="M66 428q0 199 132 330t328 131q199 0 334-133t133-330q0-193-133-325T532-31q-199 0-332.5 132T66 428zm196 64q0-180 87-303T557 66q100 0 168 87t68 224q0 172-88 294T498 793q-100 0-168-85t-68-216zm191 497 98 332q12 33 45 33h178q18 0 30.5-7.5t8.5-23.5q0-6-2-8v-2L522 961q-14-18-47-10.5T453 989z"/><glyph unicode="ô" horiz-adv-x="1060" d="M66 424q0 197 132 327t328 130q199 0 334-132t133-327q0-190-133-321.5T532-31Q333-31 199.5 99T66 424zm182 596 178 301q12 18 33 25 12 2 61 3t70-1q29-2 43-25l176-293q15-35-8-41-31-8-49 6l-228 195-213-195q-23-18-53-2-20 10-10 27zm14-533q0-178 87-299.5T557 66q100 0 168 87t68 222q0 170-88.5 290.5T498 786q-100 0-168-84t-68-215z"/><glyph unicode="õ" horiz-adv-x="1060" d="M66 424q0 197 132 327t328 130q199 0 334-132.5T993 422q0-190-133-321.5T532-31Q333-31 199.5 99T66 424zm147 573q6 129 58.5 199t146.5 70q82 0 200-78 78-49 111-49 27 0 42 22.5t26 93.5q4 20 37 21 31 6 34-21 4-12 4-26 0-106-58-178t-148-72q-86 0-199 76-86 57-111 57-23 0-37-16.5t-24-63.5l-6-37q-10-18-40-20t-36 22zm49-510q0-178 87-299.5T557 66q100 0 168 87t68 222q0 170-88 290.5T498 786q-100 0-168-84t-68-215z"/><glyph unicode="ö" horiz-adv-x="1060" d="M66 426q0 199 132 330t328 131q199 0 334-133t133-330q0-190-134-322.5T532-31q-199 0-332.5 131T66 426zm174 674q0 51 36.5 88t88 37 88-37 36.5-88q0-55-36.5-91t-88-36-88 35.5T240 1100zm22-608q0-180 87-303T557 66q100 0 168 87t68 224q0 172-88 294T498 793q-100 0-168-85t-68-216zm313 608q0 51 37 88t88 37q53 0 90-37t37-88q0-53-37-90t-90-37q-51 0-88 37t-37 90z"/><glyph unicode="÷" horiz-adv-x="1431" d="M152 672v51q0 47 73 47h996q16 0 27.5-1t19.5-7l12-9 6-16.5 3-17.5 2-23.5 1-25.5q2-31-18-42.5t-55-11.5H227q-20 0-47.5 16.5T152 672zm466-398q0 41 30 69t69 28q41 0 68.5-28t27.5-69q0-39-27.5-67.5T717 178q-39 0-69 29t-30 67zm0 850q2 39 31 63.5t68 24.5 67.5-27.5T813 1118q0-41-27.5-68.5T717 1022t-70 29.5-29 72.5z"/><glyph unicode="ø" horiz-adv-x="1116" d="M92 420q0 199 135 332t336 133q145 0 273-82 4 0 10 10l90 107q20 20 41 2 18-19 22-27l2-21q-4-14-18-28-14-16-39.5-47T907 756q-6-6-4-11 131-133 131-321 0-195-135-328T569-37q-143 0-268 78-8 4-14-4L178-96q-25-25-49-2l-20 18q-6 6-7.5 13.5t4 17.5T118-28.5 138.5-3 163 24.5t27.5 31T219 88q10 10 6 14Q92 235 92 420zm205 65q0-133 47-229 2-2 10-1t11 5l354 406q16 16 8 26-84 98-192 99-102 0-170-85t-68-221zm104-325q82-98 191-99 102 0 172 87.5T834 373q0 111-50 217-6 16-16 4L410 180q-14-14-9-20z"/><glyph unicode="ù" d="M40 809q-7 31 21 39 18 4 116.5 29.5T317 911q20 4 32.5-12t12.5-37V379q0-158 33-209t127-51q82 0 211 100 8 20 8 31v397l-1 29.5-5 31-10 24.5-16.5 21.5L684 764q-29 4-45 8-2 0-68 10-18 10-16 39t23 35q217 49 290 57 53 4 54-43V168q0-35 23.5-39t47.5 6l43 12q18 2 26.5-17t3.5-41.5-24-27.5Q931 12 815-12q-70-16-72 39 0 2-1 13t-2 27.5-3 26.5q-2 31-20 17-57-41-94-64.5t-94.5-45T416-20q-121 0-179.5 75.5T178 266v424q0 31-7 43t-30 21q-12 4-38.5 11T61 776q-14 2-21 33zm298 479q-14 16 2 37t37 21l153 2q35 0 50-23 55-145 98-332 2-23-12.5-30t-32-3.5T608 971q-113 147-270 317z"/><glyph unicode="ú" d="M40 809q-7 31 21 39 18 4 116.5 29.5T317 911q20 4 32.5-12t12.5-37V379q0-158 33-209t127-51q82 0 211 100 8 20 8 31v397l-1 29.5-5 31-10 24.5-16.5 21.5L684 764q-29 4-45 8-2 0-68 10-18 10-16 39t23 35q217 49 290 57 53 4 54-43V168q0-35 23.5-39t47.5 6l43 12q18 2 26.5-17t3.5-41.5-24-27.5Q931 12 815-12q-70-16-72 39 0 2-1 13t-2 27.5-3 26.5q-2 31-20 17-57-41-94-64.5t-94.5-45T416-20q-121 0-179.5 75.5T178 266v424q0 31-7 43t-30 21q-12 4-38.5 11T61 776q-14 2-21 33zm394 180 98 332q16 33 48 33h178q18 0 29.5-7.5t9.5-23.5l-2-4v-6L506 961q-16-18-48-10.5T434 989z"/><glyph unicode="û" d="M40 809q-7 31 21 39 18 4 116.5 29.5T317 911q20 4 32.5-12t12.5-37V379q0-158 33-209t127-51q82 0 211 100 8 20 8 31v397l-1 29.5-5 31-10 24.5-16.5 21.5L684 764q-29 4-45 8-2 0-68 10-18 10-16 39t23 35q217 49 290 57 53 4 54-43V168q0-35 23.5-39t47.5 6l43 12q18 2 26.5-17t3.5-41.5-24-27.5Q931 12 815-12q-70-16-72 39 0 2-1 13t-2 27.5-3 26.5q-2 31-20 17-57-41-94-64.5t-94.5-45T416-20q-121 0-179.5 75.5T178 266v424q0 31-7 43t-30 21q-12 4-38.5 11T61 776q-14 2-21 33zm206 211 178 301q12 18 33 25 12 2 61 3t70-1q29-2 43-25l176-293q15-35-8-41-31-8-49 6l-228 195-213-195q-23-18-53-2-20 10-10 27z"/><glyph unicode="ü" d="M40 809q-7 31 21 39 18 4 116.5 29.5T317 911q20 4 32.5-12t12.5-37V379q0-158 33-209t127-51q82 0 211 100 8 20 8 31v397l-1 29.5-5 31-10 24.5-16.5 21.5L684 764q-29 4-45 8-2 0-68 10-18 10-16 39t23 35q217 49 290 57 53 4 54-43V168q0-35 23.5-39t47.5 6l43 12q18 2 26.5-17t3.5-41.5-24-27.5Q931 12 815-12q-70-16-72 39 0 2-1 13t-2 27.5-3 26.5q-2 31-20 17-57-41-94-64.5t-94.5-45T416-20q-121 0-179.5 75.5T178 266v424q0 31-7 43t-30 21q-12 4-38.5 11T61 776q-14 2-21 33zm226 291q0 51 37 88t88 37 89-37 38-88q0-55-37-91t-90-36q-51 0-88 35.5t-37 91.5zm336 0q0 51 38 88t89 37q53 0 89-37t36-88q0-53-36-90t-89-37-90 37-37 90z"/><glyph unicode="ý" horiz-adv-x="999" d="M19.5 800.5q-7.5 20.5 2 39T57 858h363q29 0 36-19.5t-1.5-40T436 776q-43 0-63.5-7T350 756t-2-21q0-16 23-65 29-63 55.5-133t59-155T539 246q6-8 9-11.5t7 1.5l119 317q47 127 47 162 0 23-5 34t-28.5 19-75.5 8q-16 6-16 41t22 39h19q61 0 154.5 1t146.5 1q29 0 35-20.5t-2.5-41T952 776q-57-4-93-51t-93-205L522-152q-35-98-84-217-31-74-73-125-37-47-109-47-41 0-75 34t-34 75q0 66 111 94 68 18 112 69.5T434-102l19 90-248 602q-53 129-74.5 154.5T39 776q-12 4-19.5 24.5zM379 987l98 334q18 33 47 33h178q18 0 29.5-7.5t9.5-23.5v-4l-2-4v-2L451 958q-16-16-48-9t-24 38z"/><glyph unicode="þ" horiz-adv-x="1071" d="M6-474q0 3 1 12t1 11q0 14 7.5 20.5T30-424t20-1 16-1q49 2 66.5 11t26.5 51 9 145v1372q0 31-6 39t-37 18q-6 2-21.5 5.5T82 1221t-16.5 7-15.5 11-8 16.5-3 24.5v6q-2 14 12 23 2 2 10 6l220 137q72 25 71-43V834q0-27 6-46l2-6q182 125 291 125 133 0 232.5-128T983 487q0-199-139.5-347T518-8q-74 0-160 28-6 2-7-2t0-15 1-15v-207q0-135 21.5-173t97.5-34l31 2q37 4 43-35 6-27 0-43t-41-14q-319 6-459 0-8 0-15 1t-11.5 3-6.5 7-4 8-2 11.5v11.5zm346 681q109-102 223-103 94 0 159 85t65 219q0 152-74 251t-176 99q-92 0-197-92V207z"/><glyph unicode="ÿ" horiz-adv-x="999" d="M19.5 800.5q-7.5 20.5 2 39T57 858h363q29 0 36-19.5t-1.5-40T436 776q-43 0-63.5-7T350 756t-2-21q0-16 23-65 29-63 55.5-133t59-155T539 246q6-8 9-11.5t7 1.5l119 317q47 127 47 162 0 23-5 34t-28.5 19-75.5 8q-16 6-16 41t22 39h19q61 0 154.5 1t146.5 1q29 0 35-20.5t-2.5-41T952 776q-57-4-93-51t-93-205L522-152q-35-98-84-217-31-74-73-125-37-47-109-47-41 0-75 34t-34 75q0 66 111 94 68 18 112 69.5T434-102l19 90-248 602q-53 129-74.5 154.5T39 776q-12 4-19.5 24.5zM211 1110q0 55 40 94t93 39 92-39 39-94-39-93-92-38q-55 0-94 38t-39 93zm356 0q0 55 39 94t92 39q55 0 94-39t39-94q0-53-39-92t-94-39q-53 0-92 39t-39 92z"/><glyph unicode="Œ" horiz-adv-x="2121" d="M111 657q0 203 109.5 375T508 1290q141 70 348 70 78 0 225-8 104-6 115-6 6 0 39 1t72 1h581q29 0 39-9.5t12-35.5q6-33 13.5-144.5t-.5-128.5q-8-12-27-12-6 0-18.5-1t-16.5 0-10 7-10 23l-10 38q-25 98-48.5 120t-101.5 22h-324q-2 0-14-3t-25.5-11.5-13.5-18.5V786q0-16 16.5-24t30.5-8h236q98 0 121 20 20 23 32 111 0 33 31 33h29q23 0 26-33 4-127 0-375 0-43-26-43h-29q-31 0-31 41-8 82-32.5 103.5T1634 633h-272q-10 0-19.5-24.5T1333 571V156q0-14 14.5-28.5T1378 113h289q117 0 152.5 9t64.5 44q53 66 68 153 2 27 33 27h22q29 0 27-43 0-57-29-264-2-23-15.5-33T1965-6t-36-2q-121 0-356.5 1T1214-6q-70 0-205-9.5T807-25q-287 0-491.5 199T111 657zm245 41q0-266 141.5-444T846 76q104 0 180 57 49 37 63.5 94.5T1104 467v571q0 115-65.5 171.5T829 1266q-223 0-348-148.5T356 698z"/><glyph unicode="œ" horiz-adv-x="1587" d="M96 420q0 190 137.5 326.5T565 883q184 0 293-127 8-10 23 4 121 123 288 123 223 0 304-201 20-53 57-88v-35q0-31-37-31H982l-7-1-5-3-4-6-1-8q0-174 76.5-291T1223 102q86 0 225 140 25 25 49-4 31-33 6-60-84-90-174-149-98-63-199-64-145 0-241 133-4 4-4 0Q764-35 569-35 368-35 232 95T96 420zm201 57q0-168 90-291T588 63q92 0 146 79t54 231q0 188-74.5 303T528 791q-94 0-162.5-88.5T297 477zm680 146q-2-8 27-9h270q16 0 16 17-8 78-51 125t-100 47q-129 0-162-180z"/><glyph unicode="Ÿ" horiz-adv-x="1492" d="M35 1303q4 33 33 32 305-4 542 0 16 2 27.5-19.5t4.5-43-38-21.5q-115 0-115-28 0-25 62-121l270-416q6-8 16.5 1t20.5 26l215 364q63 109 63.5 131.5t-19 31.5-85.5 9h-22q-14 6-21.5 27.5t-1.5 40 31 18.5q254-4 450 0 14 2 21.5-10t7.5-31q0-14-8.5-29.5T1468 1249q-29-2-53-8t-41.5-13-38-24.5-31-27-29-36-23.5-34.5-24.5-41-23.5-41L907 520V211q0-127 133-121 72 8 72-53 0-45-35-45-399 6-565 2-25 0-33 29.5t0 44.5q10 27 51 26 10 2 30 0t26-2q96 6 102 119 10 147 2 285l-366 575q-72 111-117 142.5T74 1247h-8q-20 0-28.5 17.5T35 1303zm414 251.5q0 55.5 39.5 94.5t93.5 39q55 0 94-39t39-94.5-39-93.5-94.5-38-94 38-38.5 93.5zm358-.5q0 55 39 94.5t94 39.5 93-39 38-95q0-53-38-92t-93-39-94 39-39 92z"/><glyph unicode="ˆ" horiz-adv-x="714" d="m70 999 174 301q12 18 32 25 12 2 72 3t80-1q29-2 43-24l172-293q15-35-8-41-31-8-49 6l-234 194-219-194q-23-18-53-2-20 10-10 26z"/><glyph unicode="˜" horiz-adv-x="714" d="M29 975q6 129 58 198.5t146 69.5q82 0 201-78 78-49 111-49 27 0 42 22.5t25 94.5q4 20 37 20 31 6 35-20 4-12 4-27 0-106-58.5-178T481 956q-86 0-198 76-86 57-111 58-23 0-37-16.5t-24-63.5l-7-37q-10-18-39.5-20.5T29 975z"/><glyph horiz-adv-x="950"/><glyph horiz-adv-x="1901"/><glyph horiz-adv-x="950"/><glyph horiz-adv-x="1901"/><glyph horiz-adv-x="633"/><glyph horiz-adv-x="475"/><glyph horiz-adv-x="316"/><glyph horiz-adv-x="316"/><glyph horiz-adv-x="237"/><glyph horiz-adv-x="380"/><glyph horiz-adv-x="105"/><glyph unicode="‐" horiz-adv-x="890" d="M90 438v72q0 18 16.5 28.5T139 549q371-10 633 0 14 0 26.5-12.5T811 510l-4-70q-8-29-31-32-311-4-655 0-20 0-31 30z"/><glyph unicode="‑" horiz-adv-x="890" d="M90 438v72q0 18 16.5 28.5T139 549q371-10 633 0 14 0 26.5-12.5T811 510l-4-70q-8-29-31-32-311-4-655 0-20 0-31 30z"/><glyph unicode="‒" horiz-adv-x="890" d="M90 438v72q0 18 16.5 28.5T139 549q371-10 633 0 14 0 26.5-12.5T811 510l-4-70q-8-29-31-32-311-4-655 0-20 0-31 30z"/><glyph unicode="–" horiz-adv-x="1249" d="M78 467v23.5l1 29.5 10 21.5 26 13.5q422 10 1022 0 16 0 27.5-10t11.5-23v-63q-2-25-43-25-291-4-1022 0-12 0-22.5 11.5T78 467z"/><glyph unicode="—" horiz-adv-x="1751" d="M172 498q6 41 53 41 639-4 1295 0 31-8 40-21.5t5-40.5q-4-16-6-39-14-27-39-26-391-4-1301 0-45 0-43 32 0 6-3 23.5t-1 30.5z"/><glyph unicode="‘" horiz-adv-x="557" d="M141 1114q0 98 63.5 183T373 1423q16 6 31.5-7t15.5-31.5-21-36.5q-135-82-135-181l15-16q4 0 11 2t13 3 12 1q43 0 72-32.5t29-77.5q0-51-34-86t-85-35q-66 0-111 55t-45 133z"/><glyph unicode="’" horiz-adv-x="557" d="M145 967.5q2 21.5 17 33.5 137 84 137 177 0 23-8 20-29-8-45-8-43 0-72 31.5t-29 78.5q0 51 36 86t85 35q68 0 111-52t43-130q0-92-57.5-175T213 934q-31-14-50.5-1T145 967.5z"/><glyph unicode="‚" horiz-adv-x="526" d="M137 53q0 49 34 81t81 32q61 0 100-51.5T391-8q0-94-57.5-173T180-301q-25-10-35 29-3 31 9 43 127 80 127 168 0 16-9 16-16-4-26-6h-15q-41 0-67.5 30.5T137 53z"/><glyph unicode="“" horiz-adv-x="1028" d="M164 1106q0 96 63.5 182T393 1417q37 14 53.5-20.5T436 1346q-143-82-143-179 0-10 2-14t11-2 11 2q25 4 31 4 45 0 76-32.5t31-77.5q0-51-37-86t-90-35q-72 0-118 52t-46 128zm446 0q0 96 63.5 182T840 1417q37 10 53-10 25-41-10-61-143-80-144-179 0-18 11-18 6 0 21 4t24 4q47 0 76.5-32.5T901 1047q0-51-37-86t-90-35q-72 0-118 52t-46 128z"/><glyph unicode="”" horiz-adv-x="1026" d="M158 1300q0 51 37.5 86t91.5 35q70 0 117-52t47-130q0-92-63-176T225 932q-41-12-57 8-23 25-2.5 52.5t55.5 45 68 55 33 85.5q0 23-6.5 22.5t-24-5.5-27.5-5q-45 0-75.5 31.5T158 1300zm445-331.5q-1 18.5 18 32.5 147 80 147 177 0 10-3 18t-11 0q-4 0-13.5-2t-16.5-3-13-1q-45 0-76 31.5t-31 78.5q0 51 38 86t91 35q70 0 117-52t47-130q0-92-61.5-176T674 932q-43-14-60 4-10 14-11 32.5z"/><glyph unicode="„" horiz-adv-x="968" d="M147 53q0 49 36 81t87 32q66 0 109-50T422-8q0-92-63.5-172T195-301q-23-8-39.5 25.5T166-229q137 80 137 168 0 16-6 16-4 0-10-3t-11-3q-8-2-26-2-43 0-73 31.5T147 53zm420 0q0 49 36 81t87 32q66 0 109-50T842-8q0-92-64-173T614-301q-23-8-35 26.5t7 45.5q137 78 137 168 0 16-4 16h-2q-18-6-47-6-43 0-73 30.5T567 53z"/><glyph unicode="•" horiz-adv-x="759" d="M154 671.5q0 96.5 66.5 164T381 903t162.5-68.5T612 672q0-96-67.5-164T381 440q-94 0-160.5 67.5t-66.5 164z"/><glyph unicode="…" horiz-adv-x="2162" d="M258 86q0 51 39 86t96 35q55 0 92-38t37-89q0-49-35.5-82t-93-33T297 0t-39 86zm703-8q0 53 37.5 90t95.5 37q55 0 93-38t38-89-36-82-93-31q-59 0-97 32t-38 81zm696 8q0 51 38 86t93 35q57 0 94-38t37-89-36-83-93-32q-55 0-94 36t-39 85z"/><glyph horiz-adv-x="380"/><glyph unicode="‹" horiz-adv-x="1802" d="M50 23.5Q43 59 68 74q8 6 38 6 74 0 93.5 20.5T219 197v487q0 8-9 17.5t-13 9.5h-88q-45 0-52 20-8 31 2 57 6 4 16.5 9.5T88 805q92 18 133 43 16 195 35 244 29 86 154 200 72 63 172 106.5t215.5 43.5 193.5-66q33-37 70-14 76 55 165 87t188 26.5 169-64.5q37-31 37-74 0-27-45-63.5t-74-36.5q-25 0-55 31-86 80-178 80-80 0-149.5-58.5T1032 1149q-14-55-14-242 0-39 24-41 90-10 353 2 86 2 174 33 20 6 35.5-15.5T1620 842V188q0-72 15.5-88t72.5-16q16 4 33 0 25-6 19.5-46T1739-8q-190 6-428 0-25 0-25 43 0 16 2 26.5t12.5 17.5 30.5 5q76 0 88.5 25.5T1432 276v312q0 72-19.5 106.5T1329 731q-2 0-133 3t-147-1q-23-4-29-28l-2-429q-2-125 14.5-158.5T1130 84h39q20 0 30.5-7t11.5-15.5 1-26.5q0-16-8-29.5T1190-8q-242 4-485-2-27 0-27 41 0 39 24 49h19q76 0 89 25.5T823 272v406q-4 41-26 43-72 4-193 3t-166-5q-18-4-22-35V184q2-63 20.5-80.5T522 86q55 0 66-2 18-8 22-31.5t-5-44T584-10Q289 0 80-10q-23-2-30 33.5zM416 889q0-35 16-35 176-12 373 4 14 0 19 16.5t4 45-1 30.5q6 152 56 242 8 14-29 51-74 70-190 70-80 0-149-57.5T428 1116q-12-59-12-227z"/><glyph unicode="›" horiz-adv-x="1761" d="M48 51.5Q55 74 80 80q6 2 61 2 47 4 63.5 24.5T221 197v491q0 23-16 23h-92q-43 0-54 20-6 45 4 57 2 6 6.5 9.5T80 802t10 3q88 16 131 43 14 186 35 244 31 86 156 200 74 66 171 109t208.5 43 189.5-66q31-27 39-18 115 96 258 96 20 0 63-5t66-5q49 0 86 47 23 12 52.5 7t29.5-30V186q0-72 8-86t59-16q4 0 14.5 1t16.5 0 15.5-2 14.5-7 7-15q8-25 0-49-6-18-18-20h-19q-182 8-407 0-27 0-33 20-8 25-2 41 8 23 35 29 8 2 29.5 1t29.5-1q43 4 52 33.5t9 160.5l3 412q0 37-25 41-281 6-336 0-14-2-19-9t-12-30V186q0-70 19.5-90t87.5-20q14 4 26 0 25-4 24-44t-28-40Q999-4 694-8q-10 0-20 18-10 16-4 41t28 27q74 10 86 22 14 16 17 74 2 23 2 102v394q0 33-5 41t-26 8q-215-6-326 0-23 0-28-29V274q0-104 2-126.5t14-38.5q10-18 24.5-23.5T526 80q18 4 64-4 16-8 21-29.5t-3-39T586-10Q322 0 76-10 60-10 50.5 9.5t-2.5 42zM418 881q0-27 20-27 78-4 326 0 18 0 25.5 1t10.5 6 5 20q10 164 67 286 10 27-4 50-8 10-26 26-45 43-82 56.5t-96 13.5q-78 0-146.5-57.5T430 1116q-12-59-12-235zm579 12q0-16 6.5-22.5t32.5-6.5h318q33 0 32 29v377q-104 72-192 71-68 0-119-71-76-104-78-377z"/><glyph horiz-adv-x="475"/><glyph unicode="€" horiz-adv-x="950" d="M-2 451v34q0 39 35 39h92q-2 23-2 74v59H49q-51 0-51 39v35q0 39 35 39h100q31 240 145.5 363.5T555 1257q94 0 178-55 33-25 47-6 4 8 40 5t36-13q10-229 10-264-4-23-44-22t-46 20q-27 131-81 183t-140 52q-104 0-156.5-98T336 770h313q35 0 35-39v-35q0-39-51-39H332v-20q0-78 2-113h315q35 0 35-39v-34q0-39-51-39H340q16-176 67.5-260T557 68q86 0 145.5 60T788 281q4 18 32 25t51.5 1 21.5-24Q870 162 819 8q-18 8-39 8-35 0-110.5-22.5T532-29Q382-29 276 85T135 412H49q-51 0-51 39z"/><glyph unicode="™" horiz-adv-x="2099" d="M33 1211.5q0 13.5 2 33.5l18 148q2 27 14.5 35t38.5 8q319-8 680 0 35 2 48.5-7.5T852 1384l16-149q0-33-2-37-6-12-35-12h-38q-12 86-49 114.5T612 1329h-8q-16 0-23.5-1t-14.5-7-7-21V762q0-72 12.5-89.5T641 651q10 0 16-4 10-4 12.5-31.5T662 578q-6-8-44-9-139 6-327 0-33 0-43 7.5T238 610q0 33 20 39 6 0 12 2 49 6 59.5 22.5T340 760v543q0 27-55 26-88 0-124-28.5T111 1186H66q-18 0-25.5 6t-7.5 19.5zM895 590v22q0 37 39 37 53 2 65.5 19.5T1012 760v475q0 80-11.5 97.5T938 1352q-29 0-39 12-4 16-4 35 0 23 9 30t30 7q162-6 264-2 31 2 47-35l242-500q4-10 20 19l226 479q20 39 41 39h247q18 0 27.5-2t17-11.5 7.5-27.5q0-39-23-41-6-2-20-2-47-2-58.5-20.5T1960 1237V762q0-74 11-91.5t63-19.5q6-2 16-2 23 0 23-43 0-37-43-37h-351q-61-4-61 31v31q0 20 29 20h20q51 2 63.5 21.5T1743 760v344q0 39-8 39-4 0-9-8l-249-535q-12-31-35-31h-29q-12 0-16 6-4 12-6 15l-254 543q-12 25-15-7V762q0-80 12.5-96.5T1196 649h31q29 0 28-20 0-57-18-64h-18q-47 16-273 4-51-12-51 21z"/><glyph unicode="◼" horiz-adv-x="860" d="M0 0v860h860V0H0z"/><glyph unicode="ﬁ" horiz-adv-x="1144" d="M82 14q-14 41 20 58l48 6q45 6 54 28.5t9 133.5v419q0 25-6 33t-25 10l-71 7q-16 8-21.5 29.5T102 774q6 6 32 15.5t30 11.5q49 16 49 41 0 193 61 344 45 104 145.5 191t254.5 87q104 0 182-49t78-121q0-47-31-71.5t-63-24.5q-45 0-64 35-78 129-174 129-211 0-211-469 0-37 6-49 4-18 37-19 123-4 221 0 180 4 232 15l12 6q33 10 49-17-8-152-8-256V240q0-109 10.5-132.5T1006 78l41-6q27-4 25-37t-25-43q-63 4-193 4-160 0-178-2-25 0-33 24-8 27-1 38.5T662.5 72t31.5 6h8q45 6 52.5 27.5T762 240v348q0 84-12.5 100.5T680 707H424q-10 0-13-1t-8.5-3.5-7.5-7.5-3-13-1-23V240q0-111 10.5-134.5T455 78l59-6q25-2 21.5-38T510-8Q385-2 297-2T123-8Q92-8 82 14z"/><glyph unicode="ﬂ" horiz-adv-x="1103" d="M45 52.5Q51 74 70 78h18q66 6 80 26 18 27 18 175v423q0 23-22 27H72q-14 0-20.5 22.5T51 788q8 18 25 23l100 43q4 2 10 14 14 283 158 443 141 154 307 153 23 0 65-5t62-5q49 0 84 47 23 10 49.5 8t28.5-18V188q0-66 15.5-86t74.5-20q2 0 31-4 18-4 20.5-45T1055-6H627q-20 0-29 20-6 18 1 40t24 24h16q86 0 101.5 26.5T756 279v409q0 12-8.5 27.5T729 733q-51 0-169-1t-163-1q-16 0-22-33V188q0-70 18.5-90T479 78q14 4 25 0 23-4 23.5-42T506-6h-12q-16 0-94 2T239-2 88-6Q61-6 50 12.5t-5 40zM375 874q0-8 33-8h319q27 0 29 33v373q-104 72-187 71-70 0-120-71-74-102-74-398z"/><glyph unicode="ﬃ" horiz-adv-x="1802" d="M50 23.5Q43 59 68 74q8 6 38 6 74 0 93.5 20.5T219 197v487q0 8-9 17.5t-13 9.5h-88q-45 0-52 20-8 31 2 57 6 4 16.5 9.5T88 805q92 18 133 43 16 195 35 244 29 86 154 200 72 63 172 106.5t215.5 43.5 193.5-66q33-37 70-14 76 55 165 87t188 26.5 169-64.5q37-31 37-74 0-27-45-63.5t-74-36.5q-25 0-55 31-86 80-178 80-80 0-149.5-58.5T1032 1149q-14-55-14-242 0-39 24-41 90-10 353 2 86 2 174 33 20 6 35.5-15.5T1620 842V188q0-72 15.5-88t72.5-16q16 4 33 0 25-6 19.5-46T1739-8q-190 6-428 0-25 0-25 43 0 16 2 26.5t12.5 17.5 30.5 5q76 0 88.5 25.5T1432 276v312q0 72-19.5 106.5T1329 731q-2 0-133 3t-147-1q-23-4-29-28l-2-429q-2-125 14.5-158.5T1130 84h39q20 0 30.5-7t11.5-15.5 1-26.5q0-16-8-29.5T1190-8q-242 4-485-2-27 0-27 41 0 39 24 49h19q76 0 89 25.5T823 272v406q-4 41-26 43-72 4-193 3t-166-5q-18-4-22-35V184q2-63 20.5-80.5T522 86q55 0 66-2 18-8 22-31.5t-5-44T584-10Q289 0 80-10q-23-2-30 33.5zM416 889q0-35 16-35 176-12 373 4 14 0 19 16.5t4 45-1 30.5q6 152 56 242 8 14-29 51-74 70-190 70-80 0-149-57.5T428 1116q-12-59-12-227z"/><glyph unicode="ﬄ" horiz-adv-x="1761" d="M48 51.5Q55 74 80 80q6 2 61 2 47 4 63.5 24.5T221 197v491q0 23-16 23h-92q-43 0-54 20-6 45 4 57 2 6 6.5 9.5T80 802t10 3q88 16 131 43 14 186 35 244 31 86 156 200 74 66 171 109t208.5 43 189.5-66q31-27 39-18 115 96 258 96 20 0 63-5t66-5q49 0 86 47 23 12 52.5 7t29.5-30V186q0-72 8-86t59-16q4 0 14.5 1t16.5 0 15.5-2 14.5-7 7-15q8-25 0-49-6-18-18-20h-19q-182 8-407 0-27 0-33 20-8 25-2 41 8 23 35 29 8 2 29.5 1t29.5-1q43 4 52 33.5t9 160.5l3 412q0 37-25 41-281 6-336 0-14-2-19-9t-12-30V186q0-70 19.5-90t87.5-20q14 4 26 0 25-4 24-44t-28-40Q999-4 694-8q-10 0-20 18-10 16-4 41t28 27q74 10 86 22 14 16 17 74 2 23 2 102v394q0 33-5 41t-26 8q-215-6-326 0-23 0-28-29V274q0-104 2-126.5t14-38.5q10-18 24.5-23.5T526 80q18 4 64-4 16-8 21-29.5t-3-39T586-10Q322 0 76-10 60-10 50.5 9.5t-2.5 42zM418 881q0-27 20-27 78-4 326 0 18 0 25.5 1t10.5 6 5 20q10 164 67 286 10 27-4 50-8 10-26 26-45 43-82 56.5t-96 13.5q-78 0-146.5-57.5T430 1116q-12-59-12-235zm579 12q0-16 6.5-22.5t32.5-6.5h318q33 0 32 29v377q-104 72-192 71-68 0-119-71-76-104-78-377z"/></font>
</defs>
</svg>
