<svg xmlns="http://www.w3.org/2000/svg"><defs><font id="etbookdisplayitalic" horiz-adv-x="1390"><font-face units-per-em="2048" ascent="1638" descent="-410"/><glyph horiz-adv-x="2048"/><glyph horiz-adv-x="2048"/><glyph horiz-adv-x="681"/><glyph horiz-adv-x="520"/><glyph horiz-adv-x="520"/><glyph horiz-adv-x="520"/><glyph unicode="!" horiz-adv-x="608" d="M178 72q0 10 2 16 6 49 34 80t69 31q37 0 60.5-28T367 98q0-53-30-90t-73-37q-39 0-62.5 28T178 72zm125 290 123 916q8 55 18.5 66.5T500 1356h43q39 0 53-7t14-32q0-14-6-37L350 362q-6-12-18.5-15t-20.5 2-8 13z"/><glyph unicode="&quot;" horiz-adv-x="868" d="m344 745 33 310q18 176 52 238.5t114 62.5q35 0 57.5-21.5T623 1278q0-29-15-66-6-18-71-159L397 745h-53zm373 0 31 306 10 104q10 92 52 146.5t105 54.5q37 0 58.5-20.5T995 1280q0-53-80-229L774 745h-57z"/><glyph unicode="#" horiz-adv-x="1392" d="M90 373v116h232l81 394H90v116h338l88 426h113l-88-426h438l88 426h113l-88-426h206V883h-229l-82-394h311V373H965L881-51H764l90 424H412L328-51H213l86 424H90zm344 119h443l79 391H516z"/><glyph unicode="$" horiz-adv-x="966" d="M141 217q0 43 23.5 69.5T225 313q31 0 51.5-22.5T297 236q0-12-4-41t-4-43q0-61 55-105l109 524q8 39-9 60-125 131-125 287 0 127 72 214t199 109l22 119q4 16 31 16 25 0 19-18l-19-94q-2-8 4-12.5t15-4.5q37 0 53-2 27 0 28 19l19 96q0 16 24 16 10 0 17.5-5t5.5-13l-18-98q-4-25 18-33 76-27 119-83t43-136q0-111-70-111-31 0-48 22.5T836 977q0 25 12 78 0 2 1 10t1 12q0 53-55 88-12 8-18.5 4t-10.5-24L659 621q184-176 185-332 0-127-80-211T547-27q-23-4-29-34l-22-119q-4-14-29-15-10 0-15.5 4.5T449-180l22 121q0 25-18 26-25 0-54 4-12-2-24-22l-31-131q-6-14-29-11-8 2-13 5.5t-3 9.5l33 166q-86 33-138.5 94T141 217zM395 59q0-6 1-13t1-9 1-5 4.5-4 9.5-3q37-6 63-7 6 0 8 4.5t5.5 13.5 7.5 15l82 400q6 33-9 49-6 6-15 16t-17.5 18.5T520 549q-16 8-28-25zm35 914q0-70 41-139 25-41 31-15l67 324q4 23 1 28t-23-4q-117-66-117-194zm105-230q12-14 34.5-34.5T602 676q18-14 23 6l96 473q8 37-14 39-31 2-62 0-16 0-22-23zm10-697q0-3 1-8t3-7 6 0q70 25 112 82t42 131q0 84-72 178-14 14-21-6L545 63V46z"/><glyph unicode="%" horiz-adv-x="1497" d="M225 950q29 152 130.5 257.5T573 1313q121 0 179.5-107.5T782 946q-29-154-129-258T436 584q-121 0-180 106.5T225 950zm142-4q-59-305 75-305 140 0 197 309 59 305-72 305-139 0-200-309zm24.5-976.5Q385-18 395 0q508 774 690 1047 51 78 164 245 20 27 39 25l51-4q14-8 12-19.5t-10-17.5L485-20q-18-25-41-25h-28q-18 2-24.5 14.5zM983 403q29 152 130 257.5T1331 766q119 0 178.5-107.5T1540 397q-29-152-129-257T1194 35q-121 0-180.5 107.5T983 403zm141-6q-59-303 76-303 140 0 197 309 59 305-72 306-139 0-201-312z"/><glyph unicode="&amp;" horiz-adv-x="1474" d="M188 383q0 129 92.5 230.5T520 754q31 8 31 20 0 6-6 8-184 70-185 226 0 150 139.5 250T840 1358q68 0 144.5-16.5t147-66.5 70.5-124q0-29-21.5-49.5T1130 1081q-53 0-81 76-2 6-5.5 20.5t-5.5 20.5q-25 98-184 98-141 0-229-86t-88-229q0-82 39.5-135t99.5-53q6 0 23.5 2t31.5 2 29.5-2 25-11.5T795 760q0-20-11.5-30.5t-31-12.5-38-1-42 4-31.5 3q-113 0-187.5-85T379 424q0-172 113.5-274.5T799 47q164 0 319.5 103.5T1274 414q0 84-53.5 134T1071 598q-63 0-110.5-17.5T913 543q0-12 15-27 31-31 33-59 2-53-46-62-49-10-75 41-8 18-11 39-6 63 68 141 47 47 109.5 66.5T1180 702q33 0 99.5-2t98.5-2q55 0 89 14.5t34 35.5q0 12-17.5 33.5T1464 821q0 51 58 51 29 0 44-19t15-48q0-88-80-143.5T1282 596q-37 0-33-10l6-6q82-70 82-166 0-139-102-247T997.5 10 731-39 481 2 275 142.5 188 383z"/><glyph unicode="'" horiz-adv-x="456" d="m322 791 22 251q4 61 10 95t22.5 95.5T428 1325t86 31 69.5-33 7.5-88-32.5-111.5T502 1001L385 776q-16-29-29-31-4-2-12-2-23 0-22 48z"/><glyph unicode="(" horiz-adv-x="626" d="M205 248q0 588 581 1165 23 21 33 2.5t-8-39.5Q498 997 375 522 250 39 420-444q12-37-8-45-20-10-35 24Q205-88 205 248z"/><glyph unicode=")" horiz-adv-x="585" d="M-82-481q-10 18 16 53Q81-256 178-74q117 231 184 488 119 463-47 970-8 29 9 39 18 10 36-26 172-379 172-711 0-397-270-795Q125-310-41-471q-29-29-41-10z"/><glyph unicode="*" horiz-adv-x="1140" d="M197 770q0 49 23.5 67.5T299 868q66 12 115 29 57 16 118 53 35 14 5 31-68 35-125 51-25 8-115 31-53 14-76.5 33.5T197 1161q0 12 6 27.5t25.5 31T279 1235q37 0 77-45 4-4 12.5-14.5T383 1159q74-88 166-145 16-10 21-6t5 24q-6 113-28 182-27 88-27 125 0 33 19.5 58.5T596 1423t57.5-25.5T674 1339q0-29-29-125-27-92-29-182-2-25 7.5-25.5T649 1018q88 55 162 141 16 20 27 31 37 45 75 45 45 0 63.5-25.5T995 1161q0-45-23.5-64.5T895 1063q-113-31-115-31-55-16-121-49-14-8-17-12t1-8.5 16-12.5q63-37 121-53 49-16 115-29 55-12 77.5-30.5T995 770q0-27-20.5-49.5T924 698q-51 0-90 45-14 14-27 33-72 90-162 146-27 14-27-11 2-129 29-204 2-8 7-18.5t8.5-17.5 5.5-16q8-33 8-59 0-39-21.5-64.5T596 506t-58.5 25.5T516 596q0 33 10 59 2 8 9.5 25.5T545 707q27 63 28 198 0 31-24 17-86-51-162-146-33-41-53-55-27-23-64-23-33 0-53 22.5T197 770z"/><glyph unicode="+" d="M141 623v118h492v504h119V741h495V623H752V123H633v500H141z"/><glyph unicode="," horiz-adv-x="526" d="M110-345q-6 17 11 30 4 2 44 32.5t51 43 37 39 35 52 9 54.5q0 37-33 90-33 61-33 84 0 41 29 71.5t64 30.5q45 0 73.5-43T426 35q0-221-285-389-25-8-31 9z"/><glyph unicode="-" horiz-adv-x="679" d="M123 382q-4 5 0 40 0 12 8 41 8 23 16 24 8 2 27 2h428q10 0 14.5-1t8.5-7 0-18q-4-37-13-68-8-23-26-18H160q-33 0-37 5z"/><glyph unicode="." horiz-adv-x="499" d="M158 86q4 47 33.5 79t68.5 32 61.5-28T344 98q0-53-28.5-90T242-29q-47 0-68.5 34T158 86z"/><glyph unicode="/" horiz-adv-x="714" d="M-14-78q133 246 331.5 651.5T625 1221q0 2 6 11t9 12 9 10.5 15.5 9.5 19.5 0l51-7q12-2 19.5-14t-.5-41Q334 352 129-90q-35-43-57-41l-56 4q-47 6-30 49z"/><glyph unicode="0" horiz-adv-x="884" d="M123 330q0 141 76.5 274t216 229.5T639 930q76 0 140.5-105.5T844 590q0-209-117-363Q614 75 444 0q-76-33-120-33-74 0-137.5 111.5T123 330zm156-6q0-111 41.5-186T420 63q104 0 187 150.5T690 561q0 113-47 189.5T530 827q-98 0-174.5-152.5T279 324z"/><glyph unicode="1" horiz-adv-x="778" d="M147 18q4 23 19 27 92 4 143 25 31 12 43 80l123 624q2 16-1 20.5t-11 .5l-8-4-142-64q-8 2-10 21 0 27 16 32l263 150q16 12 43 12 10 0 20-10.5t8-18.5L508 176q-12-57-12-74 0-29 28.5-40T643 45q8 0 9-12.5T648 9 633-2Q291 2 158-2q-14 0-11 20z"/><glyph unicode="2" horiz-adv-x="847" d="M69 15.5Q70 31 76 43q84 94 137 154 59 61 200.5 181T616 567q61 72 62 154 0 57-39 87t-94 30q-53 0-105.5-29t-81-56.5T285 674q-14-14-29.5 2t-7.5 33q182 223 366 223 98 0 161-66.5T838 713q0-70-44-132.5t-90.5-95T571 401Q364 274 227 143q-10-10 13-12 8-2 20-2h301q92 0 123 55 37 66 39 70 10 25 39 14 16-4 12-16-61-135-98-234-14-20-43-20Q367 2 78-2q-10 2-9 17.5z"/><glyph unicode="3" horiz-adv-x="874" d="M-2-293q0 29 14.5 52.5T53-217q25 0 107-41 61-33 114-33 123 0 237 136.5T625 170q0 88-40 144.5T477 371q-53 0-115-27-31-12-34 12 0 29 20 37 348 156 348 326 0 51-33.5 84T580 836q-127 0-299-174-10-10-29 3t-6 29q211 231 407 232 72 0 119-22.5t63.5-57.5 21.5-54.5 5-37.5q0-88-82-163T600 471q-6-2-8-7t1-8 7-3q68-16 121-66 68-68 67-151 0-164-110.5-309.5T417.5-298 137-377Q-2-377-2-293z"/><glyph unicode="4" horiz-adv-x="917" d="M131 90q0 63 12 78 422 520 648 741l30 2q14 2 21.5-6t5.5-22q-80-399-137-676-2-20 8-23h139q12 0 20.5-15t2.5-42q-8-53-31-55H725q-35 0-47-25l-82-395q-2-16-15.5-24.5T555-377h-72q-18 0-29.5 6t-7.5 25l80 399q2 6-2 11.5t-9 6.5-9 1H154q-23 0-23 18zm125 121q-8-12 12-18h252q29 0 31 14 98 385 125 493h2Q481 510 256 211z"/><glyph unicode="5" horiz-adv-x="884" d="M23-276q0 29 24.5 64.5T102-176q23 0 103-35 61-27 94-27 127 0 220 117t93 271q0 82-43 145t-103 94-102 45.5-63 16.5q-31 2-34 13t5 30q18 68 47 189.5T356 840q2 12 5.5 21t6.5 15.5 5 11.5 8 8l8 4 12.5 2 13.5 1h40q258-8 276 8 8 6 21 45 4 8 22.5 9t18.5-11q-39-133-52-180-8-25-32-24-35 0-139.5 4T410 758q-16 0-21-15-23-88-33-147-2-4 4.5-9t20.5-7q166-27 266-119 96-84 96-238 0-182-153-352-80-86-190.5-154.5T176-352q-47 0-100 16.5T23-276z"/><glyph unicode="6" horiz-adv-x="948" d="M176 432q0 371 330 690 76 72 148.5 122t143 76 105.5 34 92 18q21 0 23-14 4-10-3-20.5t-18-12.5q-205-57-368.5-220T383 680q-4-12 4-10 14 4 33 24 45 57 98 108.5T629.5 887t83.5 33q59 0 119.5-89.5T893 618q0-225-151.5-430.5T444-18q-121 0-194.5 139T176 432zm164-43q0-137 53-224t127-87q88 0 154.5 135T741 526q0 111-35.5 191T625 797q-59 0-176-135-72-86-90.5-139.5T340 389z"/><glyph unicode="7" horiz-adv-x="837" d="M102-311.5q4 14.5 8.5 26T121-266L721 743q6 20-39 21-49-2-180 3t-178-3q-37-4-48.5-18.5T250 688l-41-121q-4-12-27-8-12 4-13 8t1 15l70 280q8 31 16 37t41 8q74 8 227.5 2t171.5-6q37 0 111 6 53 4 53-14v-18q-12-35-49-101L248-258q-33-59-45.5-73.5T172-346h-45q-16 0-22.5 10t-2.5 24.5z"/><glyph unicode="8" horiz-adv-x="948" d="M117 297q0 182 315 375 20 12 6 26-121 131-121 228 0 117 158 231 35 25 109.5 62.5T705 1257q88 0 152.5-75.5T922 1040q0-141-277-309-12-8 0-20 154-143 154-303 0-172-153.5-302.5T371-25q-90 0-178 121-76 104-76 201zm133 55q0-86 69.5-196.5T446 45q53 0 145.5 80T684 330q0 166-199 319-236-152-235-297zm194 643q0-100 152-241 57 39 91 65.5t69 76.5 35 99q0 66-66 125.5T614 1180q-43 0-106.5-52.5T444 995z"/><glyph unicode="9" horiz-adv-x="1011" d="M76-410q0 12 14 23 236 84 370 216t218 349q10 37 8 39t-10-8q-29-35-65-73T501.5 51 362 4q-80 0-132 78t-52 207q0 133 49 258t119 206 144.5 130T621 932q123 0 201.5-141.5T901 471q0-158-76.5-332T612-168Q487-289 328-360q-76-35-222-74-27-6-30 24zm252 795q0-109 33.5-188.5T449 117q27 0 70.5 24.5t94 70.5 85 129T733 524q0 137-55 222t-123 85q-90 0-158.5-123.5T328 385z"/><glyph unicode=":" horiz-adv-x="608" d="M231 88q4 49 35 80t72 31q39 0 61.5-28T422 98q0-53-28.5-90t-74-37-69 36T231 88zm131 672q18 111 107 110 37 0 60.5-28.5T553 768q0-53-29.5-89T451 643t-67 35-22 82z"/><glyph unicode=";" horiz-adv-x="608" d="M106-360q-12 23 21 49Q291-205 291-94q0 33-31 90-33 57-33 100t27 73 65 30q45 0 75-43t30-109q0-240-289-412-18-10-29 5zM352 750q0 47 30 83.5t77 36.5q37 0 61.5-30.5T545 764q0-53-31-87t-76-34q-37 0-61.5 31T352 750z"/><glyph unicode="&lt;" d="M143 633v104l1104 475v-131L305 684l942-397V156z"/><glyph unicode="=" d="M143 385v121h1104V385H143zm0 483v121h1104V868H143z"/><glyph unicode="&gt;" d="M143 156v131l944 395-944 397v133l1104-477V631z"/><glyph unicode="?" horiz-adv-x="825" d="M193 86q4 49 32.5 81t67.5 32 62.5-28T379 98q0-55-30-91t-75-36q-82 0-81 115zm120 260q16 248 103 363 16 20 41.5 41.5t46 34 55.5 33 49 28.5q125 78 125 184 0 70-51 117t-129 47q-31 0-88-16.5t-84-16.5q-25 0-41 23.5t-16 58.5q0 49 55 81t137 32q131 0 213-91.5t82-238.5q0-203-109-307-33-31-153-96-94-49-131-121-37-70-58-156-2-8-14-14t-22.5-2-10.5 16z"/><glyph unicode="@" horiz-adv-x="1910" d="M205 461q0 426 278.5 711.5T1171 1458q328 0 529-188.5T1901 764q0-303-165-519T1337 29q-160 0-159 147 0 39 8 98 4 23-6 21-6-2-19-16-63-82-125-138Q911 28 799 29q-82 0-135.5 70.5T610 274q0 131 72 286t186 276q164 168 308 168 111 0 157-97 6-12 10.5-14t7.5 2 7 11 6 9q16 47 55 60l84 16q35-4 27-57-2-4-20.5-59.5t-41-125-48-158.5-43-171-26-152.5 5-113.5 50.5-43q55 0 125 42t123 107q82 100 129 239.5t47 282.5q0 276-181.5 444.5T1180 1395q-367 0-619-275.5T309 434q0-360 220.5-579.5T1100-365q281 0 490.5 137.5T1915 182q16 16 33 17 9-2 34-27-94-291-333.5-449.5T1096-436q-387 0-639 251T205 461zm575-156q0-59 33-101t80-42q119 0 266 198 66 88 105 207 45 144 45 232 0 66-35 106.5t-88 40.5q-86 0-166-96-96-113-168-275.5T780 305z"/><glyph unicode="A" horiz-adv-x="1419" d="M-86 20q2 27 29 27Q25 63 74 98t129 140l852 1108q4 10 22 14 19 6 43 6 19 0 39-4 25-6 25-35l12-1163q0-59 25.5-82t70.5-29h72q21-3 21-24 0-5-1-11-2-22-23-22h-5q-123 5-267.5 5T778-4q-10 0-14 12t1 25.5T784 47q135 0 182.5 35t47.5 133l-2 334q0 6-10.5 14t-18.5 8H580q-14 0-29-14L295 217q-39-51-39-86 0-76 117-80h53q12 0 16-13t-3-27.5T420-4Q306 0 183 0T-72-4q-15 0-15 16 0 4 1 8zm742 654q8-10 30-10l291 2q39-1 39 28v424q0 18-6 24-4 4-9 5-1 0-5-1-8-3-15-11L657 694q-4-5-4-10-1-5 3-10z"/><glyph unicode="B" horiz-adv-x="1323" d="M37 10q-3 7-3 13 0 8 5 16 8 14 24 14 43 0 64 2 66 8 96.5 50T276 256l173 809q10 45 12 61.5t3 52-10.5 51-38 29T346 1272q-10 2-25.5 1t-21.5-1q-18 0-16 26 4 25 22 25h578q197 0 307-75t110-210q0-109-79.5-188.5T1004 743q-8-2-7.5-9t7.5-9q121-43 190.5-131t69.5-201q0-185-150-293Q966-6 710-6h-10Q527-4 366.5-4T59-6Q43-6 37 10zm420 197q0-84 40-116t165-32q168 0 258 62 145 102 145 297 0 139-99.5 220T692 719H584q-8 0-18.5-6T555 700l-88-415q-10-55-10-78zm123 604q-2-12 7-20.5t21-8.5h97q184 0 274 52 131 76 131 221 0 139-106 184-66 27-203 27h-96q-25 0-37-23z"/><glyph unicode="C" horiz-adv-x="1458" d="M59 567q0 219 128 400.5t350.5 286T1026 1358q240 0 447-90 19-11 19-37 0-10-3-23-4-14-80-266-4-14-17.5-16t-22.5 6-7 18q4 27 4 51 0 289-354 289-311 0-532.5-213T258 555q0-242 123-383T723 31q328 0 545 311 4 8 18 9t23.5-6 5.5-19q-61-156-107-322-2-8-15-8t-24 8q-33 10-61 10-33 0-125-18-162-33-270-33-276 0-465 164T59 567z"/><glyph unicode="D" horiz-adv-x="1624" d="M4 10q-2 6-3 11 0 10 6 20 9 16 28 18l67 7q74 2 100.5 35.5T256 256l176 831q10 43 11 73t-6 49.5-19 30.5-38 16.5-50.5 6.5-67.5 1h-16q-27 0-17 30 8 29 31 29h608q330 0 529.5-162T1597 733q1-311-247-526Q1105-6 748-6H27Q10-6 4 10zm430 221q-9-43-9-73 0-48 23-66 37-28 168-29 186 0 308 39 205 66 336 244t131 397q0 141-54.5 247T1186 1154t-214 85q-97 22-207 22-25 0-50-1-2 0-15.5-1.5T682 1256t-13.5-3-14.5-8-9-16z"/><glyph unicode="E" horiz-adv-x="1355" d="M35 59q12 2 35.5 1t31.5-1q74 6 104 40t50 132l180 859q12 57 13 88 0 90-136 90h-53q-23 2-18 28 6 27 39 27h1046q29 0 39-9 7-6 7-23 0-7-1-15-23-125-53-246 2-6-4-9t-17-3q-12 0-17 5t-6 10 1 16.5 2 17.5q0 102-54.5 147.5T1044 1260H700q-45 0-51-29L545 733q-2-14 8-20t33-6h336q92 0 139 28.5t86 110.5q4 14 31 8 18-2 12-16-37-150-76-371-2-12-20-14-27-4-27 47 0 80-45 108.5T848 637H567q-41 0-47-29l-88-409q-4-20-5-37t4-29 9-22.5T456.5 93 477 81t25.5-8 28-5 31-3.5T592 63h184q186 0 303 84 55 39 81 64t67 78q6 10 17 12t18.5-2 7.5-12q-12-29-32.5-94.5t-37-117.5-22.5-61q-18-18-82-18-303 4-570.5 4T27-4Q18-4 10 6q-6 8-6 16 0 38 31 37z"/><glyph unicode="F" horiz-adv-x="1124" d="M18 10q-1 4-2 9 0 10 6 20 8 14 21 12h23q84 0 120.5 36T246 231l182 859q12 57 12 84 0 90-133 90h-35q-20 0-14 28 6 31 32 31h3q203-2 428-2t471 2q16 0 28-2 13-1 23-11 7-7 7-18 0-4-1-10l-53-252q0-8-25-12-8 0-13 3t-6 9-1 12.5 1 14.5 1 10q0 111-44 153t-159 42H700q-37 0-47-29-4 2-33.5-121T563 866l-26-123q-8-37 28-36h283q78 2 120 31.5t85 109.5q2 6 16 12t25.5 0 5.5-31q-57-201-78-364-2-12-13.5-16.5t-22.5 0-11 12.5q0 104-33 140t-123 36H541q-25 0-31-29l-80-379q-9-46-9-79-1-37 11-57 22-38 129-38 23 6 42.5-1T621 25q-4-27-29-29-132 2-271 2T35-4Q22-4 18 10z"/><glyph unicode="G" horiz-adv-x="1529" d="M125 582q0 328 246.5 551t629.5 223q217 0 478-94 16-4 22-43l8-248q4-18-19.5-21.5T1462 958q-41 162-160.5 249T993 1294q-297 0-482-212T326 555q0-530 518-530 94 0 178 22.5t119 56.5q29 27 49 110t20 136q0 51-24.5 66.5T1087 440l-18 2q-14 2-15 15.5t7 26 16 12.5q137-4 258-4t228 4q11-2 11-18 0-4-1-10-4-26-17-28h-26q-45-6-72.5-16t-45-36-23-39-14.5-62-13-66q-14-37-14-67 0-14 3-27 9-41 74-43 10-2 9.5-21.5T1417 39q-293-76-579-76-188 0-347 68.5t-262.5 212T125 582z"/><glyph unicode="H" horiz-adv-x="1583" d="M-31 23q4 29 21 28h41q92 0 134 42t68 163l177 836q14 63 14 90 0 88-127 88h-68q-18 6-14 22 0 31 25 31 140-6 285-6t294 6q16 0 23.5-7t5.5-18q-2-8-4-14t-5-9-8.5-4-9.5-1h-28q-98 0-138.5-35T592 1090l-72-347q-6-12 2-23t21-11h653q12 0 23.5 10t13.5 20l74 353q11 58 11 95t-31 61q-32 24-101 24-39 0-41 12-2 6-2 14 0 25 24 25 165-7 300-7t241 7q17 0 17-18 0-5-1-11-6-16-22-22h-53q-72-6-106-48t-58-161l-176-834q-13-40-13-73 0-29 10-52 22-49 113-55 2 0 26.5 1t35-4 10.5-21q0-20-33-29-140 6-280.5 6T897-4q-16 0-22.5 6T870 20q4 25 31 29 14 2 37 2h33q70 8 101.5 46t51.5 134l74 353q2 10 2 18 0 29-29 29H528q-31 0-36-27l-80-375q-9-45-9-78 0-38 12-60 22-40 120-40h10q2 0 15 1t19.5 0 14.5-3 12-9 2-17q-5-27-25-27h-5Q362-1 216.5-1T-4-4q-27 0-27 21v6z"/><glyph unicode="I" horiz-adv-x="729" d="M47 27q8 25 33 24h10q92 0 127 37 37 39 59 143l183 861q15 47 15 81 0 28-10 47-22 42-124 48h-24.5l-19.5 8-1 24q6 23 33 23 129-6 262.5-6t271.5 6q14 0 14-13 0-7-4-18-10-31-36-22-100-6-135-38t-58-142L461 229q-9-43-9-75 0-47 20-70 32-37 138-37h11q25 0 20-29-8-18-25-22-190 5-328.5 5T61-4Q44-4 44 12q0 6 3 15z"/><glyph unicode="J" horiz-adv-x="692" d="M-362-530q0 39 30 79 23 31 72 31 14 0 30.5-5t35-13 28.5-13q69-22 111-22h4q141 0 201 133 23 55 38 139l244 1293q10 57 10 92 0 26-6 39-18 43-96 47h-34.5l-35.5 2q-20 0-18 22 4 29 27 29 124-7 262-7t290 7q19 0 19-18 0-5-2-13-6-16-17.5-22t-39.5-4h-27q-70-8-99.5-44T616 1090L403-31q-29-150-72.5-234.5T195-426Q0-588-217-588q-145 0-145 58z"/><glyph unicode="K" horiz-adv-x="1454" d="M18 20q6 18 15.5 23.5t34 4.5T94 47q76 8 109 45t55 137l184 861q12 53 13 90 0 90-125 90h-15q-14-2-10 22 2 29 27 29 144-5 274-5t248 5q25 0 14-31-8-20-24-20h-23q-96-2-135-37t-61-146l-76-362q-4-14 3-19.5t28 7.5q68 47 276.5 199.5T1186 1147q59 41 59 74 0 27-18.5 38t-67.5 11q-10 0-14 1t-7 6 1 17q4 27 22 27 80-4 199.5-4t279.5 4q17-1 19-11 1-3 1-5 0-8-5-17-6-12-13-14-12-2-16-4l-84-17q-156-29-375-194-246-182-405-305-23-16-6-39l428-535q59-76 118.5-103.5T1442 49h14q10 0 11-14.5T1461 7t-17-13q-70 4-146.5 4T1139-6q-27 0-43 22L596 641l-59-37q-16-12-21-33l-72-344q-16-47-16-83 0-31 12-52 25-47 144-47 16 2 27.5-4t9.5-21q-4-20-25-26-144 4-283 4T41-6Q17-1 17 14q0 3 1 6z"/><glyph unicode="L" horiz-adv-x="1234" d="M33 4q-2 7-2 13 0 11 7 21 11 14 23 15h20.5l18.5 2q76 4 113 48t59 157l174 832q14 64 14 99 0 37-31 57-32 22-103 22-4 0-16.5-1t-15.5-1-11.5 3-6 10 2.5 19q8 23 18 23 142-8 284-8t283 8q23 0 17-31-2-6-5.5-10t-5.5-7-9-4-9-1h-21q-96 0-136-35t-62-145L455 250q-12-36-12-67 1-27 9-51 20-52 101-54h211q180 2 287 61 92 51 180 160 11 14 31 9 16-4 15-17 0-4-1-8-16-35-46-124t-42-122q-14-41-53-41-23 0-539 3-221 1-350 1Q74 0 66-2 56-4 49-4 34-4 33 4z"/><glyph unicode="M" horiz-adv-x="1808" d="M-12 23q6 23 22 22 106 14 162 82 41 49 98 244l205 702q20 49 20 88 1 27-9 51-22 56-126 58-43 0-61 4-12 6-5 28.5t25 18.5q84-2 159-2 112 0 204 4 6 1 11 1 28 0 28-19L864 285q4-16 11.5-23.5T893 266l684 1041q10 16 39 16 100-3 179-3t136 3q25 0 27-10 1-3 1-6 0-9-4-21-5-16-18-14h-14q-96 0-137-36t-64-146l-182-861q-15-43-15-79-1-28 9-51 22-52 123-52h6q14 0 19.5-1t12.5-7-1-21q-2-10-10.5-17T1667-4q-72 4-205.5 4T1133-4q-20-2-15 29 6 25 21 24 55 0 82 4 59 10 88.5 49t48.5 129l188 869q4 16 2 23t-9 2-15-17L823 2q-22-12-49-12h-8q-32 2-35 14L580 1098q-4 37-17 14-4-6-6-12L313 264q-12-41-12-86 0-63 36-95t114-38q14 0 6-25-2-25-17-24-132 5-242 5T0-4q-13 0-13 17 0 5 1 10z"/><glyph unicode="N" horiz-adv-x="1615" d="M25 25q6 23 22 20 102 14 146.5 62.5T262 279l187 923q-14 18-30 30.5t-37.5 18.5-33.5 9.5-42 6.5-40 5q-18 4-14 28 2 23 22 23 45-2 105-2t135 2q55 0 66-16l671-1035q27-39 39 0l166 783q10 48 10 84 0 51-20 80-35 49-160 57-10 0-10 24 4 23 20 23 132-3 246-3t211 3h3q12 0 12-9 0-7-7-20-8-16-18-16-96-14-145.5-64.5T1526 1055L1298-23q-2-8-28-9h-4q-22 0-31 9L532 1077q-23 29-30-8L350 289q-8-46-8-83 0-50 16-83 28-57 138-72 20 0 25-5t3-23q-4-27-18-27-140 5-256 5T41-4Q23-6 23 12q0 6 2 13z"/><glyph unicode="O" horiz-adv-x="1677" d="M180 588q0 313 237.5 540.5T983 1356q268 0 443.5-179.5T1602 733q0-319-237-544.5T793-37q-268 0-440.5 178T180 588zm193-51q0-238 110.5-373T793 27h5q257 0 433 220 178 222 178 550-1 223-115 360-113 135-303 135h-6q-236 0-381-155-106-113-168.5-275T373 537z"/><glyph unicode="P" horiz-adv-x="1155" d="M-39 20q6 27 19 27 94 4 134 45t66 164l174 823q8 51 14 93 1 5 0 11 0 35-32 58-37 27-123 27-23 4-18 28 4 29 32 29 61-2 453-2 152 0 233.5-18.5T1065 1237q141-101 141-281 0-147-101-265T846 537q-117-27-208-27-55 0-101 10-18 8-13.5 27.5T545 565q29-4 58-4 86 0 164 32 105 42 167 134 80 119 80 258 0 94-41 161.5T862 1237q-63 20-254 20-33 0-41-32L358 229q-8-40-8-71 0-42 16-67 28-42 132-42 41 0 43-12 2-6-4-21-8-20-21-20-158 7-293 7T-25-4q-15 0-15 16 0 4 1 8z"/><glyph unicode="Q" horiz-adv-x="1634" d="M127 588q0 311 238.5 539.5T938 1356q289 0 472-177.5T1593 733q0-276-170-488T971-23q-29-6-13-20 23-14 54-35 285-199 360-219 48-12 90-12 61 0 111 24 10 8 20.5 1t13.5-18q1-5 1-9 0-5-2-8-111-94-248-95-78 0-177.5 41t-168 86-177 122T690-63q-47 39-65 40-215 45-356.5 220.5T127 588zm203-53q0-233 125-372.5T793 23q268 0 433 220t165 552q0 225-117 363t-318 138q-227 0-387-159-111-113-175-275t-64-327z"/><glyph unicode="R" horiz-adv-x="1277" d="M2 27q8 25 23 22h16q104 0 145 35t66 147l184 861q8 40 8 70 0 38-12 62-22 44-119 44-16 0-24 1t-16.5 8-6.5 19q4 29 35 29 47-2 541-2 180-2 290.5-91T1243 995q0-143-102.5-245.5T864 610q-20-4-10-20 23-33 47-82 53-121 96-207 63-125 168-207 80-63 178-63 13 0 13-14 0-20-10-25-43-16-72-17-160 0-255 40T846 176q-18 31-34.5 68t-35 85-26.5 70q-45 106-80 176-76-6-135-6-25 0-33-30l-64-310q-9-43-9-75 1-41 15-65 26-42 134-42 29 0 37-6t-1-31q-4-14-30-14-170 6-313 6T12-4Q-1-5-1 9q0 7 3 18zm524 624q-2-6 8.5-13t22.5-7q133 0 188 16 51 12 132 62 78 45 128 137 45 84 45 174v18q-5 100-79 160-76 61-273 62-20 0-34.5-12.5T647 1223z"/><glyph unicode="S" horiz-adv-x="1058" d="M31 116q-1 10-1 16t1 9l65 260q2 12 14.5 16.5t22.5-.5 8-18q0-14-1-27.5t-1-19.5q0-156 90-241.5T492 25q150 0 233.5 66.5T809 268q0 80-56.5 150.5t-136 128-160.5 118T318.5 809 262 991q0 145 116 245.5T672 1337q47 0 131-20.5t125-20.5q37 0 65 29 6 14 31 10 10-2 16-5 4-2 4-5v-2q-25-131-47-348 0-12-24.5-12T948 975q0 301-276 301-123 0-192.5-56.5T410 1071q0-88 74.5-170T683 732t163-126q119-119 119-262 0-170-131.5-275.5T483-37 39 92q-6 4-8 24z"/><glyph unicode="T" horiz-adv-x="1290" d="M147 1038q59 225 74 342 4 10 25 11 18 0 20-11 29-35 55.5-46t88.5-11h817q111 0 150.5 10t80.5 49q6 10 25 11 8-1 15-5 5-4 5-6l-71-350q-4-14-26-14t-24 14q0 63-2 90-8 51-18 72-29 59-139 59H958q-27-4-34-32L715 229q-10-48-10-81t10-51q20-36 100-42 23-2 84-2 18 0 14-26-4-31-24-31-148 4-299.5 4T283-4q-23 0-11 31 8 27 27 26 45 0 66 2 80 4 110.5 39T528 231l213 979q8 43-26 43H520q-154 0-213-47-37-29-58.5-65.5T193 1028q-6-18-29-14-19 6-19 17 0 3 2 7z"/><glyph unicode="U" horiz-adv-x="1515" d="M121 1303q8 27 29 22 128-6 264-6t280 6q12 0 19.5-8t5.5-19q0-33-37-28h-22q-86 0-118-29-36-33-61-151L365 545q-25-117-25-203 0-145 102.5-231T727 25q236 0 352.5 124.5T1239 504l104 555q9 44 9 78 0 58-25 88-39 47-164 47-14 0-10 28 4 12 9 19.5t12 5.5q147-3 251-3 139 0 203 5h2q17 0 17-31-6-29-29-24-96-12-137-53t-66-175l-104-561q-29-154-92-260Q1061-37 692-37q-178 0-290.5 50T219 170q-57 88-61 188-1 13-1 26 0 86 23 169l113 528q10 55 12 97v6q1 38-29 62-32 26-102 26h-35q-8 0-14 10-5 8-5 16 0 2 1 5z"/><glyph unicode="V" horiz-adv-x="1308" d="M111 1280q-1 7-1 14 0 19 13 29 4 2 8 2 169-4 302-4t229 4q16 0 8-29-6-27-25-26-6 0-40 1t-48-3q-94-16-104-176l-52-861q-2-27 4.5-30.5T432 219l713 840q82 94 82 143 0 29-16.5 44.5t-31 17.5-46.5 4q-27 4-37 6-18 0-19 26 4 25 23 25 105-3 207.5-3t203.5 3q7-1 11-13l2-8q0-8-4-17-6-13-19-13-63-20-113.5-62.5T1264 1083L303-33q-8-12-51-12-14 0-24.5 10T217-10l55 1102q1 16 1 31-1 68-23 104-28 43-117 43h-10q-8-2-12 10z"/><glyph unicode="W" horiz-adv-x="1826" d="M94 1303q4 22 23 22h2q114-4 236-4t253 4h3q9 0 13-7 6-9 3-22-2-8-9.5-17t-13.5-9q-102-12-131-45t-41-150l-84-809q-4-27 1-33t26 17l645 827v76q0 72-27.5 92.5T866 1270q-10 0-12 13t3 27.5 13 14.5q123-4 251-4t261 4q10 0 10.5-13.5t-7-27.5-13.5-14q-113-12-136.5-36t-31.5-132l-59-836q-2-25 4-30t22 18l572 811q60 84 60 134 0 46-52 63-29 8-88 8-8 0-14.5 9t-3.5 19q6 27 24 27 142-3 242.5-3t159.5 3q12 0 12-10 0-6-4-15-4-27-19-26-51-12-97-51t-108-125L1061-6q-18-25-43-25-37 0-41 2-25 10-25 19l66 930q0 37-21 16L260-10q-20-20-31-21-16-4-29-4-9 0-16 2-23 10-22 21l94 1122q2 14 2 39 0 70-19.5 92.5T182 1266q-43 0-69 6-20 0-20 20 0 5 1 11z"/><glyph unicode="X" horiz-adv-x="1441" d="M-25 18q4 27 17 27 123 16 154.5 32.5T266 182l477 477q12 20 9 41l-252 463q-35 63-83 85t-157 26q-10 0-10 29 6 20 22 20 131-3 272.5-3t293.5 3q23 0 18.5-24.5T840 1274q-88-2-119-13.5t-31-46.5q0-20 29-73l158-314q10-12 13-11t19 13l283 293q53 53 53 88 0 33-31.5 47.5T1096 1274q-20-2-13 26 6 23 19 23 140-4 263-4t228 4q8 0 12.5-1t6.5-4 2-4v-9q-4-27-21-27-98-12-171.5-50T1268 1108L936 766q-16-12-6-33l280-518q55-102 96.5-132T1446 39q8-2 8-12.5T1448 6t-10-10q-135 4-264 4T922-4h-4q-29 0-23 29 2 6 7 13t11 5q41 2 63.5 4t46.5 9 31 19.5 4 34-20 54.5L815 584q-25 37-43 16L408 233q-68-69-75-109-1-6-1-12 0-32 32-46 38-18 121-23 6-2 6.5-14.5t-5-22.5T475-4Q246 0 120 0 36 0-4-2q-14-2-18 4-3 4-4 10 0 3 1 6z"/><glyph unicode="Y" horiz-adv-x="1308" d="M211 1300q4 23 22 23 97-5 207-5t232 5q23-4 14-25-4-25-12-24-70-6-92-14-22-9-22-40 0-30 30-98l209-477q6-16 8-18t24 18l377 438q80 92 80 125 0 59-127 66-8 4-8 15t7 23q6 11 15 11h3q104-5 194-5t168 5q8 0 16-4 5-3 5-9 0-17-13-30-68-27-102.5-50.5T1352 1135L831 537l-63-308q-9-45-9-77 0-40 13-60 24-35 120-35h11q49 0 58-2 14-2 5.5-30.5T950-4Q804 0 650 0T332-4q-8 4-8 16.5t7 27.5 17 15q129 6 164 29 47 33 72 147l65 308-258 587q-37 86-69.5 115t-90.5 33q-21 0-21 16 0 5 1 10z"/><glyph unicode="Z" horiz-adv-x="1406" d="M4 43q152 147 1196 1186 16 20 12 23t-24 3H791q-158 0-250-66.5T389 965q-2-6-27-11-25 0-24 13 4 16 26.5 96t38 140.5T422 1298q6 25 41 25 164-3 411.5-3t579.5 3h7q23 0 29-11 3-6 3-15 0-10-4-23Q1133 932 291 90q-10-10-11-14t4-6 19-4h539q102 0 164.5 20t117.5 68q78 70 166 217 18 14 33 10 16-6 10-25-20-59-90-321-8-39-47-39-289 4-586.5 4T6-4q-7 4-7 19 0 23 5 28z"/><glyph unicode="[" horiz-adv-x="628" d="m121-467 371 1862h397l-10-45H688q-41 0-57.5-15.5T604 1274L283-344q-6-25-7-39 0-41 103-41h147l-8-43H121z"/><glyph unicode="\" horiz-adv-x="456" d="M152 1356h139L473-33H334z"/><glyph unicode="]" horiz-adv-x="628" d="m-84-467 8 45h193q41 0 59.5 16.5T203-344l321 1616q4 29 4 41 0 39-104 39H279l8 43h399L313-467H-84z"/><glyph unicode="^" horiz-adv-x="888" d="m111 684 444 750h33l438-750H922l-353 600-354-600H111z"/><glyph unicode="_" horiz-adv-x="1042" d="m-18-428 2 10 4 10q0 37 41 37 989 0 1001 2 25-6 29-18 6-12 2-21.5t-4-23.5q-12-25-29-23H10q-12-2-21 5.5t-7 21.5z"/><glyph unicode="`" horiz-adv-x="694" d="M349 1339.5q5 6.5 16 6.5h151q20 0 25-7v-2q2-2 2-4l98-311q2-4-1-7t-11-3q-16 0-25 8l-252 299q-8 14-3 20.5z"/><glyph unicode="a" horiz-adv-x="851" d="M76 199q0 158 108.5 325.5T459 788q145 84 332 89 10 0 12-19L682 246l-4-19q-4-18-8-36.5t-6-38 2-30.5 14-9q27 4 84 69 12 14 27 29 16 16 24-6 2-7 2-14 0-11-6-21-82-90-104-113-86-82-125-82-62 0-62 100v13q2 57 21 137 4 18-3.5 19.5T518 231Q272-25 203-25q-51 0-89 68T76 199zm137 43q0-63 19.5-105.5T276 94q29 0 285 242l80 395q5 8 5 15 0 4-1 6-2 9-12 8h-4q-125-14-221-80-88-59-141.5-180T213 242z"/><glyph unicode="b" horiz-adv-x="849" d="M139 293q10 55 90 470t131 636q6 23-10 22.5t-78-35.5q-29-12-31.5 8.5T254 1423l178 105q43 26 63 26 7 0 11-2 12-6 12-31 0-13-4-32L338 614q-4-20 2-23t16 7q4 4 31 34t44.5 49 49 53 55 55.5 51 45 50 35T676 881q26-1 55-52 51-87 57-205 1-18 1-35 0-99-31-193-37-110-98.5-207T510 33.5 330-25q-139-1-178 91-23 55-23 126 0 47 10 101zm137-2q-14-73-14-125 0-137 96-137 84 0 155 100t103.5 216T649 541q0 96-19.5 155.5T582 756q-41 0-140-107-29-31-110-127-12-14-15-24 0-6-2-15z"/><glyph unicode="c" horiz-adv-x="614" d="M72 201q0 125 56 278.5T296 756t241 123q49 0 79.5-21.5T647 797q0-31-16.5-51.5T588 725q-37 0-101 37-33 16-55 16-70 0-129-145-14-35-27.5-79T242 442q-19-68-25-128-4-40-4-78 0-18 1-38 3-56 31.5-89T326 76q98 0 204 127 2 6 13.5 4t15.5-8q20-14 14-33-76-88-162.5-139.5T254-25q-82 0-132 62.5T72 201z"/><glyph unicode="d" horiz-adv-x="921" d="M100 233q0 164 86 325t230 265q62 47 124 55l18 2q53 0 104-44 8-10 16 3t12 33l101 517q6 31-2.5 33.5T758 1411q-18-8-52-29.5t-53-29.5q-18-12-24 14-4 31 14 37l219 121q34 19 53 19 26 0 26-34 0-11-3-26L686 156q-10-47 6-47 31 0 119 124 6 10 20 0 18-18 9-34-59-92-136-158T582-25q-47 0-47 68 0 45 17 119t19 98q4 35-12 10-2-4-6-10-2-2-2-4Q451 129 360.5 52T223-25q-55 0-89 73t-34 185zm158-104q18-43 47-43 35 0 115 82t174 215l59 307q-45 123-129 123-78 0-164-147-120-207-120-417 0-77 18-120z"/><glyph unicode="e" horiz-adv-x="745" d="M78 270q0 233 143.5 423T543 883q80 0 126-40t46-110q0-150-180-241-55-31-158-62-29-8-69-19.5T254 395q-23-10-23-24-10-49-10-109 0-92 45-146 43-51 109-50h8q90 2 233 114 18 16 27-6 12-23-2-43-88-76-184.5-116T289-25q-88 0-149.5 85T78 270zm180 211q0-8 7-11 3-1 7-1 8 0 19 4 113 27 192 66 115 59 123 170 1 6 1 12-1 39-23 67-24 30-66 29h-6q-109-4-164-102-47-88-49-94-41-92-41-140z"/><glyph unicode="f" horiz-adv-x="579" d="M-365-449q9 59 69 59 7 0 15-1 20-2 54-31l9-9 8-9 8-9.5 9.5-8.5 9.5-7 10-7 10-5 12.5-5 12.5-2 13-1q45 0 90 33.5T37-367q23 43 47 158 23 98 49 242 18 94 123 715 6 27-10 26H137q-6-2-8 5t0 16q4 29 18 28 55 8 72 13 8 2 26.5 8t28.5 8q35 184 70 289 57 172 133 262 120 149 277 149h2q61 0 108-34 45-32 45-74 0-63-70-63-9 0-18 1-29 4-72.5 45t-89.5 41q-66 0-114-75-49-74-94-326l-35-197q0-14 14-16h129q14 0 6-39-14-41-28-41H412q-8-2-17-14l-92-533q-20-127-36.5-198.5t-51.5-184T125-350-6-487q-100-74-203-74-66 0-115 36-42 31-42 65 0 5 1 11z"/><glyph unicode="g" horiz-adv-x="815" d="M-170-383q0 72 123 154 92 63 250 147-20 32-20 63 0 61 77 115 14 8 0 17-72 43-113 119.5T106 399q0 94 65 202t167 192q106 88 217 88h14q39-2 128-10.5t108-8.5q20 0 24-61 0-27-5-41.5t-17-9.5l-86 10q-8 2-12-2t-2-10q37-98 36-179 0-86-37.5-170T604 260q-102-88-246-154-75-35-75-66 0-24 30.5-53.5T426-98q141-94 196.5-151.5T678-354q0-92-129-150.5T225-563q-172 0-283.5 50T-170-383zm129 21q0-68 75-113t193-45q145 0 235.5 34t90.5 85q0 35-68 82-139 102-245 196-10 6-23 0Q80-201 19.5-255T-41-362zm291 743q0-86 38-146.5t89-60.5q63 0 127 92 92 133 92 330 0 98-34 157.5T475 813q-66 0-120-85t-79.5-182T250 381z"/><glyph unicode="h" horiz-adv-x="935" d="m106 29 267 1347q8 37-6.5 37T260 1362q-14-12-20 10-8 27 4 33l207 119q39 22 59 22h2q12 0 19.5-5t8.5-9 0-17.5-1-15.5L340 504q-4-23-1-26t15 16q272 383 410 383 84 0 83-116 0-57-20-143L707 147q-16-51 6-51 29 0 161 148 8 6 16.5-1t10.5-19q1-6 1-10t-1-7q-74-98-154.5-165T621-25q-33 0-47 27-13 24-13 58v10q2 41 7 68.5t12 51.5l108 426q20 72 20 112 0 48-30 48-39 0-163-154.5T307 346Q252 76 250 68q-2-6-4-22.5t-4-24T234.5 4 220-10t-23-4h-78q-18-1-18 18 0 10 5 25z"/><glyph unicode="i" horiz-adv-x="522" d="M113 641q-4 9-4 16 0 9 6 17 172 205 256 205 44 0 44-60 0-27-9-65L285 160q-8-47-2-51 4-4 16-5 25 0 125 119 12 20 27-4 14-29 4-39-47-61-128-132T193-23q-60 1-60 87 0 31 8 73l109 520q0 2 3 11.5t4 18.5 2 19.5 0 16.5-7 8h-3q-17 0-59-45-51-55-53-57-10-14-24 12zm235 565q10 49 37 81t57 32q50-2 50-74 0-18-3-41-8-55-34.5-91t-61.5-36q-54 0-54 65 0 27 9 64z"/><glyph unicode="j" horiz-adv-x="501" d="M-297-451q4 31 21.5 47.5T-227-391q33-4 59-39l39-45q29-21 54-21 32 0 57 34 45 59 77 183 10 37 20.5 88.5T94-123l189 799q10 35-9 41-1 1-3 1-13 0-54-38-12-12-29.5-30.5T168 629q-10-8-20.5-2T135 643t4 16q76 96 143.5 149.5T391 862q48 0 48-68 0-38-15-96L258 6Q201-240 92-387-29-557-172-557q-59 0-94 35-31 31-31 64v7zm680 1659q20 115 94 117h4q47 0 55-46 3-17 3-33 0-27-9-48-20-117-94-117-58 2-58 76 0 22 5 51z"/><glyph unicode="k" horiz-adv-x="940" d="M109 2q0 4 2 11t2 10l274 1368q6 27 0 28.5t-33-14.5q-12-6-34.5-19.5L287 1366q-12-12-23 14-14 27 6 33l207 121q28 21 49 21 4-1 8-1 24-4 13-55L360 596q-6-27-5-29t26 19q315 293 418 293 49 0 86-53.5T926 702q1-12 1-23 1-123-99-191-98-67-302-67-22 0-45 1 80-84 107-123l47-70q41-59 86-96 39-32 69-32 5 0 9 1 25 23 86 91 10 10 19 3.5t15.5-19.5 2.5-19Q834 45 752-20q-49 0-82 24-98 66-191 215-84 131-135 184-18 18-25-22L250 20q-6-31-13.5-35.5T209-20q-57 0-84 2-6 0-10 3t-5 8-1 9zm227 470q2-3 6-6t4-5q25 0 73 1h30q27 0 45-1h16q71 0 137 16 164 39 164 203 0 39-24.5 67.5T727 776q-41 0-155.5-87T336 477q-1-1-1-2t1-3z"/><glyph unicode="l" horiz-adv-x="524" d="m139 152 244 1224q8 39-12 39-10 0-113-57-29-8-35 12-8 27 13 31l198 117q27 16 43.5 23t36.5 10h6q16 0 22-14 3-8 3-20 0-14-4-34L270 125q-12-53 11-53 37 0 147 125 2 4 11.5 5t15.5-5q12-8 2-33Q295-26 203-27q-73 0-73 99 0 34 9 80z"/><glyph unicode="m" horiz-adv-x="1380" d="M96 621q63 98 153.5 177T379 877q38 0 38-50 0-14-3-32l-62-308q-4-18 2-18 2 0 6 8 276 399 420 400 29 0 45.5-26t16.5-69q0-35-4-72.5t-9.5-62T814 579t-13-67q-10-55 6-31 4 6 34.5 54.5t54.5 82 64.5 86 77.5 86 82 58 86 24.5q60 0 60-91 0-36-9-85l-114-561q-2-9-2-14 0-13 9-13 10 0 30 17 29 23 41 41 33 37 61 74 19 22 33 4 5-9 5-18 0-11-7-21-72-100-149-165t-117-65q-54 0-54 69 0 23 6 54 61 301 121 617 8 35 4 45t-22 10q-39 0-142.5-143.5T801 389q-41-70-60-153L698 20q-10-43-32-43h-80q-23 0-27 12.5t2 28.5l137 695q14 55-10 55-55 0-162.5-140.5T352 381q-31-51-63-209-4-18-13.5-73.5T260 14q-4-20-11-27t-28-7q-10 0-33.5-1.5T154-23q-41 0-33 41l131 662q10 41-4 41-10 0-45-36t-49-56q-18-25-23-29-6-6-16.5-7T98 598q-4 4-4 11 0 5 2 12z"/><glyph unicode="n" horiz-adv-x="960" d="M100 582q-6 12-6 22.5t6 18.5q190 256 260 256h2q36-1 36-57 0-20-5-48-37-195-63-315l-2-21q2 2 12 15 10 12 61.5 81.5t89 115.5 92 105.5T686 847t90 32q86 0 86-127 0-59-16-125L723 154q-13-44-12-65 0-17 8-19h2q19 0 92 80 51 59 78 92 19 20 29 10 4-6 7-10t3-9.5V225l-3-7-4-7-6.5-9-7.5-9Q835 93 759.5 34T635-25q-66 0-66 80 0 33 11 80l133 533q9 35 9 57 0 41-30 41-14 0-33.5-12.5t-44-35-48-48T513 609t-52.5-65.5-50-67.5-44-60.5-38-52T303 328L240 16q-4-27-12.5-33T195-23h-58q-36 0-36 24 0 7 3 17l132 658q0 27-7 26-4 0-8-2-10-6-47-53t-51-67q-4-4-12.5-3t-10.5 5z"/><glyph unicode="o" horiz-adv-x="815" d="M78 317.5q0 131.5 73.5 256T358 788q131 90 213 91 72 0 133.5-97.5T766 561q0-195-113-342-47-61-121.5-120.5T383 8q-72-33-115-33-70 0-130 105.5t-60 237zm145-8.5q0-102 41-175t96-73q102 0 183.5 144T625 535q0 109-46.5 181T467 788q-96 0-170-144t-74-335z"/><glyph unicode="p" horiz-adv-x="911" d="M-129-522q4 6 47 12 41 6 66.5 16.5t39 35 18.5 42T55-358q35 178 205 991l2 8q2 8 3 14.5t3 16.5 2 18v15.5l-1 11.5-5 4q-27 0-84-66-18-20-43.5-52T109 569q-8-12-24.5 4.5T82 610q76 113 166 191t135 78q39 0 39-64 0-59-27-197-8-45-2-45 2 2 13 19 2 4 4 6t40.5 59.5 57 79T564 800t72 59.5 69 17.5q70 0 106.5-100.5T848 565q0-102-47-218T678 139 494 2q-63-26-126-26-46 0-92 14-6 2-9-5.5T264-29q-57-252-74-333-7-39-7-66 0-43 17-58 29-24 150-28 14 0 8-27-5-20-22-20h-4q-112 5-226.5 5t-232.5-5q-9 2-9 13 0 14 7 26zm422 624q0-31 12-39 42-28 72-28h2q127 0 228.5 159.5T709 557q0 90-22.5 148.5T629 764q-33 0-125-121-72-94-144-207z"/><glyph unicode="q" horiz-adv-x="872" d="M106 217q0 197 170 395 221 266 519 267 41-1 41-35 0-7-2-15L600-307q-23-119-22-133 0-18 4-30.5t14-21 18.5-12.5 25.5-6 25.5-2H721q10 2 14-5t2-20q-3-25-20-25-4 0-8 1-122 3-236.5 3T252-561q-12 2-12 15.5t9 24.5 19 9q104 10 134 30.5t44 92.5q27 133 121 579 14 51 4 54-2 0-6-4-63-78-169.5-171.5T233-25q-51 0-89 74t-38 168zm142 33q0-158 69-158 29 0 91.5 56.5T602 348l74 381q1 5 1 10 0 19-15 19-145-8-234-80-82-66-131-184.5T248 250z"/><glyph unicode="r" horiz-adv-x="661" d="M80 606q-7 9-7 18 0 10 9 19 188 233 246 234 39 0 43-60v-7q0-24-9-85-12-86-32-184-10-59-21-95-12-48-12-60 0-4 2-3 4 0 18 43 164 451 306 451 69 0 75-68 1-10 0-19 0-49-18-75-15-21-40-21-12 0-26 4l-36 13q-82-12-160-166-20-41-101-250-18-45-29.5-88T263 101.5 244 12q-8-37-45-37h-56q-33 0-24 48l108 643q8 55-14 55-12 0-50-44t-50-63q-23-23-33-8z"/><glyph unicode="s" horiz-adv-x="655" d="M29 76q6 62 54 68 8 1 16 1 38 0 69-26 6-4 27.5-17.5t32-19.5T256 67.5 290.5 55t33.5-4q47 0 78.5 31t31.5 76q0 27-10 55.5t-32.5 61-37 51T307 381t-37 43q-78 93-78 173 0 84 91 179 102 102 204 103 53 0 103.5-47.5T641 735q0-29-17.5-50T580 664q-35 0-58 43-59 100-104 100-43 0-84-47t-41-92q0-20 9-44t28.5-50.5 35-45 40-46T436 446q90-104 90-200 0-123-91-197T193-25Q115-25 69 2 28 26 28 65q0 6 1 11z"/><glyph unicode="t" horiz-adv-x="577" d="M121 61q0 72 43 250 18 78 102 416 0 2 2 8 10 39-14 39h-78q-18 0-21 14.5t11 20.5q109 55 178.5 130T487 1133q5 8 15 13 6 3 12 3 3 0 6-1 8-3 8-18-92-223-98-258-2-8 5-12t18-2h131q11 0 11-19 0-10-3-24-4-18-10.5-30.5T565 774H430q-18-6-18-8l-4-10-142-621q-6-22-6-37 0-26 19-26 47 0 194 155 14 16 29-10 10-20 0-31Q307-25 197-25q-35 0-55.5 22.5T121 61z"/><glyph unicode="u" horiz-adv-x="997" d="M129 614q-1 4-1 7 0 7 3 12 41 61 126 151t130 90q46 0 46-66 0-32-11-79L322 225q-6-33-8.5-53t1.5-38.5 23.5-13.5 54.5 36q74 68 179.5 223.5T707 627q18 55 45 221 6 33 45 33 27-2 63 0 33 0 33-34 0-8-2-18L762 170q-3-15-3-24 0-17 9-17 7 0 18 8 14 10 35 33 55 59 76 86 10 16 25-4 7-11 7-21 0-4-1-8-78-98-161-173T651-25q-43 0-43 64 0 133 66 381 6 23-2 20-8-2-21-22-125-193-241.5-318T227-25q-61 0-61 110 0 56 16 142l92 463q8 37 0 37-12 0-29.5-15.5T214 679t-30.5-41-21.5-28q-10-12-20.5-10T129 614z"/><glyph unicode="v" horiz-adv-x="831" d="M80 610q-2 5-2 8 0 7 4 13 176 246 262 246 47 0 47-74 0-41-14-127l-80-494q0-2-3-17t-3-27.5-1-27 4-22.5 13-8q66 0 163 125t166 274.5T705 700q0 27-25 41-27 14-27 39 0 33 37 66t70 33q41 0 67.5-37t26.5-94q0-106-121-294T458.5 120.5 221-25q-57 0-57 125 0 67 16 170l62 379q6 44 6 66t-6 22q-25 0-129-137-8-10-18.5-6T80 610z"/><glyph unicode="w" horiz-adv-x="1249" d="M72 623q31 45 69.5 94t100 105.5T340 879q43 0 43-85 0-40-10-100l-74-499q-4-35-3-59 0-52 17-52 49 0 176 158.5T676 504l51 334q4 37 43 36 23 2 49 3 38 0 38-30 0-5-1-11L756 184q0-2-3-17t-3-27.5-1-27 4-22.5 13-8q53 0 144 110.5t164 259 73 240.5q0 29-23 51-25 18-24 39 0 41 29.5 68t70.5 27q39 0 64.5-35t25.5-86q0-141-157.5-366.5T834 51q-27-20-58-39-30-18-70-32-16-6-31-7-20 1-35 13-26 20-26 77 0 76 17 164 4 20 8 43t6 40.5 4 33.5q4 23 2 23-4 0-26-37-70-113-192-233T227-23q-68 0-68 108 0 15 1 32 4 59 12 114 49 317 68 471 4 23-1.5 26T217 717q-31-25-113-131-12-14-32 3-10 9-9 17 0 9 9 17z"/><glyph unicode="x" horiz-adv-x="1032" d="M92 227q18 47 33 47 10-2 14-30 10-63 17-80 12-29 32.5-36t47 5 49 27.5 50 44 39 42T399 276l88 111q6 16 2 29L389 668q-23 55-37 75.5T317 764q-27 0-54-32t-85-128q-14-27-32.5-12.5T139 629q84 143 133.5 196.5T373 879q45 0 73.5-35T512 715l68-178q6-10 14-5t18 19q150 207 211 268 39 39 89 53 17 5 31 4 31 0 55-18 36-26 36-92 0-33-18-98-6-23-13.5-27t-12.5 4-9 23q-16 84-86 84-76 0-168-129L625 479q-14-16-7-33l78-208q29-76 47.5-104t38.5-28q53 2 119 142 12 29 29 12 12-8 12-41Q876 72 827 23.5T723-25q-43 0-62.5 27T600 129l-76 190q-8 18-24-2l-74-90Q219-25 115-25q-64 0-64 78 0 62 41 174z"/><glyph unicode="y" horiz-adv-x="894" d="M-42-538q3 24 26 24 92 4 114.5 13t46.5 59Q258-215 305-86q61 170 66 225 5 69 5 140 0 134-18 271-26 210-82 210-35 0-102-94-6-8-18.5-25.5T137 614q-12-16-28 7-12 18-3 34 150 221 230 222 90 0 123-273 23-187 23-335 0-67-5-126-2-23 1-27.5t8.5 1.5 15.5 22q257 433 257 561 0 7-1 13-2 8-17 39-12 25-12 36 0 37 25.5 64t60.5 27q39 0 63.5-31t24.5-80q0-72-72-205-33-57-178-270Q538 127 502 47q-35-78-97.5-230.5T309-410q-24-49-24-72 0-8 3-13 11-19 97-19h13l12.5-2 9.5-8v-15q-8-26-28-26h-1q-113 6-230 6-95 0-192-4-12 0-12 17 0 3 1 8z"/><glyph unicode="z" horiz-adv-x="999" d="M35 14q0 53 67 144 129 170 521 377 119 61 174 98 61 39 88 65 20 20 14 23.5t-25-8.5q-102-49-192-49-60 0-115 22-25 10-69.5 33.5t-82.5 38-75 14.5q-41 0-67.5-21.5T197 666q-4-8-17.5-6T160 670t2 20q139 184 274 184 82 0 197-67 6-4 26.5-15.5T688 776t26.5-13 30-12 27.5-6.5 33-2.5q100 0 119 83 6 27 6 29 10 16 37 16 34 0 34-39 0-94-128-211.5T635 444q-31-16-114-56t-128-64q-135-72-205-136-14-14-10-18 4-2 19 6 78 39 151 39 84 0 195-63 109-63 159-64 90 0 160 107 12 16 25.5 1.5T893 170Q834 82 762 29.5T631-23q-16 0-33.5 4.5t-31 8.5-34 15T504 21.5 473.5 41 446 57q-131 78-219 78-63 0-82.5-20.5T125 57q0-45-4-55-10-27-51-27-35 0-35 39z"/><glyph unicode="{" horiz-adv-x="825" d="M129 457v22q0 12 14 15 96 23 153.5 80T354 702q0 55-24.5 160T305 1022q0 158 109.5 273.5T696 1432q20 2 21-19 0-27-21-33-113-20-173-83.5T463 1139q0-55 20.5-164T504 813q0-135-109-244-59-59-131-90-33-14 4-26 236-117 236-332 0-55-20.5-163T463-205q0-186 231-246 14-4 18.5-16t-.5-22.5-16-10.5q-172 23-280.5 138.5T307-90q0 53 23.5 156.5T354 223q0 76-52 131.5T152 434q-23 6-23 23z"/><glyph unicode="|" horiz-adv-x="1062" d="M471-39v1770h119V-39H471z"/><glyph unicode="}" horiz-adv-x="825" d="M103.5-463q7.5 14 25.5 14 113 20 173 84t60 156q0 57-20 166t-20 164q0 133 108 241 53 53 109 82 29 12 31.5 19.5T551 483Q320 606 319 813q0 31 21 158 23 117 22 164 0 186-231 249-16 8-20.5 19.5t3 21 15.5 9.5q172-25 280.5-139.5T518 1024q0-53-23.5-157.5T471 709q0-82 59.5-139.5T698 492q12-6 16.5-26T700 440q-106-18-166.5-76.5T473 229h-2q0-53 24.5-157.5T520-88q0-158-109.5-274.5T129-500q-16-2-24.5 10.5t-1 26.5z"/><glyph unicode="~" horiz-adv-x="1128" d="M188 502q2 135 81 228t190 93q59 0 116.5-20.5T737 723q139-80 211-80t118 45 54 129q6 18 30 17t26-17q-4-137-79-228t-184-91q-102 0-299 106-143 80-204 80-70 0-117-50t-53-132q-8-12-29-12.5T188 502z"/><glyph unicode="¡" horiz-adv-x="608" d="m123-420 252 912q8 20 22 20h11q18-9 16-29L303-420q-6-45-20.5-61.5T227-498h-43q-47 0-60 16.5t-1 61.5zM360 756q4 49 34 81.5t69 32.5q37 0 60.5-28.5T547 768q0-53-30-89t-75-36-66.5 35-15.5 78z"/><glyph unicode="¢" horiz-adv-x="565" d="M86 195q0 180 98.5 374.5T414 838q14 8 20 43l76 417q2 20 20 19l11-4q18-4 16-19l-74-403q-6-27 23-21 12 2 35 2 113 0 112-84 0-31-15-51t-42-20q-37 0-100 37-35 18-41-15L336 96q-4-18 3-24t23-2q82 12 170 118 10 14 19 7l16-13q12-10 2-20Q454 23 338-18q-25-8-27-29l-73-410q-6-29-27-24l-10 2q-8 0-12.5 4t-2.5 18l74 400q4 25-18 28-72 10-114 69.5T86 195zm141 22q0-78 37-119 10-8 18.5-2t10.5 19l110 608q5 19 3 25-8 10-21 0-20-18-35-48-49-80-86-228t-37-255z"/><glyph unicode="£" horiz-adv-x="1519" d="M98-444q0 55 71 115.5T332-242q70 92 135 234 41 90 57 131H246l12 61h289l14 37q131 344 268 621 141 283 277 436 137 156 305 156 78 0 130-36t52-89q0-31-21.5-52.5T1518 1235q-12 0-23.5 4t-18 7-16.5 13.5-13 14.5-13.5 18.5-12.5 16.5q-33 45-86 45-94 0-174-121-66-102-192-402-129-303-213-483-47-102-82-164h342l-12-61H641Q571-4 504-109q-27-41-84-112 63 14 129 14 104 0 171.5-21.5T907-319q139-84 232-84 66 0 110.5 43t44.5 104q0 29-14 61l-31 62q-10 25-10 45 0 29 19.5 51.5T1305-14q41 0 66.5-39t25.5-101q0-137-100.5-239.5T1063-496q-127 0-254 72-20 12-109 66-141 88-284 88h-33Q227-497 154-498q-23 0-39.5 15.5T98-444z"/><glyph unicode="¤" d="m203 266 131 133q-59 88-77.5 145.5T238 690t19 143.5T334 971l-131 129 82 84 131-131q76 61 130 79.5t148 18.5 149.5-18.5T977 1053l127 131 80-84-127-129q59-84 77.5-141.5T1153 678t-19.5-149.5T1057 397l127-131-80-82-127 131q-82-61-137.5-80.5T692 215q-94 0-147 19.5T416 315L285 184zm151 418q0-145 98.5-247.5T692 334q143 0 243.5 101.5T1036 682t-99 247.5T698 1032q-143 0-243.5-101.5T354 684z"/><glyph unicode="¥" horiz-adv-x="1042" d="m39 721 14 49q6 14 33 14h332q35 0 41 5.5t0 27.5l-45 170q-6 27-37 31H143q-10-2-15 5t-3 15l2 4q0 4 2 8.5t2 8.5q6 16 8 24 4 10 19 13h37l155 2q27 0 28 10t-13 51q-33 102-56.5 140t-66.5 53q-4 0-8.5 2t-8.5 2-8 4q-4 0-4 12l4 25q0 2 1 7t3 7 23 2q242-6 415 0 23 0 23-12l-8-31q-4-12-19-12-72 0-102.5-20.5T522 1270q0-51 27-123 12-47 49-49 156-8 272 0 29 0 41 20 47 72 64 99 41 63 41 87.5t-23.5 37T901 1358q-10 0-13 2t-1 10l6 29q4 12 31 12 59 2 167.5-2t188.5 4q12 2 19.5-5t3.5-17l-21-31q-92-14-137-60-20-20-53-69-57-82-80-113-10-20 26-20h158q14 0 2-33l-10-35q-8-18-29-14-18 2-194 2-31 0-45-27-80-119-121-172-18-25 2-35 8-2 28-2 16 0 61.5-1t70.5-1q90-4 110 0 8 0 14.5-2t9.5-6 4-8 0-11.5-2-11.5-4-11-3-9q-8-25-31-25-37 6-305 2-53 0-74-51L575 287q-35-115-34-158 0-41 26.5-55.5T684 53q18 0 16-10L688 6q-8-14-35-14Q463 2 166-8q-14 0-14 16l8 31q2 14 26 14 10 0 23.5 1t21 2 13.5 1q14 0 28 6 45 23 62.5 52.5T387 272l119 400q-10 29-41 26H70q-14 2-20.5 3t-9.5 6.5-1 13.5zm559 260 51-199q2-10 6-15t11-3q4 4 20 27 61 78 131 196 10 20 4 25.5t-37 5.5H631q-25 0-32-6t-1-31z"/><glyph unicode="¦" horiz-adv-x="1062" d="M471-39v756h119V-39H471zm0 1014v756h119V975H471z"/><glyph unicode="§" horiz-adv-x="997" d="M-80-393q0 25 21 61 27 39 53 39 33 0 92-41 74-49 100.5-60.5T250-406q92 0 156.5 92.5T471-88q0 84-22.5 156.5T354 291Q235 539 236 702q0 154 82.5 315T539 1288q180 145 376 146 80 0 139.5-29t59.5-72q0-41-22.5-73.5T1038 1227q-37 0-92 43-57 43-90 57t-76 14q-74 0-123-71.5T608 1087q0-164 113-430 78-182 99.5-261T842 221q0-172-101.5-332.5T461-385 117-498q-84 0-140.5 29T-80-393zM336 727q0-172 84-344l65-135q74-152 74-297 0-92-43-199Q743-53 743 209q0 150-102 383-59 137-76 184-47 127-47 262 0 61 23 148-205-244-205-459z"/><glyph unicode="¨" horiz-adv-x="694" d="M225 1098q0 45 31 76.5t76 31.5q43 0 73.5-31.5T436 1098q0-43-31.5-75T332 991q-45 0-76 32t-31 75zm342 2q0 45 32 76.5t77 31.5q43 0 73.5-31.5T780 1100t-30.5-77-73.5-32q-45 0-77 32t-32 77z"/><glyph unicode="©" horiz-adv-x="1583" d="M199 700.5q0 305.5 214 522.5t517 217 518-217 215-522.5T1448 178 930-39 413 178 199 700.5zm77 0q0-274.5 190.5-467T929.5 41t464 192.5 191.5 467-191.5 467-464 192.5-463-192.5-190.5-467zm177-6.5q0 209 148.5 347.5T971 1180q76 0 192-39 25-8 35-8 14 0 23.5 9t21.5 38h29q23 0 24-19l19-241q8-45-17-46h-24q-8 0-13.5 6.5T1253 898t-4 15q-80 205-291 205-150 0-242.5-106.5T623 723q0-199 93-307.5T969 307q190 0 303 152 16 20 35 12l12-8q20-15 8-31-152-205-393-205-205 0-343 134.5T453 694z"/><glyph unicode="ª" horiz-adv-x="542" d="M205 950q0 94 70.5 194.5T453 1303q96 53 192 53h37l-82-377q-10-57-10-68 0-12 8-12t47 35q6 6 17.5 18.5T678 969v-41q-2-4-8-8l-2-2q-4-4-4-7-90-94-129-94-18 0-30.5 17.5T492 879q0 37 18 110-172-172-221-172-33 0-58.5 41T205 950zm92 25q0-37 11-61.5t28-24.5q12 0 53 33 6 6 46 41.5t73 62.5l12 10 53 248q-96-8-147-43-57-37-93-110.5T297 975z"/><glyph unicode="«" horiz-adv-x="913" d="m195 467 403 395h51L348 465 475 72h-55zm352 0 325 348h56L702 465l58-342h-53z"/><glyph unicode="¬" d="M141 877v120h1106V373h-117v504H141z"/><glyph unicode="­" horiz-adv-x="679" d="M123 382q-4 5 0 40 0 12 8 41 8 23 16 24 8 2 27 2h428q10 0 14.5-1t8.5-7 0-18q-4-37-13-68-8-23-26-18H160q-33 0-37 5z"/><glyph unicode="®" horiz-adv-x="1583" d="M160 704.5q0 309.5 217 528.5t522 219 523-219 218-528.5T1422 177 899-41 377 177 160 704.5zm80 .5q0-276 192.5-471t467-195 468 195T1561 705q0 279-193.5 473t-468 194-467-194.5T240 705zm247-441v25q0 12 21 12 57 2 71.5 25.5T594 436v547q0 86-12.5 108.5T516 1116q-16 0-16 14v19q0 23 24 18 182-4 381 0 139 2 227.5-64.5T1221 928q0-166-201-232-23-6-6-30l192-277q35-49 58.5-67.5T1323 301q4 0 7-3t3-7v-9.5l-1-10.5-1-7q0-10-3-12t-13-2h-4q-61 4-154 0-23-4-37 10L825 672h-41q-25 0-24-41V358q0-55 112-57 8 0 9-14v-25q0-16-21-12-193 8-352 0-4-2-12.5 2t-8.5 12zm273 492q0-23 22-23 123 0 189.5 48t66.5 134q0 82-56 136.5T838 1106q-37 0-78-14V756z"/><glyph unicode="¯" horiz-adv-x="694" d="m193 1108 22 78q2 6 4 14 2 10 5 12t18 2h549q48 0 36-45l-18-69q-12-33-37-27H227q-43 0-34 35z"/><glyph unicode="°" horiz-adv-x="825" d="M268 1036q0 133 93.5 227.5T584 1358q131 0 223-94.5t92-227.5-92-227-223-94q-129 0-222.5 94T268 1036zm92 0q0-94 66-159.5T584 811t156.5 65.5T805 1036t-64.5 161-156.5 67-158-67-66-161z"/><glyph unicode="±" d="M141-45V76h1106V-45H141zm0 838v118h492v504h119V911h495V793H752V289H633v504H141z"/><glyph unicode="²" horiz-adv-x="651" d="M170 657.5q0 16.5 23 34.5 6 6 64 55.5t80.5 70 75 67.5 80 76.5T551 1028t47 66q25 45 30 87t-21.5 73.5T520 1286q-109 0-166-110-12-25-43-25-25 0-14 31 27 82 91.5 127t154.5 45q94 0 154.5-46t60.5-118q0-117-211-275-2-2-168-133-57-47-8-47h176q63 0 74 45 2 20 28 21 14 0 18.5-1t8.5-8.5-2-21.5l-23-106q-4-27-65-21-20 0-100 1t-153 1-122-2q-41-2-41 14.5z"/><glyph unicode="³" horiz-adv-x="651" d="M186 684q0 20 17.5 33.5T244 731q14 0 56-19.5t73-19.5q78 0 137 82 57 74 57 154 0 45-24.5 71.5T479 1026q-20 0-80-29-27-12-37 13 4 23 29 41 123 61 167 100t44 78q0 29-20.5 47t-53.5 18q-53 0-110-57-16-14-20.5-16t-22.5 6q-20 16 0 39 76 90 188 90 72 0 119-33t47-84q0-78-117-131-12-6-11-14.5t11-12.5q86-29 86-123 0-98-85-186T399 645q-35-16-124-14t-89 53z"/><glyph unicode="´" horiz-adv-x="694" d="M408 1030q78 248 86 297 8 20 38 21 90 4 134 0 16 4 24-4.5t-2-24.5q-59-82-250-297-6-6-14-7t-13 3-3 12z"/><glyph unicode="¶" horiz-adv-x="933" d="M-18 928q0 186 122.5 290.5T444 1323h490q16 0 16-27 0-41-20-36h-86q-29-4-29-31V-477q0-25-37-21-27 2-35 6.5T733-471v1690q0 41-35 41H588q-31 0-35-33V-479q-2-18-45-19-39 0-39 23v964q0 27-7 35t-30 8q-305 6-403 199-47 90-47 197z"/><glyph unicode="·" horiz-adv-x="608" d="M270 602q0 45 32 77t75 32q45 0 76.5-32t31.5-77-31.5-77.5T377 492q-43 0-75 32.5T270 602z"/><glyph unicode="¸" horiz-adv-x="694" d="M80-379q0 14 14 19 25-2 43-2 88 0 135 31.5t47 90.5q0 68-86 76-18 2-12 23L289-8h43l-23-45q53-8 84-47.5t31-96.5q0-98-76-153.5T141-406q-16 0-45 3-23 12-16 24z"/><glyph unicode="¹" horiz-adv-x="651" d="M295 644q-6 5 0 18 6 18 13 20t44 2q51 0 64 57l98 430q2 23-7 27t-18-4q-76-45-147-70-14-4-19.5-1t-.5 14l8 34q154 55 256 164 23 23 32 21h35q25 0 17-37L537 743q-8-35 7-46t54-13q12 0 19.5-5t5.5-17q-8-25-29-25-168 4-264 2-18-2-23.5-1t-11.5 6z"/><glyph unicode="º" horiz-adv-x="542" d="M229 1020q0 172 185 285 78 51 135 51 53 0 90-56.5t37-134.5q0-106-65.5-193T428 836q-43-18-74-19-49 0-87 61.5T229 1020zm97-4q0-61 26.5-103.5T416 870q63 0 115.5 85t52.5 196q0 63-30 107.5t-73 44.5q-59 0-107-87.5T326 1016z"/><glyph unicode="»" horiz-adv-x="913" d="m190 119 230 350-62 342h54l161-344-327-348h-56zm279-47 303 397-125 393h53l226-395L522 72h-53z"/><glyph unicode="¼" horiz-adv-x="1714" d="M295 644q-6 5 0 18 6 18 13 20t44 2q51 0 64 57l98 430q2 23-7 27t-18-4q-76-45-147-70-14-4-19.5-1t-.5 14l8 34q154 55 256 164 23 23 32 21h35q25 0 17-37L537 743q-8-35 7-46t54-13q12 0 19.5-5t5.5-17q-8-25-29-25-168 4-264 2-18-2-23.5-1t-11.5 6zm27-662 1237 1384q18 27 30.5 32t34.5-5q36-9 18-50L379-70q-25-8-47 9-33 10-10 43zm806 241q-10 20 23 51l420 412q18 16 43 21h20q23 0 13-48l-82-344q-6-27 12-34h70q16 0 16-25l-12-53h-92q-25-16-31-39l-33-148q-6-33-20-34-4-2-11-2l-71 2q-29 0-21 32l37 154q6 27-12 35h-226q-35 0-38 8-2 4-5 12zm134 82q-14-23 4-24h149q23 0 29 30l39 176q4 18-2 22.5t-21-7.5z"/><glyph unicode="½" horiz-adv-x="1714" d="M295 644q-6 5 0 18 6 18 13 20t44 2q51 0 64 57l98 430q2 23-7 27t-18-4q-76-45-147-70-14-4-19.5-1t-.5 14l8 34q154 55 256 164 23 23 32 21h35q25 0 17-37L537 743q-8-35 7-46t54-13q12 0 19.5-5t5.5-17q-8-25-29-25-168 4-264 2-18-2-23.5-1t-11.5 6zm27-662 1237 1384q18 27 30.5 32t34.5-5q36-9 18-50L379-70q-25-8-47 9-33 10-10 43zm798 28v19q12 10 64.5 54t82 69.5 82 72.5 85 81 65.5 73 49 70q25 45 30 87t-21.5 72.5T1470 639q-106 0-163-109-8-16-15.5-20t-27.5-4q-25 0-15 29 27 82 90.5 127t153.5 45q96 0 155.5-45t59.5-117q0-106-209-266-33-25-92-74t-82-68q-45-43-4-47h176q66 0 74 43 2 23 28 23 14 0 18.5-1t8.5-8.5-2-23.5l-20-105q-4-25-68-22-98 6-373 0-35-2-43 14z"/><glyph unicode="¾" horiz-adv-x="1714" d="M186 684q0 20 17.5 33.5T244 731q14 0 56-19.5t73-19.5q78 0 137 82 57 74 57 154 0 45-24.5 71.5T479 1026q-20 0-80-29-27-12-37 13 4 23 29 41 123 61 167 100t44 78q0 29-20.5 47t-53.5 18q-53 0-110-57-16-14-20.5-16t-22.5 6q-20 16 0 39 76 90 188 90 72 0 119-33t47-84q0-78-117-131-12-6-11-14.5t11-12.5q86-29 86-123 0-98-85-186T399 645q-35-16-124-14t-89 53zM322-18l1237 1384q18 27 30.5 32t34.5-5q36-9 18-50L379-70q-25-8-47 9-33 10-10 43zm806 241q-10 20 23 51l420 412q18 16 43 21h20q23 0 13-48l-82-344q-6-27 12-34h70q16 0 16-25l-12-53h-92q-25-16-31-39l-33-148q-6-33-20-34-4-2-11-2l-71 2q-29 0-21 32l37 154q6 27-12 35h-226q-35 0-38 8-2 4-5 12zm134 82q-14-23 4-24h149q23 0 29 30l39 176q4 18-2 22.5t-21-7.5z"/><glyph unicode="¿" horiz-adv-x="825" d="M106-168q0 205 109 307 47 45 123 82 78 39 108.5 64.5T502 356q33 57 49 136 6 20 18 22h21q12 0 10-33-25-240-94-331-29-39-141-103Q267-8 225.5-58.5T184-172q0-70 51.5-117T365-336q53 0 127 25 27 8 45 8 27 0 42-23.5t15-58.5q0-49-55.5-81T403-498q-131 0-214 92.5T106-168zm433 924q4 49 33.5 81.5T643 870q39 0 61.5-28.5T727 768q0-53-29.5-89T623 643q-47 0-66.5 37T539 756z"/><glyph unicode="À" horiz-adv-x="1419" d="M-86 20q2 27 29 27Q25 63 74 98t129 140l852 1108q4 10 22 14 39 12 82 0 25-4 25-33l12-1163q0-59 25.5-82t70.5-29h72q26-4 20-35-2-23-28-22-207 10-578 0-10 0-14 12t1 25.5T784 47q135 0 182.5 35t47.5 133l-2 334q0 6-10.5 14t-18.5 8H580q-14 0-29-14L295 217q-39-51-39-86 0-76 117-80h53q12 0 16-13t-3-27.5T420-4Q191 4-72-4q-18 0-14 24zm742.5 654q7.5-10 29.5-10l291 2q39-1 39 28v424q0 27-13.5 29t-21.5-12L657 694q-8-10-.5-20zM932 1786.5q6 7.5 18 7.5h152q20 0 24-6v-2l2-4 99-312q2-4-2-7t-13-3q-16 0-22 8l-252 299q-12 12-6 19.5z"/><glyph unicode="Á" horiz-adv-x="1419" d="M-86 20q2 27 29 27Q25 63 74 98t129 140l852 1108q4 10 22 14 39 12 82 0 25-4 25-33l12-1163q0-59 25.5-82t70.5-29h72q26-4 20-35-2-23-28-22-207 10-578 0-10 0-14 12t1 25.5T784 47q135 0 182.5 35t47.5 133l-2 334q0 6-10.5 14t-18.5 8H580q-14 0-29-14L295 217q-39-51-39-86 0-76 117-80h53q12 0 16-13t-3-27.5T420-4Q191 4-72-4q-18 0-14 24zm742.5 654q7.5-10 29.5-10l291 2q39-1 39 28v424q0 27-13.5 29t-21.5-12L657 694q-8-10-.5-20zm439.5 805q78 250 86 297 8 20 39 20 90 4 133 0 14 2 23-5.5t-1-23.5q-27-37-70.5-90t-106-123.5-73.5-83.5q-6-6-14-7t-13 3-3 13z"/><glyph unicode="Â" horiz-adv-x="1419" d="M-86 20q2 27 29 27Q25 63 74 98t129 140l852 1108q4 10 22 14 39 12 82 0 25-4 25-33l12-1163q0-59 25.5-82t70.5-29h72q26-4 20-35-2-23-28-22-207 10-578 0-10 0-14 12t1 25.5T784 47q135 0 182.5 35t47.5 133l-2 334q0 6-10.5 14t-18.5 8H580q-14 0-29-14L295 217q-39-51-39-86 0-76 117-80h53q12 0 16-13t-3-27.5T420-4Q191 4-72-4q-18 0-14 24zm742.5 654q7.5-10 29.5-10l291 2q39-1 39 28v424q0 27-13.5 29t-21.5-12L657 694q-8-10-.5-20zM848 1427q-12 2 0 15l299 301q16 18 45 18 12 2 48 0t42-2q31-2 37-30l70-281q4-20-11-21h-12l-162 195q-10 12-26 2l-306-197h-24z"/><glyph unicode="Ã" horiz-adv-x="1419" d="M-86 20q2 27 29 27Q25 63 74 98t129 140l852 1108q4 10 22 14 39 12 82 0 25-4 25-33l12-1163q0-59 25.5-82t70.5-29h72q26-4 20-35-2-23-28-22-207 10-578 0-10 0-14 12t1 25.5T784 47q135 0 182.5 35t47.5 133l-2 334q0 6-10.5 14t-18.5 8H580q-14 0-29-14L295 217q-39-51-39-86 0-76 117-80h53q12 0 16-13t-3-27.5T420-4Q191 4-72-4q-18 0-14 24zm742.5 654q7.5-10 29.5-10l291 2q39-1 39 28v424q0 27-13.5 29t-21.5-12L657 694q-8-10-.5-20zM825 1503q23 248 193 248 70 0 181.5-71.5T1346 1608q70 0 90 121 2 20 22 20 19 0 19-27 0-106-54.5-177.5T1286 1473q-76 0-185.5 71.5T958 1616q-39 0-58-26.5t-34-98.5q-2-16-24-16-18 0-17 28z"/><glyph unicode="Ä" horiz-adv-x="1419" d="M-86 20q2 27 29 27Q25 63 74 98t129 140l852 1108q4 10 22 14 39 12 82 0 25-4 25-33l12-1163q0-59 25.5-82t70.5-29h72q26-4 20-35-2-23-28-22-207 10-578 0-10 0-14 12t1 25.5T784 47q135 0 182.5 35t47.5 133l-2 334q0 6-10.5 14t-18.5 8H580q-14 0-29-14L295 217q-39-51-39-86 0-76 117-80h53q12 0 16-13t-3-27.5T420-4Q191 4-72-4q-18 0-14 24zm742.5 654q7.5-10 29.5-10l291 2q39-1 39 28v424q0 27-13.5 29t-21.5-12L657 694q-8-10-.5-20zM893 1546q0 45 30.5 77t75.5 32q43 0 74-32t31-77q0-43-32-75.5t-73-32.5q-43 0-74.5 32.5T893 1546zm342 2q0 45 31.5 77t74.5 32q45 0 76-32t31-77-31-77.5-76-32.5q-43 0-74.5 32.5T1235 1548z"/><glyph unicode="Å" horiz-adv-x="1419" d="M-86 20q2 27 29 27Q25 63 74 98t129 140l852 1108q4 10 22 14 39 12 82 0 25-4 25-33l12-1163q0-59 25.5-82t70.5-29h72q26-4 20-35-2-23-28-22-207 10-578 0-10 0-14 12t1 25.5T784 47q135 0 182.5 35t47.5 133l-2 334q0 6-10.5 14t-18.5 8H580q-14 0-29-14L295 217q-39-51-39-86 0-76 117-80h53q12 0 16-13t-3-27.5T420-4Q191 4-72-4q-18 0-14 24zm742.5 654q7.5-10 29.5-10l291 2q39-1 39 28v424q0 27-13.5 29t-21.5-12L657 694q-8-10-.5-20zM963 1620q0 82 58 141.5t138 59.5q82 0 138.5-58.5T1354 1620t-56.5-141.5T1159 1421q-80 0-138 58.5T963 1620zm75 0q0-51 35-87t86-36 87 36 36 87-36 88-87 37-86-36-35-89z"/><glyph unicode="Æ" horiz-adv-x="1976" d="M-53 20q6 18 18 23 90 8 158 68 57 47 108 112 8 12 46 59.5t69 86.5l649 827q20 27 21 39 0 16-25.5 24.5T885 1274q-16 2-18.5 8t3.5 18q10 25 31 27 508-8 1045-4 27 0 36-6.5t9-26.5q-16-123-49-258-16-8-21-8-14-2-25 8l-2 27q-10 113-55 158t-158 45h-364q-23-4-29-33l-98-502q-2-14 7-20.5t24-6.5h376q141 0 193 127 4 8 8 13.5t6 5.5h19q16-4 12-27-41-131-66-332-4-27-26-26h-12q-8 2-10.5 7t-.5 15l2 9q0 86-42 116.5T1516 639h-318q-20-2-31-27l-84-417q-4-25-4-39 0-55 40-77t149-22h135q174 0 311 93 49 33 77 61.5t64 83.5h29q14 0 4-31l-84-239q-10-29-45-29-561 8-1036 0-27 0-21 27 6 20 31 20 88 4 126 43t59 145l51 267q4 14-1 19t-24 5H573q-29 0-51-24L322 240q-66-86-66-125t25.5-53.5T391 43q16-10 12-20l-2-5q-2-4-5-7t-6-7-9-6-12-2Q64 4-45-4q-8 6-8 24zm660 576q1-8 5-10t9-2h340q20 0 32 32l121 611q0 27-16 12L616 616q-10-12-9-20z"/><glyph unicode="Ç" horiz-adv-x="1458" d="M59 567q0 219 128 400.5t350.5 286T1026 1358q242 0 447-92 27-12 16-58-4-14-80-266-4-14-17.5-16t-22.5 6-7 18q4 27 4 51 0 289-354 289-311 0-532.5-213T258 555q0-242 123-383T723 31q328 0 545 311 4 8 18 9t23.5-6 5.5-19q-61-156-107-322-2-8-15-8t-24 8q-33 10-61 10-33 0-125-18-158-33-266-33l-17-35q53-8 84-48t31-95q0-98-75.5-153.5T532-424q-16 0-45 2-23 12-16 25 0 14 14 18 25-2 43-2 88 0 135.5 32t47.5 91q0 68-86 76-18 2-13 22l62 125Q410-25 234.5 138T59 567z"/><glyph unicode="È" horiz-adv-x="1355" d="M4 27q8 33 31 32 12 2 35.5 1t31.5-1q74 6 104 40t50 132l180 859q12 57 13 88 0 90-136 90h-53q-23 2-18 28 6 27 39 27h1046q29 0 39-9t6-38q-23-125-53-246 2-6-4-9t-17-3q-12 0-17 5t-6 10 1 16.5 2 17.5q0 102-54.5 147.5T1044 1260H700q-45 0-51-29L545 733q-2-14 8-20t33-6h336q92 0 139 28.5t86 110.5q4 14 31 8 18-2 12-16-25-98-78-371 0-10-16-14-20-4-27 24-2 10-2 23 0 80-45 108.5T848 637H567q-43 0-49-29l-86-409q-10-23-4-40.5t5-31.5 13.5-23.5T466 87t25.5-11 29.5-7 33-4.5 35-1.5h187q186 0 303 84 55 39 81 64t67 78q6 10 17 12t18.5-2 7.5-12q-12-29-32.5-94.5t-37-117.5-22.5-61q-18-18-82-18Q490 4 25-4 17-4 9.5 6T4 27zm728 1760.5q5 6.5 16 6.5h151q20 0 25-6 0-2 2-6l98-312q2-4-2-7t-12-3q-14 0-23 8l-252 299q-8 14-3 20.5z"/><glyph unicode="É" horiz-adv-x="1355" d="M4 27q8 33 31 32 12 2 35.5 1t31.5-1q74 6 104 40t50 132l180 859q12 57 13 88 0 90-136 90h-53q-23 2-18 28 6 27 39 27h1046q29 0 39-9t6-38q-23-125-53-246 2-6-4-9t-17-3q-12 0-17 5t-6 10 1 16.5 2 17.5q0 102-54.5 147.5T1044 1260H700q-45 0-51-29L545 733q-2-14 8-20t33-6h336q92 0 139 28.5t86 110.5q4 14 31 8 18-2 12-16-25-98-78-371 0-10-16-14-20-4-27 24-2 10-2 23 0 80-45 108.5T848 637H567q-43 0-49-29l-86-409q-10-23-4-40.5t5-31.5 13.5-23.5T466 87t25.5-11 29.5-7 33-4.5 35-1.5h187q186 0 303 84 55 39 81 64t67 78q6 10 17 12t18.5-2 7.5-12q-12-29-32.5-94.5t-37-117.5-22.5-61q-18-18-82-18Q490 4 25-4 17-4 9.5 6T4 27zm868 1452q78 250 86 297 8 20 39 20 90 4 133 0 14 2 23.5-5.5t-.5-23.5q-27-37-71-90t-106.5-123.5T903 1470q-6-6-14-7t-13.5 3-3.5 13z"/><glyph unicode="Ê" horiz-adv-x="1355" d="M4 27q8 33 31 32 12 2 35.5 1t31.5-1q74 6 104 40t50 132l180 859q12 57 13 88 0 90-136 90h-53q-23 2-18 28 6 27 39 27h1046q29 0 39-9t6-38q-23-125-53-246 2-6-4-9t-17-3q-12 0-17 5t-6 10 1 16.5 2 17.5q0 102-54.5 147.5T1044 1260H700q-45 0-51-29L545 733q-2-14 8-20t33-6h336q92 0 139 28.5t86 110.5q4 14 31 8 18-2 12-16-25-98-78-371 0-10-16-14-20-4-27 24-2 10-2 23 0 80-45 108.5T848 637H567q-43 0-49-29l-86-409q-10-23-4-40.5t5-31.5 13.5-23.5T466 87t25.5-11 29.5-7 33-4.5 35-1.5h187q186 0 303 84 55 39 81 64t67 78q6 10 17 12t18.5-2 7.5-12q-12-29-32.5-94.5t-37-117.5-22.5-61q-18-18-82-18Q490 4 25-4 17-4 9.5 6T4 27zm582 1400q-12 2 0 15l299 301q16 18 45 18 12 2 48 0t42-2q31-2 37-30l69-281q4-20-10-21h-12l-162 195q-10 12-27 2l-305-197h-24z"/><glyph unicode="Ë" horiz-adv-x="1355" d="M4 27q8 33 31 32 12 2 35.5 1t31.5-1q74 6 104 40t50 132l180 859q12 57 13 88 0 90-136 90h-53q-23 2-18 28 6 27 39 27h1046q29 0 39-9t6-38q-23-125-53-246 2-6-4-9t-17-3q-12 0-17 5t-6 10 1 16.5 2 17.5q0 102-54.5 147.5T1044 1260H700q-45 0-51-29L545 733q-2-14 8-20t33-6h336q92 0 139 28.5t86 110.5q4 14 31 8 18-2 12-16-25-98-78-371 0-10-16-14-20-4-27 24-2 10-2 23 0 80-45 108.5T848 637H567q-43 0-49-29l-86-409q-10-23-4-40.5t5-31.5 13.5-23.5T466 87t25.5-11 29.5-7 33-4.5 35-1.5h187q186 0 303 84 55 39 81 64t67 78q6 10 17 12t18.5-2 7.5-12q-12-29-32.5-94.5t-37-117.5-22.5-61q-18-18-82-18Q490 4 25-4 17-4 9.5 6T4 27zm645 1519q0 45 31 77t76 32q43 0 73.5-32t30.5-77q0-43-31.5-75.5T756 1438q-43 0-75 32.5t-32 75.5zm342 2q0 45 32 77t77 32q43 0 73.5-32t30.5-77-30.5-77.5-73.5-32.5q-45 0-77 32.5t-32 77.5z"/><glyph unicode="Ì" horiz-adv-x="729" d="M47 27q8 25 33 24 100-2 137 37t59 143l183 861q27 86 5 128t-124 48q-25-2-39 3t-6 27q6 25 33 25 258-12 534 0 22 0 10-33-10-29-36-20-100-6-135-38t-58-142L461 229q-23-106 11-145t149-37q27 0 18-29-4-18-23-22Q237 6 61-4 38-4 47 27zm370 1760.5q5 6.5 15 6.5h152q23 0 24-6l2-2q0-4 2-4l99-312q0-10-15-10-16 0-22 8l-254 299q-8 14-3 20.5z"/><glyph unicode="Í" horiz-adv-x="729" d="M47 27q8 25 33 24 100-2 137 37t59 143l183 861q27 86 5 128t-124 48q-25-2-39 3t-6 27q6 25 33 25 258-12 534 0 22 0 10-33-10-29-36-20-100-6-135-38t-58-142L461 229q-23-106 11-145t149-37q27 0 18-29-4-18-23-22Q237 6 61-4 38-4 47 27zm512 1452q6 23 27.5 92t38 125.5T645 1776q8 20 39 20 86 6 133 0 14 2 22.5-5.5T838 1767q-51-74-250-297-6-6-14.5-7t-12.5 3-2 13z"/><glyph unicode="Î" horiz-adv-x="729" d="M47 27q8 25 33 24 100-2 137 37t59 143l183 861q27 86 5 128t-124 48q-25-2-39 3t-6 27q6 25 33 25 258-12 534 0 22 0 10-33-10-29-36-20-100-6-135-38t-58-142L461 229q-23-106 11-145t149-37q27 0 18-29-4-18-23-22Q237 6 61-4 38-4 47 27zm291 1403q-12 2 0 14l299 301q16 18 45 18 12 2 48 0t42-2q31-2 37-30l70-281q4-20-11-20h-12l-162 194q-10 12-26 2l-306-196h-24z"/><glyph unicode="Ï" horiz-adv-x="729" d="M47 27q8 25 33 24 100-2 137 37t59 143l183 861q27 86 5 128t-124 48q-25-2-39 3t-6 27q6 25 33 25 258-12 534 0 22 0 10-33-10-29-36-20-100-6-135-38t-58-142L461 229q-23-106 11-145t149-37q27 0 18-29-4-18-23-22Q237 6 61-4 38-4 47 27zm330 1519q0 47 29.5 78t74.5 31q43 0 74-32t31-77q0-43-31-75.5t-74-32.5-73.5 32.5T377 1546zm342 2q0 45 30.5 77t75.5 32 75-31 30-78q0-45-31-77.5t-74-32.5q-45 0-75.5 32.5T719 1548z"/><glyph unicode="Ð" horiz-adv-x="1583" d="m63 12 7 27q6 14 20 14h6q98 0 132 35t59 168l59 305q0 41-37 41H160q-16-4-26.5 5t-8.5 28q14 45 12 65 6 20 53 21h166q16 6 27 24l70 347q12 68 12 90 0 94-127 94h-41q-18 0-18 12l6 23q6 12 20 12 106 4 606 0 307-2 487.5-162T1579 733q0-313-224.5-527T795-6L92-4Q78-4 69.5 0T63 12zm386 162q0-68 47-93.5T672 55q305 0 507.5 188.5T1382 743q0 141-48 245t-135 162-194.5 86-238.5 28h-61q-39 0-54-45l-90-453q-8-45 29-45 223 6 264 0 12 2 18.5-6t1.5-29l-10-53q-12-31-35-31H575q-18 0-35.5-11T520 561l-65-334q-6-25-6-53z"/><glyph unicode="Ñ" horiz-adv-x="1615" d="M25 25q6 23 22 20 102 14 146.5 62.5T262 279l187 923q-14 18-30 30.5t-37.5 18.5-33.5 9.5-42 6.5-40 5q-18 4-14 26 2 25 22 25 90-4 240 0 55 0 66-16l671-1035q27-39 39 0l166 783q25 115-10 164t-160 57q-10 0-10 22 2 25 20 25 185-8 457 0 25 2 8-29-8-16-18-16-96-14-145.5-64.5T1526 1055L1298-23q-2-8-27.5-9t-35.5 9L532 1077q-23 29-30-8L350 289q-20-111 7.5-167T496 51q20 0 25-5t3-23q-4-27-18-27Q227 6 41-4 18-6 25 25zm706 1415q23 248 193 248 70 0 181.5-72t145.5-72q70 0 90 121 2 20 23 21 18 0 18-27 0-106-54-178t-136-72q-76 0-185.5 71.5T864 1552q-39 0-58.5-26.5T772 1427q-2-16-24-16-18 0-17 29z"/><glyph unicode="Ò" horiz-adv-x="1677" d="M180 588q0 313 237.5 540.5T983 1356q268 0 443.5-179.5T1602 733q0-319-237-544.5T793-37q-268 0-440.5 178T180 588zm193-51q0-238 110.5-373T793 27q260-2 438 220t178 550q0 223-114.5 360T985 1292q-236 0-381-155-106-113-168.5-275T373 537zm513 1250.5q5 6.5 15 6.5h154q18 0 22-6 0-2 2-2l2-4 99-312q2-4-2-7t-13-3q-16 0-22 8l-254 299q-8 14-3 20.5z"/><glyph unicode="Ó" horiz-adv-x="1677" d="M180 588q0 313 237.5 540.5T983 1356q268 0 443.5-179.5T1602 733q0-319-237-544.5T793-37q-268 0-440.5 178T180 588zm193-51q0-238 110.5-373T793 27q260-2 438 220t178 550q0 223-114.5 360T985 1292q-236 0-381-155-106-113-168.5-275T373 537zm594 942q6 23 27.5 92t38 125.5 20.5 79.5q8 20 39 20 88 6 133 0 14 2 23-5.5t-1-23.5q-53-72-252-297-6-6-14-7t-12 3-2 13z"/><glyph unicode="Ô" horiz-adv-x="1677" d="M180 588q0 313 237.5 540.5T983 1356q268 0 443.5-179.5T1602 733q0-319-237-544.5T793-37q-268 0-440.5 178T180 588zm193-51q0-238 110.5-373T793 27q260-2 438 220t178 550q0 223-114.5 360T985 1292q-236 0-381-155-106-113-168.5-275T373 537zm395 895q-12 2 0 14l299 301q16 18 45 18 12 2 48 0t42-2q31-2 37-30l70-281q4-20-11-20h-12l-162 194q-10 12-26 2l-305-196h-25z"/><glyph unicode="Õ" horiz-adv-x="1677" d="M180 588q0 313 237.5 540.5T983 1356q268 0 443.5-179.5T1602 733q0-319-237-544.5T793-37q-268 0-440.5 178T180 588zm193-51q0-238 110.5-373T793 27q260-2 438 220t178 550q0 223-114.5 360T985 1292q-236 0-381-155-106-113-168.5-275T373 537zm327 966q23 248 193 248 70 0 181.5-71.5T1221 1608q70 0 90 121 2 20 22 20 19 0 19-27 0-106-54.5-177.5T1161 1473q-76 0-185.5 71.5T834 1616q-39 0-58.5-26.5T741 1491q-2-16-24-16-18 0-17 28z"/><glyph unicode="Ö" horiz-adv-x="1677" d="M180 588q0 313 237.5 540.5T983 1356q268 0 443.5-179.5T1602 733q0-319-237-544.5T793-37q-268 0-440.5 178T180 588zm193-51q0-238 110.5-373T793 27q260-2 438 220t178 550q0 223-114.5 360T985 1292q-236 0-381-155-106-113-168.5-275T373 537zm411 1009q0 47 30 78t75 31q43 0 73.5-32t30.5-77q0-43-30.5-75.5T889 1438t-74 32.5-31 75.5zm342 2q0 45 31 77t76 32 74.5-31 29.5-78q0-45-30.5-77.5T1233 1438q-45 0-76 32.5t-31 77.5z"/><glyph unicode="×" horiz-adv-x="1392" d="m190 254 422 428-422 432 82 86 424-434 424 434 82-86-424-432 420-428-82-84-418 428-424-428z"/><glyph unicode="Ø" horiz-adv-x="1650" d="M225 588q0 309 236.5 538.5T1018 1356q203 0 360-103 10-6 25 13l119 135q8 6 30.5-8.5t16.5-26.5l-117-137q-14-16-4-27 215-178 215-467 0-322-235.5-547T856-37Q649-37 489 76q-20 14-36-6L301-106q-12-12-25.5-8.5t-21.5 17-2 19.5L401 96q25 31 11 45-186 188-187 447zm193-47q0-178 69-305 12-25 35 0l793 923q12 20-10 41-117 96-277 96-233 0-383-159-104-109-165.5-272T418 541zm133-359q-18-18 4-39Q676 22 858 23q260 0 437.5 223T1473 795q0 182-80 307-23 35-41 14z"/><glyph unicode="Ù" horiz-adv-x="1515" d="M121 1303q6 23 29 22 256-12 544 0 10 0 18.5-8t6.5-19q0-33-37-28-104 4-140-29t-61-151L365 545q-25-117-25-203 0-145 102.5-231T727 25q236 0 352.5 124.5T1239 504l104 555q23 119-16 166t-164 47q-14 0-10 28 4 12 9 19.5t12 5.5q342-6 454 2 23 2 17-31-4-29-27-24-96-12-137-53t-66-175l-104-561q-29-154-92-260Q1061-37 692-37q-178 0-290.5 50T219 170q-57 88-61 187.5T180 553l113 528q10 55 12 97.5t-29.5 68T174 1272h-35q-8 0-14 10t-4 21zm621.5 484.5q5.5 6.5 15.5 6.5h151q20 0 25-6v-2l2-4 98-312q2-4-2-7t-12-3q-14 0-23 8l-252 299q-8 14-2.5 20.5z"/><glyph unicode="Ú" horiz-adv-x="1515" d="M121 1303q6 23 29 22 256-12 544 0 10 0 18.5-8t6.5-19q0-33-37-28-104 4-140-29t-61-151L365 545q-25-117-25-203 0-145 102.5-231T727 25q236 0 352.5 124.5T1239 504l104 555q23 119-16 166t-164 47q-14 0-10 28 4 12 9 19.5t12 5.5q342-6 454 2 23 2 17-31-4-29-27-24-96-12-137-53t-66-175l-104-561q-29-154-92-260Q1061-37 692-37q-178 0-290.5 50T219 170q-57 88-61 187.5T180 553l113 528q10 55 12 97.5t-29.5 68T174 1272h-35q-8 0-14 10t-4 21zm840 176q78 250 86 297 8 20 38 20 90 4 134 0 14 2 23-5.5t-1-23.5q-27-37-71-90t-106.5-123.5T991 1470q-6-6-14-7t-13.5 3-2.5 13z"/><glyph unicode="Û" horiz-adv-x="1515" d="M121 1303q6 23 29 22 256-12 544 0 10 0 18.5-8t6.5-19q0-33-37-28-104 4-140-29t-61-151L365 545q-25-117-25-203 0-145 102.5-231T727 25q236 0 352.5 124.5T1239 504l104 555q23 119-16 166t-164 47q-14 0-10 28 4 12 9 19.5t12 5.5q342-6 454 2 23 2 17-31-4-29-27-24-96-12-137-53t-66-175l-104-561q-29-154-92-260Q1061-37 692-37q-178 0-290.5 50T219 170q-57 88-61 187.5T180 553l113 528q10 55 12 97.5t-29.5 68T174 1272h-35q-8 0-14 10t-4 21zm567 135q-12 2 0 14l297 301q16 16 47 16 23 4 90-2 29 0 37-28l70-281q4-20-12-20h-13l-160 194q-12 12-26 2l-305-196h-25z"/><glyph unicode="Ü" horiz-adv-x="1515" d="M121 1303q6 23 29 22 256-12 544 0 10 0 18.5-8t6.5-19q0-33-37-28-104 4-140-29t-61-151L365 545q-25-117-25-203 0-145 102.5-231T727 25q236 0 352.5 124.5T1239 504l104 555q23 119-16 166t-164 47q-14 0-10 28 4 12 9 19.5t12 5.5q342-6 454 2 23 2 17-31-4-29-27-24-96-12-137-53t-66-175l-104-561q-29-154-92-260Q1061-37 692-37q-178 0-290.5 50T219 170q-57 88-61 187.5T180 553l113 528q10 55 12 97.5t-29.5 68T174 1272h-35q-8 0-14 10t-4 21zm575 243q0 45 31 77t76 32q43 0 73.5-32t30.5-77q0-43-31.5-75.5T803 1438q-43 0-75 32.5t-32 75.5zm342 2q0 45 32 77t75 32q45 0 75.5-32t30.5-77-30.5-77.5-75.5-32.5q-43 0-75 32.5t-32 77.5z"/><glyph unicode="Ý" horiz-adv-x="1308" d="M211 1300q4 23 22 23 195-10 439 0 20-6 14-25-4-25-12-24-70-6-91.5-14.5t-22.5-38 30-99.5l209-477q6-16 8-18t24 18l377 438q80 92 80 125 0 59-127 66-8 4-8 15t7 23.5 18 10.5q205-10 362 0 8 0 15.5-4t5.5-12q-4-18-13-27-68-27-102.5-50.5T1352 1135L831 537l-63-308q-20-100 4.5-137T903 57q49 0 58-2 14-2 5.5-30.5T950-4Q659 4 332-4q-8 4-8 16.5t7 27.5 17 15q129 6 164 29 47 33 72 147l65 308-258 587q-37 86-69.5 115t-92.5 33q-25 0-18 26zm661 179q78 250 86 297 8 20 39 20 90 4 133 0 14 2 23.5-5.5t-.5-23.5q-27-37-71-90t-106.5-123.5T903 1470q-6-6-14-7t-13.5 3-3.5 13z"/><glyph unicode="Þ" horiz-adv-x="1173" d="M96 27q2 12 3 16t5.5 7 7.5 2 13 0 22 3q61 10 91 52.5T291 256l166 836q12 68 12 90 0 94-127 94-29 0-25 31 6 27 41 22 25 0 104-1t167-1 180 2q16 4 22.5-7t-.5-24q-2-14-18-20-78-6-118-44t-60-120q-6-25 4-36t23.5-12 50.5-1h18q143 0 220-17.5t143-66.5q135-105 135-283 0-115-47-201.5t-126-139-174.5-78T682 254q-2 0-24.5-1t-33 0-26.5 4-21.5 11-3.5 21q4 18 10.5 21t26-1 33.5-4q221 0 328 166 74 113 73 256 0 94-37.5 162.5T903 981q-61 23-231 23-49 0-64-31L459 229q-18-96 6-136t127-40q25 0 29-6t0-20q0-2-2.5-10.5T615 6l-3-6-6-5-11-2-17-1Q293 0 113-8 88-8 96 27z"/><glyph unicode="ß" horiz-adv-x="913" d="M-389-383q0 27 19.5 44t45.5 17q39 0 101-47 63-53 106-53 39 0 78 33t64 86Q72-194 104-2l109 623q51 299 96 423 41 119 113 213 59 78 145 126.5t168 48.5q100 0 169-74.5t69-183.5q0-88-51.5-167T784 883q-53-29-98-41-10-2-15-8.5t-2-11.5 13-9q182-94 182-311 0-236-172-414Q579-29 461-29q-51 0-84 22.5T344 55q0 27 17.5 44.5T401 117q37 0 91-58 23-23 43-22 76 0 129 123t53 301q0 184-94 278-31 31-72 54-23 16-21 32 2 18 25 21 90 18 147 63 133 106 134 291 0 80-40 130t-102 50q-59 0-118.5-46T483 1217q-59-127-114-451l-80-461Q232-25 141-211 88-320 10-401q-96-96-213-97-76 0-131 33t-55 82z"/><glyph unicode="à" horiz-adv-x="851" d="M76 199q0 158 108.5 325.5T459 788q145 84 332 89 10 0 12-19L682 246l-4-19q-4-18-8-36.5t-6-38 2-30.5 14-9q27 4 84 69 12 14 27 29 16 16 24-6 6-19-4-35-82-90-104-113-86-82-125-82-66 0-62 113 2 57 21 137 4 18-3.5 19.5T518 231Q272-25 203-25q-51 0-89 68T76 199zm137 43q0-63 19.5-105.5T276 94q29 0 285 242l80 395q6 10 4 20.5t-16 8.5q-125-14-221-80-88-59-141.5-180T213 242zm211 1096.5q6 7.5 18 7.5h152q20 0 22-7 2 0 2-2t3-4l98-311q2-4-2-7t-12-3q-16 0-23 8l-252 299q-12 12-6 19.5z"/><glyph unicode="á" horiz-adv-x="851" d="M76 199q0 158 108.5 325.5T459 788q145 84 332 89 10 0 12-19L682 246l-4-19q-4-18-8-36.5t-6-38 2-30.5 14-9q27 4 84 69 12 14 27 29 16 16 24-6 6-19-4-35-82-90-104-113-86-82-125-82-66 0-62 113 2 57 21 137 4 18-3.5 19.5T518 231Q272-25 203-25q-51 0-89 68T76 199zm137 43q0-63 19.5-105.5T276 94q29 0 285 242l80 395q6 10 4 20.5t-16 8.5q-125-14-221-80-88-59-141.5-180T213 242zm272 788q78 250 86 297 8 20 39 21 88 6 133 0 14 2 23.5-5.5t-.5-23.5q-27-37-71-89t-107.5-126-71.5-82q-6-6-14-7t-13.5 3-3.5 12z"/><glyph unicode="â" horiz-adv-x="851" d="M76 199q0 158 108.5 325.5T459 788q145 84 332 89 10 0 12-19L682 246l-4-19q-4-18-8-36.5t-6-38 2-30.5 14-9q27 4 84 69 12 14 27 29 16 16 24-6 6-19-4-35-82-90-104-113-86-82-125-82-66 0-62 113 2 57 21 137 4 18-3.5 19.5T518 231Q272-25 203-25q-51 0-89 68T76 199zm137 43q0-63 19.5-105.5T276 94q29 0 285 242l80 395q6 10 4 20.5t-16 8.5q-125-14-221-80-88-59-141.5-180T213 242zm160 737q-12 2 0 14l299 301q16 18 45 19 12 2 48 0t42-2q31-2 37-31l69-281q4-20-10-20h-12l-162 195q-10 12-27 2L397 979h-24z"/><glyph unicode="ã" horiz-adv-x="851" d="M76 199q0 158 108.5 325.5T459 788q145 84 332 89 10 0 12-19L682 246l-4-19q-4-18-8-36.5t-6-38 2-30.5 14-9q27 4 84 69 12 14 27 29 16 16 24-6 6-19-4-35-82-90-104-113-86-82-125-82-66 0-62 113 2 57 21 137 4 18-3.5 19.5T518 231Q272-25 203-25q-51 0-89 68T76 199zm137 43q0-63 19.5-105.5T276 94q29 0 285 242l80 395q6 10 4 20.5t-16 8.5q-125-14-221-80-88-59-141.5-180T213 242zm76 792q23 248 192 248 70 0 181.5-71.5T809 1139q70 0 90 121 2 20 23 20 18 0 18-27 0-106-54.5-177.5T750 1004q-76 0-185.5 71.5T422 1147q-39 0-58.5-26.5T330 1022q-2-16-25-16-18 0-16 28z"/><glyph unicode="ä" horiz-adv-x="851" d="M76 199q0 158 107.5 324.5T457 786q141 82 329 86 10 0 13-18L678 244q-18-88-19-109 0-27 17-26 25 0 84 67 16 16 24 29 10 20 23-2 18-25 0-33-4-4-22.5-24.5t-32-35-34-37-37.5-38T644.5 6t-36-22.5T580-25q-68 0-64 113 0 12 12 92 2 10 5.5 25.5t5.5 26 4 16.5l-6 2q4 2 4 4h-9l3-2h-3l-2-2Q278-24 201-25q-51 0-88 68T76 199zm133 43q0-66 19.5-110T274 88q18 0 142 111 82 74 143 135 20 92 86 420-2 6-10 6-129-12-229-80-90-61-143.5-181T209 242zm94 856q0 45 31 76.5t76 31.5q43 0 74.5-31.5T516 1098t-31.5-77-74.5-32q-45 0-76 32t-31 77zm340 2q0 45 32 76.5t77 31.5 75.5-31.5T858 1100q0-47-30.5-79T752 989t-77 33-32 78z"/><glyph unicode="å" horiz-adv-x="851" d="M76 199q0 158 108.5 325.5T459 788q145 84 332 89 10 0 12-19L682 246l-4-19q-4-18-8-36.5t-6-38 2-30.5 14-9q27 4 84 69 12 14 27 29 16 16 24-6 6-19-4-35-82-90-104-113-86-82-125-82-66 0-62 113 2 57 21 137 4 18-3.5 19.5T518 231Q272-25 203-25q-51 0-89 68T76 199zm137 43q0-63 19.5-105.5T276 94q29 0 285 242l80 395q6 10 4 20.5t-16 8.5q-125-14-221-80-88-59-141.5-180T213 242zm207 903q0 82 58.5 141.5T616 1346q82 0 138.5-58.5T811 1145t-56.5-141.5T616 946q-80 0-138 58.5T420 1145zm76 0q0-51 34.5-87t86-36 87 36 35.5 87-35.5 88-87 37-86-36-34.5-89z"/><glyph unicode="æ" horiz-adv-x="1193" d="M76 209q0 254 221 456.5T795 868q29 0 18-32l-14-66q-2-16 3-15t13 9q117 106 234 106 76 0 125-41.5t49-107.5q0-70-54.5-131.5T1018 485q-137-61-266-96-18-2-23-24-12-63-12-115 0-86 42-140.5T864 55q76 0 236 105 14 0 22-8 6-12 2-25Q901-29 768-29q-82 0-138.5 75T573 225q0 25-24 2-104-98-156-141Q258-27 215-27q-27 0-53 25-86 68-86 211zm137 55q0-82 21.5-130T287 86q63 0 295 233l84 416q4 16 1 23.5t-22 5.5q-119-18-203-68-106-63-167.5-179T213 264zm537 201q-4-18 5-22.5t21-.5q37 12 70 25 98 35 164 82 41 29 66.5 76t25.5 92-25.5 72.5T1010 817q-170 0-260-352z"/><glyph unicode="ç" horiz-adv-x="614" d="M40-384q-1 3 3 13 0 8 12 9 102-4 157.5 31.5T268-231q0 66-88 75-10 10-4 23l41 84q6 10 4 20.5T211-16Q148 0 111 59.5T74 205q0 123 56 276.5T298 757t241 122q49 0 79.5-22.5T649 797q0-33-17.5-54.5T588 721q-33 0-99 37-39 20-55 20-68 0-125-145-23-59-44-138t-38.5-179.5 7-168T328 80q96 0 200 127 12 23 37-6 16-18 10-33Q425-6 276-20h-16q-4-2-12-13l-6-10q-6-10 1-17.5t17-7.5q35-6 64.5-40.5T354-193q0-80-75.5-140T53-389q-12 2-13 5z"/><glyph unicode="è" horiz-adv-x="745" d="M78 270q0 233 143.5 423T543 883q80 0 126-40t46-110q0-150-180-241-55-31-158-62-31-10-73-21.5T252 395q-20-8-21-24-10-49-10-109 0-92 45-145.5T383 66q90 2 233 114 18 16 27-6 12-25-4-43-88-76-183.5-116T289-25q-88 0-149.5 85T78 270zm180 215q-2-12 7-15t26 3q113 27 192 66 115 59 123 170 4 47-21.5 78.5T512 817q-109-4-164-102-47-88-49-94-23-51-41-136zm63 854.5q5 6.5 15 6.5h151q20 0 25-7 0-2 4-6l96-311q2-4-1-7t-11-3q-16 0-22 8l-254 299q-8 14-3 20.5z"/><glyph unicode="é" horiz-adv-x="745" d="M78 270q0 233 143.5 423T543 883q80 0 126-40t46-110q0-150-180-241-55-31-158-62-31-10-73-21.5T252 395q-20-8-21-24-10-49-10-109 0-92 45-145.5T383 66q90 2 233 114 18 16 27-6 12-25-4-43-88-76-183.5-116T289-25q-88 0-149.5 85T78 270zm180 215q-2-12 7-15t26 3q113 27 192 66 115 59 123 170 4 47-21.5 78.5T512 817q-109-4-164-102-47-88-49-94-23-51-41-136zm162 545q8 25 28.5 92.5t38 125T508 1327q8 20 37 21 90 4 135 0 14 2 22-5.5t-2-23.5q-59-82-249-297-6-6-14.5-7t-13.5 3-3 12z"/><glyph unicode="ê" horiz-adv-x="745" d="M78 270q0 233 143.5 423T543 883q80 0 126-40t46-110q0-150-180-241-55-31-158-62-31-10-73-21.5T252 395q-20-8-21-24-10-49-10-109 0-92 45-145.5T383 66q90 2 233 114 18 16 27-6 12-25-4-43-88-76-183.5-116T289-25q-88 0-149.5 85T78 270zm178 709q-12 2 0 14l299 301q16 18 45 19 12 2 48 0t42-2q31-2 37-31l70-281q4-20-11-20h-12l-162 195q-10 12-26 2L281 979h-25zm2-494q-2-12 7-15t26 3q113 27 192 66 115 59 123 170 4 47-21.5 78.5T512 817q-109-4-164-102-47-88-49-94-23-51-41-136z"/><glyph unicode="ë" horiz-adv-x="745" d="M78 270q0 233 143.5 423T543 883q80 0 126-40t46-110q0-150-180-241-55-31-158-62-31-10-73-21.5T252 395q-20-8-21-24-10-49-10-109 0-92 45-145.5T383 66q90 2 233 114 18 16 27-6 12-25-4-43-88-76-183.5-116T289-25q-88 0-149.5 85T78 270zm174 828q0 43 29.5 72.5T352 1200t71-29.5 30-72.5q0-41-30-72t-71-31-70.5 31-29.5 72zm6-613q-2-12 7-15t26 3q113 27 192 66 115 59 123 170 4 47-21.5 78.5T512 817q-109-4-164-102-47-88-49-94-23-51-41-136zm320 615q0 43 29.5 72.5T680 1202q41 0 69.5-29.5T778 1100t-28.5-74-69.5-31q-43 0-72.5 31t-29.5 74z"/><glyph unicode="ì" horiz-adv-x="522" d="M107.5 646q-1.5 11 3.5 18 186 207 253.5 206.5T403 745L285 154q-12-63 8-64 16 0 61 49t70 82q6 8 17.5 4t16.5-13-1-19q-57-74-129-140-88-82-133-82-84 0-52 160l105 531q0 2 3 11t5 18 3 20.5-1 17.5-8 6q-14 0-34.5-20.5t-44.5-49-36-36.5q-10-8-18-1t-9.5 18zm14.5 693.5q5 6.5 15 6.5h152q20 0 24-7l2-2v-4l99-311q2-4-1-7t-12-3q-16 0-24 8l-252 299q-8 14-3 20.5z"/><glyph unicode="í" horiz-adv-x="522" d="M107.5 646q-1.5 11 3.5 18 186 207 253.5 206.5T403 745L285 154q-12-63 8-64 16 0 61 49t70 82q6 8 17.5 4t16.5-13-1-19q-57-74-129-140-88-82-133-82-84 0-52 160l105 531q0 2 3 11t5 18 3 20.5-1 17.5-8 6q-14 0-34.5-20.5t-44.5-49-36-36.5q-10-8-18-1t-9.5 18zM313 1030q78 248 86 297 8 20 39 21 90 4 133 0 16 4 24.5-4.5T594 1319q-59-82-250-297-6-6-14-7t-13.5 3-3.5 12z"/><glyph unicode="î" horiz-adv-x="522" d="M80 979q-12 2 0 14l299 301q16 18 45 19 12 2 48 0t42-2q31-2 37-31l70-281q4-20-11-20h-12l-162 195q-10 12-26 2L104 979H80zm27.5-333q-1.5 11 3.5 18 186 207 253.5 206.5T403 745L285 154q-12-63 8-64 16 0 61 49t70 82q6 8 17.5 4t16.5-13-1-19q-57-74-129-140-88-82-133-82-84 0-52 160l105 531q0 2 3 11t5 18 3 20.5-1 17.5-8 6q-14 0-34.5-20.5t-44.5-49-36-36.5q-10-8-18-1t-9.5 18z"/><glyph unicode="ï" horiz-adv-x="522" d="M107.5 646q-1.5 11 3.5 18 186 207 253.5 206.5T403 745L285 154q-12-63 8-64 16 0 61 49t70 82q6 8 17.5 4t16.5-13-1-19q-57-74-129-140-88-82-133-82-84 0-52 160l105 531q0 2 3 11t5 18 3 20.5-1 17.5-8 6q-14 0-34.5-20.5t-44.5-49-36-36.5q-10-8-18-1t-9.5 18zm3.5 452q0 45 30.5 76.5T217 1206q43 0 74-31.5t31-76.5q0-43-32-75t-73-32q-45 0-75.5 32t-30.5 75zm342 2q0 45 31.5 76.5T561 1208q43 0 74-31.5t31-76.5-31-77-74-32q-45 0-76.5 32t-31.5 77z"/><glyph unicode="ð" horiz-adv-x="868" d="M94 305q0 291 283 481 127 86 215 86 25 0 47-12 6-2 11 8.5t5 18.5q-10 113-45 194-4 6-15 11.5t-17 3.5l-191-62q-8-2-13 1t-7 5l-2 4-5 15q0 10 13 18l178 53q25 12 12 37-25 43-47 65.5t-84 67.5q-16 8-12 29l8 14q12 16 37 9 113-47 199-158 12-20 41-14l131 43q20 8 24-11l6-24-139-47q-25-6-10-31 74-129 80-323.5t-44.5-375-174-309.5T291-27q-82 0-139.5 97.5T94 305zm144 8q0-113 39.5-184.5T377 57q104 0 184 144.5T641 539q0 102-46 174.5T487 786q-96 0-172.5-144T238 313z"/><glyph unicode="ñ" horiz-adv-x="960" d="M100 582q-12 25 0 41 193 260 262 256 51-2 31-105-37-195-63-315-4-14 0-14.5t22 22.5q8 10 60.5 80.5t87.5 114T587 762t100 87 87 30q88 0 88-127 0-59-16-125L723 154q-23-80-4-84 16-6 94 80 51 59 78 92 19 20 29 10 4-6 7-10t3-9.5V225l-3-7-4-7-6.5-9-7.5-9Q837 93 760.5 34T635-25q-94 0-55 160l133 533q25 98-21 98-14 0-33.5-12.5t-44-35-48-48T513 609t-52.5-65.5-50-67.5-44-60.5-38-52T303 328L240 16q-4-27-12.5-33T195-23h-58q-47 0-33 41l132 658q0 27-7 26-4 0-8-2-10-6-47-53t-51-67q-4-4-12.5-3t-10.5 5zm160 393q66 266 258 266 80 0 182-84 70-59 115-59 37 0 62.5 30.5T934 1243q2 8 24 8 12 0 15-6 2-6 2-16-2-4-2-10-23-111-91.5-173.5T723 983q-84 0-180 82-76 63-115 63-59 0-111-112 0-4-2-6l-2-9-2-8q-4-8-6-14-10-10-29-14-16 0-16 10z"/><glyph unicode="ò" horiz-adv-x="815" d="M78 317.5q0 131.5 73.5 256T358 788q131 90 213 91 72 0 133.5-97.5T766 561q0-195-113-342-47-61-121.5-120.5T383 8q-72-33-115-33-70 0-130 105.5t-60 237zm145-8.5q0-102 41-175t96-73q102 0 183.5 144T625 535q0 109-46.5 181T467 788q-96 0-170-144t-74-335zm150 1029.5q6 7.5 18 7.5h152q18 0 22-7l2-2q2-2 2-4l99-311q2-4-2-7t-13-3q-16 0-22 8l-252 299q-12 12-6 19.5z"/><glyph unicode="ó" horiz-adv-x="815" d="M78 317.5q0 131.5 73.5 256T358 788q131 90 213 91 72 0 133.5-97.5T766 561q0-195-113-342-47-61-121.5-120.5T383 8q-72-33-115-33-70 0-130 105.5t-60 237zm145-8.5q0-102 41-175t96-73q102 0 183.5 144T625 535q0 109-46.5 181T467 788q-96 0-170-144t-74-335zm252 721q78 250 86 297 8 20 39 21 86 4 133 0 14 2 23.5-5.5t-.5-23.5q-49-70-252-297-4-6-12.5-7t-13.5 3-3 12z"/><glyph unicode="ô" horiz-adv-x="815" d="M78 317.5q0 131.5 73.5 256T358 788q131 90 213 91 72 0 133.5-97.5T766 561q0-195-113-342-47-61-121.5-120.5T383 8q-72-33-115-33-70 0-130 105.5t-60 237zm145-8.5q0-102 41-175t96-73q102 0 183.5 144T625 535q0 109-46.5 181T467 788q-96 0-170-144t-74-335zm64 670q-12 2 0 14l299 301q16 18 45 19 12 2 48 0t42-2q31-2 37-31l69-281q4-20-10-20h-12l-162 195q-10 12-27 2L311 979h-24z"/><glyph unicode="õ" horiz-adv-x="815" d="M78 317.5q0 131.5 73.5 256T358 788q131 90 213 91 72 0 133.5-97.5T766 561q0-195-113-342-47-61-121.5-120.5T383 8q-72-33-115-33-70 0-130 105.5t-60 237zm145-8.5q0-102 41-175t96-73q102 0 183.5 144T625 535q0 109-46.5 181T467 788q-96 0-170-144t-74-335zm17 725q23 248 192 248 70 0 181.5-71.5T760 1139q70 0 90 121 2 20 22 20 19 0 19-27 0-106-54.5-177.5T700 1004q-76 0-185 71.5T373 1147q-39 0-58.5-26.5T281 1022q-2-16-25-16-18 0-16 28z"/><glyph unicode="ö" horiz-adv-x="815" d="M78 317.5q0 131.5 73.5 256T358 788q131 90 213 91 72 0 133.5-97.5T766 561q0-195-113-342-47-61-121.5-120.5T383 8q-72-33-115-33-70 0-130 105.5t-60 237zm145-8.5q0-102 41-175t96-73q102 0 183.5 144T625 535q0 109-46.5 181T467 788q-96 0-170-144t-74-335zm70 789q0 45 30.5 76.5T397 1206t75-31.5 32-76.5q0-43-32-75t-75-32-73.5 32-30.5 75zm342 2q0 45 31.5 76.5T741 1208q45 0 76-31.5t31-76.5-31-77-76-32q-43 0-74.5 32t-31.5 77z"/><glyph unicode="÷" horiz-adv-x="1392" d="M143 625v116h1106V625H143zm471-365q0 33 22.5 55.5T694 338q33 0 54.5-22.5T770 260t-21.5-55.5-54-22.5-56.5 22.5-24 55.5zm0 858q0 31 25 51.5t55.5 20.5 53-21.5T770 1114t-22.5-56.5T694 1034q-35 0-58.5 24.5T614 1118z"/><glyph unicode="ø" horiz-adv-x="825" d="m61 14 60 72q14 16 4 45-31 84-31 176 0 207 162 375 72 78 169 133t161 55q57 0 121-75 8-12 30 10l49 59q10 10 21 0l6-8q10-14-2-29l-53-63q-20-20-10-43 31-68 30-166 0-195-110-340-47-61-122-120.5T397 4q-72-33-112-33-63 0-113 74-14 16-31-2L90-16q-16-16-24-2-16 18-5 32zm177 297q0-33 2-47 2-18 6-22t8-1 14 15l330 387q16 21 6 39-45 98-123 98-94 0-168.5-142T238 311zm28-155Q309 56 375 55q102 0 182 143.5T637 526q0 35-4 58-6 31-33-2L274 199q-18-20-8-43z"/><glyph unicode="ù" horiz-adv-x="997" d="M129 613.5q-2 11.5 2 19.5 41 61 126 151t130 90q68 0 35-145L322 225q-6-33-8.5-53t1.5-38.5 23.5-13.5 54.5 36q74 68 179.5 223.5T707 627q18 55 45 221 6 33 45 33 27-2 63 0 41 0 31-52L762 170q-12-59 24-33 14 10 35 33 55 59 76 86 10 16 25-4 10-15 6-29-78-98-161-173T651-25q-43 0-43 64 0 133 66 381 6 20 0 20-8 0-25-22-123-193-239.5-318T227-25q-92 0-45 252l92 463q8 37 0 37-12 0-29.5-15.5T214 679t-30.5-41-21.5-28q-10-12-20.5-10T129 613.5zm280 726q5 6.5 15 6.5h151q23 0 25-7 2 0 2-2t2-4l96-311q2-4-1-7t-11-3q-16 0-22 8l-254 299q-8 14-3 20.5z"/><glyph unicode="ú" horiz-adv-x="997" d="M129 613.5q-2 11.5 2 19.5 41 61 126 151t130 90q68 0 35-145L322 225q-6-33-8.5-53t1.5-38.5 23.5-13.5 54.5 36q74 68 179.5 223.5T707 627q18 55 45 221 6 33 45 33 27-2 63 0 41 0 31-52L762 170q-12-59 24-33 14 10 35 33 55 59 76 86 10 16 25-4 10-15 6-29-78-98-161-173T651-25q-43 0-43 64 0 133 66 381 6 20 0 20-8 0-25-22-123-193-239.5-318T227-25q-92 0-45 252l92 463q8 37 0 37-12 0-29.5-15.5T214 679t-30.5-41-21.5-28q-10-12-20.5-10T129 613.5zM549 1030q8 25 28.5 92.5t38 125T637 1327q8 20 37 21 90 4 135 0 14 2 22-5.5t-2-23.5q-59-82-249-297-6-6-14.5-7t-13.5 3-3 12z"/><glyph unicode="û" horiz-adv-x="997" d="M129 613.5q-2 11.5 2 19.5 41 61 126 151t130 90q68 0 35-145L322 225q-6-33-8.5-53t1.5-38.5 23.5-13.5 54.5 36q74 68 179.5 223.5T707 627q18 55 45 221 6 33 45 33 27-2 63 0 41 0 31-52L762 170q-12-59 24-33 14 10 35 33 55 59 76 86 10 16 25-4 10-15 6-29-78-98-161-173T651-25q-43 0-43 64 0 133 66 381 6 20 0 20-8 0-25-22-123-193-239.5-318T227-25q-92 0-45 252l92 463q8 37 0 37-12 0-29.5-15.5T214 679t-30.5-41-21.5-28q-10-12-20.5-10T129 613.5zM340 979q-12 2 0 14l299 301q16 18 45 19 12 2 48 0t42-2q31-2 37-31l70-281q4-20-11-20h-12l-162 195q-10 12-26 2L365 979h-25z"/><glyph unicode="ü" horiz-adv-x="997" d="M129 613.5q-2 11.5 2 19.5 41 61 126 151t130 90q68 0 35-145L322 225q-6-33-8.5-53t1.5-38.5 23.5-13.5 54.5 36q74 68 179.5 223.5T707 627q18 55 45 221 6 33 45 33 27-2 63 0 41 0 31-52L762 170q-12-59 24-33 14 10 35 33 55 59 76 86 10 16 25-4 10-15 6-29-78-98-161-173T651-25q-43 0-43 64 0 133 66 381 6 20 0 20-8 0-25-22-123-193-239.5-318T227-25q-92 0-45 252l92 463q8 37 0 37-12 0-29.5-15.5T214 679t-30.5-41-21.5-28q-10-12-20.5-10T129 613.5zM369 1098q0 47 29.5 77.5T473 1206q43 0 74-31.5t31-76.5q0-43-31-75t-74-32-73.5 32-30.5 75zm340 2q0 45 31.5 76.5T817 1208t75-30.5 30-77.5q0-45-30-77t-75-32-76.5 32-31.5 77z"/><glyph unicode="ý" horiz-adv-x="894" d="M-42-538.5q3 24.5 26 24.5 92 4 114.5 13t46.5 59Q258-215 305-86q61 170 66 225 14 201-12.5 411T276 760q-35 0-102-94-6-8-18.5-25.5T137 614q-12-16-28 7-12 18-3 34 150 221 230 222 90 0 123-272.5T477 143q-2-23 1-27.5t8.5 1.5 15.5 22q270 455 256 574-2 8-17 39-12 25-12 36 0 37 25.5 64t60.5 27q39 0 63.5-31t24.5-80q0-72-72-205-33-57-178-270Q538 127 502 47q-35-78-97.5-230.5T309-410q-33-66-21.5-85t97.5-19h13l12.5-2 9.5-8v-15q-8-27-29-26-203 10-422 2-14 0-11 24.5zM518 1030q78 250 86 297 8 20 39 21 90 4 133 0 14 2 23.5-5.5t-.5-23.5q-27-37-71-89t-107.5-126-71.5-82q-6-6-14.5-7t-13.5 3-3 12z"/><glyph unicode="þ" horiz-adv-x="913" d="M-139-471q10 23 45 25 78 4 116.5 38.5T78-285q2 14 295 1483 12 61-4 62-8 0-21.5-7.5t-27-17.5-26.5-23.5-22.5-23.5-17.5-21l-8-8q-23-25-39-8-18 18 8 51 80 98 161 165t118 67q57 0 24-191L393 618q-6-31 10-30 4 0 11 8 68 86 165 179t158 93q47 0 82-65.5t48.5-132T881 559q0-225-155-406.5T379-29q-41 0-80 9-31 10-39-31l-37-193q-4-16-11-53t-9-47-2-34.5 8-31 24.5-17.5 43-15 65.5-7q27 0 20-24-4-18-12-24.5t-28-4.5q-252 8-441 0-10-2-17 6.5t-3 24.5zm438 606q-10-57 14-74 45-31 101-30 127 0 227 158.5T741 551q0 88-24.5 144.5T655 752q-35 0-119.5-90.5T358 436z"/><glyph unicode="ÿ" horiz-adv-x="894" d="M-42-538.5q3 24.5 26 24.5 92 4 114.5 13t46.5 59Q258-215 305-86q61 170 66 225 14 201-12.5 411T276 760q-35 0-102-94-6-8-18.5-25.5T137 614q-12-16-28 7-12 18-3 34 150 221 230 222 90 0 123-272.5T477 143q-2-23 1-27.5t8.5 1.5 15.5 22q270 455 256 574-2 8-17 39-12 25-12 36 0 37 25.5 64t60.5 27q39 0 63.5-31t24.5-80q0-72-72-205-33-57-178-270Q538 127 502 47q-35-78-97.5-230.5T309-410q-33-66-21.5-85t97.5-19h13l12.5-2 9.5-8v-15q-8-27-29-26-203 10-422 2-14 0-11 24.5zM350 1098q0 43 30 72.5t71 29.5 70.5-29.5T551 1098q0-41-29.5-72T451 995t-71 31-30 72zm326 2q0 43 29.5 72.5T776 1202q43 0 72-29.5t29-72.5-29-74-72-31q-41 0-70.5 31t-29.5 74z"/><glyph unicode="Œ" horiz-adv-x="2148" d="M190 584q0 246 151 445.5T727 1292q150 41 346 41 61 0 92-2l174-6h797q25 1 21-22-4-41-14.5-92.5t-25-107.5-16.5-69q-6-6-19.5-6t-19.5 6v25q0 111-50 157t-171 46h-301q-45 0-63-31l-105-516q-2-16 37-17h348q156 4 199 140 16 12 45 0-6-47-19.5-116t-31-148.5T1927 467q-4-10-24.5-9t-22.5 11q2 6 2 18 0 88-41 119t-164 31h-293q-8-2-19-13.5t-13-19.5l-82-409q-8-23-4-40.5t4-31.5 12-24.5 18.5-17.5 24.5-11 28.5-7.5 32-4.5 35-1h70.5q92 0 139 3t116 23.5 130 63.5q86 57 137 138 4 4 27 10 6 0 12-3t4-9q-12-41-96-246-6-14-12-24.5T1934.5-1 1924-5t-12 0-14 1h-821q-12 0-127-4-111-4-145-4-279 0-447 162.5T190 584zm189-37q0-233 118.5-366.5T823 47q106 0 183 41 49 27 75.5 81t51.5 177l139 696q10 47 10 82 0 150-250 150-279 0-465-221-188-221-188-506z"/><glyph unicode="œ" horiz-adv-x="1189" d="M68 281q0 317 282 514 109 74 191 73 117 0 168-172 6-25 28 4 121 168 297 168 82 0 130-41.5t48-111.5q0-129-180-219-141-70-297-111-8-2-10-2t-7-4-7-12.5-4-22.5q-4-31-5-84 0-209 158-209 100 0 244 111 12 12 20-6 8-23-2-33Q927-29 774-29q-127 0-184 156-14 37-35 12-55-57-117-98-113-72-184-72-76 0-131 93.5T68 281zm139 61q0-283 153-283 88 0 161 150t73 336q0 106-38 174.5T463 788q-100 0-178-131t-78-315zm521 98.5q5-8.5 24-4.5 166 45 255 117t89 158q0 47-30 76.5T991 817q-182 0-262-348-6-20-1-28.5z"/><glyph unicode="Ÿ" horiz-adv-x="1308" d="M211 1300q4 23 22 23 195-10 439 0 20-6 14-25-4-25-12-24-70-6-91.5-14.5t-22.5-38 30-99.5l209-477q6-16 8-18t24 18l377 438q80 92 80 125 0 59-127 66-8 4-8 15t7 23.5 18 10.5q205-10 362 0 8 0 15.5-4t5.5-12q-4-18-13-27-68-27-102.5-50.5T1352 1135L831 537l-63-308q-20-100 4.5-137T903 57q49 0 58-2 14-2 5.5-30.5T950-4Q659 4 332-4q-8 4-8 16.5t7 27.5 17 15q129 6 164 29 47 33 72 147l65 308-258 587q-37 86-69.5 115t-92.5 33q-25 0-18 26zm479 246q0 45 31 77t76 32q43 0 73.5-32t30.5-77q0-43-31.5-75.5T797 1438q-43 0-75 32.5t-32 75.5zm342 2q0 45 32 77t77 32q43 0 73.5-32t30.5-77-30.5-77.5-73.5-32.5q-45 0-77 32.5t-32 77.5z"/><glyph unicode="ˆ" horiz-adv-x="694" d="M201 979q-12 2 0 14l299 301q16 18 45 19 12 2 48 0t42-2q31-2 37-31l69-281q4-20-10-20h-12l-162 195q-10 12-27 2L225 979h-24z"/><glyph unicode="˜" horiz-adv-x="694" d="M176 1034q23 248 193 248 70 0 181.5-71.5T696 1139q70 0 90 121 2 20 23 20 18 0 18-27 0-106-54-177.5T637 1004q-76 0-185.5 71.5T309 1147q-39 0-58.5-26.5T217 1022q-2-16-24-16-18 0-17 28z"/><glyph horiz-adv-x="910"/><glyph horiz-adv-x="1821"/><glyph horiz-adv-x="910"/><glyph horiz-adv-x="1821"/><glyph horiz-adv-x="607"/><glyph horiz-adv-x="455"/><glyph horiz-adv-x="303"/><glyph horiz-adv-x="303"/><glyph horiz-adv-x="227"/><glyph horiz-adv-x="364"/><glyph horiz-adv-x="101"/><glyph unicode="‐" horiz-adv-x="679" d="M123 382q-4 5 0 40 0 12 8 41 8 23 16 24 8 2 27 2h428q10 0 14.5-1t8.5-7 0-18q-4-37-13-68-8-23-26-18H160q-33 0-37 5z"/><glyph unicode="‑" horiz-adv-x="679" d="M123 382q-4 5 0 40 0 12 8 41 8 23 16 24 8 2 27 2h428q10 0 14.5-1t8.5-7 0-18q-4-37-13-68-8-23-26-18H160q-33 0-37 5z"/><glyph unicode="‒" horiz-adv-x="679" d="M123 382q-4 5 0 40 0 12 8 41 8 23 16 24 8 2 27 2h428q10 0 14.5-1t8.5-7 0-18q-4-37-13-68-8-23-26-18H160q-33 0-37 5z"/><glyph unicode="–" horiz-adv-x="1263" d="m121 408 6 61q0 18 25 23h970q12 0 20.5-9.5t8.5-17.5l-6-66q-2-18-33-18H141q-25 0-20 27z"/><glyph unicode="—" horiz-adv-x="1683" d="M180 401q0 12 3 25.5t3 22.5q0 39 35 38h1278q27-8 31-18 8-4 2-33.5t-6-38.5q-12-25-29-22H213q-12-2-23.5 5t-9.5 21z"/><glyph unicode="‘" horiz-adv-x="608" d="M395 952q0 115 79 218.5T694 1346q25 6 33-17 6-18-14-24-98-66-139.5-117T532 1079q0-43 27-86 31-47 31-90 0-41-23.5-69.5T506 805q-47 0-79 42t-32 105z"/><glyph unicode="’" horiz-adv-x="559" d="M257 799.5q1 13.5 11 21.5 100 66 141.5 117t41.5 109q0 43-27 83-31 47-31 93 0 41 23.5 68.5T477 1319q47 0 80-39.5t33-105.5q0-113-80-218.5T291 778q-14-8-24.5 0t-9.5 21.5z"/><glyph unicode="‚" horiz-adv-x="608" d="M139-338q2 14 8 19 100 68 141.5 120T330-88q0 41-29 88-33 51-33 94 0 45 24.5 74t63.5 29q51 0 82-43t31-111q0-233-299-408-6-4-29 11-4 2-2 16z"/><glyph unicode="“" horiz-adv-x="1042" d="M426 952q0 115 79 218.5T723 1346q15 3 25-7 12-23-5-34-98-66-139-117t-41-109q0-43 27-86 31-51 31-90 0-41-24-69.5T537 805q-49 0-80 42t-31 105zm412 0q0 115 77.5 219.5T1133 1346q16 10 26-13 4-8 3-17t-7-11q-4-4-24.5-19.5T1104 1266t-24.5-18.5-25.5-21.5l-21.5-21.5-20.5-22.5-15.5-22.5-13.5-26-7-25.5-3-29q0-39 28-86 31-51 31-90 0-41-24.5-69.5T948 805q-49 0-79.5 42T838 952z"/><glyph unicode="”" horiz-adv-x="1042" d="M331 816.5q-9 19.5 7 29.5 98 66 139 117t41 110q0 39-26 82-31 51-31 92 0 43 23.5 71t60.5 28q49 0 78.5-42t29.5-108q0-115-78.5-218.5T358 805q-18-8-27 11.5zm405 1Q725 840 750 846q98 66 139 117t41 110q0 43-27 84-31 49-31 90 0 43 24 71t60 28q47 0 77-42t30-108q0-113-77-216T770 805q-23-10-34 12.5z"/><glyph unicode="„" horiz-adv-x="1042" d="M83-332q1 10 7 13 100 68 141 120t41 111q0 41-28 88-33 49-33 94t24.5 74 63.5 29q49 0 80-43t31-111q0-119-79-225.5T109-365q-6-2-15.5 3.5T86-346q-4 4-3 14zm423-20q-10 20 6 33 100 68 141 120t41 111q0 41-28 88-31 51-31 94 0 45 24.5 74t61.5 29q49 0 81-44t32-110q0-119-80-225.5T530-365q-4-2-14 3.5t-10 9.5z"/><glyph unicode="•" horiz-adv-x="737" d="M233 664q0 109 76 185.5T491.5 926 675 849.5 752 664q0-111-76-188t-184-77q-106 0-182.5 77T233 664z"/><glyph unicode="…" horiz-adv-x="2082" d="M256 86q6 49 34.5 80t67.5 31 61.5-28T442 98q0-55-29.5-91T338-29q-47 0-67.5 33T256 86zm692 0q6 49 35 80t70 31q86 0 86-111 0-53-30-84t-75-31q-53 0-71.5 37T948 86zm690 2q4 49 35 79t72 30q39 0 62.5-28t23.5-71q0-53-29.5-90T1726-29q-47 0-69.5 36T1638 88z"/><glyph horiz-adv-x="364"/><glyph unicode="‹" horiz-adv-x="1495" d="M-356-446q4 29 19 43t28.5 16 38.5 0q10 0 21-7t17.5-13.5T-214-426t15-16q43-39 80-39 43 0 87 32.5T37-367q27 55 49 158 8 37 23.5 120T133 33q25 127 119 684 2 16-4 29.5T225 758l-86 6q-6-2-10 3t-4 17q4 25 20 35 96 8 125 27 51 240 68 284 59 166 135 261 55 66 140 105.5t159 39.5q111 0 146-82 29-66-15-104-27-23-67-19-31 2-79 58.5t-91 56.5q-31 0-68-18.5t-55-49.5q-49-80-90-323l-29-166q-2-16 15.5-27.5T475 850h273q26 0 36 4 31 10 39 61 16 121 51 220 55 164 132 260 55 70 134 108.5t152 38.5q61 0 114.5-38t51.5-85q-6-96-100-76-29 8-72 59.5t-88 49.5q-29 0-64.5-19.5T1077 1382q-51-82-92-323l-27-156q-4-18 5.5-34.5T987 850q82-4 166 0 76 0 117 6 29 2 78 16 49 8 49-8l-125-743q0-4-1-12.5t-1-12.5q0-20 18-20 43 0 142 125 8 10 19 7t18.5-16.5 5.5-27.5Q1321-31 1206-31q-102 0-76 152 12 78 33 188.5t36 201.5 30 181q12 66-35 66-150 4-215 2-20 0-35-10-2-2-14-27l-90-498Q815 86 801.5 24.5t-49-180-89-198.5T535-489q-100-74-203-74-63 0-113.5 37T176-449q12 68 86 60 10 0 21.5-7t18.5-13.5 19.5-17.5 16.5-15q39-39 76-39 45 0 89 32.5t68 81.5q27 53 58 195 27 141 37 205 18 92 114 659 4 23-9 45.5T735 760q-66 4-123 4H469q-70-8-78-55l-86-486Q250-90 195-221 123-401 2-489q-100-74-203-74-66 0-115 37t-40 80z"/><glyph unicode="›" horiz-adv-x="1509" d="M-358-446q6 29 21 43t28.5 16 38.5 0q12 0 24.5-8t30.5-27l18-18q39-39 78-39 43 0 87 32.5t68.5 80T84-209q8 37 23.5 120T131 33q25 127 119 684 2 16-4 29.5T225 758l-86 6q-14-4-14 14-2 29 20 41 94 8 125 25 39 203 68 286 59 170 135 259 55 68 140 107.5t159 39.5q111 0 148-82 29-66-15-106-27-25-69-19-31 2-80 58.5t-90 56.5q-31 0-67-18.5t-56-49.5q-49-80-90-323l-29-166q-2-16 15.5-26.5T475 850h244q76 0 86 45 27 137 59 235 57 172 133 261 45 55 113 96t144.5 52 144.5-30q23-10 39-2 12 4 49 29 12 14 24.5 14t16.5-16L1288 143q-8-53 17-53 43 0 135 115 8 10 23.5 5t21.5-18.5 0-25.5Q1331-31 1217-31q-72 0-78 78-4 45 12 133l96 522q6 12 1 36t-23 26q-76 2-169 0t-102-2q-33-8-39-45l-84-494Q811 98 794.5 25.5t-50-184-89-193.5T526-489q-100-74-202-74-66 0-116 37t-42 80q4 29 20.5 43t29.5 16 38 0q10 0 21.5-6t18.5-12.5 19.5-18.5 16.5-16q39-39 76-39 43 0 87 31.5t68 80.5q25 47 47 158 25 121 47 242 25 125 119 684 6 35-18 41-33 2-35 2h-25q-23 0-58.5-1t-72.5-1H455q-56-4-64-49l-86-486q-20-115-28.5-156.5t-36-148-54-164-75-128T2-489q-100-74-203-74-66 0-116 37t-41 80zM950 899q-4-14 1-32.5t16-18.5h266q45 0 51 41l84 444q-55 98-144 116.5t-157-73.5q-49-80-90-323z"/><glyph horiz-adv-x="455"/><glyph unicode="€" horiz-adv-x="948" d="M14 481q0 18 12.5 38T55 539h119q0 66 14 151H90q-29 0-29 23 0 18 12.5 37.5T102 770h105q51 190 211 337.5T764 1255t315-84q20-14 11-55-16-68-48-237-2-12-28-13-25 0-25 35 0 299-213 299-137 0-236.5-117.5T399 770h412q29 0 29-22 0-18-12.5-38T799 690H385q-10-74-12-151h391q29 0 29-23 0-18-12.5-37.5T752 459H373q2-186 55-314.5T594 16q104 0 191 68t139 201q8 25 30 24 29 0 23-28-25-92-59-285-18 8-70 8-20 0-114.5-20.5T561-37Q395-37 291.5 83T176 459H43q-29 0-29 22z"/><glyph unicode="™" horiz-adv-x="2039" d="M18.5 1187q-2.5 5 1.5 38l17 151q2 20 9 25.5t32 5.5q315-8 674 0 31 2 40-5t11-36l16-147q4-18 2-27.5t-24-9.5h-27q-14 84-54 114.5T580 1327h-37l-12.5-2-11.5-6-5-13.5-2-21.5V739q0-76 15.5-98.5T598 612h18q4-2 5-28v-17q0-6-3-6-4-4-32-4-129 4-326 0-29 0-34 4t-5 25v16q0 8 8 10h13q55 8 68.5 29t13.5 96v551q0 14-3.5 23.5T309 1324t-13 4-20.5 0-21.5-1q-92 0-131-30.5T68 1182H37q-16 0-18.5 5zM874 588q0 20 25 24 59 2 74.5 24.5T989 737v482q0 84-14 106.5t-74 24.5q-18 2-22.5 6t-4.5 20v8q0 16 4.5 19.5t18.5 3.5q164-6 266-2 16 2 25-16l248-519q8-14 21-9t20 18l233 510q12 18 37 18h231q16 0 21.5-1t11.5-7 6-21q0-20-4-23t-26-5q-53-2-67.5-26t-14.5-103V739q0-80 13-100.5t71-26.5q25-2 26-8 2-2 2-20 0-16-6-21.5t-24-5.5h-351q-29-2-36 3t-7 26q0 12 3 17t5.5 7 12.5 2h14q57 6 71.5 30t14.5 95v430q0 18-8 19-4 0-8-10l-273-601q-10-18-24-18h-21q-8 0-18 21l-272 585q-14 14-17-20V739q0-84 15.5-105.5T1159 612h31q18 0 18-26 0-29-26-29h-21q-143 6-252 0-27-2-31 2t-4 29z"/><glyph unicode="◼" horiz-adv-x="880" d="M0 0v881h881V0H0z"/><glyph unicode="ﬁ" horiz-adv-x="1032" d="M-305-451q6 29 20.5 42.5T-257-393t35.5 0 53.5-33l10-10 11.5-11.5L-136-458l12-10 12.5-7 14.5-6 15-4 16-2q45 0 90.5 33.5T94-371q18 37 47 160 4 18 49 240 25 125 123 714 2 6-3 14.5t-11 8.5H195q-8-2-10.5 7t-.5 20q4 18 19 24 98 8 129 27 29 174 67 286 59 170 136 261 55 66 141 105.5t160 39.5q111 0 145-80 27-63-16-102-25-23-66-19-10 2-19.5 6.5T860 1354t-15 13-16.5 18.5T815 1401q-47 51-88 49-31 0-68.5-18.5T600 1382q-47-74-92-325l-35-193q-4-20 16-20 98-4 191 0 23 0 49.5 1t41.5 1 28 2q14 2 38.5 8t41.5 8q4 0 12 2t13 3 10.5 2 8.5-1 3-6L797 119q-6-53 16-53 45 0 148 131 8 8 18 6t17-14.5 3-24.5Q849-29 733-29q-96 0-71 148 31 184 104 610 6 39-12 39-143 4-277 0-6 0-11-2t-6-4-4-10.5-5-10.5l-91-518Q340 96 323.5 24.5t-51-184-89-193.5T53-489q-100-74-203-74-66 0-114.5 35.5T-305-451z"/><glyph unicode="ﬂ" horiz-adv-x="997" d="M-350-451q6 29 20.5 42.5T-301-393t37 0q20-2 51-33l10-10 11.5-11.5L-181-458l12-10 12-7 14.5-6 15.5-4 16-2q45 0 90.5 33.5T49-371q23 43 49 160 8 35 23.5 116T145 29q27 137 123 712 2 2 0 8.5t-8 11.5-14 5H141q-18 0-14 22 4 23 25 25 57 6 135 31 39 203 67 286 55 166 135 261 49 59 121 100t154 49 149-43q18 6 72 41 12 14 21.5 13t11.5-13L772 119q-6-49 19-49 39 0 147 133 6 6 18.5 1t18.5-16.5 0-21.5Q823-29 709-29q-68 0-76 76-4 37 14 131l105 561q0 27-21 27H434q-10 0-19-7t-9-22l-91-514Q290 88 276 23.5t-48.5-181-89-196.5T8-489q-100-74-203-74-66 0-114.5 35.5T-350-451zM430 874q-2-8 3-18t20-10q137-4 297 0 20 0 26 20l90 469q-57 102-149 122t-160-75q-49-74-94-325z"/><glyph unicode="ﬃ" horiz-adv-x="1495" d="M-356-446q4 29 19 43t28.5 16 38.5 0q10 0 21-7t17.5-13.5T-214-426t15-16q43-39 80-39 43 0 87 32.5T37-367q27 55 49 158 8 37 23.5 120T133 33q25 127 119 684 2 16-4 29.5T225 758l-86 6q-6-2-10 3t-4 17q4 25 20 35 96 8 125 27 51 240 68 284 59 166 135 261 55 66 140 105.5t159 39.5q111 0 146-82 29-66-15-104-27-23-67-19-31 2-79 58.5t-91 56.5q-31 0-68-18.5t-55-49.5q-49-80-90-323l-29-166q-2-16 15.5-27.5T475 850h273q26 0 36 4 31 10 39 61 16 121 51 220 55 164 132 260 55 70 134 108.5t152 38.5q61 0 114.5-38t51.5-85q-6-96-100-76-29 8-72 59.5t-88 49.5q-29 0-64.5-19.5T1077 1382q-51-82-92-323l-27-156q-4-18 5.5-34.5T987 850q82-4 166 0 76 0 117 6 29 2 78 16 49 8 49-8l-125-743q0-4-1-12.5t-1-12.5q0-20 18-20 43 0 142 125 8 10 19 7t18.5-16.5 5.5-27.5Q1321-31 1206-31q-102 0-76 152 12 78 33 188.5t36 201.5 30 181q12 66-35 66-150 4-215 2-20 0-35-10-2-2-14-27l-90-498Q815 86 801.5 24.5t-49-180-89-198.5T535-489q-100-74-203-74-63 0-113.5 37T176-449q12 68 86 60 10 0 21.5-7t18.5-13.5 19.5-17.5 16.5-15q39-39 76-39 45 0 89 32.5t68 81.5q27 53 58 195 27 141 37 205 18 92 114 659 4 23-9 45.5T735 760q-66 4-123 4H469q-70-8-78-55l-86-486Q250-90 195-221 123-401 2-489q-100-74-203-74-66 0-115 37t-40 80z"/><glyph unicode="ﬄ" horiz-adv-x="1509" d="M-358-446q6 29 21 43t28.5 16 38.5 0q12 0 24.5-8t30.5-27l18-18q39-39 78-39 43 0 87 32.5t68.5 80T84-209q8 37 23.5 120T131 33q25 127 119 684 2 16-4 29.5T225 758l-86 6q-14-4-14 14-2 29 20 41 94 8 125 25 39 203 68 286 59 170 135 259 55 68 140 107.5t159 39.5q111 0 148-82 29-66-15-106-27-25-69-19-31 2-80 58.5t-90 56.5q-31 0-67-18.5t-56-49.5q-49-80-90-323l-29-166q-2-16 15.5-26.5T475 850h244q76 0 86 45 27 137 59 235 57 172 133 261 45 55 113 96t144.5 52 144.5-30q23-10 39-2 12 4 49 29 12 14 24.5 14t16.5-16L1288 143q-8-53 17-53 43 0 135 115 8 10 23.5 5t21.5-18.5 0-25.5Q1331-31 1217-31q-72 0-78 78-4 45 12 133l96 522q6 12 1 36t-23 26q-76 2-169 0t-102-2q-33-8-39-45l-84-494Q811 98 794.5 25.5t-50-184-89-193.5T526-489q-100-74-202-74-66 0-116 37t-42 80q4 29 20.5 43t29.5 16 38 0q10 0 21.5-6t18.5-12.5 19.5-18.5 16.5-16q39-39 76-39 43 0 87 31.5t68 80.5q25 47 47 158 25 121 47 242 25 125 119 684 6 35-18 41-33 2-35 2h-25q-23 0-58.5-1t-72.5-1H455q-56-4-64-49l-86-486q-20-115-28.5-156.5t-36-148-54-164-75-128T2-489q-100-74-203-74-66 0-116 37t-41 80zM950 899q-4-14 1-32.5t16-18.5h266q45 0 51 41l84 444q-55 98-144 116.5t-157-73.5q-49-80-90-323z"/></font>
</defs>
</svg>
